<?xml version="1.0" encoding="UTF-8" standalone="no"?>
<svg
   xmlns:dc="http://purl.org/dc/elements/1.1/"
   xmlns:cc="http://creativecommons.org/ns#"
   xmlns:rdf="http://www.w3.org/1999/02/22-rdf-syntax-ns#"
   xmlns:svg="http://www.w3.org/2000/svg"
   xmlns="http://www.w3.org/2000/svg"
   xmlns:sodipodi="http://sodipodi.sourceforge.net/DTD/sodipodi-0.dtd"
   xmlns:inkscape="http://www.inkscape.org/namespaces/inkscape"
   version="1.1"
   viewBox="0.0 0.0 1280.0 720.0"
   fill="none"
   stroke="none"
   stroke-linecap="square"
   stroke-miterlimit="10"
   id="svg345"
   sodipodi:docname="back_barrier.svg"
   inkscape:version="1.0 (4035a4fb49, 2020-05-01)">
  <metadata
     id="metadata351">
    <rdf:RDF>
      <cc:Work
         rdf:about="">
        <dc:format>image/svg+xml</dc:format>
        <dc:type
           rdf:resource="http://purl.org/dc/dcmitype/StillImage" />
        <dc:title></dc:title>
      </cc:Work>
    </rdf:RDF>
  </metadata>
  <defs
     id="defs349" />
  <sodipodi:namedview
     inkscape:document-rotation="0"
     pagecolor="#ffffff"
     bordercolor="#666666"
     borderopacity="1"
     objecttolerance="10"
     gridtolerance="10"
     guidetolerance="10"
     inkscape:pageopacity="0"
     inkscape:pageshadow="2"
     inkscape:window-width="1920"
     inkscape:window-height="1001"
     id="namedview347"
     showgrid="false"
     inkscape:zoom="0.94375"
     inkscape:cx="704.86142"
     inkscape:cy="275.23179"
     inkscape:window-x="554"
     inkscape:window-y="1359"
     inkscape:window-maximized="1"
     inkscape:current-layer="svg345" />
  <clipPath
     id="p3.0">
    <path
       d="m0 0l1280.0 0l0 720.0l-1280.0 0l0 -720.0z"
       clip-rule="nonzero"
       id="path2" />
  </clipPath>
  <path
     id="path5"
     fill-rule="evenodd"
     d="m 563.70861,286.09271 h 219.3378 v 218.80796 h -219.3378 z"
     fill="#ffffff"
     style="stroke-width:0.2282" />
  <path
     id="path79"
     fill-rule="evenodd"
     d="m 642.4594,348.62274 c -1.98773,4.5025 2.8215,15.08813 7.39175,17.18768 4.57026,2.09952 13.22413,-5.47094 20.02985,-4.59021 6.80572,0.88074 16.47559,5.56439 20.80478,9.87485 4.32919,4.31042 5.93961,15.58035 5.1705,15.98788 -0.76913,0.40757 -3.32712,-11.10458 -9.78494,-13.5426 -6.45783,-2.43802 -22.8992,-1.99646 -28.96192,-1.08536 -6.06268,0.91111 -2.72424,4.17563 -7.41421,6.55167 -4.69,2.37604 -15.39194,2.58331 -20.72577,7.70477 -5.33386,5.12149 -9.2933,18.44828 -11.27713,23.02387 -1.98383,4.57562 -2.54449,3.50668 -0.62561,4.4295 1.91876,0.92282 1.42694,4.69229 12.13855,1.10776 10.71164,-3.58456 39.42716,-20.25095 52.13092,-22.61481 12.70377,-2.36386 21.47922,10.11969 24.0921,8.43186 2.61292,-1.68781 10.99143,-13.47376 15.45041,-13.07898 4.45899,0.39474 -0.0438,11.40844 9.88498,13.41104 9.92877,2.00259 10.05283,7.58777 13.57697,8.98862 3.52413,1.40081 1.23977,-1.74295 3.40222,-5.00763 2.16244,-3.26468 7.81823,-8.40509 9.57248,-14.58023 1.75424,-6.17511 0.61447,-18.05628 0.95321,-22.4704 0.33875,-4.41413 9.34372,-0.0613 1.07917,-4.01428 -8.26453,-3.95301 -34.40476,-15.44675 -50.66651,-19.70377 -16.26178,-4.25705 -35.93866,-6.49942 -46.90396,-5.83853 -10.9653,0.66092 -17.33011,5.3248 -19.31784,9.8273 z"
     fill="#548135"
     inkscape:export-filename="C:\Users\sfjones\Documents\Manuscripts\Global typology\back_barrier.png"
     inkscape:export-xdpi="300"
     inkscape:export-ydpi="300" />
  <path
     id="path81"
     fill-rule="evenodd"
     d="m 642.4594,348.62274 c -1.98773,4.5025 2.8215,15.08813 7.39175,17.18768 4.57026,2.09952 13.22413,-5.47094 20.02985,-4.59021 6.80572,0.88074 16.47559,5.56439 20.80478,9.87485 4.32919,4.31042 5.93961,15.58035 5.1705,15.98788 -0.76913,0.40757 -3.32712,-11.10458 -9.78494,-13.5426 -6.45783,-2.43802 -22.8992,-1.99646 -28.96192,-1.08536 -6.06268,0.91111 -2.72424,4.17563 -7.41421,6.55167 -4.69,2.37604 -15.39194,2.58331 -20.72577,7.70477 -5.33386,5.12149 -9.2933,18.44828 -11.27713,23.02387 -1.98383,4.57562 -2.54449,3.50668 -0.62561,4.4295 1.91876,0.92282 1.42694,4.69229 12.13855,1.10776 10.71164,-3.58456 39.42716,-20.25095 52.13092,-22.61481 12.70377,-2.36386 21.47922,10.11969 24.0921,8.43186 2.61292,-1.68781 10.99143,-13.47376 15.45041,-13.07898 4.45899,0.39474 -0.0438,11.40844 9.88498,13.41104 9.92877,2.00259 10.05283,7.58777 13.57697,8.98862 3.52413,1.40081 1.23977,-1.74295 3.40222,-5.00763 2.16244,-3.26468 7.81823,-8.40509 9.57248,-14.58023 1.75424,-6.17511 0.61447,-18.05628 0.95321,-22.4704 0.33875,-4.41413 9.34372,-0.0613 1.07917,-4.01428 -8.26453,-3.95301 -34.40476,-15.44675 -50.66651,-19.70377 -16.26178,-4.25705 -35.93866,-6.49942 -46.90396,-5.83853 -10.9653,0.66092 -17.33011,5.3248 -19.31784,9.8273 z"
     stroke-linecap="butt"
     stroke-miterlimit="800"
     stroke-width="1"
     stroke="#000000"
     inkscape:export-filename="C:\Users\sfjones\Documents\Manuscripts\Global typology\back_barrier.png"
     inkscape:export-xdpi="300"
     inkscape:export-ydpi="300" />
  <path
     id="path83"
     fill-rule="evenodd"
     d="m 590.24853,427.63763 c -3.64842,-1.50784 -2.71436,-5.8165 1.31018,-8.16147 4.02451,-2.345 17.75876,-5.56531 22.8371,-5.90851 5.07831,-0.3432 3.9302,4.04795 7.63281,3.84952 3.70261,-0.19845 7.4747,-1.82016 14.58319,-5.04022 7.10852,-3.22003 20.46631,-10.74976 28.06784,-14.28009 7.6015,-3.53034 10.90064,-7.18506 17.54157,-6.90213 6.6409,0.28281 18.18878,7.89719 22.30368,8.59936 4.11489,0.70218 -0.60688,-1.81292 2.3861,-4.38647 2.99299,-2.57358 11.91495,-11.35611 15.57157,-11.05527 3.65661,0.30084 3.07565,9.8429 6.36816,12.86035 3.29248,3.01749 10.23514,3.49707 13.38675,5.24451 3.15161,1.74741 3.47562,3.71741 5.52304,5.24014 2.04743,1.52277 4.84091,0.66327 6.76163,3.89621 1.92068,3.23291 5.14212,11.71936 4.76224,15.5015 -0.37989,3.78213 -3.63779,9.56384 -7.04135,7.19119 -3.40357,-2.37268 -8.0824,-16.3172 -13.38004,-21.42752 -5.29761,-5.11032 -13.38516,-9.29031 -18.40601,-9.23416 -5.02081,0.0561 -6.12905,9.27158 -11.71936,9.5712 -5.5903,0.29962 -12.34201,-8.84943 -21.82254,-7.77347 -9.4804,1.07596 -22.81594,10.37888 -35.06024,14.22907 -12.24432,3.85018 -28.74124,7.14752 -38.40536,8.87207 -9.66412,1.72454 -19.55255,0.62203 -23.20096,-0.88581 z"
     fill="#d7a979"
     inkscape:export-filename="C:\Users\sfjones\Documents\Manuscripts\Global typology\back_barrier.png"
     inkscape:export-xdpi="300"
     inkscape:export-ydpi="300" />
  <path
     id="path85"
     fill-rule="evenodd"
     d="m 654.70873,346.89712 c -1.84625,1.41089 -3.12457,6.25 -5.02179,6.7095 -1.89725,0.45951 -6.09384,-1.34314 -6.36169,-3.9526 -0.26789,-2.60947 -0.23499,-9.17087 4.75424,-11.70429 4.9892,-2.53338 13.05108,-5.11227 25.18133,-3.4964 12.13022,1.61585 33.56671,9.53119 47.60028,13.19181 14.03354,3.66064 29.63874,5.56744 36.60099,8.77224 6.96225,3.20481 5.50497,9.48474 5.17266,10.4567 -0.3323,0.97192 -3.65329,-3.62067 -7.16647,-4.62503 -3.51312,-1.00437 -8.31702,0.20724 -13.9125,-1.40112 -5.59549,-1.60837 -11.59949,-6.05726 -19.66062,-8.24903 -8.06116,-2.19174 -21.62213,-4.20813 -28.70618,-4.90179 -7.08404,-0.69367 -9.72872,0.16363 -13.79791,0.73953 -4.06915,0.5759 -7.51248,3.26505 -10.61691,2.71582 -3.10446,-0.54925 -5.79309,-5.29504 -8.00952,-6.01108 -2.21646,-0.71606 -4.20963,0.34482 -6.05591,1.75574 z"
     fill="#d7a979"
     inkscape:export-filename="C:\Users\sfjones\Documents\Manuscripts\Global typology\back_barrier.png"
     inkscape:export-xdpi="300"
     inkscape:export-ydpi="300" />
  <path
     id="path87"
     fill-rule="evenodd"
     d="m 654.70873,346.89712 c -1.84625,1.41089 -3.12457,6.25 -5.02179,6.7095 -1.89725,0.45951 -6.09384,-1.34314 -6.36169,-3.9526 -0.26789,-2.60947 -0.23499,-9.17087 4.75424,-11.70429 4.9892,-2.53338 13.05108,-5.11227 25.18133,-3.4964 12.13022,1.61585 33.56671,9.53119 47.60028,13.19181 14.03354,3.66064 29.63874,5.56744 36.60099,8.77224 6.96225,3.20481 5.50497,9.48474 5.17266,10.4567 -0.3323,0.97192 -3.65329,-3.62067 -7.16647,-4.62503 -3.51312,-1.00437 -8.31702,0.20724 -13.9125,-1.40112 -5.59549,-1.60837 -11.59949,-6.05726 -19.66062,-8.24903 -8.06116,-2.19174 -21.62213,-4.20813 -28.70618,-4.90179 -7.08404,-0.69367 -9.72872,0.16363 -13.79791,0.73953 -4.06915,0.5759 -7.51248,3.26505 -10.61691,2.71582 -3.10446,-0.54925 -5.79309,-5.29504 -8.00952,-6.01108 -2.21646,-0.71606 -4.20963,0.34482 -6.05591,1.75574 z"
     stroke-linecap="butt"
     stroke-miterlimit="800"
     stroke-width="1.33333"
     stroke="#000000"
     inkscape:export-filename="C:\Users\sfjones\Documents\Manuscripts\Global typology\back_barrier.png"
     inkscape:export-xdpi="300"
     inkscape:export-ydpi="300" />
  <path
     id="path89"
     fill-rule="evenodd"
     d="m 587.98725,424.99246 c -0.0473,-2.92114 -0.0945,-5.84216 3.94966,-7.82013 4.04419,-1.97794 15.23725,-3.70508 20.31558,-4.04764 5.07834,-0.34268 5.59943,2.58832 10.15451,1.99195 4.55512,-0.59638 10.69355,-2.89795 17.17603,-5.57022 6.48248,-2.67225 14.5296,-7.40079 21.71927,-10.4632 7.18982,-3.06241 14.28543,-7.88095 21.41922,-7.91104 7.13379,-0.0301 16.89825,6.91409 21.38345,7.73041 4.4852,0.81634 3.29456,-1.02204 5.52747,-2.83243 2.23291,-1.8104 5.83996,-6.51245 7.87011,-8.03025 2.03012,-1.51776 2.92881,-2.41128 4.31095,-1.07638 1.38211,1.33487 1.74829,6.81024 3.98163,9.08572 2.23333,2.27549 6.25289,2.55329 9.41879,4.56754 3.16592,2.01425 7.48743,6.573 9.57675,7.51776 2.0893,0.94473 1.10626,-2.4545 2.95892,-1.8493 1.85267,0.60519 6.22278,1.9913 8.15711,5.4804 1.93429,3.48911 3.44913,15.45459 3.44913,15.45459 v 0"
     fill-opacity="0"
     fill="#000000"
     inkscape:export-filename="C:\Users\sfjones\Documents\Manuscripts\Global typology\back_barrier.png"
     inkscape:export-xdpi="300"
     inkscape:export-ydpi="300" />
  <path
     id="path91"
     fill-rule="evenodd"
     d="m 587.98725,424.99246 c -0.0473,-2.92114 -0.0945,-5.84216 3.94966,-7.82013 4.04419,-1.97794 15.23725,-3.70508 20.31558,-4.04764 5.07834,-0.34268 5.59943,2.58832 10.15451,1.99195 4.55512,-0.59638 10.69355,-2.89795 17.17603,-5.57022 6.48248,-2.67225 14.5296,-7.40079 21.71927,-10.4632 7.18982,-3.06241 14.28543,-7.88095 21.41922,-7.91104 7.13379,-0.0301 16.89825,6.91409 21.38345,7.73041 4.4852,0.81634 3.29456,-1.02204 5.52747,-2.83243 2.23291,-1.8104 5.83996,-6.51245 7.87011,-8.03025 2.03012,-1.51776 2.92881,-2.41128 4.31095,-1.07638 1.38211,1.33487 1.74829,6.81024 3.98163,9.08572 2.23333,2.27549 6.25289,2.55329 9.41879,4.56754 3.16592,2.01425 7.48743,6.573 9.57675,7.51776 2.0893,0.94473 1.10626,-2.4545 2.95892,-1.8493 1.85267,0.60519 6.22278,1.9913 8.15711,5.4804 1.93429,3.48911 3.44913,15.45459 3.44913,15.45459 v 0"
     stroke-linecap="butt"
     stroke-miterlimit="800"
     stroke-width="2"
     stroke="#000000"
     inkscape:export-filename="C:\Users\sfjones\Documents\Manuscripts\Global typology\back_barrier.png"
     inkscape:export-xdpi="300"
     inkscape:export-ydpi="300" />
  <path
     id="path93"
     fill-rule="evenodd"
     d="m 579.46193,417.20709 c 6.41304,-4.18729 12.8262,-8.37445 17.45758,-12.02835 4.63138,-3.65393 5.75156,-5.27084 10.33099,-9.8949 4.57941,-4.62408 11.32135,-13.93738 17.14569,-17.84985 5.82434,-3.91245 17.40168,-1.80841 17.80063,-5.62457 0.39899,-3.8162 -9.37091,-15.35828 -15.40683,-17.2728 -6.03595,-1.91452 -18.1253,8.95035 -20.80902,5.78583 -2.68371,-3.16455 -5.2579,-17.42752 4.70694,-24.77286 9.96485,-7.34534 29.09589,-20.04721 55.08206,-19.29929 25.98618,0.74796 100.83511,23.78684 100.83511,23.78684 v 0"
     fill-opacity="0"
     fill="#000000"
     inkscape:export-filename="C:\Users\sfjones\Documents\Manuscripts\Global typology\back_barrier.png"
     inkscape:export-xdpi="300"
     inkscape:export-ydpi="300" />
  <path
     id="path95"
     fill-rule="evenodd"
     d="m 579.46193,417.20709 c 6.41304,-4.18729 12.8262,-8.37445 17.45758,-12.02835 4.63138,-3.65393 5.75156,-5.27084 10.33099,-9.8949 4.57941,-4.62408 11.32135,-13.93738 17.14569,-17.84985 5.82434,-3.91245 17.40168,-1.80841 17.80063,-5.62457 0.39899,-3.8162 -9.37091,-15.35828 -15.40683,-17.2728 -6.03595,-1.91452 -18.1253,8.95035 -20.80902,5.78583 -2.68371,-3.16455 -5.2579,-17.42752 4.70694,-24.77286 9.96485,-7.34534 29.09589,-20.04721 55.08206,-19.29929 25.98618,0.74796 100.83511,23.78684 100.83511,23.78684 v 0"
     stroke-dasharray="5.33333, 4"
     stroke-linecap="butt"
     stroke-miterlimit="800"
     stroke-width="1.33333"
     stroke="#000000"
     inkscape:export-filename="C:\Users\sfjones\Documents\Manuscripts\Global typology\back_barrier.png"
     inkscape:export-xdpi="300"
     inkscape:export-ydpi="300" />
  <path
     id="path309"
     fill-rule="nonzero"
     d="m 632.84726,471.4704 q 0,0.70312 -0.1875,1.3125 -0.17188,0.60937 -0.5,1.09375 -0.32813,0.46875 -0.79688,0.84375 -0.46875,0.35937 -1.04687,0.60937 -0.57813,0.23438 -1.25,0.35938 -0.65625,0.125 -1.5,0.125 h -3.96875 q -0.26563,0 -0.51563,-0.17188 -0.23437,-0.1875 -0.23437,-0.65625 V 461.4704 q 0,-0.45313 0.23437,-0.64063 0.25,-0.1875 0.51563,-0.1875 h 3.45312 q 1.35938,0 2.21875,0.26563 0.875,0.25 1.45313,0.75 0.57812,0.48437 0.85937,1.20312 0.29688,0.71875 0.29688,1.625 0,0.53125 -0.125,1.03125 -0.125,0.48438 -0.375,0.90625 -0.25,0.40625 -0.64063,0.73438 -0.375,0.32812 -0.875,0.54687 0.625,0.10938 1.15625,0.42188 0.54688,0.3125 0.95313,0.79687 0.40625,0.48438 0.64062,1.125 0.23438,0.64063 0.23438,1.42188 z m -3.03125,-6.79688 q 0,-0.54687 -0.15625,-0.98437 -0.15625,-0.45313 -0.48438,-0.76563 -0.32812,-0.3125 -0.85937,-0.46875 -0.51563,-0.17187 -1.39063,-0.17187 h -2.07812 v 4.92187 h 2.29687 q 0.78125,0 1.25,-0.20312 0.48438,-0.21875 0.79688,-0.5625 0.32812,-0.34375 0.46875,-0.79688 0.15625,-0.46875 0.15625,-0.96875 z m 0.90625,6.90625 q 0,-0.67187 -0.21875,-1.1875 -0.21875,-0.51562 -0.64063,-0.85937 -0.40625,-0.35938 -1.03125,-0.54688 -0.625,-0.1875 -1.57812,-0.1875 h -2.40625 v 5.34375 h 2.92187 q 0.6875,0 1.20313,-0.15625 0.51562,-0.17187 0.90625,-0.48437 0.40625,-0.32813 0.625,-0.79688 0.21875,-0.48437 0.21875,-1.125 z m 12.89844,3.95313 q 0,0.14062 -0.0937,0.21875 -0.0937,0.0625 -0.26563,0.0937 -0.15625,0.0469 -0.46875,0.0469 -0.29687,0 -0.48437,-0.0469 -0.1875,-0.0312 -0.26563,-0.0937 -0.0781,-0.0781 -0.0781,-0.21875 v -1.0625 q -0.6875,0.75 -1.54688,1.15625 -0.84375,0.40625 -1.79687,0.40625 -0.82813,0 -1.5,-0.21875 -0.67188,-0.21875 -1.15625,-0.625 -0.46875,-0.40625 -0.73438,-1 -0.26562,-0.60938 -0.26562,-1.35938 0,-0.89062 0.35937,-1.54687 0.375,-0.65625 1.04688,-1.09375 0.6875,-0.4375 1.67187,-0.65625 0.98438,-0.21875 2.20313,-0.21875 h 1.45312 v -0.8125 q 0,-0.60938 -0.125,-1.07813 -0.125,-0.46875 -0.42187,-0.78125 -0.28125,-0.3125 -0.73438,-0.46875 -0.45312,-0.15625 -1.125,-0.15625 -0.71875,0 -1.29687,0.17188 -0.5625,0.17187 -0.98438,0.375 -0.42187,0.20312 -0.71875,0.375 -0.28125,0.17187 -0.42187,0.17187 -0.0937,0 -0.17188,-0.0469 -0.0625,-0.0469 -0.125,-0.14063 -0.0469,-0.0937 -0.0781,-0.23437 -0.0156,-0.15625 -0.0156,-0.32813 0,-0.29687 0.0312,-0.46875 0.0469,-0.17187 0.20313,-0.3125 0.17187,-0.15625 0.54687,-0.35937 0.39063,-0.21875 0.89063,-0.375 0.51562,-0.17188 1.10937,-0.28125 0.59375,-0.125 1.20313,-0.125 1.14062,0 1.9375,0.26562 0.79687,0.25 1.28125,0.75 0.5,0.5 0.71875,1.25 0.21875,0.73438 0.21875,1.71875 z m -1.92188,-4.8125 h -1.64062 q -0.79688,0 -1.39063,0.14062 -0.57812,0.125 -0.96875,0.39063 -0.39062,0.26562 -0.57812,0.64062 -0.17188,0.35938 -0.17188,0.84375 0,0.8125 0.51563,1.29688 0.53125,0.48437 1.46875,0.48437 0.75,0 1.40625,-0.375 0.65625,-0.39062 1.35937,-1.1875 z m 13.0586,3.1875 q 0,0.20312 -0.0156,0.35937 0,0.14063 -0.0312,0.25 -0.0312,0.0937 -0.0781,0.17188 -0.0312,0.0625 -0.1875,0.21875 -0.14063,0.14062 -0.5,0.35937 -0.34375,0.21875 -0.78125,0.39063 -0.4375,0.17187 -0.95313,0.26562 -0.51562,0.10938 -1.07812,0.10938 -1.125,0 -2.01563,-0.375 -0.875,-0.375 -1.46875,-1.09375 -0.59375,-0.71875 -0.90625,-1.76563 -0.29687,-1.04687 -0.29687,-2.42187 0,-1.5625 0.375,-2.67188 0.375,-1.125 1.03125,-1.84375 0.67187,-0.71875 1.5625,-1.0625 0.90625,-0.34375 1.95312,-0.34375 0.5,0 0.96875,0.0937 0.48438,0.0937 0.875,0.25 0.40625,0.15625 0.70313,0.35938 0.3125,0.1875 0.45312,0.32812 0.14063,0.14063 0.1875,0.23438 0.0625,0.0781 0.0937,0.1875 0.0469,0.10937 0.0469,0.25 0.0156,0.14062 0.0156,0.34375 0,0.46875 -0.10937,0.65625 -0.0937,0.17187 -0.25,0.17187 -0.17188,0 -0.40625,-0.1875 -0.23438,-0.20312 -0.59375,-0.4375 -0.34375,-0.23437 -0.84375,-0.42187 -0.48438,-0.20313 -1.17188,-0.20313 -1.39062,0 -2.14062,1.07813 -0.73438,1.07812 -0.73438,3.10937 0,1.01563 0.1875,1.79688 0.1875,0.76562 0.5625,1.28125 0.375,0.51562 0.92188,0.76562 0.54687,0.25 1.25,0.25 0.67187,0 1.17187,-0.20312 0.5,-0.21875 0.875,-0.46875 0.375,-0.25 0.625,-0.45313 0.25,-0.21875 0.39063,-0.21875 0.0781,0 0.14062,0.0469 0.0625,0.0469 0.0937,0.17187 0.0469,0.10938 0.0625,0.28125 0.0156,0.15625 0.0156,0.39063 z m 11.22656,1.59375 q 0,0.0937 -0.0469,0.17187 -0.0469,0.0625 -0.15625,0.125 -0.10937,0.0469 -0.3125,0.0625 -0.20312,0.0312 -0.5,0.0312 -0.3125,0 -0.53125,-0.0312 -0.20312,-0.0156 -0.34375,-0.0469 -0.14062,-0.0469 -0.23437,-0.125 -0.0781,-0.0781 -0.14063,-0.1875 l -4.45312,-5.82813 v 5.84375 q 0,0.0937 -0.0469,0.15625 -0.0469,0.0625 -0.15625,0.125 -0.10937,0.0469 -0.29687,0.0625 -0.1875,0.0312 -0.48438,0.0312 -0.28125,0 -0.46875,-0.0312 -0.1875,-0.0156 -0.29687,-0.0625 -0.10938,-0.0625 -0.15625,-0.125 -0.0312,-0.0625 -0.0312,-0.15625 v -15.65625 q 0,-0.0937 0.0312,-0.15625 0.0469,-0.0781 0.15625,-0.125 0.10937,-0.0469 0.29687,-0.0625 0.1875,-0.0312 0.46875,-0.0312 0.29688,0 0.48438,0.0312 0.1875,0.0156 0.29687,0.0625 0.10938,0.0469 0.15625,0.125 0.0469,0.0625 0.0469,0.15625 v 9.54688 l 3.98437,-4.39063 q 0.0937,-0.10937 0.1875,-0.1875 0.10938,-0.0781 0.25,-0.125 0.15625,-0.0625 0.34375,-0.0781 0.20313,-0.0156 0.48438,-0.0156 0.29687,0 0.5,0.0156 0.20312,0.0156 0.3125,0.0625 0.125,0.0312 0.17187,0.10937 0.0625,0.0625 0.0625,0.15625 0,0.14063 -0.0781,0.28125 -0.0781,0.14063 -0.25,0.32813 l -3.8125,3.82812 4.28125,5.5625 q 0.15625,0.20313 0.21875,0.32813 0.0625,0.125 0.0625,0.21875 z m 17.89844,-4.03125 q 0,0.70312 -0.1875,1.3125 -0.17188,0.60937 -0.5,1.09375 -0.32813,0.46875 -0.79688,0.84375 -0.46875,0.35937 -1.04687,0.60937 -0.57813,0.23438 -1.25,0.35938 -0.65625,0.125 -1.5,0.125 h -3.96875 q -0.26563,0 -0.51563,-0.17188 -0.23437,-0.1875 -0.23437,-0.65625 V 461.4704 q 0,-0.45313 0.23437,-0.64063 0.25,-0.1875 0.51563,-0.1875 h 3.45312 q 1.35938,0 2.21875,0.26563 0.875,0.25 1.45313,0.75 0.57812,0.48437 0.85937,1.20312 0.29688,0.71875 0.29688,1.625 0,0.53125 -0.125,1.03125 -0.125,0.48438 -0.375,0.90625 -0.25,0.40625 -0.64063,0.73438 -0.375,0.32812 -0.875,0.54687 0.625,0.10938 1.15625,0.42188 0.54688,0.3125 0.95313,0.79687 0.40625,0.48438 0.64062,1.125 0.23438,0.64063 0.23438,1.42188 z m -3.03125,-6.79688 q 0,-0.54687 -0.15625,-0.98437 -0.15625,-0.45313 -0.48438,-0.76563 -0.32812,-0.3125 -0.85937,-0.46875 -0.51563,-0.17187 -1.39063,-0.17187 h -2.07812 v 4.92187 h 2.29687 q 0.78125,0 1.25,-0.20312 0.48438,-0.21875 0.79688,-0.5625 0.32812,-0.34375 0.46875,-0.79688 0.15625,-0.46875 0.15625,-0.96875 z m 0.90625,6.90625 q 0,-0.67187 -0.21875,-1.1875 -0.21875,-0.51562 -0.64063,-0.85937 -0.40625,-0.35938 -1.03125,-0.54688 -0.625,-0.1875 -1.57812,-0.1875 h -2.40625 v 5.34375 h 2.92187 q 0.6875,0 1.20313,-0.15625 0.51562,-0.17187 0.90625,-0.48437 0.40625,-0.32813 0.625,-0.79688 0.21875,-0.48437 0.21875,-1.125 z m 12.89843,3.95313 q 0,0.14062 -0.0937,0.21875 -0.0937,0.0625 -0.26562,0.0937 -0.15625,0.0469 -0.46875,0.0469 -0.29688,0 -0.48438,-0.0469 -0.1875,-0.0312 -0.26562,-0.0937 -0.0781,-0.0781 -0.0781,-0.21875 v -1.0625 q -0.6875,0.75 -1.54687,1.15625 -0.84375,0.40625 -1.79688,0.40625 -0.82812,0 -1.5,-0.21875 -0.67187,-0.21875 -1.15625,-0.625 -0.46875,-0.40625 -0.73437,-1 -0.26563,-0.60938 -0.26563,-1.35938 0,-0.89062 0.35938,-1.54687 0.375,-0.65625 1.04687,-1.09375 0.6875,-0.4375 1.67188,-0.65625 0.98437,-0.21875 2.20312,-0.21875 h 1.45313 v -0.8125 q 0,-0.60938 -0.125,-1.07813 -0.125,-0.46875 -0.42188,-0.78125 -0.28125,-0.3125 -0.73437,-0.46875 -0.45313,-0.15625 -1.125,-0.15625 -0.71875,0 -1.29688,0.17188 -0.5625,0.17187 -0.98437,0.375 -0.42188,0.20312 -0.71875,0.375 -0.28125,0.17187 -0.42188,0.17187 -0.0937,0 -0.17187,-0.0469 -0.0625,-0.0469 -0.125,-0.14063 -0.0469,-0.0937 -0.0781,-0.23437 -0.0156,-0.15625 -0.0156,-0.32813 0,-0.29687 0.0312,-0.46875 0.0469,-0.17187 0.20312,-0.3125 0.17188,-0.15625 0.54688,-0.35937 0.39062,-0.21875 0.89062,-0.375 0.51563,-0.17188 1.10938,-0.28125 0.59375,-0.125 1.20312,-0.125 1.14063,0 1.9375,0.26562 0.79688,0.25 1.28125,0.75 0.5,0.5 0.71875,1.25 0.21875,0.73438 0.21875,1.71875 z m -1.92187,-4.8125 h -1.64063 q -0.79687,0 -1.39062,0.14062 -0.57813,0.125 -0.96875,0.39063 -0.39063,0.26562 -0.57813,0.64062 -0.17187,0.35938 -0.17187,0.84375 0,0.8125 0.51562,1.29688 0.53125,0.48437 1.46875,0.48437 0.75,0 1.40625,-0.375 0.65625,-0.39062 1.35938,-1.1875 z m 11.63672,-5.0625 q 0,0.26562 -0.0156,0.4375 0,0.17187 -0.0469,0.28125 -0.0312,0.0937 -0.0781,0.15625 -0.0469,0.0469 -0.14062,0.0469 -0.0937,0 -0.23438,-0.0469 -0.14062,-0.0625 -0.3125,-0.10938 -0.15625,-0.0625 -0.375,-0.10937 -0.20312,-0.0469 -0.45312,-0.0469 -0.29688,0 -0.57813,0.125 -0.28125,0.10938 -0.59375,0.39063 -0.3125,0.26562 -0.65625,0.71875 -0.32812,0.4375 -0.73437,1.07812 v 6.9375 q 0,0.0937 -0.0469,0.15625 -0.0469,0.0625 -0.15625,0.125 -0.10937,0.0469 -0.29687,0.0625 -0.1875,0.0312 -0.48438,0.0312 -0.28125,0 -0.46875,-0.0312 -0.1875,-0.0156 -0.29687,-0.0625 -0.10938,-0.0625 -0.15625,-0.125 -0.0312,-0.0625 -0.0312,-0.15625 v -10.54687 q 0,-0.0937 0.0312,-0.15625 0.0312,-0.0625 0.14062,-0.10938 0.10938,-0.0625 0.26563,-0.0781 0.17187,-0.0156 0.4375,-0.0156 0.26562,0 0.42187,0.0156 0.17188,0.0156 0.26563,0.0781 0.0937,0.0469 0.14062,0.10938 0.0469,0.0625 0.0469,0.15625 v 1.53125 q 0.42187,-0.625 0.79687,-1.01563 0.39063,-0.40625 0.73438,-0.625 0.34375,-0.23437 0.67187,-0.32812 0.32813,-0.0937 0.67188,-0.0937 0.15625,0 0.34375,0.0312 0.20312,0.0156 0.40625,0.0625 0.21875,0.0469 0.375,0.10937 0.17187,0.0469 0.23437,0.10938 0.0781,0.0625 0.0937,0.10937 0.0312,0.0469 0.0469,0.14063 0.0312,0.0781 0.0312,0.23437 0,0.15625 0,0.42188 z m 8.36719,0 q 0,0.26562 -0.0156,0.4375 0,0.17187 -0.0469,0.28125 -0.0312,0.0937 -0.0781,0.15625 -0.0469,0.0469 -0.14062,0.0469 -0.0937,0 -0.23438,-0.0469 -0.14062,-0.0625 -0.3125,-0.10938 -0.15625,-0.0625 -0.375,-0.10937 -0.20312,-0.0469 -0.45312,-0.0469 -0.29688,0 -0.57813,0.125 -0.28125,0.10938 -0.59375,0.39063 -0.3125,0.26562 -0.65625,0.71875 -0.32812,0.4375 -0.73437,1.07812 v 6.9375 q 0,0.0937 -0.0469,0.15625 -0.0469,0.0625 -0.15625,0.125 -0.10937,0.0469 -0.29687,0.0625 -0.1875,0.0312 -0.48438,0.0312 -0.28125,0 -0.46875,-0.0312 -0.1875,-0.0156 -0.29687,-0.0625 -0.10938,-0.0625 -0.15625,-0.125 -0.0312,-0.0625 -0.0312,-0.15625 v -10.54687 q 0,-0.0937 0.0312,-0.15625 0.0312,-0.0625 0.14062,-0.10938 0.10938,-0.0625 0.26563,-0.0781 0.17187,-0.0156 0.4375,-0.0156 0.26562,0 0.42187,0.0156 0.17188,0.0156 0.26563,0.0781 0.0937,0.0469 0.14062,0.10938 0.0469,0.0625 0.0469,0.15625 v 1.53125 q 0.42187,-0.625 0.79687,-1.01563 0.39063,-0.40625 0.73438,-0.625 0.34375,-0.23437 0.67187,-0.32812 0.32813,-0.0937 0.67188,-0.0937 0.15625,0 0.34375,0.0312 0.20312,0.0156 0.40625,0.0625 0.21875,0.0469 0.375,0.10937 0.17187,0.0469 0.23437,0.10938 0.0781,0.0625 0.0937,0.10937 0.0312,0.0469 0.0469,0.14063 0.0312,0.0781 0.0312,0.23437 0,0.15625 0,0.42188 z m 4.14843,9.85937 q 0,0.0937 -0.0469,0.15625 -0.0469,0.0625 -0.15625,0.125 -0.10938,0.0469 -0.29688,0.0625 -0.1875,0.0312 -0.48437,0.0312 -0.28125,0 -0.46875,-0.0312 -0.1875,-0.0156 -0.29688,-0.0625 -0.10937,-0.0625 -0.15625,-0.125 -0.0312,-0.0625 -0.0312,-0.15625 V 464.9704 q 0,-0.0781 0.0312,-0.14063 0.0469,-0.0781 0.15625,-0.125 0.10938,-0.0469 0.29688,-0.0625 0.1875,-0.0312 0.46875,-0.0312 0.29687,0 0.48437,0.0312 0.1875,0.0156 0.29688,0.0625 0.10937,0.0469 0.15625,0.125 0.0469,0.0625 0.0469,0.14063 z m 0.21875,-14.10937 q 0,0.6875 -0.26562,0.9375 -0.25,0.23437 -0.9375,0.23437 -0.6875,0 -0.9375,-0.23437 -0.25,-0.25 -0.25,-0.90625 0,-0.6875 0.25,-0.92188 0.26562,-0.25 0.95312,-0.25 0.6875,0 0.9375,0.23438 0.25,0.23437 0.25,0.90625 z m 12.35157,8.375 q 0,0.46875 -0.23438,0.65625 -0.21875,0.1875 -0.51562,0.1875 h -6.92188 q 0,0.89062 0.17188,1.59375 0.1875,0.70312 0.59375,1.20312 0.40625,0.5 1.0625,0.78125 0.65625,0.26563 1.60937,0.26563 0.75,0 1.32813,-0.125 0.59375,-0.125 1.01562,-0.28125 0.4375,-0.15625 0.70313,-0.26563 0.28125,-0.125 0.42187,-0.125 0.0781,0 0.14063,0.0469 0.0781,0.0312 0.10937,0.10937 0.0312,0.0781 0.0469,0.23438 0.0156,0.14062 0.0156,0.35937 0,0.14063 -0.0156,0.26563 0,0.10937 -0.0156,0.20312 -0.0156,0.0781 -0.0625,0.15625 -0.0469,0.0625 -0.10937,0.125 -0.0625,0.0625 -0.375,0.21875 -0.3125,0.14063 -0.82813,0.28125 -0.5,0.14063 -1.17187,0.25 -0.65625,0.10938 -1.40625,0.10938 -1.29688,0 -2.28125,-0.35938 -0.96875,-0.35937 -1.64063,-1.07812 -0.67187,-0.71875 -1.01562,-1.79688 -0.32813,-1.07812 -0.32813,-2.5 0,-1.35937 0.34375,-2.4375 0.35938,-1.09375 1.01563,-1.84375 0.67187,-0.76562 1.60937,-1.17187 0.9375,-0.40625 2.09375,-0.40625 1.23438,0 2.10938,0.40625 0.875,0.39062 1.4375,1.07812 0.5625,0.67188 0.82812,1.57813 0.26563,0.90625 0.26563,1.9375 z m -1.95313,-0.5625 q 0.0469,-1.53125 -0.67187,-2.39063 -0.70313,-0.875 -2.09375,-0.875 -0.71875,0 -1.26563,0.28125 -0.53125,0.26563 -0.90625,0.71875 -0.35937,0.4375 -0.5625,1.03125 -0.1875,0.57813 -0.21875,1.23438 z m 11.05078,-3.5625 q 0,0.26562 -0.0156,0.4375 0,0.17187 -0.0469,0.28125 -0.0312,0.0937 -0.0781,0.15625 -0.0469,0.0469 -0.14063,0.0469 -0.0937,0 -0.23437,-0.0469 -0.14063,-0.0625 -0.3125,-0.10938 -0.15625,-0.0625 -0.375,-0.10937 -0.20313,-0.0469 -0.45313,-0.0469 -0.29687,0 -0.57812,0.125 -0.28125,0.10938 -0.59375,0.39063 -0.3125,0.26562 -0.65625,0.71875 -0.32813,0.4375 -0.73438,1.07812 v 6.9375 q 0,0.0937 -0.0469,0.15625 -0.0469,0.0625 -0.15625,0.125 -0.10938,0.0469 -0.29688,0.0625 -0.1875,0.0312 -0.48437,0.0312 -0.28125,0 -0.46875,-0.0312 -0.1875,-0.0156 -0.29688,-0.0625 -0.10937,-0.0625 -0.15625,-0.125 -0.0312,-0.0625 -0.0312,-0.15625 v -10.54687 q 0,-0.0937 0.0312,-0.15625 0.0312,-0.0625 0.14063,-0.10938 0.10937,-0.0625 0.26562,-0.0781 0.17188,-0.0156 0.4375,-0.0156 0.26563,0 0.42188,0.0156 0.17187,0.0156 0.26562,0.0781 0.0937,0.0469 0.14063,0.10938 0.0469,0.0625 0.0469,0.15625 v 1.53125 q 0.42188,-0.625 0.79688,-1.01563 0.39062,-0.40625 0.73437,-0.625 0.34375,-0.23437 0.67188,-0.32812 0.32812,-0.0937 0.67187,-0.0937 0.15625,0 0.34375,0.0312 0.20313,0.0156 0.40625,0.0625 0.21875,0.0469 0.375,0.10937 0.17188,0.0469 0.23438,0.10938 0.0781,0.0625 0.0937,0.10937 0.0312,0.0469 0.0469,0.14063 0.0312,0.0781 0.0312,0.23437 0,0.15625 0,0.42188 z"
     fill="#000000" />
  <path
     id="path315"
     fill-rule="evenodd"
     d="M 683.6341,31.487663 H 873.61835 V 70.259315 H 683.6341 Z"
     fill-opacity="0"
     fill="#000000" />
</svg>
