<?xml version="1.0" encoding="UTF-8" standalone="no"?>
<svg
   xmlns:dc="http://purl.org/dc/elements/1.1/"
   xmlns:cc="http://creativecommons.org/ns#"
   xmlns:rdf="http://www.w3.org/1999/02/22-rdf-syntax-ns#"
   xmlns:svg="http://www.w3.org/2000/svg"
   xmlns="http://www.w3.org/2000/svg"
   xmlns:sodipodi="http://sodipodi.sourceforge.net/DTD/sodipodi-0.dtd"
   xmlns:inkscape="http://www.inkscape.org/namespaces/inkscape"
   inkscape:version="1.0 (4035a4fb49, 2020-05-01)"
   sodipodi:docname="barrier_estuary.svg"
   id="svg345"
   stroke-miterlimit="10"
   stroke-linecap="square"
   stroke="none"
   fill="none"
   viewBox="0.0 0.0 1280.0 720.0"
   version="1.1">
  <metadata
     id="metadata351">
    <rdf:RDF>
      <cc:Work
         rdf:about="">
        <dc:format>image/svg+xml</dc:format>
        <dc:type
           rdf:resource="http://purl.org/dc/dcmitype/StillImage" />
        <dc:title></dc:title>
      </cc:Work>
    </rdf:RDF>
  </metadata>
  <defs
     id="defs349" />
  <sodipodi:namedview
     inkscape:current-layer="svg345"
     inkscape:window-maximized="1"
     inkscape:window-y="1359"
     inkscape:window-x="554"
     inkscape:cy="190.46358"
     inkscape:cx="725.49914"
     inkscape:zoom="0.94375"
     showgrid="false"
     id="namedview347"
     inkscape:window-height="1001"
     inkscape:window-width="1920"
     inkscape:pageshadow="2"
     inkscape:pageopacity="0"
     guidetolerance="10"
     gridtolerance="10"
     objecttolerance="10"
     borderopacity="1"
     bordercolor="#666666"
     pagecolor="#ffffff"
     inkscape:document-rotation="0" />
  <clipPath
     id="p3.0">
    <path
       id="path2"
       clip-rule="nonzero"
       d="m0 0l1280.0 0l0 720.0l-1280.0 0l0 -720.0z" />
  </clipPath>
  <path
     style="stroke-width:0.220211"
     fill="#ffffff"
     d="M 526.62252,235.23178 H 727.94706 V 457.21854 H 526.62252 Z"
     fill-rule="evenodd"
     id="path5" />
  <path
     inkscape:export-ydpi="300"
     inkscape:export-xdpi="300"
     inkscape:export-filename="C:\Users\sfjones\Documents\Manuscripts\Global typology\barrier_estuary.png"
     fill="#548135"
     d="m 649.48189,337.38362 c 3.45004,-4.2327 6.90006,-8.46538 9.90008,-8.7789 3.00007,-0.31352 5.77509,5.85272 8.10013,6.89777 2.32505,1.04501 3.67502,0.94055 5.85004,-0.62708 2.17502,-1.56763 4.57501,-5.43455 7.20001,-8.7789 2.625,-3.34434 6.15012,-8.36095 8.55011,-11.28731 2.4,-2.92637 3.82507,-5.53921 5.85004,-6.2707 2.02508,-0.73169 6.07513,-1.35875 6.30014,1.88115 0.225,3.23989 -1.20007,8.98799 -4.95004,17.55801 -3.74997,8.57002 -11.17511,28.5316 -17.55024,33.86174 -6.37509,5.33014 -20.70016,-1.88116 -20.70016,-1.88116 -3.45001,-0.52259 -1.72501,-0.88852 0,-1.25428"
     fill-rule="evenodd"
     id="path7" />
  <path
     inkscape:export-ydpi="300"
     inkscape:export-xdpi="300"
     inkscape:export-filename="C:\Users\sfjones\Documents\Manuscripts\Global typology\barrier_estuary.png"
     stroke="#000000"
     stroke-width="1"
     stroke-miterlimit="800"
     stroke-linecap="butt"
     d="m 649.48189,337.38362 c 3.45004,-4.2327 6.90006,-8.46538 9.90008,-8.7789 3.00007,-0.31352 5.77509,5.85272 8.10013,6.89777 2.32505,1.04501 3.67502,0.94055 5.85004,-0.62708 2.17502,-1.56763 4.57501,-5.43455 7.20001,-8.7789 2.625,-3.34434 6.15012,-8.36095 8.55011,-11.28731 2.4,-2.92637 3.82507,-5.53921 5.85004,-6.2707 2.02508,-0.73169 6.07513,-1.35875 6.30014,1.88115 0.225,3.23989 -1.20007,8.98799 -4.95004,17.55801 -3.74997,8.57002 -11.17511,28.5316 -17.55024,33.86174 -6.37509,5.33014 -20.70016,-1.88116 -20.70016,-1.88116 -3.45001,-0.52259 -1.72501,-0.88852 0,-1.25428"
     fill-rule="evenodd"
     id="path9" />
  <path
     inkscape:export-ydpi="300"
     inkscape:export-xdpi="300"
     inkscape:export-filename="C:\Users\sfjones\Documents\Manuscripts\Global typology\barrier_estuary.png"
     fill="#548135"
     d="m 629.23174,316.69035 c 4.04993,3.50101 8.09998,7.00221 11.70004,7.52481 3.60007,0.52261 6.82511,-3.34415 9.90009,-4.38936 3.07501,-1.04521 5.92514,-1.46318 8.55011,-1.88135 2.625,-0.41796 5.47513,0.94059 7.20016,-0.62704 1.72501,-1.56763 1.19992,-6.16608 3.14994,-8.77891 1.95001,-2.61284 5.47512,-5.53922 8.55011,-6.89777 3.07498,-1.35854 7.42514,-2.09023 9.90008,-1.25411 2.47495,0.83614 3.37509,6.79332 4.95004,6.27071 1.57499,-0.5226 4.05008,-4.18065 4.50006,-9.40614 0.44999,-5.2255 -0.225,-17.76691 -1.79995,-21.94739 -1.57498,-4.18047 -5.17505,-2.61264 -7.65015,-3.13525 -2.47494,-0.5226 -7.19998,0 -7.19998,0 v 0"
     fill-rule="evenodd"
     id="path11" />
  <path
     inkscape:export-ydpi="300"
     inkscape:export-xdpi="300"
     inkscape:export-filename="C:\Users\sfjones\Documents\Manuscripts\Global typology\barrier_estuary.png"
     stroke="#000000"
     stroke-width="1"
     stroke-miterlimit="800"
     stroke-linecap="butt"
     d="m 629.23174,316.69035 c 4.04993,3.50101 8.09998,7.00221 11.70004,7.52481 3.60007,0.52261 6.82511,-3.34415 9.90009,-4.38936 3.07501,-1.04521 5.92514,-1.46318 8.55011,-1.88135 2.625,-0.41796 5.47513,0.94059 7.20016,-0.62704 1.72501,-1.56763 1.19992,-6.16608 3.14994,-8.77891 1.95001,-2.61284 5.47512,-5.53922 8.55011,-6.89777 3.07498,-1.35854 7.42514,-2.09023 9.90008,-1.25411 2.47495,0.83614 3.37509,6.79332 4.95004,6.27071 1.57499,-0.5226 4.05008,-4.18065 4.50006,-9.40614 0.44999,-5.2255 -0.225,-17.76691 -1.79995,-21.94739 -1.57498,-4.18047 -5.17505,-2.61264 -7.65015,-3.13525 -2.47494,-0.5226 -7.19998,0 -7.19998,0 v 0"
     fill-rule="evenodd"
     id="path13" />
  <path
     inkscape:export-ydpi="300"
     inkscape:export-xdpi="300"
     inkscape:export-filename="C:\Users\sfjones\Documents\Manuscripts\Global typology\barrier_estuary.png"
     fill="#548135"
     d="m 598.18147,366.22895 c 1.53751,-4.49399 3.07501,-8.98801 6.75003,-11.91437 3.67502,-2.92636 10.9501,-3.03079 15.30011,-5.64364 4.35001,-2.61286 7.50009,-6.79313 10.80008,-10.03302 3.29999,-3.2399 5.92511,-8.2565 9.00012,-9.40616 3.07498,-1.14966 7.72507,0.73169 9.45007,2.50839 1.72504,1.77673 1.3125,4.9642 0.9,8.15186"
     fill-rule="evenodd"
     id="path15" />
  <path
     inkscape:export-ydpi="300"
     inkscape:export-xdpi="300"
     inkscape:export-filename="C:\Users\sfjones\Documents\Manuscripts\Global typology\barrier_estuary.png"
     stroke="#000000"
     stroke-width="1"
     stroke-miterlimit="800"
     stroke-linecap="butt"
     d="m 598.18147,366.22895 c 1.53751,-4.49399 3.07501,-8.98801 6.75003,-11.91437 3.67502,-2.92636 10.9501,-3.03079 15.30011,-5.64364 4.35001,-2.61286 7.50009,-6.79313 10.80008,-10.03302 3.29999,-3.2399 5.92511,-8.2565 9.00012,-9.40616 3.07498,-1.14966 7.72507,0.73169 9.45007,2.50839 1.72504,1.77673 1.3125,4.9642 0.9,8.15186"
     fill-rule="evenodd"
     id="path17" />
  <path
     inkscape:export-ydpi="300"
     inkscape:export-xdpi="300"
     inkscape:export-filename="C:\Users\sfjones\Documents\Manuscripts\Global typology\barrier_estuary.png"
     fill="#548135"
     d="m 613.48161,337.38362 c 1.91254,2.56042 3.82507,5.12106 5.85004,5.64368 2.02496,0.52258 5.40002,-0.10446 6.30001,-2.50821 0.89997,-2.40378 0,-7.15906 -0.89999,-11.91437"
     fill-rule="evenodd"
     id="path19" />
  <path
     inkscape:export-ydpi="300"
     inkscape:export-xdpi="300"
     inkscape:export-filename="C:\Users\sfjones\Documents\Manuscripts\Global typology\barrier_estuary.png"
     stroke="#000000"
     stroke-width="1"
     stroke-miterlimit="800"
     stroke-linecap="butt"
     d="m 613.48161,337.38362 c 1.91254,2.56042 3.82507,5.12106 5.85004,5.64368 2.02496,0.52258 5.40002,-0.10446 6.30001,-2.50821 0.89997,-2.40378 0,-7.15906 -0.89999,-11.91437"
     fill-rule="evenodd"
     id="path21" />
  <path
     inkscape:export-ydpi="300"
     inkscape:export-xdpi="300"
     inkscape:export-filename="C:\Users\sfjones\Documents\Manuscripts\Global typology\barrier_estuary.png"
     fill="#d7a979"
     d="m 690.75832,248.87727 c 2.84943,5.16922 5.699,10.33864 7.74194,17.08127 2.04294,6.74263 4.73114,17.68057 4.51612,23.37434 -0.21506,5.69376 -3.65595,10.93813 -5.80649,10.78821 -2.15051,-0.14973 -5.37625,-8.54054 -7.09668,-11.68716 -1.72046,-3.14664 -1.29038,-7.79152 -3.22586,-7.19222 -1.93549,0.59931 -6.98926,6.14334 -8.38709,10.78822 -1.39782,4.64489 1.82791,13.635 0,17.08127 -1.82788,3.44628 -7.31173,3.59601 -10.96768,3.59601 -3.65594,0 -7.52676,-2.9967 -10.96768,-3.59601 -3.44089,-0.5993 -6.02149,-1.49826 -9.67743,0 -3.65594,1.49845 -9.4624,5.09445 -12.25806,8.99011 -2.79565,3.89566 -2.36557,11.2378 -4.51608,14.38424 -2.15054,3.14642 -5.59143,5.54382 -8.38708,4.49493 -2.79566,-1.04886 -7.8494,-10.33844 -8.38706,-10.78801 -0.53769,-0.44937 4.94629,4.79482 5.16135,8.09117 0.21502,3.29636 -0.75272,8.9899 -3.871,11.68695 -3.11826,2.69708 -10.32254,5.39414 -14.83866,4.49518 -4.51608,-0.89896 -7.52691,-8.24091 -12.25802,-9.88907 -4.73114,-1.64819 -10.64521,-1.49826 -16.12903,0 -5.48386,1.49826 -16.77414,8.99011 -16.77414,8.99011 v 0"
     fill-rule="evenodd"
     id="path23" />
  <path
     inkscape:export-ydpi="300"
     inkscape:export-xdpi="300"
     inkscape:export-filename="C:\Users\sfjones\Documents\Manuscripts\Global typology\barrier_estuary.png"
     stroke="#000000"
     stroke-width="1.33333"
     stroke-miterlimit="800"
     stroke-linecap="butt"
     d="m 690.75832,248.87727 c 2.84943,5.16922 5.699,10.33864 7.74194,17.08127 2.04294,6.74263 4.73114,17.68057 4.51612,23.37434 -0.21506,5.69376 -3.65595,10.93813 -5.80649,10.78821 -2.15051,-0.14973 -5.37625,-8.54054 -7.09668,-11.68716 -1.72046,-3.14664 -1.29038,-7.79152 -3.22586,-7.19222 -1.93549,0.59931 -6.98926,6.14334 -8.38709,10.78822 -1.39782,4.64489 1.82791,13.635 0,17.08127 -1.82788,3.44628 -7.31173,3.59601 -10.96768,3.59601 -3.65594,0 -7.52676,-2.9967 -10.96768,-3.59601 -3.44089,-0.5993 -6.02149,-1.49826 -9.67743,0 -3.65594,1.49845 -9.4624,5.09445 -12.25806,8.99011 -2.79565,3.89566 -2.36557,11.2378 -4.51608,14.38424 -2.15054,3.14642 -5.59143,5.54382 -8.38708,4.49493 -2.79566,-1.04886 -7.8494,-10.33844 -8.38706,-10.78801 -0.53769,-0.44937 4.94629,4.79482 5.16135,8.09117 0.21502,3.29636 -0.75272,8.9899 -3.871,11.68695 -3.11826,2.69708 -10.32254,5.39414 -14.83866,4.49518 -4.51608,-0.89896 -7.52691,-8.24091 -12.25802,-9.88907 -4.73114,-1.64819 -10.64521,-1.49826 -16.12903,0 -5.48386,1.49826 -16.77414,8.99011 -16.77414,8.99011 v 0"
     fill-rule="evenodd"
     id="path25" />
  <path
     inkscape:export-ydpi="300"
     inkscape:export-xdpi="300"
     inkscape:export-filename="C:\Users\sfjones\Documents\Manuscripts\Global typology\barrier_estuary.png"
     fill="#d7a979"
     d="m 555.92004,348.66767 c 4.56992,-3.82089 9.1398,-7.6416 14.19354,-7.19202 5.05377,0.44956 10.64505,6.74243 16.12891,9.88907 5.48382,3.14661 11.07525,8.84018 16.77414,8.99011 5.69888,0.14991 11.72052,-4.49496 17.4194,-8.09097 5.69888,-3.59601 11.29032,-9.88925 16.77414,-13.48526 5.48383,-3.59601 10.10739,-10.33865 16.12888,-8.09119 6.02151,2.2475 13.01077,24.42322 20.00003,21.57645 6.98922,-2.8468 15.80639,-32.06499 21.93533,-38.6577 6.12897,-6.59271 14.7312,-6.14314 14.83865,-0.89895 0.10761,5.24418 -10.64517,24.72285 -14.19354,32.36445 -3.54834,7.64157 -5.16119,7.94141 -7.09668,13.48526 -1.93548,5.54404 -4.08603,14.08457 -4.51611,19.77832 -0.43005,5.69376 1.93552,14.38403 1.93552,14.38403 0.53765,2.24747 0.91394,0.67426 1.29034,-0.89895"
     fill-rule="evenodd"
     id="path27" />
  <path
     inkscape:export-ydpi="300"
     inkscape:export-xdpi="300"
     inkscape:export-filename="C:\Users\sfjones\Documents\Manuscripts\Global typology\barrier_estuary.png"
     stroke="#000000"
     stroke-width="1.33333"
     stroke-miterlimit="800"
     stroke-linecap="butt"
     d="m 555.92004,348.66767 c 4.56992,-3.82089 9.1398,-7.6416 14.19354,-7.19202 5.05377,0.44956 10.64505,6.74243 16.12891,9.88907 5.48382,3.14661 11.07525,8.84018 16.77414,8.99011 5.69888,0.14991 11.72052,-4.49496 17.4194,-8.09097 5.69888,-3.59601 11.29032,-9.88925 16.77414,-13.48526 5.48383,-3.59601 10.10739,-10.33865 16.12888,-8.09119 6.02151,2.2475 13.01077,24.42322 20.00003,21.57645 6.98922,-2.8468 15.80639,-32.06499 21.93533,-38.6577 6.12897,-6.59271 14.7312,-6.14314 14.83865,-0.89895 0.10761,5.24418 -10.64517,24.72285 -14.19354,32.36445 -3.54834,7.64157 -5.16119,7.94141 -7.09668,13.48526 -1.93548,5.54404 -4.08603,14.08457 -4.51611,19.77832 -0.43005,5.69376 1.93552,14.38403 1.93552,14.38403 0.53765,2.24747 0.91394,0.67426 1.29034,-0.89895"
     fill-rule="evenodd"
     id="path29" />
  <path
     inkscape:export-ydpi="300"
     inkscape:export-xdpi="300"
     inkscape:export-filename="C:\Users\sfjones\Documents\Manuscripts\Global typology\barrier_estuary.png"
     fill="#d7a979"
     d="m 607.13991,313.637 c 4.82574,-6.1859 -12.56717,-2.28622 -18.09668,-1.6138 -5.52951,0.67242 -9.35007,2.28604 -15.08066,5.64803 -5.73056,3.36196 -14.37671,9.27909 -19.30304,14.52363 -4.92633,5.24469 -9.2496,9.00998 -10.25491,16.94406 -1.00531,7.93405 1.2e-4,24.47498 4.22269,30.66089 4.22253,6.18588 14.67837,5.64801 21.11273,6.45484 6.43435,0.80679 12.16507,0.13436 17.4935,-1.6138 5.32846,-1.74817 10.25479,-6.18592 14.47732,-8.87546 4.22257,-2.68952 10.8581,-7.26181 10.8581,-7.26181 2.01074,-2.01712 9.95324,-1.61362 1.20651,-4.84104 -8.74677,-3.22741 -53.28491,-6.58938 -53.68701,-14.52362 -0.40213,-7.93426 42.22574,-29.31604 47.05145,-35.50192 z"
     fill-rule="evenodd"
     id="path31" />
  <path
     inkscape:export-ydpi="300"
     inkscape:export-xdpi="300"
     inkscape:export-filename="C:\Users\sfjones\Documents\Manuscripts\Global typology\barrier_estuary.png"
     fill="#d7a979"
     d="m 556.18141,351.22431 v 0 c 0.32077,-2.39459 7.10965,-2.62753 15.16336,-0.52029 v 0 c 8.05371,2.10723 14.32251,5.75671 14.00174,8.15127 v 0 c -0.32077,2.39459 -7.10965,2.62753 -15.16336,0.5203 v 0 c -8.05371,-2.10724 -14.32251,-5.75669 -14.00174,-8.15128 z"
     fill-rule="evenodd"
     id="path33" />
  <path
     inkscape:export-ydpi="300"
     inkscape:export-xdpi="300"
     inkscape:export-filename="C:\Users\sfjones\Documents\Manuscripts\Global typology\barrier_estuary.png"
     fill="#d7a979"
     d="m 557.60534,342.09046 v 0 c -0.72174,-2.21899 4.73907,-7.86142 12.19705,-12.60271 v 0 c 7.45801,-4.74128 14.08899,-6.78601 14.81073,-4.56703 v 0 c 0.72174,2.219 -4.73907,7.86142 -12.19705,12.60269 v 0 c -7.45801,4.74131 -14.08899,6.78601 -14.81073,4.56705 z"
     fill-rule="evenodd"
     id="path35" />
  <path
     inkscape:export-ydpi="300"
     inkscape:export-xdpi="300"
     inkscape:export-filename="C:\Users\sfjones\Documents\Manuscripts\Global typology\barrier_estuary.png"
     fill="#548135"
     d="m 656.60072,322.3841 c -0.43906,1.22366 8.34226,6.83205 10.5376,6.73012 2.19534,-0.10195 3.65884,-6.22023 2.6344,-7.34194 -1.02445,-1.12172 -12.73294,-0.61183 -13.172,0.61182 z"
     fill-rule="evenodd"
     id="path37" />
  <path
     inkscape:export-ydpi="300"
     inkscape:export-xdpi="300"
     inkscape:export-filename="C:\Users\sfjones\Documents\Manuscripts\Global typology\barrier_estuary.png"
     stroke="#000000"
     stroke-width="1"
     stroke-miterlimit="800"
     stroke-linecap="butt"
     d="m 656.60072,322.3841 c -0.43906,1.22366 8.34226,6.83205 10.5376,6.73012 2.19534,-0.10195 3.65884,-6.22023 2.6344,-7.34194 -1.02445,-1.12172 -12.73294,-0.61183 -13.172,0.61182 z"
     fill-rule="evenodd"
     id="path39" />
  <path
     inkscape:export-ydpi="300"
     inkscape:export-xdpi="300"
     inkscape:export-filename="C:\Users\sfjones\Documents\Manuscripts\Global typology\barrier_estuary.png"
     fill="#000000"
     fill-opacity="0"
     d="m 672.74164,317.25717 c -2.00714,3.17827 0,8.54858 0,8.54858 0,1.75359 -1.67261,3.2878 0,1.97268 1.67261,-1.31513 7.24799,-6.57575 10.03574,-9.8637 2.78778,-3.28795 6.35601,-8.00042 6.69055,-9.86355 0.33453,-1.86315 -2.4531,-2.63025 -4.68329,-1.31513 -2.23019,1.31513 -10.03589,7.34287 -12.043,10.52112 z"
     fill-rule="evenodd"
     id="path41" />
  <path
     inkscape:export-ydpi="300"
     inkscape:export-xdpi="300"
     inkscape:export-filename="C:\Users\sfjones\Documents\Manuscripts\Global typology\barrier_estuary.png"
     stroke="#000000"
     stroke-width="1.33333"
     stroke-miterlimit="800"
     stroke-linecap="butt"
     stroke-dasharray="5.33333, 4"
     d="m 672.74164,317.25717 c -2.00714,3.17827 0,8.54858 0,8.54858 0,1.75359 -1.67261,3.2878 0,1.97268 1.67261,-1.31513 7.24799,-6.57575 10.03574,-9.8637 2.78778,-3.28795 6.35601,-8.00042 6.69055,-9.86355 0.33453,-1.86315 -2.4531,-2.63025 -4.68329,-1.31513 -2.23019,1.31513 -10.03589,7.34287 -12.043,10.52112 z"
     fill-rule="evenodd"
     id="path43" />
  <path
     inkscape:export-ydpi="300"
     inkscape:export-xdpi="300"
     inkscape:export-filename="C:\Users\sfjones\Documents\Manuscripts\Global typology\barrier_estuary.png"
     fill="#000000"
     fill-opacity="0"
     d="m 704.87964,292.69702 c 3.09491,2.67972 6.18982,5.35944 7.07416,7.82196 0.88437,2.46252 -1.47373,5.64922 -1.76843,6.95279 -0.29468,1.30356 -0.1474,1.08624 0,0.86905"
     fill-rule="evenodd"
     id="path45" />
  <path
     inkscape:export-ydpi="300"
     inkscape:export-xdpi="300"
     inkscape:export-filename="C:\Users\sfjones\Documents\Manuscripts\Global typology\barrier_estuary.png"
     stroke="#000000"
     stroke-width="1.33333"
     stroke-miterlimit="800"
     stroke-linecap="butt"
     stroke-dasharray="5.33333, 4"
     d="m 704.87964,292.69702 c 3.09491,2.67972 6.18982,5.35944 7.07416,7.82196 0.88437,2.46252 -1.47373,5.64922 -1.76843,6.95279 -0.29468,1.30356 -0.1474,1.08624 0,0.86905"
     fill-rule="evenodd"
     id="path47" />
  <path
     fill="#000000"
     fill-opacity="0"
     d="M 683.6341,31.487663 H 873.61835 V 70.259315 H 683.6341 Z"
     fill-rule="evenodd"
     id="path315" />
  <path
     fill="#000000"
     d="m 564.64555,430.79775 q 0,0.70312 -0.1875,1.3125 -0.17188,0.60937 -0.5,1.09375 -0.32813,0.46875 -0.79688,0.84375 -0.46875,0.35937 -1.04687,0.60937 -0.57813,0.23438 -1.25,0.35938 -0.65625,0.125 -1.5,0.125 h -3.96875 q -0.26563,0 -0.51563,-0.17188 -0.23437,-0.1875 -0.23437,-0.65625 v -13.51562 q 0,-0.45313 0.23437,-0.64063 0.25,-0.1875 0.51563,-0.1875 h 3.45312 q 1.35938,0 2.21875,0.26563 0.875,0.25 1.45313,0.75 0.57812,0.48437 0.85937,1.20312 0.29688,0.71875 0.29688,1.625 0,0.53125 -0.125,1.03125 -0.125,0.48438 -0.375,0.90625 -0.25,0.40625 -0.64063,0.73438 -0.375,0.32812 -0.875,0.54687 0.625,0.10938 1.15625,0.42188 0.54688,0.3125 0.95313,0.79687 0.40625,0.48438 0.64062,1.125 0.23438,0.64063 0.23438,1.42188 z m -3.03125,-6.79688 q 0,-0.54687 -0.15625,-0.98437 -0.15625,-0.45313 -0.48438,-0.76563 -0.32812,-0.3125 -0.85937,-0.46875 -0.51563,-0.17187 -1.39063,-0.17187 h -2.07812 v 4.92187 h 2.29687 q 0.78125,0 1.25,-0.20312 0.48438,-0.21875 0.79688,-0.5625 0.32812,-0.34375 0.46875,-0.79688 0.15625,-0.46875 0.15625,-0.96875 z m 0.90625,6.90625 q 0,-0.67187 -0.21875,-1.1875 -0.21875,-0.51562 -0.64063,-0.85937 -0.40625,-0.35938 -1.03125,-0.54688 -0.625,-0.1875 -1.57812,-0.1875 h -2.40625 v 5.34375 h 2.92187 q 0.6875,0 1.20313,-0.15625 0.51562,-0.17187 0.90625,-0.48437 0.40625,-0.32813 0.625,-0.79688 0.21875,-0.48437 0.21875,-1.125 z m 12.89844,3.95313 q 0,0.14062 -0.0937,0.21875 -0.0937,0.0625 -0.26563,0.0937 -0.15625,0.0469 -0.46875,0.0469 -0.29687,0 -0.48437,-0.0469 -0.1875,-0.0312 -0.26563,-0.0937 -0.0781,-0.0781 -0.0781,-0.21875 v -1.0625 q -0.6875,0.75 -1.54688,1.15625 -0.84375,0.40625 -1.79687,0.40625 -0.82813,0 -1.5,-0.21875 -0.67188,-0.21875 -1.15625,-0.625 -0.46875,-0.40625 -0.73438,-1 -0.26562,-0.60938 -0.26562,-1.35938 0,-0.89062 0.35937,-1.54687 0.375,-0.65625 1.04688,-1.09375 0.6875,-0.4375 1.67187,-0.65625 0.98438,-0.21875 2.20313,-0.21875 h 1.45312 v -0.8125 q 0,-0.60938 -0.125,-1.07813 -0.125,-0.46875 -0.42187,-0.78125 -0.28125,-0.3125 -0.73438,-0.46875 -0.45312,-0.15625 -1.125,-0.15625 -0.71875,0 -1.29687,0.17188 -0.5625,0.17187 -0.98438,0.375 -0.42187,0.20312 -0.71875,0.375 -0.28125,0.17187 -0.42187,0.17187 -0.0937,0 -0.17188,-0.0469 -0.0625,-0.0469 -0.125,-0.14063 -0.0469,-0.0937 -0.0781,-0.23437 -0.0156,-0.15625 -0.0156,-0.32813 0,-0.29687 0.0312,-0.46875 0.0469,-0.17187 0.20313,-0.3125 0.17187,-0.15625 0.54687,-0.35937 0.39063,-0.21875 0.89063,-0.375 0.51562,-0.17188 1.10937,-0.28125 0.59375,-0.125 1.20313,-0.125 1.14062,0 1.9375,0.26562 0.79687,0.25 1.28125,0.75 0.5,0.5 0.71875,1.25 0.21875,0.73438 0.21875,1.71875 z m -1.92188,-4.8125 h -1.64062 q -0.79688,0 -1.39063,0.14062 -0.57812,0.125 -0.96875,0.39063 -0.39062,0.26562 -0.57812,0.64062 -0.17188,0.35938 -0.17188,0.84375 0,0.8125 0.51563,1.29688 0.53125,0.48437 1.46875,0.48437 0.75,0 1.40625,-0.375 0.65625,-0.39062 1.35937,-1.1875 z m 11.63672,-5.0625 q 0,0.26562 -0.0156,0.4375 0,0.17187 -0.0469,0.28125 -0.0312,0.0937 -0.0781,0.15625 -0.0469,0.0469 -0.14063,0.0469 -0.0937,0 -0.23437,-0.0469 -0.14063,-0.0625 -0.3125,-0.10938 -0.15625,-0.0625 -0.375,-0.10937 -0.20313,-0.0469 -0.45313,-0.0469 -0.29687,0 -0.57812,0.125 -0.28125,0.10938 -0.59375,0.39063 -0.3125,0.26562 -0.65625,0.71875 -0.32813,0.4375 -0.73438,1.07812 v 6.9375 q 0,0.0937 -0.0469,0.15625 -0.0469,0.0625 -0.15625,0.125 -0.10938,0.0469 -0.29688,0.0625 -0.1875,0.0312 -0.48437,0.0312 -0.28125,0 -0.46875,-0.0312 -0.1875,-0.0156 -0.29688,-0.0625 -0.10937,-0.0625 -0.15625,-0.125 -0.0312,-0.0625 -0.0312,-0.15625 v -10.54687 q 0,-0.0937 0.0312,-0.15625 0.0312,-0.0625 0.14063,-0.10938 0.10937,-0.0625 0.26562,-0.0781 0.17188,-0.0156 0.4375,-0.0156 0.26563,0 0.42188,0.0156 0.17187,0.0156 0.26562,0.0781 0.0937,0.0469 0.14063,0.10938 0.0469,0.0625 0.0469,0.15625 v 1.53125 q 0.42188,-0.625 0.79688,-1.01563 0.39062,-0.40625 0.73437,-0.625 0.34375,-0.23437 0.67188,-0.32812 0.32812,-0.0937 0.67187,-0.0937 0.15625,0 0.34375,0.0312 0.20313,0.0156 0.40625,0.0625 0.21875,0.0469 0.375,0.10937 0.17188,0.0469 0.23438,0.10938 0.0781,0.0625 0.0937,0.10937 0.0312,0.0469 0.0469,0.14063 0.0312,0.0781 0.0312,0.23437 0,0.15625 0,0.42188 z m 8.36719,0 q 0,0.26562 -0.0156,0.4375 0,0.17187 -0.0469,0.28125 -0.0312,0.0937 -0.0781,0.15625 -0.0469,0.0469 -0.14062,0.0469 -0.0937,0 -0.23438,-0.0469 -0.14062,-0.0625 -0.3125,-0.10938 -0.15625,-0.0625 -0.375,-0.10937 -0.20312,-0.0469 -0.45312,-0.0469 -0.29688,0 -0.57813,0.125 -0.28125,0.10938 -0.59375,0.39063 -0.3125,0.26562 -0.65625,0.71875 -0.32812,0.4375 -0.73437,1.07812 v 6.9375 q 0,0.0937 -0.0469,0.15625 -0.0469,0.0625 -0.15625,0.125 -0.10937,0.0469 -0.29687,0.0625 -0.1875,0.0312 -0.48438,0.0312 -0.28125,0 -0.46875,-0.0312 -0.1875,-0.0156 -0.29687,-0.0625 -0.10938,-0.0625 -0.15625,-0.125 -0.0312,-0.0625 -0.0312,-0.15625 v -10.54687 q 0,-0.0937 0.0312,-0.15625 0.0312,-0.0625 0.14062,-0.10938 0.10938,-0.0625 0.26563,-0.0781 0.17187,-0.0156 0.4375,-0.0156 0.26562,0 0.42187,0.0156 0.17188,0.0156 0.26563,0.0781 0.0937,0.0469 0.14062,0.10938 0.0469,0.0625 0.0469,0.15625 v 1.53125 q 0.42187,-0.625 0.79687,-1.01563 0.39063,-0.40625 0.73438,-0.625 0.34375,-0.23437 0.67187,-0.32812 0.32813,-0.0937 0.67188,-0.0937 0.15625,0 0.34375,0.0312 0.20312,0.0156 0.40625,0.0625 0.21875,0.0469 0.375,0.10937 0.17187,0.0469 0.23437,0.10938 0.0781,0.0625 0.0937,0.10937 0.0312,0.0469 0.0469,0.14063 0.0312,0.0781 0.0312,0.23437 0,0.15625 0,0.42188 z m 4.14844,9.85937 q 0,0.0937 -0.0469,0.15625 -0.0469,0.0625 -0.15625,0.125 -0.10937,0.0469 -0.29687,0.0625 -0.1875,0.0312 -0.48438,0.0312 -0.28125,0 -0.46875,-0.0312 -0.1875,-0.0156 -0.29687,-0.0625 -0.10938,-0.0625 -0.15625,-0.125 -0.0312,-0.0625 -0.0312,-0.15625 v -10.54687 q 0,-0.0781 0.0312,-0.14063 0.0469,-0.0781 0.15625,-0.125 0.10937,-0.0469 0.29687,-0.0625 0.1875,-0.0312 0.46875,-0.0312 0.29688,0 0.48438,0.0312 0.1875,0.0156 0.29687,0.0625 0.10938,0.0469 0.15625,0.125 0.0469,0.0625 0.0469,0.14063 z m 0.21875,-14.10937 q 0,0.6875 -0.26563,0.9375 -0.25,0.23437 -0.9375,0.23437 -0.6875,0 -0.9375,-0.23437 -0.25,-0.25 -0.25,-0.90625 0,-0.6875 0.25,-0.92188 0.26563,-0.25 0.95313,-0.25 0.6875,0 0.9375,0.23438 0.25,0.23437 0.25,0.90625 z m 12.35156,8.375 q 0,0.46875 -0.23438,0.65625 -0.21875,0.1875 -0.51562,0.1875 h -6.92188 q 0,0.89062 0.17188,1.59375 0.1875,0.70312 0.59375,1.20312 0.40625,0.5 1.0625,0.78125 0.65625,0.26563 1.60937,0.26563 0.75,0 1.32813,-0.125 0.59375,-0.125 1.01562,-0.28125 0.4375,-0.15625 0.70313,-0.26563 0.28125,-0.125 0.42187,-0.125 0.0781,0 0.14063,0.0469 0.0781,0.0312 0.10937,0.10937 0.0312,0.0781 0.0469,0.23438 0.0156,0.14062 0.0156,0.35937 0,0.14063 -0.0156,0.26563 0,0.10937 -0.0156,0.20312 -0.0156,0.0781 -0.0625,0.15625 -0.0469,0.0625 -0.10937,0.125 -0.0625,0.0625 -0.375,0.21875 -0.3125,0.14063 -0.82813,0.28125 -0.5,0.14063 -1.17187,0.25 -0.65625,0.10938 -1.40625,0.10938 -1.29688,0 -2.28125,-0.35938 -0.96875,-0.35937 -1.64063,-1.07812 -0.67187,-0.71875 -1.01562,-1.79688 -0.32813,-1.07812 -0.32813,-2.5 0,-1.35937 0.34375,-2.4375 0.35938,-1.09375 1.01563,-1.84375 0.67187,-0.76562 1.60937,-1.17187 0.9375,-0.40625 2.09375,-0.40625 1.23438,0 2.10938,0.40625 0.875,0.39062 1.4375,1.07812 0.5625,0.67188 0.82812,1.57813 0.26563,0.90625 0.26563,1.9375 z m -1.95313,-0.5625 q 0.0469,-1.53125 -0.67187,-2.39063 -0.70313,-0.875 -2.09375,-0.875 -0.71875,0 -1.26563,0.28125 -0.53125,0.26563 -0.90625,0.71875 -0.35937,0.4375 -0.5625,1.03125 -0.1875,0.57813 -0.21875,1.23438 z m 11.05078,-3.5625 q 0,0.26562 -0.0156,0.4375 0,0.17187 -0.0469,0.28125 -0.0312,0.0937 -0.0781,0.15625 -0.0469,0.0469 -0.14063,0.0469 -0.0937,0 -0.23437,-0.0469 -0.14063,-0.0625 -0.3125,-0.10938 -0.15625,-0.0625 -0.375,-0.10937 -0.20313,-0.0469 -0.45313,-0.0469 -0.29687,0 -0.57812,0.125 -0.28125,0.10938 -0.59375,0.39063 -0.3125,0.26562 -0.65625,0.71875 -0.32813,0.4375 -0.73438,1.07812 v 6.9375 q 0,0.0937 -0.0469,0.15625 -0.0469,0.0625 -0.15625,0.125 -0.10938,0.0469 -0.29688,0.0625 -0.1875,0.0312 -0.48437,0.0312 -0.28125,0 -0.46875,-0.0312 -0.1875,-0.0156 -0.29688,-0.0625 -0.10937,-0.0625 -0.15625,-0.125 -0.0312,-0.0625 -0.0312,-0.15625 v -10.54687 q 0,-0.0937 0.0312,-0.15625 0.0312,-0.0625 0.14063,-0.10938 0.10937,-0.0625 0.26562,-0.0781 0.17188,-0.0156 0.4375,-0.0156 0.26563,0 0.42188,0.0156 0.17187,0.0156 0.26562,0.0781 0.0937,0.0469 0.14063,0.10938 0.0469,0.0625 0.0469,0.15625 v 1.53125 q 0.42188,-0.625 0.79688,-1.01563 0.39062,-0.40625 0.73437,-0.625 0.34375,-0.23437 0.67188,-0.32812 0.32812,-0.0937 0.67187,-0.0937 0.15625,0 0.34375,0.0312 0.20313,0.0156 0.40625,0.0625 0.21875,0.0469 0.375,0.10937 0.17188,0.0469 0.23438,0.10938 0.0781,0.0625 0.0937,0.10937 0.0312,0.0469 0.0469,0.14063 0.0312,0.0781 0.0312,0.23437 0,0.15625 0,0.42188 z m 16.29297,9.32812 q 0,0.20313 -0.0312,0.35938 -0.0156,0.15625 -0.0781,0.26562 -0.0469,0.10938 -0.125,0.15625 -0.0781,0.0469 -0.17188,0.0469 h -7.28125 q -0.26562,0 -0.51562,-0.17188 -0.23438,-0.1875 -0.23438,-0.65625 v -13.51562 q 0,-0.45313 0.23438,-0.64063 0.25,-0.1875 0.51562,-0.1875 h 7.20313 q 0.0937,0 0.15625,0.0469 0.0781,0.0469 0.125,0.15625 0.0469,0.10937 0.0781,0.26562 0.0312,0.15625 0.0312,0.39063 0,0.21875 -0.0312,0.375 -0.0312,0.15625 -0.0781,0.26562 -0.0469,0.0937 -0.125,0.14063 -0.0625,0.0469 -0.15625,0.0469 h -5.9375 v 4.75 h 5.09375 q 0.0937,0 0.15625,0.0625 0.0781,0.0469 0.125,0.14063 0.0625,0.0937 0.0781,0.26562 0.0312,0.15625 0.0312,0.375 0,0.21875 -0.0312,0.375 -0.0156,0.14063 -0.0781,0.23438 -0.0469,0.0937 -0.125,0.14062 -0.0625,0.0312 -0.15625,0.0312 h -5.09375 v 5.4375 h 6.01562 q 0.0937,0 0.17188,0.0469 0.0781,0.0469 0.125,0.14062 0.0625,0.0937 0.0781,0.26563 0.0312,0.15625 0.0312,0.39062 z m 9.6875,-2.34375 q 0,0.8125 -0.3125,1.45313 -0.29687,0.625 -0.84375,1.0625 -0.54687,0.4375 -1.3125,0.65625 -0.76562,0.21875 -1.67187,0.21875 -0.5625,0 -1.07813,-0.0937 -0.5,-0.0781 -0.90625,-0.20313 -0.40625,-0.14062 -0.6875,-0.28125 -0.28125,-0.15625 -0.42187,-0.26562 -0.125,-0.125 -0.1875,-0.32813 -0.0469,-0.21875 -0.0469,-0.57812 0,-0.23438 0.0156,-0.375 0.0312,-0.15625 0.0625,-0.25 0.0312,-0.0937 0.0937,-0.125 0.0781,-0.0469 0.15625,-0.0469 0.125,0 0.375,0.15625 0.25,0.15625 0.625,0.34375 0.375,0.1875 0.875,0.34375 0.5,0.15625 1.15625,0.15625 0.5,0 0.89062,-0.0937 0.40625,-0.10937 0.6875,-0.3125 0.29688,-0.21875 0.45313,-0.53125 0.15625,-0.3125 0.15625,-0.75 0,-0.4375 -0.23438,-0.73437 -0.21875,-0.3125 -0.59375,-0.54688 -0.375,-0.23437 -0.84375,-0.42187 -0.46875,-0.1875 -0.96875,-0.375 -0.5,-0.20313 -0.96875,-0.45313 -0.46875,-0.25 -0.84375,-0.60937 -0.375,-0.375 -0.60937,-0.875 -0.23438,-0.5 -0.23438,-1.20313 0,-0.625 0.23438,-1.1875 0.25,-0.57812 0.73437,-1 0.48438,-0.4375 1.20313,-0.6875 0.71875,-0.26562 1.67187,-0.26562 0.42188,0 0.84375,0.0781 0.42188,0.0625 0.76563,0.17188 0.34375,0.10937 0.57812,0.23437 0.25,0.125 0.35938,0.21875 0.125,0.0937 0.17187,0.17188 0.0469,0.0625 0.0625,0.15625 0.0156,0.0781 0.0312,0.20312 0.0156,0.125 0.0156,0.3125 0,0.20313 -0.0156,0.35938 -0.0156,0.14062 -0.0625,0.23437 -0.0312,0.0937 -0.0937,0.14063 -0.0625,0.0312 -0.125,0.0312 -0.10937,0 -0.3125,-0.125 -0.20312,-0.125 -0.51562,-0.26563 -0.3125,-0.15625 -0.75,-0.28125 -0.42188,-0.14062 -0.96875,-0.14062 -0.5,0 -0.875,0.125 -0.375,0.10937 -0.60938,0.3125 -0.23437,0.20312 -0.35937,0.48437 -0.125,0.28125 -0.125,0.60938 0,0.45312 0.23437,0.76562 0.23438,0.3125 0.60938,0.54688 0.375,0.23437 0.84375,0.42187 0.48437,0.1875 0.98437,0.39063 0.5,0.1875 0.98438,0.4375 0.48437,0.25 0.85937,0.60937 0.375,0.34375 0.60938,0.84375 0.23437,0.48438 0.23437,1.15625 z m 7.97657,2.10938 q 0,0.32812 -0.0469,0.53125 -0.0469,0.20312 -0.14062,0.29687 -0.0937,0.0937 -0.28125,0.1875 -0.1875,0.0781 -0.4375,0.125 -0.23438,0.0469 -0.5,0.0781 -0.26563,0.0469 -0.54688,0.0469 -0.8125,0 -1.40625,-0.21875 -0.57812,-0.21875 -0.95312,-0.65625 -0.375,-0.4375 -0.54688,-1.10937 -0.17187,-0.6875 -0.17187,-1.59375 v -6.17188 h -1.46875 q -0.1875,0 -0.29688,-0.1875 -0.0937,-0.1875 -0.0937,-0.60937 0,-0.21875 0.0312,-0.35938 0.0312,-0.15625 0.0781,-0.25 0.0469,-0.10937 0.10937,-0.14062 0.0781,-0.0469 0.17188,-0.0469 h 1.46875 v -2.51562 q 0,-0.0781 0.0312,-0.14063 0.0469,-0.0781 0.15625,-0.125 0.125,-0.0625 0.3125,-0.0781 0.1875,-0.0312 0.46875,-0.0312 0.28125,0 0.46875,0.0312 0.1875,0.0156 0.29687,0.0781 0.10938,0.0469 0.15625,0.125 0.0469,0.0625 0.0469,0.14063 v 2.51562 h 2.70312 q 0.0937,0 0.15625,0.0469 0.0781,0.0312 0.125,0.14062 0.0625,0.0937 0.0781,0.25 0.0312,0.14063 0.0312,0.35938 0,0.42187 -0.10938,0.60937 -0.10937,0.1875 -0.28125,0.1875 h -2.70312 v 5.89063 q 0,1.09375 0.3125,1.65625 0.32812,0.54687 1.15625,0.54687 0.28125,0 0.48437,-0.0469 0.21875,-0.0625 0.375,-0.10938 0.17188,-0.0625 0.28125,-0.10937 0.125,-0.0625 0.21875,-0.0625 0.0469,0 0.0937,0.0312 0.0625,0.0312 0.0937,0.10937 0.0312,0.0781 0.0469,0.21875 0.0312,0.14063 0.0312,0.35938 z m 11.58593,0.76562 q 0,0.0937 -0.0469,0.15625 -0.0312,0.0625 -0.14063,0.125 -0.10937,0.0469 -0.28125,0.0625 -0.15625,0.0312 -0.40625,0.0312 -0.26562,0 -0.4375,-0.0312 -0.17187,-0.0156 -0.28125,-0.0625 -0.0937,-0.0625 -0.125,-0.125 -0.0312,-0.0625 -0.0312,-0.15625 V 433.454 q -0.90625,1 -1.79687,1.45312 -0.875,0.45313 -1.76563,0.45313 -1.0625,0 -1.78125,-0.34375 -0.71875,-0.35938 -1.17187,-0.95313 -0.4375,-0.60937 -0.64063,-1.40625 -0.1875,-0.8125 -0.1875,-1.95312 v -6.40625 q 0,-0.0937 0.0312,-0.15625 0.0469,-0.0625 0.15625,-0.10938 0.125,-0.0625 0.3125,-0.0781 0.1875,-0.0156 0.46875,-0.0156 0.28125,0 0.46875,0.0156 0.1875,0.0156 0.29688,0.0781 0.125,0.0469 0.17187,0.10938 0.0469,0.0625 0.0469,0.15625 v 6.14062 q 0,0.92188 0.125,1.48438 0.14062,0.5625 0.40625,0.95312 0.28125,0.39063 0.70312,0.60938 0.42188,0.21875 0.98438,0.21875 0.73437,0 1.45312,-0.51563 0.71875,-0.51562 1.53125,-1.51562 v -7.375 q 0,-0.0937 0.0312,-0.15625 0.0469,-0.0625 0.15625,-0.10938 0.125,-0.0625 0.29688,-0.0781 0.1875,-0.0156 0.48437,-0.0156 0.28125,0 0.46875,0.0156 0.1875,0.0156 0.28125,0.0781 0.10938,0.0469 0.15625,0.10938 0.0625,0.0625 0.0625,0.15625 z m 11.51564,0.0156 q 0,0.14062 -0.0937,0.21875 -0.0937,0.0625 -0.26562,0.0937 -0.15625,0.0469 -0.46875,0.0469 -0.29688,0 -0.48438,-0.0469 -0.1875,-0.0312 -0.26562,-0.0937 -0.0781,-0.0781 -0.0781,-0.21875 v -1.0625 q -0.6875,0.75 -1.54687,1.15625 -0.84375,0.40625 -1.79688,0.40625 -0.82812,0 -1.5,-0.21875 -0.67187,-0.21875 -1.15625,-0.625 -0.46875,-0.40625 -0.73437,-1 -0.26563,-0.60938 -0.26563,-1.35938 0,-0.89062 0.35938,-1.54687 0.375,-0.65625 1.04687,-1.09375 0.6875,-0.4375 1.67188,-0.65625 0.98437,-0.21875 2.20312,-0.21875 h 1.45313 v -0.8125 q 0,-0.60938 -0.125,-1.07813 -0.125,-0.46875 -0.42188,-0.78125 -0.28125,-0.3125 -0.73437,-0.46875 -0.45313,-0.15625 -1.125,-0.15625 -0.71875,0 -1.29688,0.17188 -0.5625,0.17187 -0.98437,0.375 -0.42188,0.20312 -0.71875,0.375 -0.28125,0.17187 -0.42188,0.17187 -0.0937,0 -0.17187,-0.0469 -0.0625,-0.0469 -0.125,-0.14063 -0.0469,-0.0937 -0.0781,-0.23437 -0.0156,-0.15625 -0.0156,-0.32813 0,-0.29687 0.0312,-0.46875 0.0469,-0.17187 0.20312,-0.3125 0.17188,-0.15625 0.54688,-0.35937 0.39062,-0.21875 0.89062,-0.375 0.51563,-0.17188 1.10938,-0.28125 0.59375,-0.125 1.20312,-0.125 1.14063,0 1.9375,0.26562 0.79688,0.25 1.28125,0.75 0.5,0.5 0.71875,1.25 0.21875,0.73438 0.21875,1.71875 z m -1.92187,-4.8125 h -1.64063 q -0.79687,0 -1.39062,0.14062 -0.57813,0.125 -0.96875,0.39063 -0.39063,0.26562 -0.57813,0.64062 -0.17187,0.35938 -0.17187,0.84375 0,0.8125 0.51562,1.29688 0.53125,0.48437 1.46875,0.48437 0.75,0 1.40625,-0.375 0.65625,-0.39062 1.35938,-1.1875 z m 11.63672,-5.0625 q 0,0.26562 -0.0156,0.4375 0,0.17187 -0.0469,0.28125 -0.0312,0.0937 -0.0781,0.15625 -0.0469,0.0469 -0.14062,0.0469 -0.0937,0 -0.23438,-0.0469 -0.14062,-0.0625 -0.3125,-0.10938 -0.15625,-0.0625 -0.375,-0.10937 -0.20312,-0.0469 -0.45312,-0.0469 -0.29688,0 -0.57813,0.125 -0.28125,0.10938 -0.59375,0.39063 -0.3125,0.26562 -0.65625,0.71875 -0.32812,0.4375 -0.73437,1.07812 v 6.9375 q 0,0.0937 -0.0469,0.15625 -0.0469,0.0625 -0.15625,0.125 -0.10937,0.0469 -0.29687,0.0625 -0.1875,0.0312 -0.48438,0.0312 -0.28125,0 -0.46875,-0.0312 -0.1875,-0.0156 -0.29687,-0.0625 -0.10938,-0.0625 -0.15625,-0.125 -0.0312,-0.0625 -0.0312,-0.15625 V 424.2977 q 0,-0.0937 0.0312,-0.15625 0.0312,-0.0625 0.14062,-0.10938 0.10938,-0.0625 0.26563,-0.0781 0.17187,-0.0156 0.4375,-0.0156 0.26562,0 0.42187,0.0156 0.17188,0.0156 0.26563,0.0781 0.0937,0.0469 0.14062,0.10938 0.0469,0.0625 0.0469,0.15625 v 1.53125 q 0.42187,-0.625 0.79687,-1.01563 0.39063,-0.40625 0.73438,-0.625 0.34375,-0.23437 0.67187,-0.32812 0.32813,-0.0937 0.67188,-0.0937 0.15625,0 0.34375,0.0312 0.20312,0.0156 0.40625,0.0625 0.21875,0.0469 0.375,0.10937 0.17187,0.0469 0.23437,0.10938 0.0781,0.0625 0.0937,0.10937 0.0312,0.0469 0.0469,0.14063 0.0312,0.0781 0.0312,0.23437 0,0.15625 0,0.42188 z m 7.125,10.15625 -1.40625,3.875 q -0.0625,0.1875 -0.35938,0.28125 -0.28125,0.10937 -0.85937,0.10937 -0.3125,0 -0.5,-0.0312 -0.1875,-0.0312 -0.29688,-0.10937 -0.0937,-0.0625 -0.10937,-0.1875 0,-0.10938 0.0625,-0.26563 l 1.45312,-3.67187 q -0.0937,-0.0469 -0.1875,-0.15625 -0.0937,-0.10938 -0.14062,-0.21875 l -3.75,-10.07813 q -0.0937,-0.25 -0.0937,-0.39062 0,-0.14063 0.0937,-0.21875 0.0937,-0.0781 0.29687,-0.10938 0.21875,-0.0312 0.5625,-0.0312 0.35938,0 0.54688,0.0156 0.20312,0.0156 0.3125,0.0625 0.125,0.0469 0.17187,0.14062 0.0625,0.0781 0.125,0.23438 l 3,8.46875 h 0.0469 l 2.90625,-8.51563 q 0.0625,-0.21875 0.15625,-0.28125 0.10937,-0.0625 0.29687,-0.0937 0.20313,-0.0312 0.57813,-0.0312 0.32812,0 0.53125,0.0312 0.21875,0.0312 0.3125,0.10938 0.10937,0.0781 0.10937,0.21875 0,0.14062 -0.0625,0.35937 z"
     fill-rule="nonzero"
     id="path321" />
</svg>
