<?xml version="1.0" encoding="UTF-8" standalone="no"?>
<svg
   xmlns:dc="http://purl.org/dc/elements/1.1/"
   xmlns:cc="http://creativecommons.org/ns#"
   xmlns:rdf="http://www.w3.org/1999/02/22-rdf-syntax-ns#"
   xmlns:svg="http://www.w3.org/2000/svg"
   xmlns="http://www.w3.org/2000/svg"
   xmlns:sodipodi="http://sodipodi.sourceforge.net/DTD/sodipodi-0.dtd"
   xmlns:inkscape="http://www.inkscape.org/namespaces/inkscape"
   version="1.1"
   viewBox="0.0 0.0 1280.0 720.0"
   fill="none"
   stroke="none"
   stroke-linecap="square"
   stroke-miterlimit="10"
   id="svg345"
   sodipodi:docname="drowned_river_valley.svg"
   inkscape:version="1.0 (4035a4fb49, 2020-05-01)">
  <metadata
     id="metadata351">
    <rdf:RDF>
      <cc:Work
         rdf:about="">
        <dc:format>image/svg+xml</dc:format>
        <dc:type
           rdf:resource="http://purl.org/dc/dcmitype/StillImage" />
        <dc:title></dc:title>
      </cc:Work>
    </rdf:RDF>
  </metadata>
  <defs
     id="defs349" />
  <sodipodi:namedview
     inkscape:document-rotation="0"
     pagecolor="#ffffff"
     bordercolor="#666666"
     borderopacity="1"
     objecttolerance="10"
     gridtolerance="10"
     guidetolerance="10"
     inkscape:pageopacity="0"
     inkscape:pageshadow="2"
     inkscape:window-width="1920"
     inkscape:window-height="1001"
     id="namedview347"
     showgrid="false"
     inkscape:zoom="0.94375"
     inkscape:cx="589.87981"
     inkscape:cy="20.927154"
     inkscape:window-x="554"
     inkscape:window-y="1359"
     inkscape:window-maximized="1"
     inkscape:current-layer="svg345" />
  <clipPath
     id="p3.0">
    <path
       d="m0 0l1280.0 0l0 720.0l-1280.0 0l0 -720.0z"
       clip-rule="nonzero"
       id="path2" />
  </clipPath>
  <path
     id="path5"
     fill-rule="evenodd"
     d="M 465.16556,86.887413 H 731.12587 V 342.78146 H 465.16556 Z"
     fill="#ffffff"
     style="stroke-width:0.271748" />
  <path
     id="path53"
     fill-rule="evenodd"
     d="m 645.47517,207.92741 c -0.1291,-2.53543 -0.258,-5.07086 -3.9342,-5.99075 -3.6762,-0.91989 -9.5449,0.73849 -18.1233,0.47116 -8.5784,-0.26737 -25.2624,-1.39316 -33.3475,-2.07508 -8.0851,-0.68191 -11.8179,0.73114 -15.1631,-2.01641 -3.3453,-2.74756 -5.6824,-9.90604 -4.9084,-14.46894 0.7741,-4.56292 5.7543,-11.13015 9.5532,-12.90869 3.7989,-1.77856 9.6563,0.23297 13.2408,2.23725 3.5845,2.00427 3.4251,9.09146 8.2658,9.78814 4.8408,0.69669 13.8886,-4.36926 20.7792,-5.60809 6.8905,-1.23886 15.5607,-2.05603 20.5644,-1.82541 5.0037,0.23062 5.9286,2.62985 9.4575,3.20874 3.5289,0.57892 7.2509,0.95664 11.7158,0.26486 4.465,-0.69174 15.0734,-4.41577 15.0734,-4.41577 5.1313,-1.48425 12.1233,-1.84006 15.714,-4.4895 3.5908,-2.64945 5.8349,-8.5445 5.8306,-11.40738 0,-2.86285 -5.8566,-5.76977 -5.8566,-5.76977 v 0"
     fill-opacity="0"
     fill="#000000"
     inkscape:export-filename="C:\Users\sfjones\Documents\Manuscripts\Global typology\drowned_river_valley.png"
     inkscape:export-xdpi="300"
     inkscape:export-ydpi="300" />
  <path
     id="path55"
     fill-rule="evenodd"
     d="m 645.47517,207.92741 c -0.1291,-2.53543 -0.258,-5.07086 -3.9342,-5.99075 -3.6762,-0.91989 -9.5449,0.73849 -18.1233,0.47116 -8.5784,-0.26737 -25.2624,-1.39316 -33.3475,-2.07508 -8.0851,-0.68191 -11.8179,0.73114 -15.1631,-2.01641 -3.3453,-2.74756 -5.6824,-9.90604 -4.9084,-14.46894 0.7741,-4.56292 5.7543,-11.13015 9.5532,-12.90869 3.7989,-1.77856 9.6563,0.23297 13.2408,2.23725 3.5845,2.00427 3.4251,9.09146 8.2658,9.78814 4.8408,0.69669 13.8886,-4.36926 20.7792,-5.60809 6.8905,-1.23886 15.5607,-2.05603 20.5644,-1.82541 5.0037,0.23062 5.9286,2.62985 9.4575,3.20874 3.5289,0.57892 7.2509,0.95664 11.7158,0.26486 4.465,-0.69174 15.0734,-4.41577 15.0734,-4.41577 5.1313,-1.48425 12.1233,-1.84006 15.714,-4.4895 3.5908,-2.64945 5.8349,-8.5445 5.8306,-11.40738 0,-2.86285 -5.8566,-5.76977 -5.8566,-5.76977 v 0"
     stroke-dasharray="5.33333, 4"
     stroke-linecap="butt"
     stroke-miterlimit="800"
     stroke-width="1.33333"
     stroke="#000000"
     inkscape:export-filename="C:\Users\sfjones\Documents\Manuscripts\Global typology\drowned_river_valley.png"
     inkscape:export-xdpi="300"
     inkscape:export-ydpi="300" />
  <path
     id="path57"
     fill-rule="evenodd"
     d="m 566.57917,205.67121 -2.5311,-9.73782 -1.7564,-7.0918 -4.8014,-0.81601 -6.2981,2.54684 -10.4288,-0.62545 -8.3634,0.96069 -4.594,5.08615 -2.9934,6.72568 -0.8771,4.65918 3.7178,3.67557 13.0097,-1.49439 17.5011,-3.37784 z"
     fill="#548135"
     inkscape:export-filename="C:\Users\sfjones\Documents\Manuscripts\Global typology\drowned_river_valley.png"
     inkscape:export-xdpi="300"
     inkscape:export-ydpi="300" />
  <path
     id="path59"
     fill-rule="evenodd"
     d="m 566.57917,205.67121 -2.5311,-9.73782 -1.7564,-7.0918 -4.8014,-0.81601 -6.2981,2.54684 -10.4288,-0.62545 -8.3634,0.96069 -4.594,5.08615 -2.9934,6.72568 -0.8771,4.65918 3.7178,3.67557 13.0097,-1.49439 17.5011,-3.37784 z"
     stroke-linecap="butt"
     stroke-miterlimit="800"
     stroke-width="1"
     stroke="#000000"
     inkscape:export-filename="C:\Users\sfjones\Documents\Manuscripts\Global typology\drowned_river_valley.png"
     inkscape:export-xdpi="300"
     inkscape:export-ydpi="300" />
  <path
     id="path61"
     fill-rule="evenodd"
     d="m 587.63397,161.11826 c 0.028,2.54135 -7.0667,5.82828 -11.3308,6.97232 -4.2641,1.14407 -10.0936,0.14163 -14.254,-0.10751 -4.1605,-0.24918 -8.8872,-0.0698 -10.7088,-1.38721 -1.8217,-1.31744 -4.3536,-4.22562 -0.2214,-6.51779 4.1322,-2.29221 19.2468,-6.93656 25.0147,-7.23554 5.7678,-0.29901 11.4719,5.73438 11.5003,8.27573 z"
     fill="#548135"
     inkscape:export-filename="C:\Users\sfjones\Documents\Manuscripts\Global typology\drowned_river_valley.png"
     inkscape:export-xdpi="300"
     inkscape:export-ydpi="300" />
  <path
     id="path63"
     fill-rule="evenodd"
     d="m 587.63397,161.11826 c 0.028,2.54135 -7.0667,5.82828 -11.3308,6.97232 -4.2641,1.14407 -10.0936,0.14163 -14.254,-0.10751 -4.1605,-0.24918 -8.8872,-0.0698 -10.7088,-1.38721 -1.8217,-1.31744 -4.3536,-4.22562 -0.2214,-6.51779 4.1322,-2.29221 19.2468,-6.93656 25.0147,-7.23554 5.7678,-0.29901 11.4719,5.73438 11.5003,8.27573 z"
     stroke-linecap="butt"
     stroke-miterlimit="800"
     stroke-width="1"
     stroke="#000000"
     inkscape:export-filename="C:\Users\sfjones\Documents\Manuscripts\Global typology\drowned_river_valley.png"
     inkscape:export-xdpi="300"
     inkscape:export-ydpi="300" />
  <path
     id="path65"
     fill-rule="evenodd"
     d="m 649.97867,166.60711 c 1.6317,1.19391 -4.4259,3.56189 -8.4545,4.46088 -4.0286,0.89895 -10.8788,0.95877 -15.7169,0.93292 -4.8381,-0.0258 -10.1965,-1.51874 -13.3119,-1.0882 -3.1153,0.43055 -3.4878,3.30881 -5.3803,3.67154 -1.8924,0.36273 -4.5449,0.2312 -5.9739,-1.49487 -1.429,-1.72607 -3.0101,-7.06992 -2.6006,-8.86179 0.4095,-1.7919 -0.4747,-1.83569 5.0576,-1.88961 5.5323,-0.0539 20.3273,0.93673 28.136,1.56646 7.8086,0.62973 16.6127,1.50879 18.2445,2.70267 z"
     fill="#548135"
     inkscape:export-filename="C:\Users\sfjones\Documents\Manuscripts\Global typology\drowned_river_valley.png"
     inkscape:export-xdpi="300"
     inkscape:export-ydpi="300" />
  <path
     id="path67"
     fill-rule="evenodd"
     d="m 649.97867,166.60711 c 1.6317,1.19391 -4.4259,3.56189 -8.4545,4.46088 -4.0286,0.89895 -10.8788,0.95877 -15.7169,0.93292 -4.8381,-0.0258 -10.1965,-1.51874 -13.3119,-1.0882 -3.1153,0.43055 -3.4878,3.30881 -5.3803,3.67154 -1.8924,0.36273 -4.5449,0.2312 -5.9739,-1.49487 -1.429,-1.72607 -3.0101,-7.06992 -2.6006,-8.86179 0.4095,-1.7919 -0.4747,-1.83569 5.0576,-1.88961 5.5323,-0.0539 20.3273,0.93673 28.136,1.56646 7.8086,0.62973 16.6127,1.50879 18.2445,2.70267 z"
     stroke-linecap="butt"
     stroke-miterlimit="800"
     stroke-width="1"
     stroke="#000000"
     inkscape:export-filename="C:\Users\sfjones\Documents\Manuscripts\Global typology\drowned_river_valley.png"
     inkscape:export-xdpi="300"
     inkscape:export-ydpi="300" />
  <path
     id="path69"
     fill-rule="evenodd"
     d="m 556.71467,179.54601 c 2.4725,-0.80307 7.4354,-4.48773 5.9635,-6.13553 -1.4716,-1.64783 -12.3024,-2.15561 -14.794,-3.75116 -2.4917,-1.59552 0.5598,-4.80102 -0.1559,-5.82193 -0.7157,-1.02087 -1.9119,-1.01321 -4.1386,-0.30325 -2.2267,0.70996 -7.6046,3.01486 -9.222,4.5632 -1.6175,1.54837 -1.0156,2.32288 -0.4828,4.72733 0.5326,2.40448 2.468,8.08688 3.6793,9.69976 1.2112,1.61286 1.8749,0.693 3.5881,-0.0229 1.7131,-0.71582 4.7391,-3.39936 6.6907,-4.27243 1.9515,-0.87308 6.3991,2.11993 8.8717,1.31686 z"
     fill="#548135"
     inkscape:export-filename="C:\Users\sfjones\Documents\Manuscripts\Global typology\drowned_river_valley.png"
     inkscape:export-xdpi="300"
     inkscape:export-ydpi="300" />
  <path
     id="path71"
     fill-rule="evenodd"
     d="m 556.71467,179.54601 c 2.4725,-0.80307 7.4354,-4.48773 5.9635,-6.13553 -1.4716,-1.64783 -12.3024,-2.15561 -14.794,-3.75116 -2.4917,-1.59552 0.5598,-4.80102 -0.1559,-5.82193 -0.7157,-1.02087 -1.9119,-1.01321 -4.1386,-0.30325 -2.2267,0.70996 -7.6046,3.01486 -9.222,4.5632 -1.6175,1.54837 -1.0156,2.32288 -0.4828,4.72733 0.5326,2.40448 2.468,8.08688 3.6793,9.69976 1.2112,1.61286 1.8749,0.693 3.5881,-0.0229 1.7131,-0.71582 4.7391,-3.39936 6.6907,-4.27243 1.9515,-0.87308 6.3991,2.11993 8.8717,1.31686 z"
     stroke-linecap="butt"
     stroke-miterlimit="800"
     stroke-width="1"
     stroke="#000000"
     inkscape:export-filename="C:\Users\sfjones\Documents\Manuscripts\Global typology\drowned_river_valley.png"
     inkscape:export-xdpi="300"
     inkscape:export-ydpi="300" />
  <path
     id="path73"
     fill-rule="evenodd"
     d="m 698.12317,250.50107 c 2.7373,-8.31168 4.0351,-41.39508 -0.3343,-48.81775 -4.3693,-7.42267 -16.5108,3.2052 -25.8816,4.28159 -9.3708,1.07641 -15.2254,1.38537 -30.3432,2.17681 -15.1178,0.79145 -48.6094,3.1117 -60.3637,2.57166 -11.7542,-0.54004 -1.1181,-5.90588 -10.1623,-5.81213 -9.044,0.0938 -38.0379,8.65881 -44.1026,6.3746 -6.0646,-2.28421 3.1446,-17.01007 7.7149,-20.07965 4.5704,-3.06961 14.5799,2.1785 19.7074,1.6622 5.1275,-0.51633 9.5613,-2.47961 11.0575,-4.75989 1.4962,-2.28024 -1.1012,-7.28915 -2.08,-8.9216 -0.9789,-1.63241 -2.2061,-0.83719 -3.7926,-0.87298 -1.5865,-0.036 -3.6897,0.78735 -5.7266,0.6578 -2.0369,-0.12957 -3.9327,-2.09286 -6.4945,-1.43509 -2.5618,0.65781 -6.5256,6.71125 -8.8762,5.38175 -2.3505,-1.3295 -6.765,-9.91013 -5.2271,-13.35846 1.5379,-3.44833 11.8718,-6.08939 14.4543,-7.33115 2.5826,-1.24176 -0.6199,0.72547 1.0412,-0.1196 1.6611,-0.84518 4.7028,-3.44833 8.9256,-4.9512 4.2229,-1.50284 12.0489,-3.78326 16.4119,-4.06625 4.363,-0.28314 7.511,1.10025 9.7665,2.36786 2.2556,1.26761 2.2262,3.3067 3.7667,5.23813 1.5405,1.93145 3.6756,5.97567 5.4768,6.35034 1.8013,0.37466 -4.3123,-3.86682 5.3309,-4.10208 9.6433,-0.23526 40.1918,2.43539 52.5288,2.69049 12.3369,0.25506 13.8198,1.68408 21.4929,-1.16022 7.6732,-2.8443 19.6195,-9.81467 24.5461,-15.90601 4.9265,-6.09133 4.1848,-14.07605 5.0129,-20.64172 0.8281,-6.56567 2.4335,-15.54706 -0.045,-18.75214 -2.4782,-3.20504 -12.1744,-5.72634 -14.8241,-0.47827 -2.6497,5.24811 3.1337,24.21347 -1.0743,31.96714 -4.2081,7.75369 -12.328,12.83038 -24.1739,14.55459 -11.8458,1.72424 -34.0274,-2.34372 -46.901,-4.20932 -12.8737,-1.8656 -16.9419,-7.43262 -30.3408,-6.98401 -13.3989,0.44864 -38.1687,2.93036 -50.053,9.67542 -11.8844,6.74505 -16.5895,19.35418 -21.2529,30.79526 -4.6634,11.44107 -13.4981,31.72204 -6.7279,37.85113 6.7702,6.12909 33.7101,-1.18222 47.3486,-1.07666 13.6385,0.10556 15.3444,1.94519 34.4821,1.70993 19.1377,-0.23538 64.5446,-1.37973 80.3443,-3.12195 15.7998,-1.74218 12.3527,-12.61514 14.4544,-7.33111 2.1016,5.28402 -4.2352,32.76642 -1.8447,39.03506 2.3905,6.26865 14.0208,7.25913 16.7581,-1.05252 z"
     fill="#d7a979"
     inkscape:export-filename="C:\Users\sfjones\Documents\Manuscripts\Global typology\drowned_river_valley.png"
     inkscape:export-xdpi="300"
     inkscape:export-ydpi="300" />
  <path
     id="path75"
     fill-rule="evenodd"
     d="m 695.44477,254.73466 c 1.9446,-2.58621 3.8892,-5.17242 4.1931,-14.00433 0.3038,-8.83188 1.3142,-32.93979 -2.3696,-38.98719 -3.6839,-6.04739 -10.7096,1.66639 -19.7333,2.70291 -9.0237,1.03653 -18.2666,2.46177 -34.4091,3.51627 -16.1426,1.05451 -50.923,2.86856 -62.4461,2.81088 -11.5231,-0.0577 -6.6924,-3.15719 -6.6924,-3.15719 -1.1648,-0.95667 7.2848,-3.16324 -0.2968,-2.58322 -7.5816,0.58004 -37.6037,7.08212 -45.1932,6.06369 -7.5895,-1.01847 -1.4644,-8.91965 -0.3439,-12.17456 1.1205,-3.25489 3.9473,-6.1969 7.067,-7.35499 3.1197,-1.15811 11.6511,0.40653 11.6511,0.40653 3.7101,0.15539 7.4654,1.4689 10.6098,0.52612 3.1444,-0.94275 7.5577,-3.84894 8.2566,-6.18298 0.6989,-2.33405 -1.2006,-6.62351 -4.0634,-7.82135 -2.8629,-1.19782 -9.2423,-0.10162 -13.114,0.63394 -3.8716,0.7356 -7.4713,5.36572 -10.1152,3.77921 -2.6438,-1.58652 -7.2938,-9.92218 -5.7477,-13.29868 1.5462,-3.37647 15.0244,-6.96039 15.0244,-6.96039 5.0866,-2.40182 10.0496,-5.88006 15.4956,-7.45074 5.4459,-1.57068 12.4825,-3.83307 17.1798,-1.97339 4.6972,1.85968 8.7849,11.42309 11.0031,13.13119 2.2183,1.7081 -6.2793,-2.62307 2.3062,-2.8822 8.5856,-0.25912 36.9407,0.91864 49.2073,1.32715 12.2666,0.40848 16.1001,3.16702 24.3928,1.12399 8.2926,-2.04318 19.1471,-4.74399 25.3634,-13.3826 6.2163,-8.63861 12.4152,-30.43451 11.9339,-38.44912 -0.4812,-8.01465 -14.8217,-9.63907 -14.8217,-9.63907 v 0"
     fill-opacity="0"
     fill="#000000"
     inkscape:export-filename="C:\Users\sfjones\Documents\Manuscripts\Global typology\drowned_river_valley.png"
     inkscape:export-xdpi="300"
     inkscape:export-ydpi="300" />
  <path
     id="path77"
     fill-rule="evenodd"
     d="m 695.44477,254.73466 c 1.9446,-2.58621 3.8892,-5.17242 4.1931,-14.00433 0.3038,-8.83188 1.3142,-32.93979 -2.3696,-38.98719 -3.6839,-6.04739 -10.7096,1.66639 -19.7333,2.70291 -9.0237,1.03653 -18.2666,2.46177 -34.4091,3.51627 -16.1426,1.05451 -50.923,2.86856 -62.4461,2.81088 -11.5231,-0.0577 -6.6924,-3.15719 -6.6924,-3.15719 -1.1648,-0.95667 7.2848,-3.16324 -0.2968,-2.58322 -7.5816,0.58004 -37.6037,7.08212 -45.1932,6.06369 -7.5895,-1.01847 -1.4644,-8.91965 -0.3439,-12.17456 1.1205,-3.25489 3.9473,-6.1969 7.067,-7.35499 3.1197,-1.15811 11.6511,0.40653 11.6511,0.40653 3.7101,0.15539 7.4654,1.4689 10.6098,0.52612 3.1444,-0.94275 7.5577,-3.84894 8.2566,-6.18298 0.6989,-2.33405 -1.2006,-6.62351 -4.0634,-7.82135 -2.8629,-1.19782 -9.2423,-0.10162 -13.114,0.63394 -3.8716,0.7356 -7.4713,5.36572 -10.1152,3.77921 -2.6438,-1.58652 -7.2938,-9.92218 -5.7477,-13.29868 1.5462,-3.37647 15.0244,-6.96039 15.0244,-6.96039 5.0866,-2.40182 10.0496,-5.88006 15.4956,-7.45074 5.4459,-1.57068 12.4825,-3.83307 17.1798,-1.97339 4.6972,1.85968 8.7849,11.42309 11.0031,13.13119 2.2183,1.7081 -6.2793,-2.62307 2.3062,-2.8822 8.5856,-0.25912 36.9407,0.91864 49.2073,1.32715 12.2666,0.40848 16.1001,3.16702 24.3928,1.12399 8.2926,-2.04318 19.1471,-4.74399 25.3634,-13.3826 6.2163,-8.63861 12.4152,-30.43451 11.9339,-38.44912 -0.4812,-8.01465 -14.8217,-9.63907 -14.8217,-9.63907 v 0"
     stroke-linecap="butt"
     stroke-miterlimit="800"
     stroke-width="1.33333"
     stroke="#000000"
     inkscape:export-filename="C:\Users\sfjones\Documents\Manuscripts\Global typology\drowned_river_valley.png"
     inkscape:export-xdpi="300"
     inkscape:export-ydpi="300" />
  <path
     id="path315"
     fill-rule="evenodd"
     d="M 683.6341,31.487663 H 873.61835 V 70.259315 H 683.6341 Z"
     fill-opacity="0"
     fill="#000000" />
  <path
     id="path323"
     fill-rule="evenodd"
     d="m 898.5368,319.20996 h 229.2283 v 38.77167 H 898.5368 Z"
     fill-opacity="0"
     fill="#000000" />
  <path
     id="path325"
     fill-rule="nonzero"
     d="m 514.35171,299.93858 q 0,1.96875 -0.5,3.45313 -0.5,1.46875 -1.46875,2.4375 -0.96875,0.95312 -2.375,1.4375 -1.40625,0.48437 -3.34375,0.48437 h -3.21875 q -0.26562,0 -0.51562,-0.17187 -0.23438,-0.1875 -0.23438,-0.65625 v -13.51563 q 0,-0.45312 0.23438,-0.64062 0.25,-0.1875 0.51562,-0.1875 h 3.4375 q 1.96875,0 3.32813,0.51562 1.35937,0.51563 2.28125,1.46875 0.92187,0.95313 1.39062,2.3125 0.46875,1.35938 0.46875,3.0625 z m -2.10937,0.0937 q 0,-1.23437 -0.3125,-2.29687 -0.29688,-1.0625 -0.95313,-1.82813 -0.65625,-0.78125 -1.65625,-1.20312 -0.98437,-0.4375 -2.5625,-0.4375 h -2.04687 v 11.79687 h 2.07812 q 1.45313,0 2.4375,-0.35937 1,-0.375 1.67188,-1.125 0.67187,-0.75 1,-1.875 0.34375,-1.125 0.34375,-2.67188 z m 11.15625,-2.4375 q 0,0.26563 -0.0156,0.4375 0,0.17188 -0.0469,0.28125 -0.0312,0.0937 -0.0781,0.15625 -0.0469,0.0469 -0.14062,0.0469 -0.0937,0 -0.23438,-0.0469 -0.14062,-0.0625 -0.3125,-0.10937 -0.15625,-0.0625 -0.375,-0.10938 -0.20312,-0.0469 -0.45312,-0.0469 -0.29688,0 -0.57813,0.125 -0.28125,0.10937 -0.59375,0.39062 -0.3125,0.26563 -0.65625,0.71875 -0.32812,0.4375 -0.73437,1.07813 v 6.9375 q 0,0.0937 -0.0469,0.15625 -0.0469,0.0625 -0.15625,0.125 -0.10937,0.0469 -0.29687,0.0625 -0.1875,0.0312 -0.48438,0.0312 -0.28125,0 -0.46875,-0.0312 -0.1875,-0.0156 -0.29687,-0.0625 -0.10938,-0.0625 -0.15625,-0.125 -0.0312,-0.0625 -0.0312,-0.15625 v -10.54688 q 0,-0.0937 0.0312,-0.15625 0.0312,-0.0625 0.14062,-0.10937 0.10938,-0.0625 0.26563,-0.0781 0.17187,-0.0156 0.4375,-0.0156 0.26562,0 0.42187,0.0156 0.17188,0.0156 0.26563,0.0781 0.0937,0.0469 0.14062,0.10937 0.0469,0.0625 0.0469,0.15625 v 1.53125 q 0.42187,-0.625 0.79687,-1.01562 0.39063,-0.40625 0.73438,-0.625 0.34375,-0.23438 0.67187,-0.32813 0.32813,-0.0937 0.67188,-0.0937 0.15625,0 0.34375,0.0312 0.20312,0.0156 0.40625,0.0625 0.21875,0.0469 0.375,0.10938 0.17187,0.0469 0.23437,0.10937 0.0781,0.0625 0.0937,0.10938 0.0312,0.0469 0.0469,0.14062 0.0312,0.0781 0.0312,0.23438 0,0.15625 0,0.42187 z m 11.63672,4.46875 q 0,1.29688 -0.3438,2.375 -0.3437,1.07813 -1.0156,1.875 -0.6719,0.78125 -1.6875,1.21875 -1.0156,0.4375 -2.3437,0.4375 -1.3125,0 -2.2813,-0.375 -0.9531,-0.39062 -1.6094,-1.125 -0.64058,-0.75 -0.95308,-1.79687 -0.3125,-1.0625 -0.3125,-2.39063 0,-1.29687 0.32812,-2.375 0.32813,-1.09375 0.99996,-1.875 0.6875,-0.78125 1.6875,-1.21875 1.0157,-0.4375 2.3594,-0.4375 1.2969,0 2.2656,0.39063 0.9688,0.39062 1.6094,1.125 0.6406,0.73437 0.9688,1.79687 0.3281,1.04688 0.3281,2.375 z m -2.0469,0.125 q 0,-0.84375 -0.1562,-1.60937 -0.1563,-0.76563 -0.5313,-1.32813 -0.3594,-0.57812 -0.9844,-0.90625 -0.6093,-0.34375 -1.5312,-0.34375 -0.8594,0 -1.4844,0.3125 -0.6094,0.29688 -1.0156,0.85938 -0.3906,0.54687 -0.5938,1.3125 -0.1875,0.76562 -0.1875,1.65625 0,0.875 0.1563,1.64062 0.1719,0.75 0.5312,1.32813 0.375,0.5625 0.9844,0.90625 0.625,0.32812 1.5625,0.32812 0.8438,0 1.4531,-0.29687 0.625,-0.3125 1.0157,-0.85938 0.4062,-0.5625 0.5937,-1.3125 0.1875,-0.76562 0.1875,-1.6875 z m 19.5469,-5.29687 q 0,0.0781 -0.031,0.20312 -0.016,0.10938 -0.078,0.28125 l -3.0938,10.01563 q -0.047,0.14062 -0.125,0.21875 -0.062,0.0781 -0.2031,0.125 -0.1406,0.0469 -0.375,0.0625 -0.2344,0.0312 -0.5781,0.0312 -0.3594,0 -0.6094,-0.0312 -0.25,-0.0156 -0.4062,-0.0625 -0.1407,-0.0625 -0.2188,-0.14063 -0.062,-0.0781 -0.094,-0.20312 l -2.2187,-7.64063 -0.016,-0.10937 -0.031,0.10937 -2.0469,7.64063 q -0.031,0.14062 -0.1094,0.21875 -0.078,0.0781 -0.2344,0.125 -0.1406,0.0469 -0.3906,0.0625 -0.2344,0.0312 -0.5937,0.0312 -0.3594,0 -0.5938,-0.0312 -0.2187,-0.0156 -0.375,-0.0625 -0.1406,-0.0625 -0.2187,-0.14063 -0.062,-0.0781 -0.094,-0.20312 l -3.0782,-10.01563 q -0.062,-0.17187 -0.094,-0.28125 -0.016,-0.125 -0.016,-0.20312 0,-0.10938 0.047,-0.17188 0.047,-0.0625 0.1563,-0.10937 0.1094,-0.0469 0.2969,-0.0469 0.1875,-0.0156 0.4531,-0.0156 0.3281,0 0.5312,0.0156 0.2032,0.0156 0.2969,0.0625 0.1094,0.0312 0.1563,0.10938 0.047,0.0781 0.094,0.1875 l 2.5312,8.6875 0.031,0.10937 0.016,-0.10937 2.3438,-8.6875 q 0.016,-0.10938 0.062,-0.1875 0.062,-0.0781 0.1562,-0.10938 0.1094,-0.0469 0.2969,-0.0625 0.1875,-0.0156 0.4687,-0.0156 0.2813,0 0.4688,0.0156 0.1875,0.0156 0.2812,0.0625 0.1094,0.0312 0.1563,0.10938 0.047,0.0625 0.078,0.15625 l 2.5156,8.71875 0.016,0.10937 0.016,-0.10937 2.5156,-8.6875 q 0.016,-0.10938 0.062,-0.1875 0.062,-0.0781 0.1719,-0.10938 0.1094,-0.0469 0.2969,-0.0625 0.2031,-0.0156 0.5,-0.0156 0.2812,0 0.4531,0.0156 0.1719,0 0.2656,0.0469 0.1094,0.0469 0.1407,0.10937 0.047,0.0625 0.047,0.17188 z m 11.4844,10.5625 q 0,0.0937 -0.047,0.15625 -0.047,0.0625 -0.1563,0.125 -0.094,0.0469 -0.2812,0.0625 -0.1875,0.0312 -0.4688,0.0312 -0.2968,0 -0.4843,-0.0312 -0.1875,-0.0156 -0.2969,-0.0625 -0.1094,-0.0625 -0.1563,-0.125 -0.047,-0.0625 -0.047,-0.15625 v -6.17188 q 0,-0.90625 -0.1406,-1.45312 -0.1406,-0.54688 -0.4063,-0.9375 -0.2656,-0.40625 -0.7031,-0.60938 -0.4219,-0.21875 -0.9844,-0.21875 -0.7187,0 -1.4531,0.51563 -0.7187,0.51562 -1.5156,1.5 v 7.375 q 0,0.0937 -0.047,0.15625 -0.047,0.0625 -0.1563,0.125 -0.1093,0.0469 -0.2968,0.0625 -0.1875,0.0312 -0.4844,0.0312 -0.2813,0 -0.4688,-0.0312 -0.1875,-0.0156 -0.2968,-0.0625 -0.1094,-0.0625 -0.1563,-0.125 -0.031,-0.0625 -0.031,-0.15625 v -10.54688 q 0,-0.0937 0.031,-0.15625 0.031,-0.0625 0.1406,-0.10937 0.1094,-0.0625 0.2657,-0.0781 0.1718,-0.0156 0.4375,-0.0156 0.2656,0 0.4218,0.0156 0.1719,0.0156 0.2657,0.0781 0.094,0.0469 0.1406,0.10937 0.047,0.0625 0.047,0.15625 v 1.39063 q 0.8906,-0.98438 1.7656,-1.45313 0.8906,-0.46875 1.7969,-0.46875 1.0469,0 1.7656,0.35938 0.7188,0.35937 1.1563,0.96875 0.4531,0.59375 0.6406,1.39062 0.2031,0.79688 0.2031,1.92188 z m 12.5312,-5.73438 q 0,0.46875 -0.2344,0.65625 -0.2187,0.1875 -0.5156,0.1875 h -6.9219 q 0,0.89063 0.1719,1.59375 0.1875,0.70313 0.5938,1.20313 0.4062,0.5 1.0625,0.78125 0.6562,0.26562 1.6093,0.26562 0.75,0 1.3282,-0.125 0.5937,-0.125 1.0156,-0.28125 0.4375,-0.15625 0.7031,-0.26562 0.2813,-0.125 0.4219,-0.125 0.078,0 0.1406,0.0469 0.078,0.0312 0.1094,0.10938 0.031,0.0781 0.047,0.23437 0.016,0.14063 0.016,0.35938 0,0.14062 -0.016,0.26562 0,0.10938 -0.016,0.20313 -0.016,0.0781 -0.062,0.15625 -0.047,0.0625 -0.1094,0.125 -0.062,0.0625 -0.375,0.21875 -0.3125,0.14062 -0.8281,0.28125 -0.5,0.14062 -1.1719,0.25 -0.6562,0.10937 -1.4062,0.10937 -1.2969,0 -2.2813,-0.35937 -0.9687,-0.35938 -1.6406,-1.07813 -0.6719,-0.71875 -1.0156,-1.79687 -0.3282,-1.07813 -0.3282,-2.5 0,-1.35938 0.3438,-2.4375 0.3594,-1.09375 1.0156,-1.84375 0.6719,-0.76563 1.6094,-1.17188 0.9375,-0.40625 2.0937,-0.40625 1.2344,0 2.1094,0.40625 0.875,0.39063 1.4375,1.07813 0.5625,0.67187 0.8281,1.57812 0.2657,0.90625 0.2657,1.9375 z m -1.9531,-0.5625 q 0.047,-1.53125 -0.6719,-2.39062 -0.7031,-0.875 -2.0937,-0.875 -0.7188,0 -1.2657,0.28125 -0.5312,0.26562 -0.9062,0.71875 -0.3594,0.4375 -0.5625,1.03125 -0.1875,0.57812 -0.2188,1.23437 z m 13.9258,6.29688 q 0,0.0937 -0.047,0.17187 -0.031,0.0625 -0.1406,0.10938 -0.094,0.0469 -0.2657,0.0625 -0.1562,0.0312 -0.3906,0.0312 -0.25,0 -0.4219,-0.0312 -0.1562,-0.0156 -0.2656,-0.0625 -0.094,-0.0469 -0.1406,-0.10938 -0.047,-0.0781 -0.047,-0.17187 v -1.39063 q -0.8282,0.90625 -1.7344,1.40625 -0.8906,0.5 -1.9531,0.5 -1.1719,0 -2,-0.45312 -0.8125,-0.45313 -1.3282,-1.21875 -0.5,-0.76563 -0.7343,-1.79688 -0.2344,-1.04687 -0.2344,-2.1875 0,-1.35937 0.2969,-2.45312 0.2968,-1.09375 0.8593,-1.85938 0.5782,-0.78125 1.4219,-1.20312 0.8594,-0.42188 1.9688,-0.42188 0.9218,0 1.6875,0.40625 0.7812,0.40625 1.5312,1.1875 v -6.125 q 0,-0.0781 0.031,-0.15625 0.047,-0.0781 0.1563,-0.10937 0.125,-0.0469 0.2969,-0.0781 0.1875,-0.0312 0.4687,-0.0312 0.2969,0 0.4844,0.0312 0.1875,0.0312 0.2812,0.0781 0.1094,0.0312 0.1563,0.10937 0.062,0.0781 0.062,0.15625 z m -1.9375,-7.42188 q -0.7969,-0.96875 -1.5313,-1.46875 -0.7187,-0.51562 -1.5156,-0.51562 -0.75,0 -1.2656,0.35937 -0.5156,0.34375 -0.8438,0.92188 -0.3125,0.5625 -0.4687,1.29687 -0.1406,0.71875 -0.1406,1.46875 0,0.79688 0.125,1.5625 0.125,0.76563 0.4218,1.35938 0.3125,0.59375 0.8125,0.95312 0.5157,0.34375 1.2657,0.34375 0.3906,0 0.75,-0.0937 0.3593,-0.10937 0.7343,-0.35937 0.375,-0.25 0.7813,-0.64063 0.4062,-0.39062 0.875,-0.96875 z m 21.2695,7.40625 q 0,0.0937 -0.031,0.17188 -0.031,0.0625 -0.1563,0.125 -0.1094,0.0469 -0.3281,0.0625 -0.2031,0.0312 -0.5625,0.0312 -0.2969,0 -0.5,-0.0312 -0.1875,-0.0156 -0.3125,-0.0625 -0.1094,-0.0625 -0.1719,-0.15625 -0.062,-0.0937 -0.1094,-0.23438 l -1.3906,-3.57812 q -0.25,-0.60938 -0.5156,-1.10938 -0.2656,-0.51562 -0.625,-0.89062 -0.3594,-0.375 -0.8594,-0.57813 -0.4844,-0.20312 -1.1875,-0.20312 h -1.3437 v 6.45312 q 0,0.0937 -0.062,0.17188 -0.047,0.0625 -0.1563,0.10937 -0.1094,0.0469 -0.3125,0.0781 -0.1875,0.0312 -0.4687,0.0312 -0.2969,0 -0.5,-0.0312 -0.1875,-0.0312 -0.3125,-0.0781 -0.1094,-0.0469 -0.1563,-0.10937 -0.047,-0.0781 -0.047,-0.17188 v -14.03125 q 0,-0.45312 0.2344,-0.64062 0.25,-0.1875 0.5156,-0.1875 h 3.2188 q 0.5781,0 0.9531,0.0312 0.3906,0.0312 0.6875,0.0625 0.8906,0.15625 1.5625,0.48437 0.6719,0.32813 1.125,0.84375 0.4531,0.5 0.6875,1.15625 0.2344,0.64063 0.2344,1.42188 0,0.76562 -0.2188,1.375 -0.2031,0.59375 -0.5937,1.0625 -0.375,0.45312 -0.9219,0.79687 -0.5312,0.34375 -1.2031,0.57813 0.375,0.15625 0.6719,0.42187 0.3125,0.25 0.5781,0.60938 0.2656,0.34375 0.5,0.79687 0.2344,0.45313 0.4687,1.03125 l 1.3594,3.34375 q 0.1563,0.42188 0.2031,0.59375 0.047,0.15625 0.047,0.25 z m -3.0312,-10.64062 q 0,-0.89063 -0.4063,-1.5 -0.3906,-0.625 -1.3281,-0.89063 -0.2969,-0.0937 -0.6719,-0.125 -0.3594,-0.0312 -0.9531,-0.0312 h -1.7031 v 5.10938 h 1.9687 q 0.7969,0 1.375,-0.1875 0.5781,-0.20313 0.9688,-0.54688 0.3906,-0.34375 0.5625,-0.8125 0.1875,-0.46875 0.1875,-1.01562 z m 7.6718,10.65625 q 0,0.0937 -0.047,0.15625 -0.047,0.0625 -0.1563,0.125 -0.1094,0.0469 -0.2969,0.0625 -0.1875,0.0312 -0.4843,0.0312 -0.2813,0 -0.4688,-0.0312 -0.1875,-0.0156 -0.2969,-0.0625 -0.1093,-0.0625 -0.1562,-0.125 -0.031,-0.0625 -0.031,-0.15625 v -10.54688 q 0,-0.0781 0.031,-0.14062 0.047,-0.0781 0.1562,-0.125 0.1094,-0.0469 0.2969,-0.0625 0.1875,-0.0312 0.4688,-0.0312 0.2968,0 0.4843,0.0312 0.1875,0.0156 0.2969,0.0625 0.1094,0.0469 0.1563,0.125 0.047,0.0625 0.047,0.14062 z m 0.2188,-14.10938 q 0,0.6875 -0.2656,0.9375 -0.25,0.23438 -0.9375,0.23438 -0.6875,0 -0.9375,-0.23438 -0.25,-0.25 -0.25,-0.90625 0,-0.6875 0.25,-0.92187 0.2656,-0.25 0.9531,-0.25 0.6875,0 0.9375,0.23437 0.25,0.23438 0.25,0.90625 z m 11.9921,3.54688 q 0,0.0469 0,0.0937 0,0.0469 -0.016,0.10937 -0.016,0.0625 -0.031,0.14063 -0.016,0.0625 -0.047,0.14062 l -3.5938,10.01563 q -0.047,0.14062 -0.125,0.21875 -0.078,0.0781 -0.2344,0.125 -0.1406,0.0469 -0.375,0.0625 -0.2343,0.0312 -0.5937,0.0312 -0.3438,0 -0.5781,-0.0312 -0.2344,-0.0156 -0.3907,-0.0625 -0.1406,-0.0625 -0.2187,-0.14063 -0.078,-0.0781 -0.125,-0.20312 l -3.5937,-10.01563 q -0.047,-0.14062 -0.078,-0.23437 -0.031,-0.10938 -0.031,-0.15625 0,-0.0625 0,-0.0937 0,-0.0937 0.047,-0.15625 0.047,-0.0781 0.1562,-0.125 0.1094,-0.0469 0.2813,-0.0469 0.1875,-0.0156 0.4531,-0.0156 0.3438,0 0.5469,0.0156 0.2031,0.0156 0.3125,0.0625 0.125,0.0469 0.1719,0.125 0.047,0.0625 0.094,0.17188 l 2.9843,8.6875 0.047,0.14062 0.031,-0.14062 2.9375,-8.6875 q 0.031,-0.10938 0.078,-0.17188 0.062,-0.0781 0.1719,-0.125 0.125,-0.0469 0.3125,-0.0625 0.1875,-0.0156 0.5156,-0.0156 0.2656,0 0.4375,0.0156 0.1719,0 0.2656,0.0469 0.1094,0.0469 0.1406,0.125 0.047,0.0625 0.047,0.15625 z m 10.9649,4.82812 q 0,0.46875 -0.2344,0.65625 -0.2188,0.1875 -0.5156,0.1875 h -6.9219 q 0,0.89063 0.1719,1.59375 0.1875,0.70313 0.5937,1.20313 0.4063,0.5 1.0625,0.78125 0.6563,0.26562 1.6094,0.26562 0.75,0 1.3281,-0.125 0.5938,-0.125 1.0156,-0.28125 0.4375,-0.15625 0.7032,-0.26562 0.2812,-0.125 0.4218,-0.125 0.078,0 0.1407,0.0469 0.078,0.0312 0.1093,0.10938 0.031,0.0781 0.047,0.23437 0.016,0.14063 0.016,0.35938 0,0.14062 -0.016,0.26562 0,0.10938 -0.016,0.20313 -0.016,0.0781 -0.062,0.15625 -0.047,0.0625 -0.1094,0.125 -0.062,0.0625 -0.375,0.21875 -0.3125,0.14062 -0.8281,0.28125 -0.5,0.14062 -1.1719,0.25 -0.6562,0.10937 -1.4062,0.10937 -1.2969,0 -2.2813,-0.35937 -0.9687,-0.35938 -1.6406,-1.07813 -0.6719,-0.71875 -1.0156,-1.79687 -0.3282,-1.07813 -0.3282,-2.5 0,-1.35938 0.3438,-2.4375 0.3594,-1.09375 1.0156,-1.84375 0.6719,-0.76563 1.6094,-1.17188 0.9375,-0.40625 2.0937,-0.40625 1.2344,0 2.1094,0.40625 0.875,0.39063 1.4375,1.07813 0.5625,0.67187 0.8281,1.57812 0.2657,0.90625 0.2657,1.9375 z m -1.9532,-0.5625 q 0.047,-1.53125 -0.6718,-2.39062 -0.7032,-0.875 -2.0938,-0.875 -0.7187,0 -1.2656,0.28125 -0.5313,0.26562 -0.9063,0.71875 -0.3593,0.4375 -0.5625,1.03125 -0.1875,0.57812 -0.2187,1.23437 z m 11.0508,-3.5625 q 0,0.26563 -0.016,0.4375 0,0.17188 -0.047,0.28125 -0.031,0.0937 -0.078,0.15625 -0.047,0.0469 -0.1406,0.0469 -0.094,0 -0.2344,-0.0469 -0.1406,-0.0625 -0.3125,-0.10937 -0.1563,-0.0625 -0.375,-0.10938 -0.2031,-0.0469 -0.4531,-0.0469 -0.2969,0 -0.5782,0.125 -0.2812,0.10937 -0.5937,0.39062 -0.3125,0.26563 -0.6563,0.71875 -0.3281,0.4375 -0.7343,1.07813 v 6.9375 q 0,0.0937 -0.047,0.15625 -0.047,0.0625 -0.1563,0.125 -0.1093,0.0469 -0.2968,0.0625 -0.1875,0.0312 -0.4844,0.0312 -0.2813,0 -0.4688,-0.0312 -0.1875,-0.0156 -0.2968,-0.0625 -0.1094,-0.0625 -0.1563,-0.125 -0.031,-0.0625 -0.031,-0.15625 v -10.54688 q 0,-0.0937 0.031,-0.15625 0.031,-0.0625 0.1406,-0.10937 0.1094,-0.0625 0.2657,-0.0781 0.1718,-0.0156 0.4375,-0.0156 0.2656,0 0.4218,0.0156 0.1719,0.0156 0.2657,0.0781 0.094,0.0469 0.1406,0.10937 0.047,0.0625 0.047,0.15625 v 1.53125 q 0.4218,-0.625 0.7968,-1.01562 0.3907,-0.40625 0.7344,-0.625 0.3438,-0.23438 0.6719,-0.32813 0.3281,-0.0937 0.6719,-0.0937 0.1562,0 0.3437,0.0312 0.2031,0.0156 0.4063,0.0625 0.2187,0.0469 0.375,0.10938 0.1718,0.0469 0.2343,0.10937 0.078,0.0625 0.094,0.10938 0.031,0.0469 0.047,0.14062 0.031,0.0781 0.031,0.23438 0,0.15625 0,0.42187 z m 13.9805,9.79688 q -0.047,0.14062 -0.125,0.21875 -0.078,0.0781 -0.2344,0.125 -0.1406,0.0469 -0.375,0.0625 -0.2187,0.0312 -0.5625,0.0312 -0.25,0 -0.4531,-0.0156 -0.1875,0 -0.3281,-0.0312 -0.1407,-0.0156 -0.25,-0.0469 -0.094,-0.0312 -0.1719,-0.0781 -0.062,-0.0469 -0.1094,-0.10937 -0.031,-0.0625 -0.062,-0.15625 l -4.9687,-14.09375 q -0.094,-0.25 -0.094,-0.40625 0,-0.17188 0.094,-0.25 0.1093,-0.0781 0.3437,-0.0937 0.2344,-0.0312 0.6406,-0.0312 0.3282,0 0.5157,0.0156 0.1875,0.0156 0.2968,0.0625 0.1094,0.0469 0.1563,0.125 0.062,0.0781 0.1094,0.1875 l 4.3437,12.76563 h 0.016 l 4.2188,-12.73438 q 0.047,-0.125 0.094,-0.20312 0.047,-0.0937 0.1563,-0.14063 0.125,-0.0469 0.3281,-0.0625 0.2188,-0.0156 0.5625,-0.0156 0.3594,0 0.5625,0.0312 0.2188,0.0312 0.2969,0.10937 0.078,0.0781 0.062,0.23438 -0.016,0.15625 -0.1094,0.42187 z m 13.875,0.0781 q 0,0.14063 -0.094,0.21875 -0.094,0.0625 -0.2656,0.0937 -0.1562,0.0469 -0.4687,0.0469 -0.2969,0 -0.4844,-0.0469 -0.1875,-0.0312 -0.2656,-0.0937 -0.078,-0.0781 -0.078,-0.21875 v -1.0625 q -0.6875,0.75 -1.5468,1.15625 -0.8438,0.40625 -1.7969,0.40625 -0.8281,0 -1.5,-0.21875 -0.6719,-0.21875 -1.1563,-0.625 -0.4687,-0.40625 -0.7343,-1 -0.2657,-0.60937 -0.2657,-1.35937 0,-0.89063 0.3594,-1.54688 0.375,-0.65625 1.0469,-1.09375 0.6875,-0.4375 1.6719,-0.65625 0.9843,-0.21875 2.2031,-0.21875 h 1.4531 v -0.8125 q 0,-0.60937 -0.125,-1.07812 -0.125,-0.46875 -0.4219,-0.78125 -0.2812,-0.3125 -0.7343,-0.46875 -0.4532,-0.15625 -1.125,-0.15625 -0.7188,0 -1.2969,0.17187 -0.5625,0.17188 -0.9844,0.375 -0.4219,0.20313 -0.7187,0.375 -0.2813,0.17188 -0.4219,0.17188 -0.094,0 -0.1719,-0.0469 -0.062,-0.0469 -0.125,-0.14062 -0.047,-0.0937 -0.078,-0.23438 -0.016,-0.15625 -0.016,-0.32812 0,-0.29688 0.031,-0.46875 0.047,-0.17188 0.2031,-0.3125 0.1719,-0.15625 0.5469,-0.35938 0.3906,-0.21875 0.8906,-0.375 0.5157,-0.17187 1.1094,-0.28125 0.5938,-0.125 1.2031,-0.125 1.1407,0 1.9375,0.26563 0.7969,0.25 1.2813,0.75 0.5,0.5 0.7187,1.25 0.2188,0.73437 0.2188,1.71875 z m -1.9219,-4.8125 h -1.6406 q -0.7969,0 -1.3906,0.14063 -0.5782,0.125 -0.9688,0.39062 -0.3906,0.26563 -0.5781,0.64063 -0.1719,0.35937 -0.1719,0.84375 0,0.8125 0.5156,1.29687 0.5313,0.48438 1.4688,0.48438 0.75,0 1.4062,-0.375 0.6563,-0.39063 1.3594,-1.1875 z m 7.418,4.79688 q 0,0.0937 -0.047,0.15625 -0.047,0.0625 -0.1563,0.125 -0.1093,0.0469 -0.2968,0.0625 -0.1875,0.0312 -0.4844,0.0312 -0.2813,0 -0.4688,-0.0312 -0.1875,-0.0156 -0.2968,-0.0625 -0.1094,-0.0625 -0.1563,-0.125 -0.031,-0.0625 -0.031,-0.15625 v -15.65625 q 0,-0.0937 0.031,-0.15625 0.047,-0.0781 0.1563,-0.125 0.1093,-0.0469 0.2968,-0.0625 0.1875,-0.0312 0.4688,-0.0312 0.2969,0 0.4844,0.0312 0.1875,0.0156 0.2968,0.0625 0.1094,0.0469 0.1563,0.125 0.047,0.0625 0.047,0.15625 z m 5.5078,0 q 0,0.0937 -0.047,0.15625 -0.047,0.0625 -0.1562,0.125 -0.1094,0.0469 -0.2969,0.0625 -0.1875,0.0312 -0.4844,0.0312 -0.2812,0 -0.4687,-0.0312 -0.1875,-0.0156 -0.2969,-0.0625 -0.1094,-0.0625 -0.1563,-0.125 -0.031,-0.0625 -0.031,-0.15625 v -15.65625 q 0,-0.0937 0.031,-0.15625 0.047,-0.0781 0.1563,-0.125 0.1094,-0.0469 0.2969,-0.0625 0.1875,-0.0312 0.4687,-0.0312 0.2969,0 0.4844,0.0312 0.1875,0.0156 0.2969,0.0625 0.1093,0.0469 0.1562,0.125 0.047,0.0625 0.047,0.15625 z m 12.5703,-5.73438 q 0,0.46875 -0.2344,0.65625 -0.2187,0.1875 -0.5156,0.1875 h -6.9219 q 0,0.89063 0.1719,1.59375 0.1875,0.70313 0.5937,1.20313 0.4063,0.5 1.0625,0.78125 0.6563,0.26562 1.6094,0.26562 0.75,0 1.3281,-0.125 0.5938,-0.125 1.0157,-0.28125 0.4375,-0.15625 0.7031,-0.26562 0.2812,-0.125 0.4219,-0.125 0.078,0 0.1406,0.0469 0.078,0.0312 0.1094,0.10938 0.031,0.0781 0.047,0.23437 0.016,0.14063 0.016,0.35938 0,0.14062 -0.016,0.26562 0,0.10938 -0.016,0.20313 -0.016,0.0781 -0.062,0.15625 -0.047,0.0625 -0.1094,0.125 -0.062,0.0625 -0.375,0.21875 -0.3125,0.14062 -0.8281,0.28125 -0.5,0.14062 -1.1719,0.25 -0.6562,0.10937 -1.4062,0.10937 -1.2969,0 -2.2813,-0.35937 -0.9687,-0.35938 -1.6406,-1.07813 -0.6719,-0.71875 -1.0156,-1.79687 -0.3281,-1.07813 -0.3281,-2.5 0,-1.35938 0.3437,-2.4375 0.3594,-1.09375 1.0156,-1.84375 0.6719,-0.76563 1.6094,-1.17188 0.9375,-0.40625 2.0938,-0.40625 1.2343,0 2.1093,0.40625 0.875,0.39063 1.4375,1.07813 0.5625,0.67187 0.8282,1.57812 0.2656,0.90625 0.2656,1.9375 z m -1.9531,-0.5625 q 0.047,-1.53125 -0.6719,-2.39062 -0.7031,-0.875 -2.0938,-0.875 -0.7187,0 -1.2656,0.28125 -0.5312,0.26562 -0.9062,0.71875 -0.3594,0.4375 -0.5625,1.03125 -0.1875,0.57812 -0.2188,1.23437 z m 9.539,6.59375 -1.4062,3.875 q -0.062,0.1875 -0.3594,0.28125 -0.2812,0.10938 -0.8594,0.10938 -0.3125,0 -0.5,-0.0312 -0.1875,-0.0312 -0.2968,-0.10938 -0.094,-0.0625 -0.1094,-0.1875 0,-0.10937 0.062,-0.26562 l 1.4531,-3.67188 q -0.094,-0.0469 -0.1875,-0.15625 -0.094,-0.10937 -0.1406,-0.21875 l -3.75,-10.07812 q -0.094,-0.25 -0.094,-0.39063 0,-0.14062 0.094,-0.21875 0.094,-0.0781 0.2969,-0.10937 0.2187,-0.0312 0.5625,-0.0312 0.3593,0 0.5468,0.0156 0.2032,0.0156 0.3125,0.0625 0.125,0.0469 0.1719,0.14063 0.062,0.0781 0.125,0.23437 l 3,8.46875 h 0.047 l 2.9062,-8.51562 q 0.062,-0.21875 0.1563,-0.28125 0.1094,-0.0625 0.2969,-0.0937 0.2031,-0.0312 0.5781,-0.0312 0.3281,0 0.5312,0.0312 0.2188,0.0312 0.3125,0.10937 0.1094,0.0781 0.1094,0.21875 0,0.14063 -0.062,0.35938 z"
     fill="#000000" />
</svg>
