<?xml version="1.0" encoding="UTF-8" standalone="no"?>
<svg
   xmlns:dc="http://purl.org/dc/elements/1.1/"
   xmlns:cc="http://creativecommons.org/ns#"
   xmlns:rdf="http://www.w3.org/1999/02/22-rdf-syntax-ns#"
   xmlns:svg="http://www.w3.org/2000/svg"
   xmlns="http://www.w3.org/2000/svg"
   xmlns:sodipodi="http://sodipodi.sourceforge.net/DTD/sodipodi-0.dtd"
   xmlns:inkscape="http://www.inkscape.org/namespaces/inkscape"
   inkscape:version="1.0 (4035a4fb49, 2020-05-01)"
   sodipodi:docname="embayment.svg"
   id="svg345"
   stroke-miterlimit="10"
   stroke-linecap="square"
   stroke="none"
   fill="none"
   viewBox="0.0 0.0 1280.0 720.0"
   version="1.1">
  <metadata
     id="metadata351">
    <rdf:RDF>
      <cc:Work
         rdf:about="">
        <dc:format>image/svg+xml</dc:format>
        <dc:type
           rdf:resource="http://purl.org/dc/dcmitype/StillImage" />
        <dc:title></dc:title>
      </cc:Work>
    </rdf:RDF>
  </metadata>
  <defs
     id="defs349" />
  <sodipodi:namedview
     inkscape:current-layer="svg345"
     inkscape:window-maximized="1"
     inkscape:window-y="1359"
     inkscape:window-x="554"
     inkscape:cy="190.46358"
     inkscape:cx="716.6544"
     inkscape:zoom="0.94375"
     showgrid="false"
     id="namedview347"
     inkscape:window-height="1001"
     inkscape:window-width="1920"
     inkscape:pageshadow="2"
     inkscape:pageopacity="0"
     guidetolerance="10"
     gridtolerance="10"
     objecttolerance="10"
     borderopacity="1"
     bordercolor="#666666"
     pagecolor="#ffffff"
     inkscape:document-rotation="0" />
  <clipPath
     id="p3.0">
    <path
       id="path2"
       clip-rule="nonzero"
       d="m0 0l1280.0 0l0 720.0l-1280.0 0l0 -720.0z" />
  </clipPath>
  <path
     style="stroke-width:0.240867"
     fill="#ffffff"
     d="M 517.08609,191.78808 H 744.90071 V 426.49006 H 517.08609 Z"
     fill-rule="evenodd"
     id="path5" />
  <path
     inkscape:export-ydpi="300"
     inkscape:export-xdpi="300"
     inkscape:export-filename="C:\Users\sfjones\Documents\Manuscripts\Global typology\embayment.png"
     fill="#548135"
     d="m 575.36297,252.13098 c 2.28864,1.31213 7.43842,6.84213 7.43842,11.8096 0,4.96744 -5.14978,11.24704 -7.43842,17.99542 -2.2887,6.74836 -4.95892,16.49598 -6.29395,22.49451 -1.33502,5.99853 -1.90716,11.99701 -1.71643,13.49658 0.19068,1.49957 -1.04907,-3.84289 2.86078,-4.49896 3.90985,-0.65607 15.73487,-1.78076 20.59839,0.56244 4.86347,2.3432 6.77088,9.65381 8.5827,13.49658 1.81189,3.84277 2.00257,10.1225 2.2887,9.56018 0.28613,-0.56225 -4.48205,-8.43548 -0.5722,-12.93426 3.90979,-4.49884 16.30713,-11.99707 24.03149,-14.05902 7.7244,-2.06202 16.784,0.74981 22.315,1.68713 5.531,0.93726 8.8687,5.52985 10.8713,3.93652 2.0025,-1.59338 0.3814,-9.18536 1.1443,-13.49676 0.763,-4.3114 0.477,-9.74762 3.4331,-12.37189 2.9563,-2.62427 12.6833,-7.77927 14.3045,-3.37411 1.6212,4.40518 4.2912,20.33859 -4.5775,29.80502 -8.8687,9.46643 -32.7094,23.05682 -48.635,26.99335 -15.92565,3.93652 -35.47508,0.56243 -46.91863,-3.37415 -11.44354,-3.93652 -17.54675,-12.2782 -21.74273,-20.24493 -4.19593,-7.96674 -5.72168,-16.96466 -3.43299,-27.55576 2.2887,-10.59113 13.15998,-29.43018 17.16522,-35.99097 4.00525,-6.56079 4.00525,-5.24865 6.29395,-3.93652 z"
     fill-rule="evenodd"
     id="path217" />
  <path
     inkscape:export-ydpi="300"
     inkscape:export-xdpi="300"
     inkscape:export-filename="C:\Users\sfjones\Documents\Manuscripts\Global typology\embayment.png"
     stroke="#000000"
     stroke-width="1"
     stroke-miterlimit="800"
     stroke-linecap="butt"
     d="m 575.36297,252.13098 c 2.28864,1.31213 7.43842,6.84213 7.43842,11.8096 0,4.96744 -5.14978,11.24704 -7.43842,17.99542 -2.2887,6.74836 -4.95892,16.49598 -6.29395,22.49451 -1.33502,5.99853 -1.90716,11.99701 -1.71643,13.49658 0.19068,1.49957 -1.04907,-3.84289 2.86078,-4.49896 3.90985,-0.65607 15.73487,-1.78076 20.59839,0.56244 4.86347,2.3432 6.77088,9.65381 8.5827,13.49658 1.81189,3.84277 2.00257,10.1225 2.2887,9.56018 0.28613,-0.56225 -4.48205,-8.43548 -0.5722,-12.93426 3.90979,-4.49884 16.30713,-11.99707 24.03149,-14.05902 7.7244,-2.06202 16.784,0.74981 22.315,1.68713 5.531,0.93726 8.8687,5.52985 10.8713,3.93652 2.0025,-1.59338 0.3814,-9.18536 1.1443,-13.49676 0.763,-4.3114 0.477,-9.74762 3.4331,-12.37189 2.9563,-2.62427 12.6833,-7.77927 14.3045,-3.37411 1.6212,4.40518 4.2912,20.33859 -4.5775,29.80502 -8.8687,9.46643 -32.7094,23.05682 -48.635,26.99335 -15.92565,3.93652 -35.47508,0.56243 -46.91863,-3.37415 -11.44354,-3.93652 -17.54675,-12.2782 -21.74273,-20.24493 -4.19593,-7.96674 -5.72168,-16.96466 -3.43299,-27.55576 2.2887,-10.59113 13.15998,-29.43018 17.16522,-35.99097 4.00525,-6.56079 4.00525,-5.24865 6.29395,-3.93652 z"
     fill-rule="evenodd"
     id="path219" />
  <path
     inkscape:export-ydpi="300"
     inkscape:export-xdpi="300"
     inkscape:export-filename="C:\Users\sfjones\Documents\Manuscripts\Global typology\embayment.png"
     fill="#d7a979"
     d="m 534.59697,226.76959 c -2.06372,1.96765 -2.91223,9.03867 0.91962,11.29828 3.83184,2.25961 18.23956,-2.25974 22.07141,2.25961 3.83185,4.51935 2.75903,17.55002 0.91974,24.85632 -1.83924,7.30631 -9.42646,11.75034 -11.95545,18.98121 -2.52905,7.23086 -6.30389,15.122 -3.21869,24.40441 3.08527,9.28235 12.76807,24.10657 21.73017,31.28974 8.96203,7.18317 17.83301,11.24719 32.04205,11.80951 14.20898,0.56225 38.43113,-1.9682 53.21243,-8.43537 14.7812,-6.46716 28.4181,-17.99554 35.475,-30.36743 7.0569,-12.37189 7.8198,-32.242 6.8662,-43.86404 -0.9536,-11.62207 -15.3535,-21.27603 -12.588,-25.86862 2.7655,-4.59263 21.9335,0 29.1811,-1.68714 7.2476,-1.68713 12.874,-6.09216 14.3044,-8.43536 1.4305,-2.3432 -1.2397,-4.31153 -5.7218,-5.62366 -4.4821,-1.31213 -13.1601,-3.28033 -21.1706,-2.24942 -8.0105,1.03095 -21.2659,6.09216 -26.8923,8.43536 -5.6264,2.34321 -7.629,1.40592 -6.8661,5.62366 0.763,4.21774 9.441,12.09082 11.4436,19.68268 2.0025,7.59186 1.5257,18.27664 0.5721,25.8685 -0.9537,7.59186 -1.5257,12.84064 -6.2939,19.68268 -4.7682,6.84198 -14.3045,16.02722 -22.315,21.36963 -8.0105,5.34247 -16.6886,8.99768 -25.74796,10.68481 -9.05945,1.68707 -19.16779,2.90558 -28.60877,-0.56232 -9.44098,-3.46789 -22.60107,-13.40295 -28.0368,-20.24493 -5.43573,-6.84204 -5.24487,-13.12176 -4.57733,-20.8074 0.66748,-7.68564 6.00781,-17.2457 8.58258,-25.30622 2.57483,-8.06048 7.05688,-16.30841 6.86615,-23.05676 -0.19068,-6.74838 -3.52838,-14.05902 -8.0105,-17.43314 -4.48206,-3.37411 -13.44611,-2.3432 -18.88178,-2.81182 -5.43573,-0.46866 -11.23791,-1.46042 -13.30157,0.50723 z"
     fill-rule="evenodd"
     id="path221" />
  <path
     inkscape:export-ydpi="300"
     inkscape:export-xdpi="300"
     inkscape:export-filename="C:\Users\sfjones\Documents\Manuscripts\Global typology\embayment.png"
     fill="#000000"
     fill-opacity="0"
     d="m 534.87547,227.95926 c 9.64703,-2.10455 19.29419,-4.20911 25.82446,-0.87079 6.5304,3.33832 13.50592,7.54727 13.35755,20.90027 -0.14838,13.35297 -19.29419,44.26801 -14.24799,59.21759 5.04614,14.94959 27.75397,29.17334 44.52509,30.47955 16.77107,1.30628 44.07977,-11.17578 56.10147,-22.6419 12.0218,-11.46619 15.287,-33.38245 16.0291,-46.15488 0.742,-12.7724 -15.1386,-23.2225 -11.5766,-30.47958 3.5621,-7.25705 24.0437,-11.46616 32.9487,-13.06275 8.9051,-1.59662 14.6933,0.94339 20.4815,3.48343"
     fill-rule="evenodd"
     id="path223" />
  <path
     inkscape:export-ydpi="300"
     inkscape:export-xdpi="300"
     inkscape:export-filename="C:\Users\sfjones\Documents\Manuscripts\Global typology\embayment.png"
     stroke="#000000"
     stroke-width="1.33333"
     stroke-miterlimit="800"
     stroke-linecap="butt"
     d="m 534.87547,227.95926 c 9.64703,-2.10455 19.29419,-4.20911 25.82446,-0.87079 6.5304,3.33832 13.50592,7.54727 13.35755,20.90027 -0.14838,13.35297 -19.29419,44.26801 -14.24799,59.21759 5.04614,14.94959 27.75397,29.17334 44.52509,30.47955 16.77107,1.30628 44.07977,-11.17578 56.10147,-22.6419 12.0218,-11.46619 15.287,-33.38245 16.0291,-46.15488 0.742,-12.7724 -15.1386,-23.2225 -11.5766,-30.47958 3.5621,-7.25705 24.0437,-11.46616 32.9487,-13.06275 8.9051,-1.59662 14.6933,0.94339 20.4815,3.48343"
     fill-rule="evenodd"
     id="path225" />
  <path
     inkscape:export-ydpi="300"
     inkscape:export-xdpi="300"
     inkscape:export-filename="C:\Users\sfjones\Documents\Manuscripts\Global typology\embayment.png"
     fill="#000000"
     fill-opacity="0"
     d="m 543.89331,221.20111 c 13.11237,-1.1716 26.22479,-2.3432 33.75848,1.68713 7.5337,4.03031 9.25025,11.99701 11.44349,22.49436 2.19329,10.49734 -0.38154,31.02353 1.71649,40.48993 2.09796,9.4664 6.58001,17.15191 10.8714,16.30841 4.29138,-0.84351 8.39202,-18.83902 14.8767,-21.36966 6.48458,-2.53061 16.78378,7.02945 24.03138,6.18594 7.2476,-0.84347 17.4515,-5.71728 19.454,-11.24716 2.0026,-5.52991 -6.58,-13.59039 -7.4383,-21.9321 -0.8582,-8.3417 -2.2886,-22.49423 2.2887,-28.11789 4.5774,-5.62366 16.8793,-4.12396 25.1758,-5.62366 8.2966,-1.49972 17.8329,-3.46789 24.6036,-3.37411 6.7708,0.0938 11.3959,2.01508 16.0211,3.93652"
     fill-rule="evenodd"
     id="path227" />
  <path
     inkscape:export-ydpi="300"
     inkscape:export-xdpi="300"
     inkscape:export-filename="C:\Users\sfjones\Documents\Manuscripts\Global typology\embayment.png"
     stroke="#000000"
     stroke-width="1.33333"
     stroke-miterlimit="800"
     stroke-linecap="butt"
     stroke-dasharray="5.33333, 4"
     d="m 543.89331,221.20111 c 13.11237,-1.1716 26.22479,-2.3432 33.75848,1.68713 7.5337,4.03031 9.25025,11.99701 11.44349,22.49436 2.19329,10.49734 -0.38154,31.02353 1.71649,40.48993 2.09796,9.4664 6.58001,17.15191 10.8714,16.30841 4.29138,-0.84351 8.39202,-18.83902 14.8767,-21.36966 6.48458,-2.53061 16.78378,7.02945 24.03138,6.18594 7.2476,-0.84347 17.4515,-5.71728 19.454,-11.24716 2.0026,-5.52991 -6.58,-13.59039 -7.4383,-21.9321 -0.8582,-8.3417 -2.2886,-22.49423 2.2887,-28.11789 4.5774,-5.62366 16.8793,-4.12396 25.1758,-5.62366 8.2966,-1.49972 17.8329,-3.46789 24.6036,-3.37411 6.7708,0.0938 11.3959,2.01508 16.0211,3.93652"
     fill-rule="evenodd"
     id="path229" />
  <path
     fill="#000000"
     fill-opacity="0"
     d="M 683.6341,31.487663 H 873.61835 V 70.259315 H 683.6341 Z"
     fill-rule="evenodd"
     id="path315" />
  <path
     fill="#000000"
     fill-opacity="0"
     d="m 560.24525,327.16556 h 137.5433 v 38.77167 h -137.5433 z"
     fill-rule="evenodd"
     id="path335" />
  <path
     fill="#000000"
     d="m 579.69836,394.70191 q 0,0.20313 -0.031,0.35938 -0.016,0.15625 -0.078,0.26562 -0.047,0.10938 -0.125,0.15625 -0.078,0.0469 -0.1718,0.0469 h -7.2813 q -0.2656,0 -0.5156,-0.17188 -0.2344,-0.1875 -0.2344,-0.65625 v -13.51562 q 0,-0.45313 0.2344,-0.64063 0.25,-0.1875 0.5156,-0.1875 h 7.2031 q 0.094,0 0.1563,0.0469 0.078,0.0469 0.125,0.15625 0.047,0.10937 0.078,0.26562 0.031,0.15625 0.031,0.39063 0,0.21875 -0.031,0.375 -0.031,0.15625 -0.078,0.26562 -0.047,0.0937 -0.125,0.14063 -0.062,0.0469 -0.1563,0.0469 h -5.9375 v 4.75 h 5.0938 q 0.094,0 0.1562,0.0625 0.078,0.0469 0.125,0.14063 0.062,0.0937 0.078,0.26562 0.031,0.15625 0.031,0.375 0,0.21875 -0.031,0.375 -0.016,0.14063 -0.078,0.23438 -0.047,0.0937 -0.125,0.14062 -0.062,0.0312 -0.1562,0.0312 h -5.0938 v 5.4375 h 6.0157 q 0.094,0 0.1718,0.0469 0.078,0.0469 0.125,0.14062 0.062,0.0937 0.078,0.26563 0.031,0.15625 0.031,0.39062 z m 18.7031,0.53125 q 0,0.0937 -0.047,0.15625 -0.047,0.0625 -0.1562,0.125 -0.094,0.0469 -0.2813,0.0625 -0.1875,0.0312 -0.4687,0.0312 -0.2969,0 -0.4844,-0.0312 -0.1875,-0.0156 -0.2969,-0.0625 -0.1093,-0.0625 -0.1562,-0.125 -0.047,-0.0625 -0.047,-0.15625 v -6.40625 q 0,-0.67187 -0.125,-1.21875 -0.1094,-0.54687 -0.375,-0.9375 -0.25,-0.40625 -0.6563,-0.60937 -0.3906,-0.21875 -0.9375,-0.21875 -0.6718,0 -1.3437,0.51562 -0.6719,0.51563 -1.4844,1.5 v 7.375 q 0,0.0937 -0.047,0.15625 -0.047,0.0625 -0.1562,0.125 -0.1094,0.0469 -0.2969,0.0625 -0.1875,0.0312 -0.4687,0.0312 -0.2657,0 -0.4688,-0.0312 -0.1875,-0.0156 -0.2969,-0.0625 -0.1093,-0.0625 -0.1562,-0.125 -0.031,-0.0625 -0.031,-0.15625 v -6.40625 q 0,-0.67187 -0.1406,-1.21875 -0.125,-0.54687 -0.3907,-0.9375 -0.25,-0.40625 -0.6406,-0.60937 -0.3906,-0.21875 -0.9375,-0.21875 -0.6562,0 -1.3437,0.51562 -0.6719,0.51563 -1.4688,1.5 v 7.375 q 0,0.0937 -0.047,0.15625 -0.047,0.0625 -0.1562,0.125 -0.1094,0.0469 -0.2969,0.0625 -0.1875,0.0312 -0.4844,0.0312 -0.2812,0 -0.4687,-0.0312 -0.1875,-0.0156 -0.2969,-0.0625 -0.1094,-0.0625 -0.1563,-0.125 -0.031,-0.0625 -0.031,-0.15625 v -10.54687 q 0,-0.0937 0.031,-0.15625 0.031,-0.0625 0.1407,-0.10938 0.1093,-0.0625 0.2656,-0.0781 0.1719,-0.0156 0.4375,-0.0156 0.2656,0 0.4219,0.0156 0.1718,0.0156 0.2656,0.0781 0.094,0.0469 0.1406,0.10938 0.047,0.0625 0.047,0.15625 v 1.39062 q 0.8906,-0.98437 1.7188,-1.45312 0.8437,-0.46875 1.7031,-0.46875 0.6562,0 1.1719,0.15625 0.5156,0.15625 0.9062,0.4375 0.4063,0.26562 0.6875,0.65625 0.2813,0.375 0.4688,0.84375 0.5312,-0.57813 1,-0.96875 0.4843,-0.40625 0.9218,-0.64063 0.4375,-0.25 0.8438,-0.35937 0.4219,-0.125 0.8437,-0.125 1.0313,0 1.7188,0.35937 0.6875,0.35938 1.1094,0.96875 0.4375,0.59375 0.6093,1.39063 0.1875,0.79687 0.1875,1.6875 z m 13.2344,-5.40625 q 0,1.35938 -0.2969,2.46875 -0.2968,1.09375 -0.8906,1.875 -0.5781,0.76563 -1.4219,1.17188 -0.8437,0.40625 -1.9218,0.40625 -0.5157,0 -0.9375,-0.0937 -0.4219,-0.0937 -0.8438,-0.3125 -0.4062,-0.23438 -0.8125,-0.57813 -0.4062,-0.34375 -0.875,-0.8125 v 1.28125 q 0,0.0937 -0.047,0.17188 -0.047,0.0625 -0.1562,0.10937 -0.094,0.0469 -0.25,0.0625 -0.1563,0.0312 -0.4063,0.0312 -0.2343,0 -0.4062,-0.0312 -0.1563,-0.0156 -0.2656,-0.0625 -0.1094,-0.0469 -0.1407,-0.10937 -0.031,-0.0781 -0.031,-0.17188 v -15.65625 q 0,-0.0937 0.031,-0.15625 0.047,-0.0781 0.1563,-0.125 0.1094,-0.0469 0.2969,-0.0625 0.1875,-0.0312 0.4687,-0.0312 0.2969,0 0.4844,0.0312 0.1875,0.0156 0.2969,0.0625 0.1093,0.0469 0.1562,0.125 0.047,0.0625 0.047,0.15625 v 6.3125 q 0.4688,-0.46875 0.9063,-0.79687 0.4375,-0.32813 0.8593,-0.53125 0.4219,-0.21875 0.8438,-0.3125 0.4219,-0.0937 0.8906,-0.0937 1.1406,0 1.9531,0.46875 0.8282,0.45312 1.3282,1.21875 0.5156,0.76562 0.75,1.79687 0.2343,1.03125 0.2343,2.1875 z m -2.0469,0.21875 q 0,-0.8125 -0.125,-1.5625 -0.1093,-0.76562 -0.4218,-1.34375 -0.2969,-0.59375 -0.8125,-0.95312 -0.5,-0.35938 -1.25,-0.35938 -0.375,0 -0.7344,0.10938 -0.3594,0.0937 -0.7344,0.34375 -0.375,0.25 -0.7812,0.64062 -0.4063,0.375 -0.8594,0.96875 v 4.20313 q 0.7969,0.96875 1.5156,1.48437 0.7344,0.51563 1.5156,0.51563 0.7188,0 1.2344,-0.34375 0.5156,-0.35938 0.8438,-0.9375 0.3281,-0.59375 0.4687,-1.3125 0.1406,-0.71875 0.1406,-1.45313 z m 12.8907,5.20313 q 0,0.14062 -0.094,0.21875 -0.094,0.0625 -0.2656,0.0937 -0.1562,0.0469 -0.4687,0.0469 -0.2969,0 -0.4844,-0.0469 -0.1875,-0.0312 -0.2656,-0.0937 -0.078,-0.0781 -0.078,-0.21875 v -1.0625 q -0.6875,0.75 -1.5469,1.15625 -0.8437,0.40625 -1.7968,0.40625 -0.8282,0 -1.5,-0.21875 -0.6719,-0.21875 -1.1563,-0.625 -0.4687,-0.40625 -0.7344,-1 -0.2656,-0.60938 -0.2656,-1.35938 0,-0.89062 0.3594,-1.54687 0.375,-0.65625 1.0469,-1.09375 0.6875,-0.4375 1.6718,-0.65625 0.9844,-0.21875 2.2032,-0.21875 h 1.4531 v -0.8125 q 0,-0.60938 -0.125,-1.07813 -0.125,-0.46875 -0.4219,-0.78125 -0.2812,-0.3125 -0.7344,-0.46875 -0.4531,-0.15625 -1.125,-0.15625 -0.7187,0 -1.2968,0.17188 -0.5625,0.17187 -0.9844,0.375 -0.4219,0.20312 -0.7188,0.375 -0.2812,0.17187 -0.4218,0.17187 -0.094,0 -0.1719,-0.0469 -0.062,-0.0469 -0.125,-0.14063 -0.047,-0.0937 -0.078,-0.23437 -0.016,-0.15625 -0.016,-0.32813 0,-0.29687 0.031,-0.46875 0.047,-0.17187 0.2031,-0.3125 0.1719,-0.15625 0.5469,-0.35937 0.3906,-0.21875 0.8906,-0.375 0.5156,-0.17188 1.1094,-0.28125 0.5937,-0.125 1.2031,-0.125 1.1406,0 1.9375,0.26562 0.7969,0.25 1.2813,0.75 0.5,0.5 0.7187,1.25 0.2188,0.73438 0.2188,1.71875 z m -1.9219,-4.8125 h -1.6406 q -0.7969,0 -1.3907,0.14062 -0.5781,0.125 -0.9687,0.39063 -0.3906,0.26562 -0.5781,0.64062 -0.1719,0.35938 -0.1719,0.84375 0,0.8125 0.5156,1.29688 0.5313,0.48437 1.4688,0.48437 0.75,0 1.4062,-0.375 0.6563,-0.39062 1.3594,-1.1875 z m 9.832,5.09375 -1.4062,3.875 q -0.062,0.1875 -0.3594,0.28125 -0.2812,0.10937 -0.8594,0.10937 -0.3125,0 -0.5,-0.0312 -0.1875,-0.0312 -0.2968,-0.10937 -0.094,-0.0625 -0.1094,-0.1875 0,-0.10938 0.062,-0.26563 l 1.4531,-3.67187 q -0.094,-0.0469 -0.1875,-0.15625 -0.094,-0.10938 -0.1406,-0.21875 l -3.75,-10.07813 q -0.094,-0.25 -0.094,-0.39062 0,-0.14063 0.094,-0.21875 0.094,-0.0781 0.2969,-0.10938 0.2187,-0.0312 0.5625,-0.0312 0.3593,0 0.5468,0.0156 0.2032,0.0156 0.3125,0.0625 0.125,0.0469 0.1719,0.14062 0.062,0.0781 0.125,0.23438 l 3,8.46875 h 0.047 l 2.9062,-8.51563 q 0.062,-0.21875 0.1563,-0.28125 0.1094,-0.0625 0.2969,-0.0937 0.2031,-0.0312 0.5781,-0.0312 0.3281,0 0.5312,0.0312 0.2188,0.0312 0.3125,0.10938 0.1094,0.0781 0.1094,0.21875 0,0.14062 -0.062,0.35937 z m 21.7071,-0.29688 q 0,0.0937 -0.047,0.15625 -0.047,0.0625 -0.1563,0.125 -0.094,0.0469 -0.2812,0.0625 -0.1875,0.0312 -0.4688,0.0312 -0.2968,0 -0.4843,-0.0312 -0.1875,-0.0156 -0.2969,-0.0625 -0.1094,-0.0625 -0.1563,-0.125 -0.047,-0.0625 -0.047,-0.15625 v -6.40625 q 0,-0.67187 -0.125,-1.21875 -0.1094,-0.54687 -0.375,-0.9375 -0.25,-0.40625 -0.6563,-0.60937 -0.3906,-0.21875 -0.9375,-0.21875 -0.6719,0 -1.3437,0.51562 -0.6719,0.51563 -1.4844,1.5 v 7.375 q 0,0.0937 -0.047,0.15625 -0.047,0.0625 -0.1562,0.125 -0.1094,0.0469 -0.2969,0.0625 -0.1875,0.0312 -0.4688,0.0312 -0.2656,0 -0.4687,-0.0312 -0.1875,-0.0156 -0.2969,-0.0625 -0.1094,-0.0625 -0.1562,-0.125 -0.031,-0.0625 -0.031,-0.15625 v -6.40625 q 0,-0.67187 -0.1406,-1.21875 -0.125,-0.54687 -0.3906,-0.9375 -0.25,-0.40625 -0.6407,-0.60937 -0.3906,-0.21875 -0.9375,-0.21875 -0.6562,0 -1.3437,0.51562 -0.6719,0.51563 -1.4688,1.5 v 7.375 q 0,0.0937 -0.047,0.15625 -0.047,0.0625 -0.1563,0.125 -0.1094,0.0469 -0.2969,0.0625 -0.1875,0.0312 -0.4843,0.0312 -0.2813,0 -0.4688,-0.0312 -0.1875,-0.0156 -0.2969,-0.0625 -0.1093,-0.0625 -0.1562,-0.125 -0.031,-0.0625 -0.031,-0.15625 v -10.54687 q 0,-0.0937 0.031,-0.15625 0.031,-0.0625 0.1406,-0.10938 0.1094,-0.0625 0.2656,-0.0781 0.1719,-0.0156 0.4375,-0.0156 0.2657,0 0.4219,0.0156 0.1719,0.0156 0.2656,0.0781 0.094,0.0469 0.1407,0.10938 0.047,0.0625 0.047,0.15625 v 1.39062 q 0.8907,-0.98437 1.7188,-1.45312 0.8437,-0.46875 1.7031,-0.46875 0.6563,0 1.1719,0.15625 0.5156,0.15625 0.9062,0.4375 0.4063,0.26562 0.6875,0.65625 0.2813,0.375 0.4688,0.84375 0.5312,-0.57813 1,-0.96875 0.4844,-0.40625 0.9219,-0.64063 0.4375,-0.25 0.8437,-0.35937 0.4219,-0.125 0.8438,-0.125 1.0312,0 1.7187,0.35937 0.6875,0.35938 1.1094,0.96875 0.4375,0.59375 0.6094,1.39063 0.1875,0.79687 0.1875,1.6875 z m 12.5312,-5.73437 q 0,0.46875 -0.2344,0.65625 -0.2187,0.1875 -0.5156,0.1875 h -6.9219 q 0,0.89062 0.1719,1.59375 0.1875,0.70312 0.5938,1.20312 0.4062,0.5 1.0625,0.78125 0.6562,0.26563 1.6093,0.26563 0.75,0 1.3282,-0.125 0.5937,-0.125 1.0156,-0.28125 0.4375,-0.15625 0.7031,-0.26563 0.2813,-0.125 0.4219,-0.125 0.078,0 0.1406,0.0469 0.078,0.0312 0.1094,0.10937 0.031,0.0781 0.047,0.23438 0.016,0.14062 0.016,0.35937 0,0.14063 -0.016,0.26563 0,0.10937 -0.016,0.20312 -0.016,0.0781 -0.062,0.15625 -0.047,0.0625 -0.1093,0.125 -0.062,0.0625 -0.375,0.21875 -0.3125,0.14063 -0.8282,0.28125 -0.5,0.14063 -1.1718,0.25 -0.6563,0.10938 -1.4063,0.10938 -1.2969,0 -2.2812,-0.35938 -0.9688,-0.35937 -1.6407,-1.07812 -0.6718,-0.71875 -1.0156,-1.79688 -0.3281,-1.07812 -0.3281,-2.5 0,-1.35937 0.3437,-2.4375 0.3594,-1.09375 1.0157,-1.84375 0.6718,-0.76562 1.6093,-1.17187 0.9375,-0.40625 2.0938,-0.40625 1.2344,0 2.1094,0.40625 0.875,0.39062 1.4375,1.07812 0.5625,0.67188 0.8281,1.57813 0.2656,0.90625 0.2656,1.9375 z m -1.9531,-0.5625 q 0.047,-1.53125 -0.6719,-2.39063 -0.7031,-0.875 -2.0937,-0.875 -0.7188,0 -1.2657,0.28125 -0.5312,0.26563 -0.9062,0.71875 -0.3594,0.4375 -0.5625,1.03125 -0.1875,0.57813 -0.2188,1.23438 z m 13.9726,6.29687 q 0,0.0937 -0.047,0.15625 -0.047,0.0625 -0.1563,0.125 -0.094,0.0469 -0.2812,0.0625 -0.1875,0.0312 -0.4688,0.0312 -0.2969,0 -0.4844,-0.0312 -0.1875,-0.0156 -0.2968,-0.0625 -0.1094,-0.0625 -0.1563,-0.125 -0.047,-0.0625 -0.047,-0.15625 v -6.17187 q 0,-0.90625 -0.1406,-1.45313 -0.1406,-0.54687 -0.4062,-0.9375 -0.2657,-0.40625 -0.7032,-0.60937 -0.4218,-0.21875 -0.9843,-0.21875 -0.7188,0 -1.4532,0.51562 -0.7187,0.51563 -1.5156,1.5 v 7.375 q 0,0.0937 -0.047,0.15625 -0.047,0.0625 -0.1562,0.125 -0.1094,0.0469 -0.2969,0.0625 -0.1875,0.0312 -0.4844,0.0312 -0.2812,0 -0.4687,-0.0312 -0.1875,-0.0156 -0.2969,-0.0625 -0.1094,-0.0625 -0.1562,-0.125 -0.031,-0.0625 -0.031,-0.15625 v -10.54687 q 0,-0.0937 0.031,-0.15625 0.031,-0.0625 0.1406,-0.10938 0.1094,-0.0625 0.2656,-0.0781 0.1719,-0.0156 0.4375,-0.0156 0.2656,0 0.4219,0.0156 0.1719,0.0156 0.2656,0.0781 0.094,0.0469 0.1406,0.10938 0.047,0.0625 0.047,0.15625 v 1.39062 q 0.8906,-0.98437 1.7656,-1.45312 0.8907,-0.46875 1.7969,-0.46875 1.0469,0 1.7656,0.35937 0.7188,0.35938 1.1563,0.96875 0.4531,0.59375 0.6406,1.39063 0.2031,0.79687 0.2031,1.92187 z m 8.793,-0.76562 q 0,0.32812 -0.047,0.53125 -0.047,0.20312 -0.1406,0.29687 -0.094,0.0937 -0.2812,0.1875 -0.1875,0.0781 -0.4375,0.125 -0.2344,0.0469 -0.5,0.0781 -0.2657,0.0469 -0.5469,0.0469 -0.8125,0 -1.4063,-0.21875 -0.5781,-0.21875 -0.9531,-0.65625 -0.375,-0.4375 -0.5469,-1.10937 -0.1718,-0.6875 -0.1718,-1.59375 v -6.17188 h -1.4688 q -0.1875,0 -0.2969,-0.1875 -0.094,-0.1875 -0.094,-0.60937 0,-0.21875 0.031,-0.35938 0.031,-0.15625 0.078,-0.25 0.047,-0.10937 0.1093,-0.14062 0.078,-0.0469 0.1719,-0.0469 h 1.4688 v -2.51562 q 0,-0.0781 0.031,-0.14063 0.047,-0.0781 0.1563,-0.125 0.125,-0.0625 0.3125,-0.0781 0.1875,-0.0312 0.4687,-0.0312 0.2813,0 0.4688,0.0312 0.1875,0.0156 0.2968,0.0781 0.1094,0.0469 0.1563,0.125 0.047,0.0625 0.047,0.14063 v 2.51562 h 2.7031 q 0.094,0 0.1562,0.0469 0.078,0.0312 0.125,0.14062 0.062,0.0937 0.078,0.25 0.031,0.14063 0.031,0.35938 0,0.42187 -0.1094,0.60937 -0.1093,0.1875 -0.2812,0.1875 h -2.7031 v 5.89063 q 0,1.09375 0.3125,1.65625 0.3281,0.54687 1.1562,0.54687 0.2813,0 0.4844,-0.0469 0.2187,-0.0625 0.375,-0.10938 0.1719,-0.0625 0.2812,-0.10937 0.125,-0.0625 0.2188,-0.0625 0.047,0 0.094,0.0312 0.062,0.0312 0.094,0.10937 0.031,0.0781 0.047,0.21875 0.031,0.14063 0.031,0.35938 z"
     fill-rule="nonzero"
     id="path337" />
</svg>
