<?xml version="1.0" encoding="UTF-8" standalone="no"?>
<svg
   xmlns:dc="http://purl.org/dc/elements/1.1/"
   xmlns:cc="http://creativecommons.org/ns#"
   xmlns:rdf="http://www.w3.org/1999/02/22-rdf-syntax-ns#"
   xmlns:svg="http://www.w3.org/2000/svg"
   xmlns="http://www.w3.org/2000/svg"
   xmlns:sodipodi="http://sodipodi.sourceforge.net/DTD/sodipodi-0.dtd"
   xmlns:inkscape="http://www.inkscape.org/namespaces/inkscape"
   inkscape:version="1.0 (4035a4fb49, 2020-05-01)"
   sodipodi:docname="high_energy_delta.svg"
   id="svg345"
   stroke-miterlimit="10"
   stroke-linecap="square"
   stroke="none"
   fill="none"
   viewBox="0.0 0.0 1280.0 720.0"
   version="1.1">
  <metadata
     id="metadata351">
    <rdf:RDF>
      <cc:Work
         rdf:about="">
        <dc:format>image/svg+xml</dc:format>
        <dc:type
           rdf:resource="http://purl.org/dc/dcmitype/StillImage" />
        <dc:title></dc:title>
      </cc:Work>
    </rdf:RDF>
  </metadata>
  <defs
     id="defs349" />
  <sodipodi:namedview
     inkscape:current-layer="svg345"
     inkscape:window-maximized="1"
     inkscape:window-y="-9"
     inkscape:window-x="-9"
     inkscape:cy="215.32484"
     inkscape:cx="629.93377"
     inkscape:zoom="0.94375"
     showgrid="false"
     id="namedview347"
     inkscape:window-height="1271"
     inkscape:window-width="2400"
     inkscape:pageshadow="2"
     inkscape:pageopacity="0"
     guidetolerance="10"
     gridtolerance="10"
     objecttolerance="10"
     borderopacity="1"
     bordercolor="#666666"
     pagecolor="#ffffff" />
  <clipPath
     id="p3.0">
    <path
       id="path2"
       clip-rule="nonzero"
       d="m0 0l1280.0 0l0 720.0l-1280.0 0l0 -720.0z" />
  </clipPath>
  <path
     style="stroke-width:0.239523"
     fill="#ffffff"
     d="m 503.31126,233.11258 h 219.33779 v 241.0596 H 503.31126 Z"
     fill-rule="evenodd"
     id="path5" />
  <path
     inkscape:export-ydpi="300"
     inkscape:export-xdpi="300"
     inkscape:export-filename="C:\Users\sfjones\Documents\Manuscripts\Global typology\high_energy_delta.png"
     fill="#000000"
     fill-opacity="0"
     d="m 544.40279,279.28031 c 4.62161,-3.43856 9.24335,-6.87699 13.60327,-9.3527 4.36008,-2.47572 7.32474,-3.30092 12.55676,-5.50162 5.232,-2.20069 12.73121,-6.32693 18.83515,-7.7023 6.10394,-1.37537 15.34729,-1.92555 17.78888,-0.55018 2.44156,1.37537 -4.62174,8.34416 -3.13928,8.80266 1.48245,0.4585 7.15048,-5.50161 12.03363,-6.05179 4.88314,-0.55017 13.25445,1.55872 17.26565,2.75074 4.0112,1.19203 3.13916,2.93435 6.80152,4.4014 3.66238,1.46704 12.03366,0.73352 15.17282,4.40126 3.13916,3.66774 1.22088,12.83709 3.66247,17.60518 2.44159,4.76809 7.93524,8.80253 10.98725,11.00309 3.05194,2.20057 5.6679,0.27516 7.3247,2.2007 1.6568,1.92555 1.91846,5.31813 2.61603,9.3527 0.69763,4.03457 2.09277,9.99468 1.56952,14.85445 -0.52319,4.85976 -4.70874,14.30413 -4.70874,14.30413 v 0"
     fill-rule="evenodd"
     id="path257" />
  <path
     inkscape:export-ydpi="300"
     inkscape:export-xdpi="300"
     inkscape:export-filename="C:\Users\sfjones\Documents\Manuscripts\Global typology\high_energy_delta.png"
     stroke="#000000"
     stroke-width="1.33333"
     stroke-miterlimit="800"
     stroke-linecap="butt"
     stroke-dasharray="5.33333, 4"
     d="m 544.40279,279.28031 c 4.62161,-3.43856 9.24335,-6.87699 13.60327,-9.3527 4.36008,-2.47572 7.32474,-3.30092 12.55676,-5.50162 5.232,-2.20069 12.73121,-6.32693 18.83515,-7.7023 6.10394,-1.37537 15.34729,-1.92555 17.78888,-0.55018 2.44156,1.37537 -4.62174,8.34416 -3.13928,8.80266 1.48245,0.4585 7.15048,-5.50161 12.03363,-6.05179 4.88314,-0.55017 13.25445,1.55872 17.26565,2.75074 4.0112,1.19203 3.13916,2.93435 6.80152,4.4014 3.66238,1.46704 12.03366,0.73352 15.17282,4.40126 3.13916,3.66774 1.22088,12.83709 3.66247,17.60518 2.44159,4.76809 7.93524,8.80253 10.98725,11.00309 3.05194,2.20057 5.6679,0.27516 7.3247,2.2007 1.6568,1.92555 1.91846,5.31813 2.61603,9.3527 0.69763,4.03457 2.09277,9.99468 1.56952,14.85445 -0.52319,4.85976 -4.70874,14.30413 -4.70874,14.30413 v 0"
     fill-rule="evenodd"
     id="path259" />
  <path
     inkscape:export-ydpi="300"
     inkscape:export-xdpi="300"
     inkscape:export-filename="C:\Users\sfjones\Documents\Manuscripts\Global typology\high_energy_delta.png"
     fill="#548135"
     d="m 620.48119,390.5809 c 1.87906,-1.77142 6.02594,-3.06593 7.38657,-0.4088 1.36062,2.65714 2.13827,11.71898 0.77752,16.35201 -1.36075,4.63302 -5.96106,12.6728 -8.94162,11.44639 -2.98059,-1.22639 -6.34982,-13.01349 -8.94165,-18.80479 -2.59182,-5.79132 -4.08209,-12.40022 -6.60904,-15.94321 -2.52691,-3.54297 -4.98916,-2.58902 -8.55285,-5.31439 -3.56366,-2.72539 -12.82929,-11.0376 -12.82929,-11.0376 -2.26785,-2.11212 -1.68463,0.0681 -0.77755,-1.63521 0.9071,-1.7033 3.4989,-7.01771 6.22027,-8.58479 2.72138,-1.56709 7.905,-2.24834 10.10794,-0.81761 2.20291,1.43074 3.30445,7.42651 3.11014,9.4024 -0.19446,1.9759 -4.60043,1.1583 -4.27646,2.45281 0.32401,1.29451 4.40601,3.54297 6.22028,5.31439 1.8143,1.77142 3.36935,2.38469 4.66519,5.31441 1.29587,2.9297 1.68463,8.51669 3.11014,12.26399 1.42553,3.74731 3.75811,9.53863 5.44275,10.22 1.6846,0.68138 2.0086,-8.44858 3.88766,-10.22 z"
     fill-rule="evenodd"
     id="path261" />
  <path
     inkscape:export-ydpi="300"
     inkscape:export-xdpi="300"
     inkscape:export-filename="C:\Users\sfjones\Documents\Manuscripts\Global typology\high_energy_delta.png"
     stroke="#000000"
     stroke-width="1"
     stroke-miterlimit="800"
     stroke-linecap="butt"
     d="m 620.48119,390.5809 c 1.87906,-1.77142 6.02594,-3.06593 7.38657,-0.4088 1.36062,2.65714 2.13827,11.71898 0.77752,16.35201 -1.36075,4.63302 -5.96106,12.6728 -8.94162,11.44639 -2.98059,-1.22639 -6.34982,-13.01349 -8.94165,-18.80479 -2.59182,-5.79132 -4.08209,-12.40022 -6.60904,-15.94321 -2.52691,-3.54297 -4.98916,-2.58902 -8.55285,-5.31439 -3.56366,-2.72539 -12.82929,-11.0376 -12.82929,-11.0376 -2.26785,-2.11212 -1.68463,0.0681 -0.77755,-1.63521 0.9071,-1.7033 3.4989,-7.01771 6.22027,-8.58479 2.72138,-1.56709 7.905,-2.24834 10.10794,-0.81761 2.20291,1.43074 3.30445,7.42651 3.11014,9.4024 -0.19446,1.9759 -4.60043,1.1583 -4.27646,2.45281 0.32401,1.29451 4.40601,3.54297 6.22028,5.31439 1.8143,1.77142 3.36935,2.38469 4.66519,5.31441 1.29587,2.9297 1.68463,8.51669 3.11014,12.26399 1.42553,3.74731 3.75811,9.53863 5.44275,10.22 1.6846,0.68138 2.0086,-8.44858 3.88766,-10.22 z"
     fill-rule="evenodd"
     id="path263" />
  <path
     inkscape:export-ydpi="300"
     inkscape:export-xdpi="300"
     inkscape:export-filename="C:\Users\sfjones\Documents\Manuscripts\Global typology\high_energy_delta.png"
     fill="#548135"
     d="m 613.48339,290.83371 c -3.04535,-1.15829 -5.89627,2.18022 -6.22028,4.49679 -0.32397,2.31658 3.23969,6.81338 4.27643,9.40241 1.03678,2.58902 2.0734,4.42869 1.94385,6.132 -0.12955,1.70331 -1.42551,3.20228 -2.72137,4.08799 -1.29584,0.88572 -3.1749,0.54503 -5.05396,1.22641 -1.87906,0.68138 -5.5723,1.02206 -6.22028,2.8616 -0.64798,1.83953 1.10154,5.85942 2.33262,8.176 1.23107,2.31658 3.88766,5.58698 5.05395,5.7232 1.16629,0.13622 0.64798,-3.6792 1.94385,-4.9056 1.29584,-1.2264 4.40597,-2.8616 5.83148,-2.4528 1.42554,0.4088 2.65659,2.18022 2.72137,4.9056 0.0648,2.72538 -1.4255,8.24411 -2.33261,11.44639 -0.90707,3.2023 -2.33258,4.56493 -3.1101,7.76721 -0.77756,3.20229 -2.00864,9.19806 -1.55509,11.4464 0.45355,2.24834 3.56369,-0.27258 4.27643,2.04401 0.71277,2.31657 -0.64798,9.26617 0,11.85519 0.64798,2.58902 2.39737,3.47487 3.88766,3.6792 1.4903,0.20433 3.49891,0.68138 5.05399,-2.45281 1.55505,-3.13417 4.21164,-10.01565 4.27643,-16.35199 0.0648,-6.33633 -4.01721,-14.23989 -3.88767,-21.6664 0.12955,-7.42651 4.40598,-16.89703 4.6652,-22.8928 0.25921,-5.99579 -0.84232,-8.9936 -3.11014,-13.08161 -2.26783,-4.088 -9.00641,-10.28811 -12.05176,-11.44639 z"
     fill-rule="evenodd"
     id="path265" />
  <path
     inkscape:export-ydpi="300"
     inkscape:export-xdpi="300"
     inkscape:export-filename="C:\Users\sfjones\Documents\Manuscripts\Global typology\high_energy_delta.png"
     stroke="#000000"
     stroke-width="1"
     stroke-miterlimit="800"
     stroke-linecap="butt"
     d="m 613.48339,290.83371 c -3.04535,-1.15829 -5.89627,2.18022 -6.22028,4.49679 -0.32397,2.31658 3.23969,6.81338 4.27643,9.40241 1.03678,2.58902 2.0734,4.42869 1.94385,6.132 -0.12955,1.70331 -1.42551,3.20228 -2.72137,4.08799 -1.29584,0.88572 -3.1749,0.54503 -5.05396,1.22641 -1.87906,0.68138 -5.5723,1.02206 -6.22028,2.8616 -0.64798,1.83953 1.10154,5.85942 2.33262,8.176 1.23107,2.31658 3.88766,5.58698 5.05395,5.7232 1.16629,0.13622 0.64798,-3.6792 1.94385,-4.9056 1.29584,-1.2264 4.40597,-2.8616 5.83148,-2.4528 1.42554,0.4088 2.65659,2.18022 2.72137,4.9056 0.0648,2.72538 -1.4255,8.24411 -2.33261,11.44639 -0.90707,3.2023 -2.33258,4.56493 -3.1101,7.76721 -0.77756,3.20229 -2.00864,9.19806 -1.55509,11.4464 0.45355,2.24834 3.56369,-0.27258 4.27643,2.04401 0.71277,2.31657 -0.64798,9.26617 0,11.85519 0.64798,2.58902 2.39737,3.47487 3.88766,3.6792 1.4903,0.20433 3.49891,0.68138 5.05399,-2.45281 1.55505,-3.13417 4.21164,-10.01565 4.27643,-16.35199 0.0648,-6.33633 -4.01721,-14.23989 -3.88767,-21.6664 0.12955,-7.42651 4.40598,-16.89703 4.6652,-22.8928 0.25921,-5.99579 -0.84232,-8.9936 -3.11014,-13.08161 -2.26783,-4.088 -9.00641,-10.28811 -12.05176,-11.44639 z"
     fill-rule="evenodd"
     id="path267" />
  <path
     inkscape:export-ydpi="300"
     inkscape:export-xdpi="300"
     inkscape:export-filename="C:\Users\sfjones\Documents\Manuscripts\Global typology\high_energy_delta.png"
     fill="#548135"
     d="m 605.3193,269.9849 c -2.00861,2.65714 0,8.24411 0.77753,9.8112 0.77752,1.56709 3.88766,-0.4088 3.88766,-0.4088 1.03674,-0.47691 1.10153,-2.65713 2.33261,-2.4528 1.23105,0.20433 2.33258,2.79349 5.05396,3.6792 2.72137,0.88572 8.22888,2.38469 11.27423,1.6352 3.04535,-0.74948 5.70196,-6.74514 6.9978,-6.132 1.29584,0.61327 -0.64798,7.35841 0.77753,9.8112 1.42554,2.4528 4.79474,3.81542 7.77533,4.9056 2.98059,1.09018 7.9049,2.58902 10.10797,1.6352 2.203,-0.95382 2.72131,-4.4968 3.11011,-7.3584 0.38879,-2.8616 0.97198,-7.08582 -0.77753,-9.8112 -1.74939,-2.72537 -5.76672,-4.42868 -9.71918,-6.5408 -3.95245,-2.11211 -9.20083,-5.3144 -13.9956,-6.132 -4.79474,-0.8176 -10.43192,0.34069 -14.77313,1.2264 -4.34119,0.88572 -10.82068,3.47487 -12.82929,6.132 z"
     fill-rule="evenodd"
     id="path269" />
  <path
     inkscape:export-ydpi="300"
     inkscape:export-xdpi="300"
     inkscape:export-filename="C:\Users\sfjones\Documents\Manuscripts\Global typology\high_energy_delta.png"
     stroke="#000000"
     stroke-width="1"
     stroke-miterlimit="800"
     stroke-linecap="butt"
     d="m 605.3193,269.9849 c -2.00861,2.65714 0,8.24411 0.77753,9.8112 0.77752,1.56709 3.88766,-0.4088 3.88766,-0.4088 1.03674,-0.47691 1.10153,-2.65713 2.33261,-2.4528 1.23105,0.20433 2.33258,2.79349 5.05396,3.6792 2.72137,0.88572 8.22888,2.38469 11.27423,1.6352 3.04535,-0.74948 5.70196,-6.74514 6.9978,-6.132 1.29584,0.61327 -0.64798,7.35841 0.77753,9.8112 1.42554,2.4528 4.79474,3.81542 7.77533,4.9056 2.98059,1.09018 7.9049,2.58902 10.10797,1.6352 2.203,-0.95382 2.72131,-4.4968 3.11011,-7.3584 0.38879,-2.8616 0.97198,-7.08582 -0.77753,-9.8112 -1.74939,-2.72537 -5.76672,-4.42868 -9.71918,-6.5408 -3.95245,-2.11211 -9.20083,-5.3144 -13.9956,-6.132 -4.79474,-0.8176 -10.43192,0.34069 -14.77313,1.2264 -4.34119,0.88572 -10.82068,3.47487 -12.82929,6.132 z"
     fill-rule="evenodd"
     id="path271" />
  <path
     inkscape:export-ydpi="300"
     inkscape:export-xdpi="300"
     inkscape:export-filename="C:\Users\sfjones\Documents\Manuscripts\Global typology\high_energy_delta.png"
     fill="#548135"
     d="m 570.12374,263.80861 c -2.51895,3.37263 -5.03781,6.74526 -4.23172,8.176 0.80606,1.43074 5.74304,0.20433 9.06796,0.4088 3.32492,0.20447 8.06046,0.13623 10.8816,0.8176 2.8211,0.68138 3.97982,3.54298 6.04531,3.2704 2.06549,-0.27258 5.4408,-3.33851 6.3476,-4.9056 0.9068,-1.56709 -0.85645,-2.8616 -0.9068,-4.4968 -0.0504,-1.6352 1.30978,-3.95178 0.60452,-5.3144 -0.70526,-1.36262 -3.4761,-2.52091 -4.83624,-2.8616 -1.36017,-0.34069 -2.06552,0.34069 -3.32495,0.8176 -1.25943,0.47691 -2.74561,1.26039 -4.23172,2.044"
     fill-rule="evenodd"
     id="path273" />
  <path
     inkscape:export-ydpi="300"
     inkscape:export-xdpi="300"
     inkscape:export-filename="C:\Users\sfjones\Documents\Manuscripts\Global typology\high_energy_delta.png"
     stroke="#000000"
     stroke-width="1"
     stroke-miterlimit="800"
     stroke-linecap="butt"
     d="m 570.12374,263.80861 c -2.51895,3.37263 -5.03781,6.74526 -4.23172,8.176 0.80606,1.43074 5.74304,0.20433 9.06796,0.4088 3.32492,0.20447 8.06046,0.13623 10.8816,0.8176 2.8211,0.68138 3.97982,3.54298 6.04531,3.2704 2.06549,-0.27258 5.4408,-3.33851 6.3476,-4.9056 0.9068,-1.56709 -0.85645,-2.8616 -0.9068,-4.4968 -0.0504,-1.6352 1.30978,-3.95178 0.60452,-5.3144 -0.70526,-1.36262 -3.4761,-2.52091 -4.83624,-2.8616 -1.36017,-0.34069 -2.06552,0.34069 -3.32495,0.8176 -1.25943,0.47691 -2.74561,1.26039 -4.23172,2.044"
     fill-rule="evenodd"
     id="path275" />
  <path
     inkscape:export-ydpi="300"
     inkscape:export-xdpi="300"
     inkscape:export-filename="C:\Users\sfjones\Documents\Manuscripts\Global typology\high_energy_delta.png"
     fill="#d7a979"
     d="m 552.83578,306.36811 c 1.55508,2.31657 4.85965,-0.61314 9.33041,0.40879 4.47077,1.02194 13.86606,1.43087 17.49451,5.72321 3.62845,4.29233 2.78613,13.35418 4.27643,20.0312 1.49029,6.67702 5.70193,14.85315 4.66519,20.03119 -1.03674,5.17805 -10.56146,6.132 -10.88547,11.03761 -0.32397,4.9056 4.21167,12.26399 8.94165,18.396 4.72995,6.132 14.64359,11.71898 19.43833,18.39599 4.79474,6.67704 5.1835,20.03121 9.33038,21.6664 4.14691,1.63521 11.14471,-6.88148 15.55069,-11.85519 4.40597,-4.97371 10.4967,-11.17383 10.88547,-17.9872 0.38876,-6.81339 -7.58103,-14.78491 -8.55289,-22.89281 -0.97183,-8.10788 0.58322,-21.39381 2.72138,-25.75439 2.13827,-4.36058 6.67379,-4.22423 10.10794,-0.4088 3.43414,3.81541 6.34979,19.28171 10.4967,23.30159 4.14685,4.0199 11.33899,3.06595 14.38434,0.81761 3.04535,-2.24834 3.36938,-11.71898 3.88769,-14.308 0.51831,-2.58903 0.77753,0 -0.77752,-1.22641 -1.55506,-1.22639 -7.12738,-3.2704 -8.55286,-6.13199 -1.42554,-2.8616 -0.97186,-8.03978 0,-11.0376 0.97192,-2.99783 4.21161,-4.63303 5.83148,-6.9496 1.61981,-2.31658 3.4989,-4.63303 3.88764,-6.9496 0.38879,-2.31658 -0.71271,-4.9056 -1.55506,-6.9496 -0.84228,-2.044 -1.55505,-3.6792 -3.4989,-5.3144 -1.94385,-1.63521 -5.70196,-3.6111 -8.16406,-4.49681 -2.46216,-0.88571 -6.60907,-0.81759 -6.60907,-0.81759 -3.69324,-0.54503 -11.33899,-1.02194 -15.55066,-2.45281 -4.21167,-1.43086 -5.05395,-4.088 -9.71918,-6.132 -4.66519,-2.04399 -18.272,-6.132 -18.272,-6.132 -3.43414,-1.15829 -2.98059,-2.044 -2.33261,-0.8176 0.64798,1.22641 4.27643,5.45063 6.22028,8.17601 1.94381,2.72537 4.34118,6.26822 5.44271,8.17599 1.10154,1.90778 1.61985,0.88571 1.16629,3.2704 -0.45352,2.38469 -2.39737,7.49463 -3.88766,11.0376 -1.4903,3.54298 -4.27643,7.01772 -5.05396,10.22001 -0.77752,3.20229 -0.12954,6.40457 0.38877,8.99359 0.51831,2.58902 2.0086,4.56492 2.72137,6.54081 0.71274,1.97589 1.16629,2.58902 1.55506,5.3144 0.38876,2.72538 0.77752,7.0177 0.77752,11.0376 0,4.01988 -1.03674,9.74309 -0.77752,13.08159 0.25921,3.33852 1.29586,4.08801 2.33261,6.9496 1.03674,2.8616 3.30456,7.08583 3.88766,10.22 0.5831,3.13419 0.5831,5.45062 -0.38876,8.58481 -0.97186,3.13417 -4.21167,9.53862 -5.44275,10.22 -1.23108,0.68137 -1.6846,-3.6111 -1.94382,-6.132 -0.25921,-2.52092 0.84232,-6.20012 0.38877,-8.99361 -0.45356,-2.79349 -1.36075,-5.38251 -3.11014,-7.7672 -1.74939,-2.38469 -4.01721,-4.01988 -7.38657,-6.5408 -3.36935,-2.5209 -9.91348,-6.40457 -12.82928,-8.58479 -2.91571,-2.18022 -3.4989,-3.06594 -4.66523,-4.4968 -1.16629,-1.43074 -3.11013,-3.40663 -2.33258,-4.08801 0.77753,-0.68137 4.85962,0.20435 6.99781,0 2.13815,-0.20433 4.72995,-0.13622 5.83148,-1.2264 1.10153,-1.09017 0.64798,-3.40661 0.77753,-5.31439 0.12954,-1.90777 0.51831,-3.67921 0,-6.132 -0.51831,-2.45281 -1.68461,-5.11006 -3.11014,-8.58481 -1.42551,-3.47473 -4.08209,-8.99359 -5.44272,-12.26399 -1.36063,-3.2704 -2.59183,-4.4968 -2.72138,-7.35841 -0.12954,-2.86159 1.10154,-6.67701 1.94385,-9.81119 0.84229,-3.13418 3.43411,-6.33647 3.11014,-8.9936 -0.324,-2.65714 -1.55508,-4.76938 -5.05399,-6.9496 -3.4989,-2.18023 -11.33898,-5.04183 -15.93942,-6.13201 -4.60043,-1.09017 -8.29364,-0.88571 -11.66299,-0.4088 -3.36936,0.47692 -7.06259,0.88571 -8.55289,3.2704 -1.49029,2.38469 -1.55505,11.17382 0,13.49041 z"
     fill-rule="evenodd"
     id="path277" />
  <path
     inkscape:export-ydpi="300"
     inkscape:export-xdpi="300"
     inkscape:export-filename="C:\Users\sfjones\Documents\Manuscripts\Global typology\high_energy_delta.png"
     fill="#000000"
     fill-opacity="0"
     d="m 552.86248,293.11036 c 5.17084,-2.67052 10.34183,-5.34105 16.99017,-4.17993 6.64835,1.16113 19.69873,5.45719 22.89975,11.14653 3.20102,5.68934 -4.55536,15.67462 -3.6936,22.9895 0.86175,7.31488 7.14078,14.51362 8.86444,20.89966 1.72366,6.38604 3.20117,13.93306 1.47751,17.41629 -1.72366,3.48323 -14.28159,-0.81283 -11.81934,3.48323 2.46228,4.29607 21.54557,14.97805 26.59339,22.29293 5.04782,7.31488 1.96982,20.66739 3.69348,21.59623 1.72366,0.92885 6.52521,-10.56596 6.64834,-16.02302 0.12314,-5.45706 -4.92468,-9.75327 -5.9096,-16.71973 -0.9849,-6.96648 0.98492,-17.64857 0,-25.07947 -0.9849,-7.43089 -6.40216,-11.95923 -5.90973,-19.50626 0.49246,-7.54703 9.23376,-18.57742 8.86447,-25.77617 -0.36932,-7.19873 -14.28159,-16.48758 -11.08057,-17.41642 3.20102,-0.92884 21.05307,8.94056 30.28684,11.84323 9.23376,2.9028 19.45245,2.2061 25.1159,5.57319 5.6634,3.3671 9.1106,8.94031 8.86445,14.62965 -0.24616,5.68933 -10.34186,14.16533 -10.34186,19.50639 0,5.34105 5.1709,8.94029 10.34186,12.53966"
     fill-rule="evenodd"
     id="path279" />
  <path
     inkscape:export-ydpi="300"
     inkscape:export-xdpi="300"
     inkscape:export-filename="C:\Users\sfjones\Documents\Manuscripts\Global typology\high_energy_delta.png"
     stroke="#000000"
     stroke-width="1.33333"
     stroke-miterlimit="800"
     stroke-linecap="butt"
     d="m 552.86248,293.11036 c 5.17084,-2.67052 10.34183,-5.34105 16.99017,-4.17993 6.64835,1.16113 19.69873,5.45719 22.89975,11.14653 3.20102,5.68934 -4.55536,15.67462 -3.6936,22.9895 0.86175,7.31488 7.14078,14.51362 8.86444,20.89966 1.72366,6.38604 3.20117,13.93306 1.47751,17.41629 -1.72366,3.48323 -14.28159,-0.81283 -11.81934,3.48323 2.46228,4.29607 21.54557,14.97805 26.59339,22.29293 5.04782,7.31488 1.96982,20.66739 3.69348,21.59623 1.72366,0.92885 6.52521,-10.56596 6.64834,-16.02302 0.12314,-5.45706 -4.92468,-9.75327 -5.9096,-16.71973 -0.9849,-6.96648 0.98492,-17.64857 0,-25.07947 -0.9849,-7.43089 -6.40216,-11.95923 -5.90973,-19.50626 0.49246,-7.54703 9.23376,-18.57742 8.86447,-25.77617 -0.36932,-7.19873 -14.28159,-16.48758 -11.08057,-17.41642 3.20102,-0.92884 21.05307,8.94056 30.28684,11.84323 9.23376,2.9028 19.45245,2.2061 25.1159,5.57319 5.6634,3.3671 9.1106,8.94031 8.86445,14.62965 -0.24616,5.68933 -10.34186,14.16533 -10.34186,19.50639 0,5.34105 5.1709,8.94029 10.34186,12.53966"
     fill-rule="evenodd"
     id="path281" />
  <path
     inkscape:export-ydpi="300"
     inkscape:export-xdpi="300"
     inkscape:export-filename="C:\Users\sfjones\Documents\Manuscripts\Global typology\high_energy_delta.png"
     fill="#d7a979"
     d="m 597.93274,310.04731 c -2.46216,1.36263 -2.00861,9.4024 -0.77756,13.8992 1.23108,4.4968 6.8035,12.80902 8.16413,13.0816 1.36062,0.27257 0.45352,-8.72103 0,-11.4464 -0.45356,-2.72538 -3.17493,-3.74731 -2.72138,-4.9056 0.45355,-1.15829 4.27643,-2.65727 5.44272,-2.044 1.16632,0.61326 0.90711,6.20011 1.55508,5.7232 0.64798,-0.47692 4.0821,-6.13201 2.33262,-8.5848 -1.74939,-2.4528 -11.53348,-7.08583 -13.99561,-5.7232 z"
     fill-rule="evenodd"
     id="path283" />
  <path
     inkscape:export-ydpi="300"
     inkscape:export-xdpi="300"
     inkscape:export-filename="C:\Users\sfjones\Documents\Manuscripts\Global typology\high_energy_delta.png"
     stroke="#000000"
     stroke-width="1.33333"
     stroke-miterlimit="800"
     stroke-linecap="butt"
     d="m 597.93274,310.04731 c -2.46216,1.36263 -2.00861,9.4024 -0.77756,13.8992 1.23108,4.4968 6.8035,12.80902 8.16413,13.0816 1.36062,0.27257 0.45352,-8.72103 0,-11.4464 -0.45356,-2.72538 -3.17493,-3.74731 -2.72138,-4.9056 0.45355,-1.15829 4.27643,-2.65727 5.44272,-2.044 1.16632,0.61326 0.90711,6.20011 1.55508,5.7232 0.64798,-0.47692 4.0821,-6.13201 2.33262,-8.5848 -1.74939,-2.4528 -11.53348,-7.08583 -13.99561,-5.7232 z"
     fill-rule="evenodd"
     id="path285" />
  <path
     inkscape:export-ydpi="300"
     inkscape:export-xdpi="300"
     inkscape:export-filename="C:\Users\sfjones\Documents\Manuscripts\Global typology\high_energy_delta.png"
     fill="#d7a979"
     d="m 573.17132,268.71421 c -2.48492,-0.47691 -5.87762,-2.11211 -5.16089,-4.088 0.71674,-1.97589 6.06879,-6.81338 9.46161,-7.7672 3.39282,-0.95382 9.1749,-0.27257 10.89517,2.044 1.72031,2.31658 0.33451,10.42447 -0.57342,11.8552 -0.9079,1.43073 -2.81937,-2.8616 -4.87415,-3.2704 -2.05478,-0.4088 -7.26343,1.70331 -9.74832,1.2264 z"
     fill-rule="evenodd"
     id="path287" />
  <path
     inkscape:export-ydpi="300"
     inkscape:export-xdpi="300"
     inkscape:export-filename="C:\Users\sfjones\Documents\Manuscripts\Global typology\high_energy_delta.png"
     stroke="#000000"
     stroke-width="1.33333"
     stroke-miterlimit="800"
     stroke-linecap="butt"
     d="m 573.17132,268.71421 c -2.48492,-0.47691 -5.87762,-2.11211 -5.16089,-4.088 0.71674,-1.97589 6.06879,-6.81338 9.46161,-7.7672 3.39282,-0.95382 9.1749,-0.27257 10.89517,2.044 1.72031,2.31658 0.33451,10.42447 -0.57342,11.8552 -0.9079,1.43073 -2.81937,-2.8616 -4.87415,-3.2704 -2.05478,-0.4088 -7.26343,1.70331 -9.74832,1.2264 z"
     fill-rule="evenodd"
     id="path289" />
  <path
     inkscape:export-ydpi="300"
     inkscape:export-xdpi="300"
     inkscape:export-filename="C:\Users\sfjones\Documents\Manuscripts\Global typology\high_energy_delta.png"
     fill="#d7a979"
     d="m 625.30962,267.1233 c 2.89694,-2.52091 13.67541,-8.85737 18.91547,-8.5848 5.24002,0.27258 9.15951,5.3144 12.52505,10.22 3.3656,4.9056 7.37024,16.14767 7.66846,19.2136 0.29822,3.06606 -3.2378,0.61327 -5.87915,-0.81759 -2.6413,-1.43075 -9.07434,-5.2463 -9.96894,-7.76721 -0.89459,-2.52091 5.32532,-5.65509 4.60108,-7.3584 -0.72431,-1.70331 -6.90161,-3.47473 -8.9465,-2.8616 -2.04493,0.61314 -1.5337,5.72321 -3.323,6.5408 -1.78931,0.81761 -6.00696,-0.34069 -7.41281,-1.6352 -1.40583,-1.29451 0.0852,-6.06389 -1.02246,-6.132 -1.10764,-0.0681 -4.00464,5.65509 -5.62351,5.7232 -1.61887,0.0681 -4.4306,-4.01989 -1.53369,-6.5408 z"
     fill-rule="evenodd"
     id="path291" />
  <path
     inkscape:export-ydpi="300"
     inkscape:export-xdpi="300"
     inkscape:export-filename="C:\Users\sfjones\Documents\Manuscripts\Global typology\high_energy_delta.png"
     stroke="#000000"
     stroke-width="1.33333"
     stroke-miterlimit="800"
     stroke-linecap="butt"
     d="m 625.30962,267.1233 c 2.89694,-2.52091 13.67541,-8.85737 18.91547,-8.5848 5.24002,0.27258 9.15951,5.3144 12.52505,10.22 3.3656,4.9056 7.37024,16.14767 7.66846,19.2136 0.29822,3.06606 -3.2378,0.61327 -5.87915,-0.81759 -2.6413,-1.43075 -9.07434,-5.2463 -9.96894,-7.76721 -0.89459,-2.52091 5.32532,-5.65509 4.60108,-7.3584 -0.72431,-1.70331 -6.90161,-3.47473 -8.9465,-2.8616 -2.04493,0.61314 -1.5337,5.72321 -3.323,6.5408 -1.78931,0.81761 -6.00696,-0.34069 -7.41281,-1.6352 -1.40583,-1.29451 0.0852,-6.06389 -1.02246,-6.132 -1.10764,-0.0681 -4.00464,5.65509 -5.62351,5.7232 -1.61887,0.0681 -4.4306,-4.01989 -1.53369,-6.5408 z"
     fill-rule="evenodd"
     id="path293" />
  <path
     inkscape:export-ydpi="300"
     inkscape:export-xdpi="300"
     inkscape:export-filename="C:\Users\sfjones\Documents\Manuscripts\Global typology\high_energy_delta.png"
     fill="#548135"
     d="m 598.68737,302.37629 c 1.09772,-0.48091 1.64651,-6.34845 1.09772,-8.65691 -0.5488,-2.30846 -2.92719,-4.32838 -4.39081,-5.19414 -1.46359,-0.86576 -4.02493,-1.34666 -4.39078,0 -0.36587,1.34666 0.8233,5.96372 2.19547,8.07982 1.37213,2.11611 4.39065,6.25213 5.4884,5.77123 z"
     fill-rule="evenodd"
     id="path295" />
  <path
     inkscape:export-ydpi="300"
     inkscape:export-xdpi="300"
     inkscape:export-filename="C:\Users\sfjones\Documents\Manuscripts\Global typology\high_energy_delta.png"
     stroke="#000000"
     stroke-width="1"
     stroke-miterlimit="800"
     stroke-linecap="butt"
     d="m 598.68737,302.37629 c 1.09772,-0.48091 1.64651,-6.34845 1.09772,-8.65691 -0.5488,-2.30846 -2.92719,-4.32838 -4.39081,-5.19414 -1.46359,-0.86576 -4.02493,-1.34666 -4.39078,0 -0.36587,1.34666 0.8233,5.96372 2.19547,8.07982 1.37213,2.11611 4.39065,6.25213 5.4884,5.77123 z"
     fill-rule="evenodd"
     id="path297" />
  <path
     inkscape:export-ydpi="300"
     inkscape:export-xdpi="300"
     inkscape:export-filename="C:\Users\sfjones\Documents\Manuscripts\Global typology\high_energy_delta.png"
     fill="#548135"
     d="m 582.77084,286.21665 c 1.28064,-0.86576 -0.18295,-5.57887 -1.64655,-6.92553 -1.46359,-1.34666 -5.8544,-2.02005 -7.13507,-1.15429 -1.28067,0.86562 -1.37213,5.19414 -0.54879,6.34843 0.82333,1.1543 8.04974,2.59714 9.33041,1.73139 z"
     fill-rule="evenodd"
     id="path299" />
  <path
     inkscape:export-ydpi="300"
     inkscape:export-xdpi="300"
     inkscape:export-filename="C:\Users\sfjones\Documents\Manuscripts\Global typology\high_energy_delta.png"
     stroke="#000000"
     stroke-width="1"
     stroke-miterlimit="800"
     stroke-linecap="butt"
     d="m 582.77084,286.21665 c 1.28064,-0.86576 -0.18295,-5.57887 -1.64655,-6.92553 -1.46359,-1.34666 -5.8544,-2.02005 -7.13507,-1.15429 -1.28067,0.86562 -1.37213,5.19414 -0.54879,6.34843 0.82333,1.1543 8.04974,2.59714 9.33041,1.73139 z"
     fill-rule="evenodd"
     id="path301" />
  <path
     inkscape:export-ydpi="300"
     inkscape:export-xdpi="300"
     inkscape:export-filename="C:\Users\sfjones\Documents\Manuscripts\Global typology\high_energy_delta.png"
     fill="#548135"
     d="m 562.46349,277.55974 c -1.09775,-1.34666 -6.58615,-0.38472 -6.58615,1.1543 0,1.53901 4.75668,7.59891 6.58615,8.07982 1.82947,0.4809 1.09772,-7.88746 0,-9.23412 z"
     fill-rule="evenodd"
     id="path303" />
  <path
     inkscape:export-ydpi="300"
     inkscape:export-xdpi="300"
     inkscape:export-filename="C:\Users\sfjones\Documents\Manuscripts\Global typology\high_energy_delta.png"
     stroke="#000000"
     stroke-width="1"
     stroke-miterlimit="800"
     stroke-linecap="butt"
     d="m 562.46349,277.55974 c -1.09775,-1.34666 -6.58615,-0.38472 -6.58615,1.1543 0,1.53901 4.75668,7.59891 6.58615,8.07982 1.82947,0.4809 1.09772,-7.88746 0,-9.23412 z"
     fill-rule="evenodd"
     id="path305" />
  <path
     fill="#000000"
     fill-opacity="0"
     d="m 491.5485,435.08928 h 194.61417 v 38.77166 H 491.5485 Z"
     fill-rule="evenodd"
     id="path331" />
  <path
     fill="#000000"
     d="m 541.0573,448.57376 q 0,0.0937 -0.0469,0.17188 -0.0469,0.0625 -0.17187,0.10937 -0.10938,0.0469 -0.3125,0.0781 -0.1875,0.0312 -0.46875,0.0312 -0.29688,0 -0.48438,-0.0312 -0.1875,-0.0312 -0.3125,-0.0781 -0.10937,-0.0469 -0.15625,-0.10937 -0.0469,-0.0781 -0.0469,-0.17188 v -6.71875 H 532.151 v 6.71875 q 0,0.0937 -0.0469,0.17188 -0.0469,0.0625 -0.17187,0.10937 -0.10938,0.0469 -0.3125,0.0781 -0.1875,0.0312 -0.46875,0.0312 -0.28125,0 -0.48438,-0.0312 -0.20312,-0.0312 -0.32812,-0.0781 -0.10938,-0.0469 -0.15625,-0.10937 -0.0469,-0.0781 -0.0469,-0.17188 v -14.54687 q 0,-0.0937 0.0469,-0.15625 0.0469,-0.0781 0.15625,-0.10938 0.125,-0.0469 0.32812,-0.0781 0.20313,-0.0312 0.48438,-0.0312 0.28125,0 0.46875,0.0312 0.20312,0.0312 0.3125,0.0781 0.125,0.0312 0.17187,0.10938 0.0469,0.0625 0.0469,0.15625 v 6.0625 h 6.90625 v -6.0625 q 0,-0.0937 0.0469,-0.15625 0.0469,-0.0781 0.15625,-0.10938 0.125,-0.0469 0.3125,-0.0781 0.1875,-0.0312 0.48438,-0.0312 0.28125,0 0.46875,0.0312 0.20312,0.0312 0.3125,0.0781 0.125,0.0312 0.17187,0.10938 0.0469,0.0625 0.0469,0.15625 z m 5.75,0.0156 q 0,0.0937 -0.0469,0.15625 -0.0469,0.0625 -0.15625,0.125 -0.10937,0.0469 -0.29687,0.0625 -0.1875,0.0312 -0.48438,0.0312 -0.28125,0 -0.46875,-0.0312 -0.1875,-0.0156 -0.29687,-0.0625 -0.10938,-0.0625 -0.15625,-0.125 -0.0312,-0.0625 -0.0312,-0.15625 v -10.54688 q 0,-0.0781 0.0312,-0.14062 0.0469,-0.0781 0.15625,-0.125 0.10937,-0.0469 0.29687,-0.0625 0.1875,-0.0312 0.46875,-0.0312 0.29688,0 0.48438,0.0312 0.1875,0.0156 0.29687,0.0625 0.10938,0.0469 0.15625,0.125 0.0469,0.0625 0.0469,0.14062 z m 0.21875,-14.10938 q 0,0.6875 -0.26563,0.9375 -0.25,0.23438 -0.9375,0.23438 -0.6875,0 -0.9375,-0.23438 -0.25,-0.25 -0.25,-0.90625 0,-0.6875 0.25,-0.92187 0.26563,-0.25 0.95313,-0.25 0.6875,0 0.9375,0.23437 0.25,0.23438 0.25,0.90625 z m 12.16406,4.04688 q 0,0.40625 -0.10937,0.59375 -0.10938,0.17187 -0.29688,0.17187 h -1.5 q 0.40625,0.42188 0.5625,0.9375 0.17188,0.51563 0.17188,1.0625 0,0.90625 -0.29688,1.60938 -0.29687,0.70312 -0.84375,1.20312 -0.53125,0.48438 -1.28125,0.75 -0.75,0.25 -1.67187,0.25 -0.64063,0 -1.21875,-0.17187 -0.57813,-0.17188 -0.90625,-0.4375 -0.20313,0.21875 -0.34375,0.48437 -0.125,0.26563 -0.125,0.625 0,0.40625 0.375,0.6875 0.375,0.26563 1.01562,0.28125 l 2.75,0.125 q 0.78125,0.0156 1.4375,0.21875 0.65625,0.1875 1.14063,0.54688 0.48437,0.35937 0.75,0.875 0.26562,0.51562 0.26562,1.21875 0,0.71875 -0.3125,1.375 -0.29687,0.65625 -0.92187,1.15625 -0.625,0.5 -1.59375,0.78125 -0.96875,0.29687 -2.29688,0.29687 -1.28125,0 -2.1875,-0.21875 -0.89062,-0.21875 -1.46875,-0.59375 -0.5625,-0.375 -0.82812,-0.90625 -0.25,-0.51562 -0.25,-1.125 0,-0.375 0.0937,-0.75 0.0937,-0.35937 0.28125,-0.6875 0.20312,-0.32812 0.48437,-0.625 0.28125,-0.29687 0.65625,-0.59375 -0.5625,-0.29687 -0.84375,-0.73437 -0.28125,-0.45313 -0.28125,-0.96875 0,-0.71875 0.29688,-1.28125 0.29687,-0.5625 0.73437,-1 -0.375,-0.4375 -0.59375,-0.98438 -0.20312,-0.54687 -0.20312,-1.3125 0,-0.90625 0.29687,-1.60937 0.3125,-0.71875 0.84375,-1.20313 0.54688,-0.5 1.29688,-0.76562 0.76562,-0.26563 1.65625,-0.26563 0.48437,0 0.89062,0.0625 0.42188,0.0469 0.78125,0.14063 h 3.1875 q 0.20313,0 0.29688,0.1875 0.10937,0.1875 0.10937,0.59375 z m -3.03125,2.78125 q 0,-1.07813 -0.59375,-1.6875 -0.57812,-0.60938 -1.67187,-0.60938 -0.5625,0 -0.98438,0.1875 -0.40625,0.1875 -0.6875,0.51563 -0.28125,0.32812 -0.42187,0.76562 -0.125,0.42188 -0.125,0.89063 0,1.04687 0.59375,1.64062 0.59375,0.59375 1.65625,0.59375 0.57812,0 1,-0.17187 0.42187,-0.1875 0.6875,-0.5 0.28125,-0.32813 0.40625,-0.75 0.14062,-0.42188 0.14062,-0.875 z m 0.98438,8.35937 q 0,-0.6875 -0.5625,-1.04687 -0.5625,-0.375 -1.5,-0.40625 l -2.73438,-0.0937 q -0.375,0.29687 -0.625,0.5625 -0.23437,0.26562 -0.375,0.5 -0.14062,0.25 -0.20312,0.48437 -0.0469,0.23438 -0.0469,0.46875 0,0.76563 0.76563,1.15625 0.78125,0.39063 2.17187,0.39063 0.875,0 1.46875,-0.17188 0.59375,-0.15625 0.95313,-0.4375 0.35937,-0.28125 0.51562,-0.65625 0.17188,-0.35937 0.17188,-0.75 z m 13.60937,-1.07812 q 0,0.0937 -0.0469,0.15625 -0.0469,0.0625 -0.15625,0.125 -0.0937,0.0469 -0.28125,0.0625 -0.1875,0.0312 -0.46875,0.0312 -0.29688,0 -0.48438,-0.0312 -0.1875,-0.0156 -0.29687,-0.0625 -0.10938,-0.0625 -0.15625,-0.125 -0.0469,-0.0625 -0.0469,-0.15625 v -6.17188 q 0,-0.90625 -0.14062,-1.45312 -0.14063,-0.54688 -0.40625,-0.9375 -0.26563,-0.40625 -0.70313,-0.60938 -0.42187,-0.21875 -0.98437,-0.21875 -0.71875,0 -1.45313,0.51563 -0.71875,0.51562 -1.51562,1.5 v 7.375 q 0,0.0937 -0.0469,0.15625 -0.0469,0.0625 -0.15625,0.125 -0.10937,0.0469 -0.29687,0.0625 -0.1875,0.0312 -0.48438,0.0312 -0.28125,0 -0.46875,-0.0312 -0.1875,-0.0156 -0.29687,-0.0625 -0.10938,-0.0625 -0.15625,-0.125 -0.0312,-0.0625 -0.0312,-0.15625 v -15.65622 q 0,-0.0937 0.0312,-0.15625 0.0469,-0.0781 0.15625,-0.125 0.10937,-0.0469 0.29687,-0.0625 0.1875,-0.0312 0.46875,-0.0312 0.29688,0 0.48438,0.0312 0.1875,0.0156 0.29687,0.0625 0.10938,0.0469 0.15625,0.125 0.0469,0.0625 0.0469,0.15625 v 6.3125 q 0.82812,-0.875 1.67187,-1.29688 0.84375,-0.4375 1.70313,-0.4375 1.04687,0 1.76562,0.35938 0.71875,0.35937 1.15625,0.96875 0.45313,0.59375 0.64063,1.39062 0.20312,0.79688 0.20312,1.9375 z m 17.61328,-0.53125 q 0,0.20312 -0.0312,0.35937 -0.0156,0.15625 -0.0781,0.26563 -0.0469,0.10937 -0.125,0.15625 -0.0781,0.0469 -0.17188,0.0469 h -7.28125 q -0.26562,0 -0.51562,-0.17187 -0.23438,-0.1875 -0.23438,-0.65625 v -13.51563 q 0,-0.45312 0.23438,-0.64062 0.25,-0.1875 0.51562,-0.1875 h 7.20313 q 0.0937,0 0.15625,0.0469 0.0781,0.0469 0.125,0.15625 0.0469,0.10938 0.0781,0.26563 0.0312,0.15625 0.0312,0.39062 0,0.21875 -0.0312,0.375 -0.0312,0.15625 -0.0781,0.26563 -0.0469,0.0937 -0.125,0.14062 -0.0625,0.0469 -0.15625,0.0469 h -5.9375 v 4.75 h 5.09375 q 0.0937,0 0.15625,0.0625 0.0781,0.0469 0.125,0.14062 0.0625,0.0937 0.0781,0.26563 0.0312,0.15625 0.0312,0.375 0,0.21875 -0.0312,0.375 -0.0156,0.14062 -0.0781,0.23437 -0.0469,0.0937 -0.125,0.14063 -0.0625,0.0312 -0.15625,0.0312 h -5.09375 v 5.4375 h 6.01562 q 0.0937,0 0.17188,0.0469 0.0781,0.0469 0.125,0.14063 0.0625,0.0937 0.0781,0.26562 0.0312,0.15625 0.0312,0.39063 z m 12.14063,0.53125 q 0,0.0937 -0.0469,0.15625 -0.0469,0.0625 -0.15625,0.125 -0.0937,0.0469 -0.28125,0.0625 -0.1875,0.0312 -0.46875,0.0312 -0.29687,0 -0.48437,-0.0312 -0.1875,-0.0156 -0.29688,-0.0625 -0.10937,-0.0625 -0.15625,-0.125 -0.0469,-0.0625 -0.0469,-0.15625 v -6.17188 q 0,-0.90625 -0.14063,-1.45312 -0.14062,-0.54688 -0.40625,-0.9375 -0.26562,-0.40625 -0.70312,-0.60938 -0.42188,-0.21875 -0.98438,-0.21875 -0.71875,0 -1.45312,0.51563 -0.71875,0.51562 -1.51563,1.5 v 7.375 q 0,0.0937 -0.0469,0.15625 -0.0469,0.0625 -0.15625,0.125 -0.10938,0.0469 -0.29688,0.0625 -0.1875,0.0312 -0.48437,0.0312 -0.28125,0 -0.46875,-0.0312 -0.1875,-0.0156 -0.29688,-0.0625 -0.10937,-0.0625 -0.15625,-0.125 -0.0312,-0.0625 -0.0312,-0.15625 v -10.54688 q 0,-0.0937 0.0312,-0.15625 0.0312,-0.0625 0.14063,-0.10937 0.10937,-0.0625 0.26562,-0.0781 0.17188,-0.0156 0.4375,-0.0156 0.26563,0 0.42188,0.0156 0.17187,0.0156 0.26562,0.0781 0.0937,0.0469 0.14063,0.10937 0.0469,0.0625 0.0469,0.15625 v 1.39063 q 0.89063,-0.98438 1.76563,-1.45313 0.89062,-0.46875 1.79687,-0.46875 1.04688,0 1.76563,0.35938 0.71875,0.35937 1.15625,0.96875 0.45312,0.59375 0.64062,1.39062 0.20313,0.79688 0.20313,1.92188 z m 12.53125,-5.73438 q 0,0.46875 -0.23438,0.65625 -0.21875,0.1875 -0.51562,0.1875 h -6.92188 q 0,0.89063 0.17188,1.59375 0.1875,0.70313 0.59375,1.20313 0.40625,0.5 1.0625,0.78125 0.65625,0.26562 1.60937,0.26562 0.75,0 1.32813,-0.125 0.59375,-0.125 1.01562,-0.28125 0.4375,-0.15625 0.70313,-0.26562 0.28125,-0.125 0.42187,-0.125 0.0781,0 0.14063,0.0469 0.0781,0.0312 0.10937,0.10938 0.0312,0.0781 0.0469,0.23437 0.0156,0.14063 0.0156,0.35938 0,0.14062 -0.0156,0.26562 0,0.10938 -0.0156,0.20313 -0.0156,0.0781 -0.0625,0.15625 -0.0469,0.0625 -0.10937,0.125 -0.0625,0.0625 -0.375,0.21875 -0.3125,0.14062 -0.82813,0.28125 -0.5,0.14062 -1.17187,0.25 -0.65625,0.10937 -1.40625,0.10937 -1.29688,0 -2.28125,-0.35937 -0.96875,-0.35938 -1.64063,-1.07813 -0.67187,-0.71875 -1.01562,-1.79687 -0.32813,-1.07813 -0.32813,-2.5 0,-1.35938 0.34375,-2.4375 0.35938,-1.09375 1.01563,-1.84375 0.67187,-0.76563 1.60937,-1.17188 0.9375,-0.40625 2.09375,-0.40625 1.23438,0 2.10938,0.40625 0.875,0.39063 1.4375,1.07813 0.5625,0.67187 0.82812,1.57812 0.26563,0.90625 0.26563,1.9375 z m -1.95313,-0.5625 q 0.0469,-1.53125 -0.67187,-2.39062 -0.70313,-0.875 -2.09375,-0.875 -0.71875,0 -1.26563,0.28125 -0.53125,0.26562 -0.90625,0.71875 -0.35937,0.4375 -0.5625,1.03125 -0.1875,0.57812 -0.21875,1.23437 z m 11.05078,-3.5625 q 0,0.26563 -0.0156,0.4375 0,0.17188 -0.0469,0.28125 -0.0312,0.0937 -0.0781,0.15625 -0.0469,0.0469 -0.14063,0.0469 -0.0937,0 -0.23437,-0.0469 -0.14063,-0.0625 -0.3125,-0.10937 -0.15625,-0.0625 -0.375,-0.10938 -0.20313,-0.0469 -0.45313,-0.0469 -0.29687,0 -0.57812,0.125 -0.28125,0.10937 -0.59375,0.39062 -0.3125,0.26563 -0.65625,0.71875 -0.32813,0.4375 -0.73438,1.07813 v 6.9375 q 0,0.0937 -0.0469,0.15625 -0.0469,0.0625 -0.15625,0.125 -0.10938,0.0469 -0.29688,0.0625 -0.1875,0.0312 -0.48437,0.0312 -0.28125,0 -0.46875,-0.0312 -0.1875,-0.0156 -0.29688,-0.0625 -0.10937,-0.0625 -0.15625,-0.125 -0.0312,-0.0625 -0.0312,-0.15625 v -10.54688 q 0,-0.0937 0.0312,-0.15625 0.0312,-0.0625 0.14063,-0.10937 0.10937,-0.0625 0.26562,-0.0781 0.17188,-0.0156 0.4375,-0.0156 0.26563,0 0.42188,0.0156 0.17187,0.0156 0.26562,0.0781 0.0937,0.0469 0.14063,0.10937 0.0469,0.0625 0.0469,0.15625 v 1.53125 q 0.42188,-0.625 0.79688,-1.01562 0.39062,-0.40625 0.73437,-0.625 0.34375,-0.23438 0.67188,-0.32813 0.32812,-0.0937 0.67187,-0.0937 0.15625,0 0.34375,0.0312 0.20313,0.0156 0.40625,0.0625 0.21875,0.0469 0.375,0.10938 0.17188,0.0469 0.23438,0.10937 0.0781,0.0625 0.0937,0.10938 0.0312,0.0469 0.0469,0.14062 0.0312,0.0781 0.0312,0.23438 0,0.15625 0,0.42187 z m 10.69532,-0.20312 q 0,0.40625 -0.10938,0.59375 -0.10937,0.17187 -0.29687,0.17187 h -1.5 q 0.40625,0.42188 0.5625,0.9375 0.17187,0.51563 0.17187,1.0625 0,0.90625 -0.29687,1.60938 -0.29688,0.70312 -0.84375,1.20312 -0.53125,0.48438 -1.28125,0.75 -0.75,0.25 -1.67188,0.25 -0.64062,0 -1.21875,-0.17187 -0.57812,-0.17188 -0.90625,-0.4375 -0.20312,0.21875 -0.34375,0.48437 -0.125,0.26563 -0.125,0.625 0,0.40625 0.375,0.6875 0.375,0.26563 1.01563,0.28125 l 2.75,0.125 q 0.78125,0.0156 1.4375,0.21875 0.65625,0.1875 1.14062,0.54688 0.48438,0.35937 0.75,0.875 0.26563,0.51562 0.26563,1.21875 0,0.71875 -0.3125,1.375 -0.29688,0.65625 -0.92188,1.15625 -0.625,0.5 -1.59375,0.78125 -0.96875,0.29687 -2.29687,0.29687 -1.28125,0 -2.1875,-0.21875 -0.89063,-0.21875 -1.46875,-0.59375 -0.5625,-0.375 -0.82813,-0.90625 -0.25,-0.51562 -0.25,-1.125 0,-0.375 0.0937,-0.75 0.0937,-0.35937 0.28125,-0.6875 0.20313,-0.32812 0.48438,-0.625 0.28125,-0.29687 0.65625,-0.59375 -0.5625,-0.29687 -0.84375,-0.73437 -0.28125,-0.45313 -0.28125,-0.96875 0,-0.71875 0.29687,-1.28125 0.29688,-0.5625 0.73438,-1 -0.375,-0.4375 -0.59375,-0.98438 -0.20313,-0.54687 -0.20313,-1.3125 0,-0.90625 0.29688,-1.60937 0.3125,-0.71875 0.84375,-1.20313 0.54687,-0.5 1.29687,-0.76562 0.76563,-0.26563 1.65625,-0.26563 0.48438,0 0.89063,0.0625 0.42187,0.0469 0.78125,0.14063 h 3.1875 q 0.20312,0 0.29687,0.1875 0.10938,0.1875 0.10938,0.59375 z m -3.03125,2.78125 q 0,-1.07813 -0.59375,-1.6875 -0.57813,-0.60938 -1.67188,-0.60938 -0.5625,0 -0.98437,0.1875 -0.40625,0.1875 -0.6875,0.51563 -0.28125,0.32812 -0.42188,0.76562 -0.125,0.42188 -0.125,0.89063 0,1.04687 0.59375,1.64062 0.59375,0.59375 1.65625,0.59375 0.57813,0 1,-0.17187 0.42188,-0.1875 0.6875,-0.5 0.28125,-0.32813 0.40625,-0.75 0.14063,-0.42188 0.14063,-0.875 z m 0.98437,8.35937 q 0,-0.6875 -0.5625,-1.04687 -0.5625,-0.375 -1.5,-0.40625 l -2.73437,-0.0937 q -0.375,0.29687 -0.625,0.5625 -0.23438,0.26562 -0.375,0.5 -0.14063,0.25 -0.20313,0.48437 -0.0469,0.23438 -0.0469,0.46875 0,0.76563 0.76562,1.15625 0.78125,0.39063 2.17188,0.39063 0.875,0 1.46875,-0.17188 0.59375,-0.15625 0.95312,-0.4375 0.35938,-0.28125 0.51563,-0.65625 0.17187,-0.35937 0.17187,-0.75 z m 9.32813,-0.78125 -1.40625,3.875 q -0.0625,0.1875 -0.35938,0.28125 -0.28125,0.10938 -0.85937,0.10938 -0.3125,0 -0.5,-0.0312 -0.1875,-0.0312 -0.29688,-0.10938 -0.0937,-0.0625 -0.10937,-0.1875 0,-0.10937 0.0625,-0.26562 l 1.45312,-3.67188 q -0.0937,-0.0469 -0.1875,-0.15625 -0.0937,-0.10937 -0.14062,-0.21875 l -3.75,-10.07812 q -0.0937,-0.25 -0.0937,-0.39063 0,-0.14062 0.0937,-0.21875 0.0937,-0.0781 0.29687,-0.10937 0.21875,-0.0312 0.5625,-0.0312 0.35938,0 0.54688,0.0156 0.20312,0.0156 0.3125,0.0625 0.125,0.0469 0.17187,0.14063 0.0625,0.0781 0.125,0.23437 l 3,8.46875 h 0.0469 l 2.90625,-8.51562 q 0.0625,-0.21875 0.15625,-0.28125 0.10937,-0.0625 0.29687,-0.0937 0.20313,-0.0312 0.57813,-0.0312 0.32812,0 0.53125,0.0312 0.21875,0.0312 0.3125,0.10937 0.10937,0.0781 0.10937,0.21875 0,0.14063 -0.0625,0.35938 z m 23.36719,-7.8125 q 0,1.96875 -0.5,3.45313 -0.5,1.46875 -1.46875,2.4375 -0.96875,0.95312 -2.375,1.4375 -1.40625,0.48437 -3.34375,0.48437 h -3.21875 q -0.26563,0 -0.51563,-0.17187 -0.23437,-0.1875 -0.23437,-0.65625 v -13.51563 q 0,-0.45312 0.23437,-0.64062 0.25,-0.1875 0.51563,-0.1875 h 3.4375 q 1.96875,0 3.32812,0.51562 1.35938,0.51563 2.28125,1.46875 0.92188,0.95313 1.39063,2.3125 0.46875,1.35938 0.46875,3.0625 z m -2.10938,0.0937 q 0,-1.23437 -0.3125,-2.29687 -0.29687,-1.0625 -0.95312,-1.82813 -0.65625,-0.78125 -1.65625,-1.20312 -0.98438,-0.4375 -2.5625,-0.4375 h -2.04688 v 11.79687 h 2.07813 q 1.45312,0 2.4375,-0.35937 1,-0.375 1.67187,-1.125 0.67188,-0.75 1,-1.875 0.34375,-1.125 0.34375,-2.67188 z m 14,1.6875 q 0,0.46875 -0.23437,0.65625 -0.21875,0.1875 -0.51563,0.1875 h -6.92187 q 0,0.89063 0.17187,1.59375 0.1875,0.70313 0.59375,1.20313 0.40625,0.5 1.0625,0.78125 0.65625,0.26562 1.60938,0.26562 0.75,0 1.32812,-0.125 0.59375,-0.125 1.01563,-0.28125 0.4375,-0.15625 0.70312,-0.26562 0.28125,-0.125 0.42188,-0.125 0.0781,0 0.14062,0.0469 0.0781,0.0312 0.10938,0.10938 0.0312,0.0781 0.0469,0.23437 0.0156,0.14063 0.0156,0.35938 0,0.14062 -0.0156,0.26562 0,0.10938 -0.0156,0.20313 -0.0156,0.0781 -0.0625,0.15625 -0.0469,0.0625 -0.10938,0.125 -0.0625,0.0625 -0.375,0.21875 -0.3125,0.14062 -0.82812,0.28125 -0.5,0.14062 -1.17188,0.25 -0.65625,0.10937 -1.40625,0.10937 -1.29687,0 -2.28125,-0.35937 -0.96875,-0.35938 -1.64062,-1.07813 -0.67188,-0.71875 -1.01563,-1.79687 -0.32812,-1.07813 -0.32812,-2.5 0,-1.35938 0.34375,-2.4375 0.35937,-1.09375 1.01562,-1.84375 0.67188,-0.76563 1.60938,-1.17188 0.9375,-0.40625 2.09375,-0.40625 1.23437,0 2.10937,0.40625 0.875,0.39063 1.4375,1.07813 0.5625,0.67187 0.82813,1.57812 0.26562,0.90625 0.26562,1.9375 z m -1.95312,-0.5625 q 0.0469,-1.53125 -0.67188,-2.39062 -0.70312,-0.875 -2.09375,-0.875 -0.71875,0 -1.26562,0.28125 -0.53125,0.26562 -0.90625,0.71875 -0.35938,0.4375 -0.5625,1.03125 -0.1875,0.57812 -0.21875,1.23437 z m 6.83203,6.29688 q 0,0.0937 -0.0469,0.15625 -0.0469,0.0625 -0.15625,0.125 -0.10937,0.0469 -0.29687,0.0625 -0.1875,0.0312 -0.48438,0.0312 -0.28125,0 -0.46875,-0.0312 -0.1875,-0.0156 -0.29687,-0.0625 -0.10938,-0.0625 -0.15625,-0.125 -0.0312,-0.0625 -0.0312,-0.15625 v -15.65617 q 0,-0.0937 0.0312,-0.15625 0.0469,-0.0781 0.15625,-0.125 0.10937,-0.0469 0.29687,-0.0625 0.1875,-0.0312 0.46875,-0.0312 0.29688,0 0.48438,0.0312 0.1875,0.0156 0.29687,0.0625 0.10938,0.0469 0.15625,0.125 0.0469,0.0625 0.0469,0.15625 z m 9.05468,-0.76563 q 0,0.32813 -0.0469,0.53125 -0.0469,0.20313 -0.14063,0.29688 -0.0937,0.0937 -0.28125,0.1875 -0.1875,0.0781 -0.4375,0.125 -0.23437,0.0469 -0.5,0.0781 -0.26562,0.0469 -0.54687,0.0469 -0.8125,0 -1.40625,-0.21875 -0.57813,-0.21875 -0.95313,-0.65625 -0.375,-0.4375 -0.54687,-1.10938 -0.17188,-0.6875 -0.17188,-1.59375 v -6.17187 h -1.46875 q -0.1875,0 -0.29687,-0.1875 -0.0937,-0.1875 -0.0937,-0.60938 0,-0.21875 0.0312,-0.35937 0.0312,-0.15625 0.0781,-0.25 0.0469,-0.10938 0.10938,-0.14063 0.0781,-0.0469 0.17187,-0.0469 h 1.46875 v -2.51563 q 0,-0.0781 0.0312,-0.14062 0.0469,-0.0781 0.15625,-0.125 0.125,-0.0625 0.3125,-0.0781 0.1875,-0.0312 0.46875,-0.0312 0.28125,0 0.46875,0.0312 0.1875,0.0156 0.29688,0.0781 0.10937,0.0469 0.15625,0.125 0.0469,0.0625 0.0469,0.14062 v 2.51563 h 2.70313 q 0.0937,0 0.15625,0.0469 0.0781,0.0312 0.125,0.14063 0.0625,0.0937 0.0781,0.25 0.0312,0.14062 0.0312,0.35937 0,0.42188 -0.10937,0.60938 -0.10938,0.1875 -0.28125,0.1875 h -2.70313 v 5.89062 q 0,1.09375 0.3125,1.65625 0.32813,0.54688 1.15625,0.54688 0.28125,0 0.48438,-0.0469 0.21875,-0.0625 0.375,-0.10937 0.17187,-0.0625 0.28125,-0.10938 0.125,-0.0625 0.21875,-0.0625 0.0469,0 0.0937,0.0312 0.0625,0.0312 0.0937,0.10938 0.0312,0.0781 0.0469,0.21875 0.0312,0.14062 0.0312,0.35937 z m 10.19922,0.78125 q 0,0.14063 -0.0937,0.21875 -0.0937,0.0625 -0.26562,0.0937 -0.15625,0.0469 -0.46875,0.0469 -0.29688,0 -0.48438,-0.0469 -0.1875,-0.0312 -0.26562,-0.0937 -0.0781,-0.0781 -0.0781,-0.21875 v -1.0625 q -0.6875,0.75 -1.54687,1.15625 -0.84375,0.40625 -1.79688,0.40625 -0.82812,0 -1.5,-0.21875 -0.67187,-0.21875 -1.15625,-0.625 -0.46875,-0.40625 -0.73437,-1 -0.26563,-0.60937 -0.26563,-1.35937 0,-0.89063 0.35938,-1.54688 0.375,-0.65625 1.04687,-1.09375 0.6875,-0.4375 1.67188,-0.65625 0.98437,-0.21875 2.20312,-0.21875 h 1.45313 v -0.8125 q 0,-0.60937 -0.125,-1.07812 -0.125,-0.46875 -0.42188,-0.78125 -0.28125,-0.3125 -0.73437,-0.46875 -0.45313,-0.15625 -1.125,-0.15625 -0.71875,0 -1.29688,0.17187 -0.5625,0.17188 -0.98437,0.375 -0.42188,0.20313 -0.71875,0.375 -0.28125,0.17188 -0.42188,0.17188 -0.0937,0 -0.17187,-0.0469 -0.0625,-0.0469 -0.125,-0.14062 -0.0469,-0.0937 -0.0781,-0.23438 -0.0156,-0.15625 -0.0156,-0.32812 0,-0.29688 0.0312,-0.46875 0.0469,-0.17188 0.20312,-0.3125 0.17188,-0.15625 0.54688,-0.35938 0.39062,-0.21875 0.89062,-0.375 0.51563,-0.17187 1.10938,-0.28125 0.59375,-0.125 1.20312,-0.125 1.14063,0 1.9375,0.26563 0.79688,0.25 1.28125,0.75 0.5,0.5 0.71875,1.25 0.21875,0.73437 0.21875,1.71875 z m -1.92187,-4.8125 h -1.64063 q -0.79687,0 -1.39062,0.14063 -0.57813,0.125 -0.96875,0.39062 -0.39063,0.26563 -0.57813,0.64063 -0.17187,0.35937 -0.17187,0.84375 0,0.8125 0.51562,1.29687 0.53125,0.48438 1.46875,0.48438 0.75,0 1.40625,-0.375 0.65625,-0.39063 1.35938,-1.1875 z"
     fill-rule="nonzero"
     id="path333" />
</svg>
