<?xml version="1.0" encoding="UTF-8" standalone="no"?>
<svg
   xmlns:dc="http://purl.org/dc/elements/1.1/"
   xmlns:cc="http://creativecommons.org/ns#"
   xmlns:rdf="http://www.w3.org/1999/02/22-rdf-syntax-ns#"
   xmlns:svg="http://www.w3.org/2000/svg"
   xmlns="http://www.w3.org/2000/svg"
   xmlns:sodipodi="http://sodipodi.sourceforge.net/DTD/sodipodi-0.dtd"
   xmlns:inkscape="http://www.inkscape.org/namespaces/inkscape"
   version="1.1"
   viewBox="0.0 0.0 1280.0 720.0"
   fill="none"
   stroke="none"
   stroke-linecap="square"
   stroke-miterlimit="10"
   id="svg345"
   sodipodi:docname="lagoonal.svg"
   inkscape:version="1.0 (4035a4fb49, 2020-05-01)">
  <metadata
     id="metadata351">
    <rdf:RDF>
      <cc:Work
         rdf:about="">
        <dc:format>image/svg+xml</dc:format>
        <dc:type
           rdf:resource="http://purl.org/dc/dcmitype/StillImage" />
        <dc:title></dc:title>
      </cc:Work>
    </rdf:RDF>
  </metadata>
  <defs
     id="defs349" />
  <sodipodi:namedview
     inkscape:document-rotation="0"
     pagecolor="#ffffff"
     bordercolor="#666666"
     borderopacity="1"
     objecttolerance="10"
     gridtolerance="10"
     guidetolerance="10"
     inkscape:pageopacity="0"
     inkscape:pageshadow="2"
     inkscape:window-width="1920"
     inkscape:window-height="1001"
     id="namedview347"
     showgrid="false"
     inkscape:zoom="0.94375"
     inkscape:cx="781.51582"
     inkscape:cy="275.2318"
     inkscape:window-x="554"
     inkscape:window-y="1359"
     inkscape:window-maximized="1"
     inkscape:current-layer="svg345" />
  <clipPath
     id="p3.0">
    <path
       d="m0 0l1280.0 0l0 720.0l-1280.0 0l0 -720.0z"
       clip-rule="nonzero"
       id="path2" />
  </clipPath>
  <path
     id="path5"
     fill-rule="evenodd"
     d="M 507.54967,289.27152 H 761.85435 V 507.01987 H 507.54967 Z"
     fill="#ffffff"
     style="stroke-width:0.245122" />
  <path
     id="path185"
     fill-rule="evenodd"
     d="m 604.201,389.76107 c 2.24704,-1.01971 5.81116,-1.97559 7.9032,0.76483 2.09204,2.74036 1.78213,12.29981 4.64899,15.67737 2.86688,3.37762 6.97348,3.18652 12.55218,4.5885 5.57871,1.40198 9.76279,2.23059 20.9202,3.82379 11.15741,1.5932 36.02932,4.77973 46.02456,5.7356 9.99521,0.95593 10.46015,-0.95587 13.94681,0 3.4867,0.95599 5.81119,4.01501 6.97336,5.73572 1.16217,1.7207 7.12836,3.50512 0,4.5885 -7.12836,1.08337 -27.50619,2.16681 -42.7702,1.91192 -15.26404,-0.25494 -36.49427,0.12751 -48.814,-3.4414 -12.31973,-3.56879 -20.61026,-12.55475 -25.10425,-17.97174 -4.49395,-5.417 -2.01458,-10.89771 -1.85955,-14.53028 0.15503,-3.63263 3.33166,-5.86309 5.5787,-6.88281 z"
     fill="#548135"
     inkscape:export-filename="C:\Users\sfjones\Documents\Manuscripts\Global typology\lagoonal.png"
     inkscape:export-xdpi="300"
     inkscape:export-ydpi="300" />
  <path
     id="path187"
     fill-rule="evenodd"
     d="m 604.201,389.76107 c 2.24704,-1.01971 5.81116,-1.97559 7.9032,0.76483 2.09204,2.74036 1.78213,12.29981 4.64899,15.67737 2.86688,3.37762 6.97348,3.18652 12.55218,4.5885 5.57871,1.40198 9.76279,2.23059 20.9202,3.82379 11.15741,1.5932 36.02932,4.77973 46.02456,5.7356 9.99521,0.95593 10.46015,-0.95587 13.94681,0 3.4867,0.95599 5.81119,4.01501 6.97336,5.73572 1.16217,1.7207 7.12836,3.50512 0,4.5885 -7.12836,1.08337 -27.50619,2.16681 -42.7702,1.91192 -15.26404,-0.25494 -36.49427,0.12751 -48.814,-3.4414 -12.31973,-3.56879 -20.61026,-12.55475 -25.10425,-17.97174 -4.49395,-5.417 -2.01458,-10.89771 -1.85955,-14.53028 0.15503,-3.63263 3.33166,-5.86309 5.5787,-6.88281 z"
     stroke-linecap="butt"
     stroke-miterlimit="800"
     stroke-width="1"
     stroke="#000000"
     inkscape:export-filename="C:\Users\sfjones\Documents\Manuscripts\Global typology\lagoonal.png"
     inkscape:export-xdpi="300"
     inkscape:export-ydpi="300" />
  <path
     id="path189"
     fill-rule="evenodd"
     d="m 697.00997,327.49993 c -0.59695,-5.05594 -12.53809,-14.2749 -19.62076,-11.07288 -7.08267,3.202 -20.93005,23.26413 -22.87558,30.28556 -1.94552,7.02145 14.76166,7.8497 11.20169,11.84243 -3.55999,3.99274 -24.78839,4.83793 -32.561,12.11387 -7.77265,7.276 -24.97846,24.72406 -14.07529,31.54174 10.90265,6.81763 69.10394,11.90259 79.49298,9.36383 10.38904,-2.53875 -6.22458,-27.65985 -8.02112,-36.04492 -1.79651,-8.38501 -2.86801,-9.99755 -2.75689,-14.26525 0.11108,-4.26767 -8.3581,-8.87403 -6.82209,-14.50147 1.53601,-5.62744 16.63501,-14.20697 16.03806,-19.26291 z"
     fill-opacity="0"
     fill="#000000"
     inkscape:export-filename="C:\Users\sfjones\Documents\Manuscripts\Global typology\lagoonal.png"
     inkscape:export-xdpi="300"
     inkscape:export-ydpi="300" />
  <path
     id="path191"
     fill-rule="evenodd"
     d="m 697.00997,327.49993 c -0.59695,-5.05594 -12.53809,-14.2749 -19.62076,-11.07288 -7.08267,3.202 -20.93005,23.26413 -22.87558,30.28556 -1.94552,7.02145 14.76166,7.8497 11.20169,11.84243 -3.55999,3.99274 -24.78839,4.83793 -32.561,12.11387 -7.77265,7.276 -24.97846,24.72406 -14.07529,31.54174 10.90265,6.81763 69.10394,11.90259 79.49298,9.36383 10.38904,-2.53875 -6.22458,-27.65985 -8.02112,-36.04492 -1.79651,-8.38501 -2.86801,-9.99755 -2.75689,-14.26525 0.11108,-4.26767 -8.3581,-8.87403 -6.82209,-14.50147 1.53601,-5.62744 16.63501,-14.20697 16.03806,-19.26291 z"
     stroke-dasharray="5.33333, 4"
     stroke-linecap="butt"
     stroke-miterlimit="800"
     stroke-width="1.33333"
     stroke="#000000"
     inkscape:export-filename="C:\Users\sfjones\Documents\Manuscripts\Global typology\lagoonal.png"
     inkscape:export-xdpi="300"
     inkscape:export-ydpi="300" />
  <path
     id="path193"
     fill-rule="evenodd"
     d="m 699.09937,333.62859 c -7.03165,-10.38556 -13.1236,0.7309 -14.25436,5.32486 -1.1308,4.59396 3.18182,10.44427 7.46957,22.2391 4.28775,11.7949 14.88126,38.87009 18.25613,48.53006 3.37491,9.65998 -0.70596,6.76429 1.99353,9.42994 2.69953,2.66565 11.79267,9.54522 14.20429,6.56421 2.41159,-2.98102 5.33783,-9.0257 0.26572,-24.45044 -5.07209,-15.42475 -20.90323,-57.25217 -27.93488,-67.63773 z"
     fill="#548135"
     inkscape:export-filename="C:\Users\sfjones\Documents\Manuscripts\Global typology\lagoonal.png"
     inkscape:export-xdpi="300"
     inkscape:export-ydpi="300" />
  <path
     id="path195"
     fill-rule="evenodd"
     d="m 699.09937,333.62859 c -7.03165,-10.38556 -13.1236,0.7309 -14.25436,5.32486 -1.1308,4.59396 3.18182,10.44427 7.46957,22.2391 4.28775,11.7949 14.88126,38.87009 18.25613,48.53006 3.37491,9.65998 -0.70596,6.76429 1.99353,9.42994 2.69953,2.66565 11.79267,9.54522 14.20429,6.56421 2.41159,-2.98102 5.33783,-9.0257 0.26572,-24.45044 -5.07209,-15.42475 -20.90323,-57.25217 -27.93488,-67.63773 z"
     stroke-linecap="butt"
     stroke-miterlimit="800"
     stroke-width="1"
     stroke="#000000"
     inkscape:export-filename="C:\Users\sfjones\Documents\Manuscripts\Global typology\lagoonal.png"
     inkscape:export-xdpi="300"
     inkscape:export-ydpi="300" />
  <path
     id="path197"
     fill-rule="evenodd"
     d="m 641.12587,360.29308 c 1.57635,-2.57651 -17.68951,-17.13995 -23.12833,-20.88452 -5.43884,-3.7446 -7.32919,-0.85007 -9.50467,-1.58261 -2.17544,-0.73258 -5.54083,-1.41626 -3.54818,-2.81244 1.99261,-1.39618 10.64255,-6.86795 15.50442,-5.56473 4.86185,1.30319 10.74646,9.93576 13.66666,13.38428 2.92017,3.44851 0.46796,5.75567 3.85507,7.30716 3.38715,1.55148 17.33801,7.08352 16.46887,2.00155 -0.86914,-5.082 -10.30362,-28.00628 -21.68448,-32.49325 -11.38089,-4.48697 -36.29471,1.97964 -46.60141,5.57089 -10.30673,3.59125 -18.97107,11.0354 -15.24008,15.97675 3.73099,4.94137 28.23709,11.61401 37.625,13.67083 9.38794,2.05683 31.01074,8.00257 32.58713,5.42609 z"
     fill="#548135"
     inkscape:export-filename="C:\Users\sfjones\Documents\Manuscripts\Global typology\lagoonal.png"
     inkscape:export-xdpi="300"
     inkscape:export-ydpi="300" />
  <path
     id="path199"
     fill-rule="evenodd"
     d="m 641.12587,360.29308 c 1.57635,-2.57651 -17.68951,-17.13995 -23.12833,-20.88452 -5.43884,-3.7446 -7.32919,-0.85007 -9.50467,-1.58261 -2.17544,-0.73258 -5.54083,-1.41626 -3.54818,-2.81244 1.99261,-1.39618 10.64255,-6.86795 15.50442,-5.56473 4.86185,1.30319 10.74646,9.93576 13.66666,13.38428 2.92017,3.44851 0.46796,5.75567 3.85507,7.30716 3.38715,1.55148 17.33801,7.08352 16.46887,2.00155 -0.86914,-5.082 -10.30362,-28.00628 -21.68448,-32.49325 -11.38089,-4.48697 -36.29471,1.97964 -46.60141,5.57089 -10.30673,3.59125 -18.97107,11.0354 -15.24008,15.97675 3.73099,4.94137 28.23709,11.61401 37.625,13.67083 9.38794,2.05683 31.01074,8.00257 32.58713,5.42609 z"
     stroke-linecap="butt"
     stroke-miterlimit="800"
     stroke-width="1"
     stroke="#000000"
     inkscape:export-filename="C:\Users\sfjones\Documents\Manuscripts\Global typology\lagoonal.png"
     inkscape:export-xdpi="300"
     inkscape:export-ydpi="300" />
  <path
     id="path201"
     fill-rule="evenodd"
     d="m 593.98112,340.50396 c 4.75183,-3.03503 9.50333,-6.07031 16.86166,-5.33875 7.35834,0.7316 19.81275,5.64414 27.28815,9.72785 7.47537,4.08368 11.2507,14.58645 17.56509,14.77389 6.3144,0.18741 15.56949,-6.78823 20.32099,-13.64959 4.75149,-6.86136 10.18103,-21.26276 8.18741,-27.51929 -1.99366,-6.25653 6.02124,-10.10608 -20.14884,-10.0202 -26.16971,0.0859 -81.51996,5.31085 -136.87057,10.5357"
     fill="#d7a979"
     inkscape:export-filename="C:\Users\sfjones\Documents\Manuscripts\Global typology\lagoonal.png"
     inkscape:export-xdpi="300"
     inkscape:export-ydpi="300" />
  <path
     id="path203"
     fill-rule="evenodd"
     d="m 593.98112,340.50396 c 4.75183,-3.03503 9.50333,-6.07031 16.86166,-5.33875 7.35834,0.7316 19.81275,5.64414 27.28815,9.72785 7.47537,4.08368 11.2507,14.58645 17.56509,14.77389 6.3144,0.18741 15.56949,-6.78823 20.32099,-13.64959 4.75149,-6.86136 10.18103,-21.26276 8.18741,-27.51929 -1.99366,-6.25653 6.02124,-10.10608 -20.14884,-10.0202 -26.16971,0.0859 -81.51996,5.31085 -136.87057,10.5357"
     stroke-linecap="butt"
     stroke-miterlimit="800"
     stroke-width="1.33333"
     stroke="#000000"
     inkscape:export-filename="C:\Users\sfjones\Documents\Manuscripts\Global typology\lagoonal.png"
     inkscape:export-xdpi="300"
     inkscape:export-ydpi="300" />
  <path
     id="path205"
     fill-rule="evenodd"
     d="m 684.00187,312.04888 c 0.6243,-2.11081 1.2486,-4.22165 7.0506,-4.27646 5.802,-0.0548 20.34402,1.20621 27.76178,3.94748 7.41775,2.74127 13.44024,7.62091 16.74518,12.50043 3.30493,4.87954 5.94906,12.99395 3.08471,16.77701 -2.86435,3.78305 -11.56747,4.85208 -20.2706,5.92123"
     fill-opacity="0"
     fill="#000000"
     inkscape:export-filename="C:\Users\sfjones\Documents\Manuscripts\Global typology\lagoonal.png"
     inkscape:export-xdpi="300"
     inkscape:export-ydpi="300" />
  <path
     id="path207"
     fill-rule="evenodd"
     d="m 684.00187,312.04888 c 0.6243,-2.11081 1.2486,-4.22165 7.0506,-4.27646 5.802,-0.0548 20.34402,1.20621 27.76178,3.94748 7.41775,2.74127 13.44024,7.62091 16.74518,12.50043 3.30493,4.87954 5.94906,12.99395 3.08471,16.77701 -2.86435,3.78305 -11.56747,4.85208 -20.2706,5.92123"
     stroke-dasharray="5.33333, 4"
     stroke-linecap="butt"
     stroke-miterlimit="800"
     stroke-width="1.33333"
     stroke="#000000"
     inkscape:export-filename="C:\Users\sfjones\Documents\Manuscripts\Global typology\lagoonal.png"
     inkscape:export-xdpi="300"
     inkscape:export-ydpi="300" />
  <path
     id="path209"
     fill-rule="evenodd"
     d="m 594.90315,335.68105 c -0.155,3.58398 -0.30991,7.16794 2.78943,8.21057 3.09933,1.04266 11.54489,-2.99756 15.8064,-1.95489 4.2615,1.04263 6.8959,5.08273 9.76278,8.21057 2.86685,3.1278 8.60044,6.32089 7.43827,10.55649 -1.16218,4.23562 -10.15027,9.0577 -14.41178,14.8572 -4.26147,5.79956 -10.92493,13.74945 -11.15741,19.94001 -0.23245,6.19049 6.89594,13.29333 9.76279,17.20312 2.86685,3.90985 1.00729,4.23566 7.43826,6.25568 6.431,2.02008 21.30768,4.88726 31.14789,5.86462 9.84021,0.97742 18.67325,-0.26062 27.89365,0 9.22039,0.26068 20.61029,2.02008 27.42874,1.56397 6.81848,-0.45618 10.8475,-1.95484 13.4819,-4.30079 2.6344,-2.34576 2.86688,-5.7995 2.32449,-9.77447 -0.54236,-3.97498 -3.48666,-9.7746 -5.5787,-14.07532 -2.09201,-4.30072 -3.56412,-4.82214 -6.97333,-11.72943 -3.40924,-6.90729 -9.91782,-22.80716 -13.48206,-29.71445 -3.56424,-6.90728 -6.19864,-8.08029 -7.90319,-11.7294 -1.70456,-3.64908 -2.71186,-7.03766 -2.32438,-10.16549 0.38752,-3.12781 1.23963,-8.0802 4.64887,-8.60144 3.40924,-0.52127 11.15741,2.21542 15.8064,5.47363 4.64898,3.25818 8.44558,7.62417 12.08728,14.07532 3.64169,6.45117 5.96618,13.48883 9.76275,24.63174 3.79657,11.14288 13.32703,31.53912 13.01712,42.22583 -0.3099,10.68677 -6.43112,16.61658 -14.87668,21.89484 -8.44558,5.27819 -25.10424,8.79718 -35.79687,9.77459 -10.69248,0.97748 -28.35846,-3.90985 -28.35846,-3.90985 -9.84021,-1.43353 -21.07532,-2.80206 -30.68308,-4.69177 -9.60775,-1.88965 -19.52554,0.0651 -26.9638,-6.64661 -7.4383,-6.71179 -15.18659,-23.65435 -17.66599,-33.62433 -2.47937,-9.96997 2.1695,-19.02771 2.78931,-26.19561 0.61981,-7.16794 5.11389,-12.77207 0.92984,-16.81217 -4.18405,-4.0401 -18.7507,-5.53888 -26.03409,-7.42868 -7.2834,-1.88968 -11.31244,-1.69415 -17.66597,-3.90973 -6.35354,-2.21554 -16.73625,-4.88736 -20.4554,-9.38357 -3.71913,-4.49625 -2.78941,-11.0452 -1.85956,-17.59406"
     fill="#d7a979"
     inkscape:export-filename="C:\Users\sfjones\Documents\Manuscripts\Global typology\lagoonal.png"
     inkscape:export-xdpi="300"
     inkscape:export-ydpi="300" />
  <path
     id="path211"
     fill-rule="evenodd"
     d="m 594.90315,335.68105 c -0.155,3.58398 -0.30991,7.16794 2.78943,8.21057 3.09933,1.04266 11.54489,-2.99756 15.8064,-1.95489 4.2615,1.04263 6.8959,5.08273 9.76278,8.21057 2.86685,3.1278 8.60044,6.32089 7.43827,10.55649 -1.16218,4.23562 -10.15027,9.0577 -14.41178,14.8572 -4.26147,5.79956 -10.92493,13.74945 -11.15741,19.94001 -0.23245,6.19049 6.89594,13.29333 9.76279,17.20312 2.86685,3.90985 1.00729,4.23566 7.43826,6.25568 6.431,2.02008 21.30768,4.88726 31.14789,5.86462 9.84021,0.97742 18.67325,-0.26062 27.89365,0 9.22039,0.26068 20.61029,2.02008 27.42874,1.56397 6.81848,-0.45618 10.8475,-1.95484 13.4819,-4.30079 2.6344,-2.34576 2.86688,-5.7995 2.32449,-9.77447 -0.54236,-3.97498 -3.48666,-9.7746 -5.5787,-14.07532 -2.09201,-4.30072 -3.56412,-4.82214 -6.97333,-11.72943 -3.40924,-6.90729 -9.91782,-22.80716 -13.48206,-29.71445 -3.56424,-6.90728 -6.19864,-8.08029 -7.90319,-11.7294 -1.70456,-3.64908 -2.71186,-7.03766 -2.32438,-10.16549 0.38752,-3.12781 1.23963,-8.0802 4.64887,-8.60144 3.40924,-0.52127 11.15741,2.21542 15.8064,5.47363 4.64898,3.25818 8.44558,7.62417 12.08728,14.07532 3.64169,6.45117 5.96618,13.48883 9.76275,24.63174 3.79657,11.14288 13.32703,31.53912 13.01712,42.22583 -0.3099,10.68677 -6.43112,16.61658 -14.87668,21.89484 -8.44558,5.27819 -25.10424,8.79718 -35.79687,9.77459 -10.69248,0.97748 -28.35846,-3.90985 -28.35846,-3.90985 -9.84021,-1.43353 -21.07532,-2.80206 -30.68308,-4.69177 -9.60775,-1.88965 -19.52554,0.0651 -26.9638,-6.64661 -7.4383,-6.71179 -15.18659,-23.65435 -17.66599,-33.62433 -2.47937,-9.96997 2.1695,-19.02771 2.78931,-26.19561 0.61981,-7.16794 5.11389,-12.77207 0.92984,-16.81217 -4.18405,-4.0401 -18.7507,-5.53888 -26.03409,-7.42868 -7.2834,-1.88968 -11.31244,-1.69415 -17.66597,-3.90973 -6.35354,-2.21554 -16.73625,-4.88736 -20.4554,-9.38357 -3.71913,-4.49625 -2.78941,-11.0452 -1.85956,-17.59406"
     stroke-linecap="butt"
     stroke-miterlimit="800"
     stroke-width="1.33333"
     stroke="#000000"
     inkscape:export-filename="C:\Users\sfjones\Documents\Manuscripts\Global typology\lagoonal.png"
     inkscape:export-xdpi="300"
     inkscape:export-ydpi="300" />
  <path
     id="path213"
     fill-rule="evenodd"
     d="m 528.43414,317.93886 c -1.08473,3.69632 -1.78214,6.75543 -1.39478,9.55951 0.38735,2.80411 2.24704,5.48071 3.71914,7.2651 1.47207,1.7844 1.93701,2.10309 5.11377,3.44141 3.17677,1.33829 8.05822,2.9953 13.94683,4.5885 5.88861,1.5932 14.56665,3.44141 21.3851,4.97089 6.81849,1.52951 15.41892,2.61291 19.52555,4.20608 4.10663,1.5932 4.72656,1.78452 5.11392,5.35334 0.38733,3.56878 -1.78214,10.83398 -2.78943,16.05981 -1.00729,5.22577 -3.25421,10.133 -3.25421,15.2951 0,5.16205 1.54965,10.77015 3.25421,15.67737 1.70456,4.90723 4.57153,9.55951 6.97348,13.76563 2.40195,4.20605 4.95889,8.92206 7.43826,11.47125 2.4794,2.54926 3.56412,2.8678 7.4383,3.82373 3.87414,0.95587 9.84021,0.95599 15.80639,1.91187 5.96619,0.95593 12.00983,2.42181 19.99045,3.82385 7.98065,1.4021 19.60312,3.95117 27.89368,4.5885 8.29068,0.63727 15.65152,-0.1275 21.85004,-0.76483 6.19851,-0.63733 11.00253,-2.16681 15.34146,-3.05902 4.33896,-0.89215 10.69262,-2.29419 10.69262,-2.29419 v 0"
     fill-opacity="0"
     fill="#000000"
     inkscape:export-filename="C:\Users\sfjones\Documents\Manuscripts\Global typology\lagoonal.png"
     inkscape:export-xdpi="300"
     inkscape:export-ydpi="300" />
  <path
     id="path215"
     fill-rule="evenodd"
     d="m 528.43414,317.93886 c -1.08473,3.69632 -1.78214,6.75543 -1.39478,9.55951 0.38735,2.80411 2.24704,5.48071 3.71914,7.2651 1.47207,1.7844 1.93701,2.10309 5.11377,3.44141 3.17677,1.33829 8.05822,2.9953 13.94683,4.5885 5.88861,1.5932 14.56665,3.44141 21.3851,4.97089 6.81849,1.52951 15.41892,2.61291 19.52555,4.20608 4.10663,1.5932 4.72656,1.78452 5.11392,5.35334 0.38733,3.56878 -1.78214,10.83398 -2.78943,16.05981 -1.00729,5.22577 -3.25421,10.133 -3.25421,15.2951 0,5.16205 1.54965,10.77015 3.25421,15.67737 1.70456,4.90723 4.57153,9.55951 6.97348,13.76563 2.40195,4.20605 4.95889,8.92206 7.43826,11.47125 2.4794,2.54926 3.56412,2.8678 7.4383,3.82373 3.87414,0.95587 9.84021,0.95599 15.80639,1.91187 5.96619,0.95593 12.00983,2.42181 19.99045,3.82385 7.98065,1.4021 19.60312,3.95117 27.89368,4.5885 8.29068,0.63727 15.65152,-0.1275 21.85004,-0.76483 6.19851,-0.63733 11.00253,-2.16681 15.34146,-3.05902 4.33896,-0.89215 10.69262,-2.29419 10.69262,-2.29419 v 0"
     stroke-linecap="butt"
     stroke-miterlimit="800"
     stroke-width="5"
     stroke="#d7a979"
     inkscape:export-filename="C:\Users\sfjones\Documents\Manuscripts\Global typology\lagoonal.png"
     inkscape:export-xdpi="300"
     inkscape:export-ydpi="300" />
  <path
     id="path245"
     fill-rule="evenodd"
     d="m 676.5582,435.31592 h 66.33069 v 42.01575 H 676.5582 Z"
     fill-opacity="0"
     fill="#000000" />
  <path
     id="path313"
     fill-rule="nonzero"
     d="m 602.46839,492.56608 q 0,0.23437 -0.0312,0.39062 -0.0156,0.15625 -0.0625,0.26563 -0.0469,0.10937 -0.125,0.17187 -0.0781,0.0469 -0.1875,0.0469 h -6.70313 q -0.26562,0 -0.51562,-0.17188 -0.23438,-0.1875 -0.23438,-0.65625 v -14.03125 q 0,-0.0937 0.0469,-0.15625 0.0469,-0.0781 0.15625,-0.10937 0.125,-0.0469 0.32812,-0.0781 0.20313,-0.0312 0.48438,-0.0312 0.28125,0 0.46875,0.0312 0.20312,0.0312 0.3125,0.0781 0.125,0.0312 0.17187,0.10937 0.0469,0.0625 0.0469,0.15625 v 13.10938 h 5.4375 q 0.10937,0 0.1875,0.0625 0.0781,0.0469 0.125,0.15625 0.0469,0.0937 0.0625,0.26562 0.0312,0.15625 0.0312,0.39063 z m 9.94922,0.59375 q 0,0.14062 -0.0937,0.21875 -0.0937,0.0625 -0.26563,0.0937 -0.15625,0.0469 -0.46875,0.0469 -0.29687,0 -0.48437,-0.0469 -0.1875,-0.0312 -0.26563,-0.0937 -0.0781,-0.0781 -0.0781,-0.21875 v -1.0625 q -0.6875,0.75 -1.54688,1.15625 -0.84375,0.40625 -1.79687,0.40625 -0.82813,0 -1.5,-0.21875 -0.67188,-0.21875 -1.15625,-0.625 -0.46875,-0.40625 -0.73438,-1 -0.26562,-0.60938 -0.26562,-1.35938 0,-0.89062 0.35937,-1.54687 0.375,-0.65625 1.04688,-1.09375 0.6875,-0.4375 1.67187,-0.65625 0.98438,-0.21875 2.20313,-0.21875 h 1.45312 v -0.8125 q 0,-0.60938 -0.125,-1.07813 -0.125,-0.46875 -0.42187,-0.78125 -0.28125,-0.3125 -0.73438,-0.46875 -0.45312,-0.15625 -1.125,-0.15625 -0.71875,0 -1.29687,0.17188 -0.5625,0.17187 -0.98438,0.375 -0.42187,0.20312 -0.71875,0.375 -0.28125,0.17187 -0.42187,0.17187 -0.0937,0 -0.17188,-0.0469 -0.0625,-0.0469 -0.125,-0.14063 -0.0469,-0.0937 -0.0781,-0.23437 -0.0156,-0.15625 -0.0156,-0.32813 0,-0.29687 0.0312,-0.46875 0.0469,-0.17187 0.20313,-0.3125 0.17187,-0.15625 0.54687,-0.35937 0.39063,-0.21875 0.89063,-0.375 0.51562,-0.17188 1.10937,-0.28125 0.59375,-0.125 1.20313,-0.125 1.14062,0 1.9375,0.26562 0.79687,0.25 1.28125,0.75 0.5,0.5 0.71875,1.25 0.21875,0.73438 0.21875,1.71875 z m -1.92188,-4.8125 h -1.64062 q -0.79688,0 -1.39063,0.14062 -0.57812,0.125 -0.96875,0.39063 -0.39062,0.26562 -0.57812,0.64062 -0.17188,0.35938 -0.17188,0.84375 0,0.8125 0.51563,1.29688 0.53125,0.48437 1.46875,0.48437 0.75,0 1.40625,-0.375 0.65625,-0.39062 1.35937,-1.1875 z m 14.29297,-5.26563 q 0,0.40625 -0.10937,0.59375 -0.10938,0.17188 -0.29688,0.17188 h -1.5 q 0.40625,0.42187 0.5625,0.9375 0.17188,0.51562 0.17188,1.0625 0,0.90625 -0.29688,1.60937 -0.29687,0.70313 -0.84375,1.20313 -0.53125,0.48437 -1.28125,0.75 -0.75,0.25 -1.67187,0.25 -0.64063,0 -1.21875,-0.17188 -0.57813,-0.17187 -0.90625,-0.4375 -0.20313,0.21875 -0.34375,0.48438 -0.125,0.26562 -0.125,0.625 0,0.40625 0.375,0.6875 0.375,0.26562 1.01562,0.28125 l 2.75,0.125 q 0.78125,0.0156 1.4375,0.21875 0.65625,0.1875 1.14063,0.54687 0.48437,0.35938 0.75,0.875 0.26562,0.51563 0.26562,1.21875 0,0.71875 -0.3125,1.375 -0.29687,0.65625 -0.92187,1.15625 -0.625,0.5 -1.59375,0.78125 -0.96875,0.29688 -2.29688,0.29688 -1.28125,0 -2.1875,-0.21875 -0.89062,-0.21875 -1.46875,-0.59375 -0.5625,-0.375 -0.82812,-0.90625 -0.25,-0.51563 -0.25,-1.125 0,-0.375 0.0937,-0.75 0.0937,-0.35938 0.28125,-0.6875 0.20312,-0.32813 0.48437,-0.625 0.28125,-0.29688 0.65625,-0.59375 -0.5625,-0.29688 -0.84375,-0.73438 -0.28125,-0.45312 -0.28125,-0.96875 0,-0.71875 0.29688,-1.28125 0.29687,-0.5625 0.73437,-1 -0.375,-0.4375 -0.59375,-0.98437 -0.20312,-0.54688 -0.20312,-1.3125 0,-0.90625 0.29687,-1.60938 0.3125,-0.71875 0.84375,-1.20312 0.54688,-0.5 1.29688,-0.76563 0.76562,-0.26562 1.65625,-0.26562 0.48437,0 0.89062,0.0625 0.42188,0.0469 0.78125,0.14062 h 3.1875 q 0.20313,0 0.29688,0.1875 0.10937,0.1875 0.10937,0.59375 z m -3.03125,2.78125 q 0,-1.07812 -0.59375,-1.6875 -0.57812,-0.60937 -1.67187,-0.60937 -0.5625,0 -0.98438,0.1875 -0.40625,0.1875 -0.6875,0.51562 -0.28125,0.32813 -0.42187,0.76563 -0.125,0.42187 -0.125,0.89062 0,1.04688 0.59375,1.64063 0.59375,0.59375 1.65625,0.59375 0.57812,0 1,-0.17188 0.42187,-0.1875 0.6875,-0.5 0.28125,-0.32812 0.40625,-0.75 0.14062,-0.42187 0.14062,-0.875 z m 0.98438,8.35938 q 0,-0.6875 -0.5625,-1.04688 -0.5625,-0.375 -1.5,-0.40625 l -2.73438,-0.0937 q -0.375,0.29688 -0.625,0.5625 -0.23437,0.26563 -0.375,0.5 -0.14062,0.25 -0.20312,0.48438 -0.0469,0.23437 -0.0469,0.46875 0,0.76562 0.76563,1.15625 0.78125,0.39062 2.17187,0.39062 0.875,0 1.46875,-0.17187 0.59375,-0.15625 0.95313,-0.4375 0.35937,-0.28125 0.51562,-0.65625 0.17188,-0.35938 0.17188,-0.75 z m 14.17969,-6.46875 q 0,1.29687 -0.34375,2.375 -0.34375,1.07812 -1.01563,1.875 -0.67187,0.78125 -1.6875,1.21875 -1.01562,0.4375 -2.34375,0.4375 -1.3125,0 -2.28125,-0.375 -0.95312,-0.39063 -1.60937,-1.125 -0.64063,-0.75 -0.95313,-1.79688 -0.3125,-1.0625 -0.3125,-2.39062 0,-1.29688 0.32813,-2.375 0.32812,-1.09375 1,-1.875 0.6875,-0.78125 1.6875,-1.21875 1.01562,-0.4375 2.35937,-0.4375 1.29688,0 2.26563,0.39062 0.96875,0.39063 1.60937,1.125 0.64063,0.73438 0.96875,1.79688 0.32813,1.04687 0.32813,2.375 z m -2.04688,0.125 q 0,-0.84375 -0.15625,-1.60938 -0.15625,-0.76562 -0.53125,-1.32812 -0.35937,-0.57813 -0.98437,-0.90625 -0.60938,-0.34375 -1.53125,-0.34375 -0.85938,0 -1.48438,0.3125 -0.60937,0.29687 -1.01562,0.85937 -0.39063,0.54688 -0.59375,1.3125 -0.1875,0.76563 -0.1875,1.65625 0,0.875 0.15625,1.64063 0.17187,0.75 0.53125,1.32812 0.375,0.5625 0.98437,0.90625 0.625,0.32813 1.5625,0.32813 0.84375,0 1.45313,-0.29688 0.625,-0.3125 1.01562,-0.85937 0.40625,-0.5625 0.59375,-1.3125 0.1875,-0.76563 0.1875,-1.6875 z m 14.70313,-0.125 q 0,1.29687 -0.34375,2.375 -0.34375,1.07812 -1.01563,1.875 -0.67187,0.78125 -1.6875,1.21875 -1.01562,0.4375 -2.34375,0.4375 -1.3125,0 -2.28125,-0.375 -0.95312,-0.39063 -1.60937,-1.125 -0.64063,-0.75 -0.95313,-1.79688 -0.3125,-1.0625 -0.3125,-2.39062 0,-1.29688 0.32813,-2.375 0.32812,-1.09375 1,-1.875 0.6875,-0.78125 1.6875,-1.21875 1.01562,-0.4375 2.35937,-0.4375 1.29688,0 2.26563,0.39062 0.96875,0.39063 1.60937,1.125 0.64063,0.73438 0.96875,1.79688 0.32813,1.04687 0.32813,2.375 z m -2.04688,0.125 q 0,-0.84375 -0.15625,-1.60938 -0.15625,-0.76562 -0.53125,-1.32812 -0.35937,-0.57813 -0.98437,-0.90625 -0.60938,-0.34375 -1.53125,-0.34375 -0.85938,0 -1.48438,0.3125 -0.60937,0.29687 -1.01562,0.85937 -0.39063,0.54688 -0.59375,1.3125 -0.1875,0.76563 -0.1875,1.65625 0,0.875 0.15625,1.64063 0.17187,0.75 0.53125,1.32812 0.375,0.5625 0.98437,0.90625 0.625,0.32813 1.5625,0.32813 0.84375,0 1.45313,-0.29688 0.625,-0.3125 1.01562,-0.85937 0.40625,-0.5625 0.59375,-1.3125 0.1875,-0.76563 0.1875,-1.6875 z m 13.96875,5.26562 q 0,0.0937 -0.0469,0.15625 -0.0469,0.0625 -0.15625,0.125 -0.0937,0.0469 -0.28125,0.0625 -0.1875,0.0312 -0.46875,0.0312 -0.29688,0 -0.48438,-0.0312 -0.1875,-0.0156 -0.29687,-0.0625 -0.10938,-0.0625 -0.15625,-0.125 -0.0469,-0.0625 -0.0469,-0.15625 v -6.17187 q 0,-0.90625 -0.14062,-1.45313 -0.14063,-0.54687 -0.40625,-0.9375 -0.26563,-0.40625 -0.70313,-0.60937 -0.42187,-0.21875 -0.98437,-0.21875 -0.71875,0 -1.45313,0.51562 -0.71875,0.51563 -1.51562,1.5 v 7.375 q 0,0.0937 -0.0469,0.15625 -0.0469,0.0625 -0.15625,0.125 -0.10937,0.0469 -0.29687,0.0625 -0.1875,0.0312 -0.48438,0.0312 -0.28125,0 -0.46875,-0.0312 -0.1875,-0.0156 -0.29687,-0.0625 -0.10938,-0.0625 -0.15625,-0.125 -0.0312,-0.0625 -0.0312,-0.15625 v -10.54687 q 0,-0.0937 0.0312,-0.15625 0.0312,-0.0625 0.14062,-0.10938 0.10938,-0.0625 0.26563,-0.0781 0.17187,-0.0156 0.4375,-0.0156 0.26562,0 0.42187,0.0156 0.17188,0.0156 0.26563,0.0781 0.0937,0.0469 0.14062,0.10938 0.0469,0.0625 0.0469,0.15625 v 1.39062 q 0.89062,-0.98437 1.76562,-1.45312 0.89063,-0.46875 1.79688,-0.46875 1.04687,0 1.76562,0.35937 0.71875,0.35938 1.15625,0.96875 0.45313,0.59375 0.64063,1.39063 0.20312,0.79687 0.20312,1.92187 z m 11.46875,0.0156 q 0,0.14062 -0.0937,0.21875 -0.0937,0.0625 -0.26562,0.0937 -0.15625,0.0469 -0.46875,0.0469 -0.29688,0 -0.48438,-0.0469 -0.1875,-0.0312 -0.26562,-0.0937 -0.0781,-0.0781 -0.0781,-0.21875 v -1.0625 q -0.6875,0.75 -1.54687,1.15625 -0.84375,0.40625 -1.79688,0.40625 -0.82812,0 -1.5,-0.21875 -0.67187,-0.21875 -1.15625,-0.625 -0.46875,-0.40625 -0.73437,-1 -0.26563,-0.60938 -0.26563,-1.35938 0,-0.89062 0.35938,-1.54687 0.375,-0.65625 1.04687,-1.09375 0.6875,-0.4375 1.67188,-0.65625 0.98437,-0.21875 2.20312,-0.21875 h 1.45313 v -0.8125 q 0,-0.60938 -0.125,-1.07813 -0.125,-0.46875 -0.42188,-0.78125 -0.28125,-0.3125 -0.73437,-0.46875 -0.45313,-0.15625 -1.125,-0.15625 -0.71875,0 -1.29688,0.17188 -0.5625,0.17187 -0.98437,0.375 -0.42188,0.20312 -0.71875,0.375 -0.28125,0.17187 -0.42188,0.17187 -0.0937,0 -0.17187,-0.0469 -0.0625,-0.0469 -0.125,-0.14063 -0.0469,-0.0937 -0.0781,-0.23437 -0.0156,-0.15625 -0.0156,-0.32813 0,-0.29687 0.0312,-0.46875 0.0469,-0.17187 0.20312,-0.3125 0.17188,-0.15625 0.54688,-0.35937 0.39062,-0.21875 0.89062,-0.375 0.51563,-0.17188 1.10938,-0.28125 0.59375,-0.125 1.20312,-0.125 1.14063,0 1.9375,0.26562 0.79688,0.25 1.28125,0.75 0.5,0.5 0.71875,1.25 0.21875,0.73438 0.21875,1.71875 z m -1.92187,-4.8125 h -1.64063 q -0.79687,0 -1.39062,0.14062 -0.57813,0.125 -0.96875,0.39063 -0.39063,0.26562 -0.57813,0.64062 -0.17187,0.35938 -0.17187,0.84375 0,0.8125 0.51562,1.29688 0.53125,0.48437 1.46875,0.48437 0.75,0 1.40625,-0.375 0.65625,-0.39062 1.35938,-1.1875 z m 7.41796,4.79687 q 0,0.0937 -0.0469,0.15625 -0.0469,0.0625 -0.15625,0.125 -0.10938,0.0469 -0.29688,0.0625 -0.1875,0.0312 -0.48437,0.0312 -0.28125,0 -0.46875,-0.0312 -0.1875,-0.0156 -0.29688,-0.0625 -0.10937,-0.0625 -0.15625,-0.125 -0.0312,-0.0625 -0.0312,-0.15625 v -15.65625 q 0,-0.0937 0.0312,-0.15625 0.0469,-0.0781 0.15625,-0.125 0.10938,-0.0469 0.29688,-0.0625 0.1875,-0.0312 0.46875,-0.0312 0.29687,0 0.48437,0.0312 0.1875,0.0156 0.29688,0.0625 0.10937,0.0469 0.15625,0.125 0.0469,0.0625 0.0469,0.15625 z"
     fill="#000000" />
  <path
     id="path315"
     fill-rule="evenodd"
     d="M 683.6341,31.487663 H 873.61835 V 70.259315 H 683.6341 Z"
     fill-opacity="0"
     fill="#000000" />
</svg>
