<?xml version="1.0" encoding="UTF-8" standalone="no"?>
<svg
   xmlns:dc="http://purl.org/dc/elements/1.1/"
   xmlns:cc="http://creativecommons.org/ns#"
   xmlns:rdf="http://www.w3.org/1999/02/22-rdf-syntax-ns#"
   xmlns:svg="http://www.w3.org/2000/svg"
   xmlns="http://www.w3.org/2000/svg"
   xmlns:sodipodi="http://sodipodi.sourceforge.net/DTD/sodipodi-0.dtd"
   xmlns:inkscape="http://www.inkscape.org/namespaces/inkscape"
   version="1.1"
   viewBox="0.0 0.0 1280.0 720.0"
   fill="none"
   stroke="none"
   stroke-linecap="square"
   stroke-miterlimit="10"
   id="svg345"
   sodipodi:docname="low_energy_delta.svg"
   inkscape:version="1.0 (4035a4fb49, 2020-05-01)">
  <metadata
     id="metadata351">
    <rdf:RDF>
      <cc:Work
         rdf:about="">
        <dc:format>image/svg+xml</dc:format>
        <dc:type
           rdf:resource="http://purl.org/dc/dcmitype/StillImage" />
      </cc:Work>
    </rdf:RDF>
  </metadata>
  <defs
     id="defs349" />
  <sodipodi:namedview
     inkscape:document-rotation="0"
     pagecolor="#ffffff"
     bordercolor="#666666"
     borderopacity="1"
     objecttolerance="10"
     gridtolerance="10"
     guidetolerance="10"
     inkscape:pageopacity="0"
     inkscape:pageshadow="2"
     inkscape:window-width="1920"
     inkscape:window-height="1001"
     id="namedview347"
     showgrid="false"
     inkscape:zoom="0.94375"
     inkscape:cx="731.39563"
     inkscape:cy="275.23179"
     inkscape:window-x="554"
     inkscape:window-y="1359"
     inkscape:window-maximized="1"
     inkscape:current-layer="svg345" />
  <clipPath
     id="p3.0">
    <path
       d="m0 0l1280.0 0l0 720.0l-1280.0 0l0 -720.0z"
       clip-rule="nonzero"
       id="path2" />
  </clipPath>
  <path
     id="path5"
     fill-rule="evenodd"
     d="M 332.71523,252.18543 H 548.87422 V 498.54305 H 332.71523 Z"
     fill="#ffffff"
     style="stroke-width:0.24038" />
  <path
     id="path129"
     fill-rule="evenodd"
     d="m 392.75432,409.23975 c -3.32935,-2.7964 -6.65875,-5.59262 -3.71649,-8.20261 2.94214,-2.61 13.93683,-6.2144 21.36981,-7.45715 7.43298,-1.24277 20.2085,-1.61578 23.22815,0 3.01971,1.61578 -1.04529,5.65495 -5.11017,9.69412"
     fill="#548135"
     inkscape:export-filename="C:\Users\sfjones\Documents\Manuscripts\Global typology\low_energy_delta.png"
     inkscape:export-xdpi="300"
     inkscape:export-ydpi="300" />
  <path
     id="path131"
     fill-rule="evenodd"
     d="m 392.75432,409.23975 c -3.32935,-2.7964 -6.65875,-5.59262 -3.71649,-8.20261 2.94214,-2.61 13.93683,-6.2144 21.36981,-7.45715 7.43298,-1.24277 20.2085,-1.61578 23.22815,0 3.01971,1.61578 -1.04529,5.65495 -5.11017,9.69412"
     stroke-linecap="butt"
     stroke-miterlimit="800"
     stroke-width="1"
     stroke="#000000"
     inkscape:export-filename="C:\Users\sfjones\Documents\Manuscripts\Global typology\low_energy_delta.png"
     inkscape:export-xdpi="300"
     inkscape:export-ydpi="300" />
  <path
     id="path133"
     fill-rule="evenodd"
     d="m 391.82532,409.98562 c 10.25897,-4.78503 20.51813,-9.57005 27.40906,-9.69434 6.89093,-0.12426 12.46564,4.34987 13.93683,8.94848 1.47113,4.59861 -5.11011,18.64279 -5.11011,18.64279 v 0"
     fill="#d7a979"
     inkscape:export-filename="C:\Users\sfjones\Documents\Manuscripts\Global typology\low_energy_delta.png"
     inkscape:export-xdpi="300"
     inkscape:export-ydpi="300" />
  <path
     id="path135"
     fill-rule="evenodd"
     d="m 391.82532,409.98562 c 10.25897,-4.78503 20.51813,-9.57005 27.40906,-9.69434 6.89093,-0.12426 12.46564,4.34987 13.93683,8.94848 1.47113,4.59861 -5.11011,18.64279 -5.11011,18.64279 v 0"
     stroke-linecap="butt"
     stroke-miterlimit="800"
     stroke-width="1.33333"
     stroke="#000000"
     inkscape:export-filename="C:\Users\sfjones\Documents\Manuscripts\Global typology\low_energy_delta.png"
     inkscape:export-xdpi="300"
     inkscape:export-ydpi="300" />
  <path
     id="path137"
     fill-rule="evenodd"
     d="m 441.53342,390.59718 c -4.5683,-1.86435 -9.13641,-3.72849 -7.43304,-6.7113 1.70343,-2.98282 12.93035,-10.68854 17.65332,-11.18564 4.72296,-0.4971 9.13641,5.59282 10.68493,8.20282 1.54859,2.60998 0.0775,5.03357 -1.39367,7.45715"
     fill="#548135"
     inkscape:export-filename="C:\Users\sfjones\Documents\Manuscripts\Global typology\low_energy_delta.png"
     inkscape:export-xdpi="300"
     inkscape:export-ydpi="300" />
  <path
     id="path139"
     fill-rule="evenodd"
     d="m 441.53342,390.59718 c -4.5683,-1.86435 -9.13641,-3.72849 -7.43304,-6.7113 1.70343,-2.98282 12.93035,-10.68854 17.65332,-11.18564 4.72296,-0.4971 9.13641,5.59282 10.68493,8.20282 1.54859,2.60998 0.0775,5.03357 -1.39367,7.45715"
     stroke-linecap="butt"
     stroke-miterlimit="800"
     stroke-width="1"
     stroke="#000000"
     inkscape:export-filename="C:\Users\sfjones\Documents\Manuscripts\Global typology\low_energy_delta.png"
     inkscape:export-xdpi="300"
     inkscape:export-ydpi="300" />
  <path
     id="path141"
     fill-rule="evenodd"
     d="m 473.58812,389.85151 c 0.65808,-4.03917 1.31616,-8.07834 5.11011,-7.45696 3.79388,0.62139 14.71112,7.20841 17.65338,11.18544 2.94232,3.97703 1.47113,8.32689 0,12.67695"
     fill="#548135"
     inkscape:export-filename="C:\Users\sfjones\Documents\Manuscripts\Global typology\low_energy_delta.png"
     inkscape:export-xdpi="300"
     inkscape:export-ydpi="300" />
  <path
     id="path143"
     fill-rule="evenodd"
     d="m 473.58812,389.85151 c 0.65808,-4.03917 1.31616,-8.07834 5.11011,-7.45696 3.79388,0.62139 14.71112,7.20841 17.65338,11.18544 2.94232,3.97703 1.47113,8.32689 0,12.67695"
     stroke-linecap="butt"
     stroke-miterlimit="800"
     stroke-width="1"
     stroke="#000000"
     inkscape:export-filename="C:\Users\sfjones\Documents\Manuscripts\Global typology\low_energy_delta.png"
     inkscape:export-xdpi="300"
     inkscape:export-ydpi="300" />
  <path
     id="path145"
     fill-rule="evenodd"
     d="m 419.69892,384.63152 c -4.80054,1.49152 -16.10486,5.21999 -20.90527,4.47433 -4.80042,-0.74565 -7.43299,-5.84136 -7.89753,-8.94847 -0.46453,-3.10708 3.01972,-8.57563 5.11017,-9.69411 2.09052,-1.11849 4.87799,3.35564 7.43305,2.98282 2.55505,-0.37283 6.89093,-2.73428 7.89752,-5.21999 1.00647,-2.48572 -3.56165,-9.69412 -1.85828,-9.69412 1.70343,0 9.0589,6.08992 12.07856,9.69412 3.01971,3.6042 6.42639,9.19702 6.0393,11.93128 -0.38714,2.73427 -3.09698,2.98262 -7.89752,4.47414 z"
     fill="#548135"
     inkscape:export-filename="C:\Users\sfjones\Documents\Manuscripts\Global typology\low_energy_delta.png"
     inkscape:export-xdpi="300"
     inkscape:export-ydpi="300" />
  <path
     id="path147"
     fill-rule="evenodd"
     d="m 419.69892,384.63152 c -4.80054,1.49152 -16.10486,5.21999 -20.90527,4.47433 -4.80042,-0.74565 -7.43299,-5.84136 -7.89753,-8.94847 -0.46453,-3.10708 3.01972,-8.57563 5.11017,-9.69411 2.09052,-1.11849 4.87799,3.35564 7.43305,2.98282 2.55505,-0.37283 6.89093,-2.73428 7.89752,-5.21999 1.00647,-2.48572 -3.56165,-9.69412 -1.85828,-9.69412 1.70343,0 9.0589,6.08992 12.07856,9.69412 3.01971,3.6042 6.42639,9.19702 6.0393,11.93128 -0.38714,2.73427 -3.09698,2.98262 -7.89752,4.47414 z"
     stroke-linecap="butt"
     stroke-miterlimit="800"
     stroke-width="1"
     stroke="#000000"
     inkscape:export-filename="C:\Users\sfjones\Documents\Manuscripts\Global typology\low_energy_delta.png"
     inkscape:export-xdpi="300"
     inkscape:export-ydpi="300" />
  <path
     id="path149"
     fill-rule="evenodd"
     d="m 400.18732,355.54916 c -4.10358,0.62138 -8.74927,1.11848 -7.89752,-2.98282 0.85168,-4.1013 5.80701,-20.1341 13.00775,-21.62541 7.20074,-1.49131 24.69922,6.33847 30.19653,12.67695 5.49732,6.33847 3.71637,23.86257 2.78729,25.35388 -0.92901,1.49131 -4.80041,-13.04977 -8.36206,-16.40542 -3.56164,-3.35565 -8.12976,-4.34986 -13.00775,-3.72848 -4.87793,0.62138 -12.6206,6.08992 -16.72424,6.7113 z"
     fill="#548135"
     inkscape:export-filename="C:\Users\sfjones\Documents\Manuscripts\Global typology\low_energy_delta.png"
     inkscape:export-xdpi="300"
     inkscape:export-ydpi="300" />
  <path
     id="path151"
     fill-rule="evenodd"
     d="m 400.18732,355.54916 c -4.10358,0.62138 -8.74927,1.11848 -7.89752,-2.98282 0.85168,-4.1013 5.80701,-20.1341 13.00775,-21.62541 7.20074,-1.49131 24.69922,6.33847 30.19653,12.67695 5.49732,6.33847 3.71637,23.86257 2.78729,25.35388 -0.92901,1.49131 -4.80041,-13.04977 -8.36206,-16.40542 -3.56164,-3.35565 -8.12976,-4.34986 -13.00775,-3.72848 -4.87793,0.62138 -12.6206,6.08992 -16.72424,6.7113 z"
     stroke-linecap="butt"
     stroke-miterlimit="800"
     stroke-width="1"
     stroke="#000000"
     inkscape:export-filename="C:\Users\sfjones\Documents\Manuscripts\Global typology\low_energy_delta.png"
     inkscape:export-xdpi="300"
     inkscape:export-ydpi="300" />
  <path
     id="path153"
     fill-rule="evenodd"
     d="m 447.57262,362.26046 c -3.32941,-4.84716 -5.41992,-20.50693 -3.71649,-23.11692 1.70343,-2.61 10.06549,4.35005 13.93683,7.45715 3.87134,3.1071 8.2846,7.58143 9.2912,11.18563 1.00665,3.60421 0.0776,9.44558 -3.25183,10.43979 -3.32941,0.9942 -12.9303,-1.11849 -16.25971,-5.96565 z"
     fill="#548135"
     inkscape:export-filename="C:\Users\sfjones\Documents\Manuscripts\Global typology\low_energy_delta.png"
     inkscape:export-xdpi="300"
     inkscape:export-ydpi="300" />
  <path
     id="path155"
     fill-rule="evenodd"
     d="m 447.57262,362.26046 c -3.32941,-4.84716 -5.41992,-20.50693 -3.71649,-23.11692 1.70343,-2.61 10.06549,4.35005 13.93683,7.45715 3.87134,3.1071 8.2846,7.58143 9.2912,11.18563 1.00665,3.60421 0.0776,9.44558 -3.25183,10.43979 -3.32941,0.9942 -12.9303,-1.11849 -16.25971,-5.96565 z"
     stroke-linecap="butt"
     stroke-miterlimit="800"
     stroke-width="1"
     stroke="#000000"
     inkscape:export-filename="C:\Users\sfjones\Documents\Manuscripts\Global typology\low_energy_delta.png"
     inkscape:export-xdpi="300"
     inkscape:export-ydpi="300" />
  <path
     id="path157"
     fill-rule="evenodd"
     d="m 471.72987,364.49763 c -1.85822,5.21999 -1.85822,16.40543 -0.46454,17.15108 1.39374,0.74565 6.1167,-8.57564 8.8266,-12.67695 2.7099,-4.10131 7.0459,-8.82419 7.43298,-11.93128 0.38715,-3.10711 -2.40033,-7.95427 -5.11016,-6.71131 -2.7099,1.24276 -8.8266,8.94847 -10.68488,14.16846 z"
     fill="#548135"
     inkscape:export-filename="C:\Users\sfjones\Documents\Manuscripts\Global typology\low_energy_delta.png"
     inkscape:export-xdpi="300"
     inkscape:export-ydpi="300" />
  <path
     id="path159"
     fill-rule="evenodd"
     d="m 471.72987,364.49763 c -1.85822,5.21999 -1.85822,16.40543 -0.46454,17.15108 1.39374,0.74565 6.1167,-8.57564 8.8266,-12.67695 2.7099,-4.10131 7.0459,-8.82419 7.43298,-11.93128 0.38715,-3.10711 -2.40033,-7.95427 -5.11016,-6.71131 -2.7099,1.24276 -8.8266,8.94847 -10.68488,14.16846 z"
     stroke-linecap="butt"
     stroke-miterlimit="800"
     stroke-width="1"
     stroke="#000000"
     inkscape:export-filename="C:\Users\sfjones\Documents\Manuscripts\Global typology\low_energy_delta.png"
     inkscape:export-xdpi="300"
     inkscape:export-ydpi="300" />
  <path
     id="path161"
     fill-rule="evenodd"
     d="m 461.50947,336.16071 c -0.9292,2.85855 4.56824,8.32709 7.43298,8.20281 2.86475,-0.12427 8.82672,-6.08992 9.7558,-8.94846 0.92914,-2.85856 -1.31634,-8.20282 -4.18103,-8.20282 -2.86474,0 -12.07861,6.08992 -13.00775,8.94847 z"
     fill="#548135"
     inkscape:export-filename="C:\Users\sfjones\Documents\Manuscripts\Global typology\low_energy_delta.png"
     inkscape:export-xdpi="300"
     inkscape:export-ydpi="300" />
  <path
     id="path163"
     fill-rule="evenodd"
     d="m 461.50947,336.16071 c -0.9292,2.85855 4.56824,8.32709 7.43298,8.20281 2.86475,-0.12427 8.82672,-6.08992 9.7558,-8.94846 0.92914,-2.85856 -1.31634,-8.20282 -4.18103,-8.20282 -2.86474,0 -12.07861,6.08992 -13.00775,8.94847 z"
     stroke-linecap="butt"
     stroke-miterlimit="800"
     stroke-width="1"
     stroke="#000000"
     inkscape:export-filename="C:\Users\sfjones\Documents\Manuscripts\Global typology\low_energy_delta.png"
     inkscape:export-xdpi="300"
     inkscape:export-ydpi="300" />
  <path
     id="path165"
     fill-rule="evenodd"
     d="m 435.95862,327.21225 c -1.62598,-4.72289 -7.82025,-14.91411 -6.96844,-18.64259 0.85162,-3.72848 9.21392,-5.96564 12.07867,-3.72848 2.86481,2.23717 5.49719,11.80701 5.11005,17.15128 -0.38709,5.34426 -5.65217,13.54707 -7.43299,14.91411 -1.78082,1.36703 -1.16131,-4.97144 -2.78729,-9.69432 z"
     fill="#548135"
     inkscape:export-filename="C:\Users\sfjones\Documents\Manuscripts\Global typology\low_energy_delta.png"
     inkscape:export-xdpi="300"
     inkscape:export-ydpi="300" />
  <path
     id="path167"
     fill-rule="evenodd"
     d="m 435.95862,327.21225 c -1.62598,-4.72289 -7.82025,-14.91411 -6.96844,-18.64259 0.85162,-3.72848 9.21392,-5.96564 12.07867,-3.72848 2.86481,2.23717 5.49719,11.80701 5.11005,17.15128 -0.38709,5.34426 -5.65217,13.54707 -7.43299,14.91411 -1.78082,1.36703 -1.16131,-4.97144 -2.78729,-9.69432 z"
     stroke-linecap="butt"
     stroke-miterlimit="800"
     stroke-width="1"
     stroke="#000000"
     inkscape:export-filename="C:\Users\sfjones\Documents\Manuscripts\Global typology\low_energy_delta.png"
     inkscape:export-xdpi="300"
     inkscape:export-ydpi="300" />
  <path
     id="path169"
     fill-rule="evenodd"
     d="m 452.68287,309.31551 c -3.71649,-1.98861 -4.25848,-9.19721 -4.18103,-13.42279 0.0774,-4.22559 0.92908,-10.19143 4.64557,-11.93129 3.71649,-1.73986 13.00775,-1.36704 17.65326,1.49151 4.64557,2.85855 9.13641,10.3155 10.22046,15.65976 1.08404,5.34427 -1.16144,13.29833 -3.71649,16.40542 -2.55506,3.10711 -8.59436,0 -11.61402,2.23717 -3.01971,2.23717 -5.26507,11.68274 -6.50397,11.18563 -1.23883,-0.4971 -2.86474,-10.31569 -0.92907,-14.16845 1.93573,-3.85276 13.39489,-7.70571 12.54309,-8.94847 -0.85162,-1.24276 -14.40131,3.48013 -18.1178,1.49151 z"
     fill="#548135"
     inkscape:export-filename="C:\Users\sfjones\Documents\Manuscripts\Global typology\low_energy_delta.png"
     inkscape:export-xdpi="300"
     inkscape:export-ydpi="300" />
  <path
     id="path171"
     fill-rule="evenodd"
     d="m 452.68287,309.31551 c -3.71649,-1.98861 -4.25848,-9.19721 -4.18103,-13.42279 0.0774,-4.22559 0.92908,-10.19143 4.64557,-11.93129 3.71649,-1.73986 13.00775,-1.36704 17.65326,1.49151 4.64557,2.85855 9.13641,10.3155 10.22046,15.65976 1.08404,5.34427 -1.16144,13.29833 -3.71649,16.40542 -2.55506,3.10711 -8.59436,0 -11.61402,2.23717 -3.01971,2.23717 -5.26507,11.68274 -6.50397,11.18563 -1.23883,-0.4971 -2.86474,-10.31569 -0.92907,-14.16845 1.93573,-3.85276 13.39489,-7.70571 12.54309,-8.94847 -0.85162,-1.24276 -14.40131,3.48013 -18.1178,1.49151 z"
     stroke-linecap="butt"
     stroke-miterlimit="800"
     stroke-width="1"
     stroke="#000000"
     inkscape:export-filename="C:\Users\sfjones\Documents\Manuscripts\Global typology\low_energy_delta.png"
     inkscape:export-xdpi="300"
     inkscape:export-ydpi="300" />
  <path
     id="path173"
     fill-rule="evenodd"
     d="m 442.46242,290.67273 c 2.47766,-2.73427 2.24548,-11.18563 0.46466,-12.67695 -1.78082,-1.49131 -8.67187,0.99441 -11.14947,3.72868 -2.47767,2.73427 -4.56818,11.43419 -3.7165,12.67694 0.85163,1.24276 11.92371,-0.9944 14.40131,-3.72867 z"
     fill="#548135"
     inkscape:export-filename="C:\Users\sfjones\Documents\Manuscripts\Global typology\low_energy_delta.png"
     inkscape:export-xdpi="300"
     inkscape:export-ydpi="300" />
  <path
     id="path175"
     fill-rule="evenodd"
     d="m 442.46242,290.67273 c 2.47766,-2.73427 2.24548,-11.18563 0.46466,-12.67695 -1.78082,-1.49131 -8.67187,0.99441 -11.14947,3.72868 -2.47767,2.73427 -4.56818,11.43419 -3.7165,12.67694 0.85163,1.24276 11.92371,-0.9944 14.40131,-3.72867 z"
     stroke-linecap="butt"
     stroke-miterlimit="800"
     stroke-width="1"
     stroke="#000000"
     inkscape:export-filename="C:\Users\sfjones\Documents\Manuscripts\Global typology\low_energy_delta.png"
     inkscape:export-xdpi="300"
     inkscape:export-ydpi="300" />
  <path
     id="path177"
     fill-rule="evenodd"
     d="m 435.95862,429.37385 c 2.20667,-5.15784 4.41327,-10.31549 4.64557,-15.65976 0.23224,-5.34427 -4.56818,-11.93149 -3.25183,-16.40562 1.31628,-4.47414 4.02618,-9.56984 11.14947,-10.43978 7.12329,-0.86993 22.84082,1.61579 31.59009,5.21999 8.74933,3.6042 17.11139,11.93129 20.90527,16.40542 3.79395,4.47414 1.85828,10.43998 1.85828,10.43998 0.23224,1.86433 -0.11615,1.3049 -0.46454,0.74565"
     fill="#d7a979"
     inkscape:export-filename="C:\Users\sfjones\Documents\Manuscripts\Global typology\low_energy_delta.png"
     inkscape:export-xdpi="300"
     inkscape:export-ydpi="300" />
  <path
     id="path179"
     fill-rule="evenodd"
     d="m 435.95862,429.37385 c 2.20667,-5.15784 4.41327,-10.31549 4.64557,-15.65976 0.23224,-5.34427 -4.56818,-11.93149 -3.25183,-16.40562 1.31628,-4.47414 4.02618,-9.56984 11.14947,-10.43978 7.12329,-0.86993 22.84082,1.61579 31.59009,5.21999 8.74933,3.6042 17.11139,11.93129 20.90527,16.40542 3.79395,4.47414 1.85828,10.43998 1.85828,10.43998 0.23224,1.86433 -0.11615,1.3049 -0.46454,0.74565"
     stroke-linecap="butt"
     stroke-miterlimit="800"
     stroke-width="1.33333"
     stroke="#000000"
     inkscape:export-filename="C:\Users\sfjones\Documents\Manuscripts\Global typology\low_energy_delta.png"
     inkscape:export-xdpi="300"
     inkscape:export-ydpi="300" />
  <path
     id="path181"
     fill-rule="evenodd"
     d="m 383.46312,398.79998 c 0.92902,-8.26495 1.85822,-16.52969 2.32275,-25.35388 0.46454,-8.8242 -1.54846,-19.26398 0.46466,-27.59107 2.01307,-8.32708 6.65876,-17.89712 11.61402,-22.37126 4.95526,-4.47414 14.9433,-0.62138 18.11786,-4.47414 3.1745,-3.85275 -0.92908,-10.43977 0.92914,-18.64258 1.85827,-8.20281 2.55505,-25.10534 10.22033,-30.57388 7.66529,-5.46854 25.1637,-4.97143 35.77124,-2.23716 10.60755,2.73427 23.30561,8.45136 27.87378,18.64258 4.56812,10.19123 -1.70343,29.4554 -0.46454,42.50516 1.23883,13.04978 5.03278,25.3539 7.89753,35.79388 2.86486,10.43977 9.29126,26.8454 9.29126,26.8454 v 0"
     fill-opacity="0"
     fill="#000000"
     inkscape:export-filename="C:\Users\sfjones\Documents\Manuscripts\Global typology\low_energy_delta.png"
     inkscape:export-xdpi="300"
     inkscape:export-ydpi="300" />
  <path
     id="path183"
     fill-rule="evenodd"
     d="m 383.46312,398.79998 c 0.92902,-8.26495 1.85822,-16.52969 2.32275,-25.35388 0.46454,-8.8242 -1.54846,-19.26398 0.46466,-27.59107 2.01307,-8.32708 6.65876,-17.89712 11.61402,-22.37126 4.95526,-4.47414 14.9433,-0.62138 18.11786,-4.47414 3.1745,-3.85275 -0.92908,-10.43977 0.92914,-18.64258 1.85827,-8.20281 2.55505,-25.10534 10.22033,-30.57388 7.66529,-5.46854 25.1637,-4.97143 35.77124,-2.23716 10.60755,2.73427 23.30561,8.45136 27.87378,18.64258 4.56812,10.19123 -1.70343,29.4554 -0.46454,42.50516 1.23883,13.04978 5.03278,25.3539 7.89753,35.79388 2.86486,10.43977 9.29126,26.8454 9.29126,26.8454 v 0"
     stroke-dasharray="5.33333, 4"
     stroke-linecap="butt"
     stroke-miterlimit="800"
     stroke-width="1.33333"
     stroke="#000000"
     inkscape:export-filename="C:\Users\sfjones\Documents\Manuscripts\Global typology\low_energy_delta.png"
     inkscape:export-xdpi="300"
     inkscape:export-ydpi="300" />
  <path
     id="path317"
     fill-rule="nonzero"
     d="m 364.49586,467.71889 q 0,0.23438 -0.0312,0.39063 -0.0156,0.15625 -0.0625,0.26562 -0.0469,0.10938 -0.125,0.17188 -0.0781,0.0469 -0.1875,0.0469 h -6.70313 q -0.26562,0 -0.51562,-0.17188 -0.23438,-0.1875 -0.23438,-0.65625 v -14.03128 q 0,-0.0937 0.0469,-0.15625 0.0469,-0.0781 0.15625,-0.10937 0.125,-0.0469 0.32812,-0.0781 0.20313,-0.0312 0.48438,-0.0312 0.28125,0 0.46875,0.0312 0.20312,0.0312 0.3125,0.0781 0.125,0.0312 0.17187,0.10937 0.0469,0.0625 0.0469,0.15625 v 13.10938 h 5.4375 q 0.10937,0 0.1875,0.0625 0.0781,0.0469 0.125,0.15625 0.0469,0.0937 0.0625,0.26562 0.0312,0.15625 0.0312,0.39063 z m 11.82422,-4.8125 q 0,1.29688 -0.34375,2.375 -0.34375,1.07813 -1.01563,1.875 -0.67187,0.78125 -1.6875,1.21875 -1.01562,0.4375 -2.34375,0.4375 -1.3125,0 -2.28125,-0.375 -0.95312,-0.39062 -1.60937,-1.125 -0.64063,-0.75 -0.95313,-1.79687 -0.3125,-1.0625 -0.3125,-2.39063 0,-1.29687 0.32813,-2.375 0.32812,-1.09375 1,-1.875 0.6875,-0.78125 1.6875,-1.21875 1.01562,-0.4375 2.35937,-0.4375 1.29688,0 2.26563,0.39063 0.96875,0.39062 1.60937,1.125 0.64063,0.73437 0.96875,1.79687 0.32813,1.04688 0.32813,2.375 z m -2.04688,0.125 q 0,-0.84375 -0.15625,-1.60937 -0.15625,-0.76563 -0.53125,-1.32813 -0.35937,-0.57812 -0.98437,-0.90625 -0.60938,-0.34375 -1.53125,-0.34375 -0.85938,0 -1.48438,0.3125 -0.60937,0.29688 -1.01562,0.85938 -0.39063,0.54687 -0.59375,1.3125 -0.1875,0.76562 -0.1875,1.65625 0,0.875 0.15625,1.64062 0.17187,0.75 0.53125,1.32813 0.375,0.5625 0.98437,0.90625 0.625,0.32812 1.5625,0.32812 0.84375,0 1.45313,-0.29687 0.625,-0.3125 1.01562,-0.85938 0.40625,-0.5625 0.59375,-1.3125 0.1875,-0.76562 0.1875,-1.6875 z m 19.54688,-5.29687 q 0,0.0781 -0.0312,0.20312 -0.0156,0.10938 -0.0781,0.28125 l -3.09375,10.01563 q -0.0469,0.14062 -0.125,0.21875 -0.0625,0.0781 -0.20312,0.125 -0.14063,0.0469 -0.375,0.0625 -0.23438,0.0312 -0.57813,0.0312 -0.35937,0 -0.60937,-0.0312 -0.25,-0.0156 -0.40625,-0.0625 -0.14063,-0.0625 -0.21875,-0.14063 -0.0625,-0.0781 -0.0937,-0.20312 l -2.21875,-7.64063 -0.0156,-0.10937 -0.0312,0.10937 -2.04687,7.64063 q -0.0312,0.14062 -0.10938,0.21875 -0.0781,0.0781 -0.23437,0.125 -0.14063,0.0469 -0.39063,0.0625 -0.23437,0.0312 -0.59375,0.0312 -0.35937,0 -0.59375,-0.0312 -0.21875,-0.0156 -0.375,-0.0625 -0.14062,-0.0625 -0.21875,-0.14063 -0.0625,-0.0781 -0.0937,-0.20312 l -3.07812,-10.01563 q -0.0625,-0.17187 -0.0937,-0.28125 -0.0156,-0.125 -0.0156,-0.20312 0,-0.10938 0.0469,-0.17188 0.0469,-0.0625 0.15625,-0.10937 0.10937,-0.0469 0.29687,-0.0469 0.1875,-0.0156 0.45313,-0.0156 0.32812,0 0.53125,0.0156 0.20312,0.0156 0.29687,0.0625 0.10938,0.0312 0.15625,0.10937 0.0469,0.0781 0.0937,0.1875 l 2.53125,8.6875 0.0312,0.10938 0.0156,-0.10938 2.34375,-8.6875 q 0.0156,-0.10937 0.0625,-0.1875 0.0625,-0.0781 0.15625,-0.10937 0.10937,-0.0469 0.29687,-0.0625 0.1875,-0.0156 0.46875,-0.0156 0.28125,0 0.46875,0.0156 0.1875,0.0156 0.28125,0.0625 0.10938,0.0312 0.15625,0.10937 0.0469,0.0625 0.0781,0.15625 l 2.51562,8.71875 0.0156,0.10938 0.0156,-0.10938 2.51563,-8.6875 q 0.0156,-0.10937 0.0625,-0.1875 0.0625,-0.0781 0.17187,-0.10937 0.10938,-0.0469 0.29688,-0.0625 0.20312,-0.0156 0.5,-0.0156 0.28125,0 0.45312,0.0156 0.17188,0 0.26563,0.0469 0.10937,0.0469 0.14062,0.10937 0.0469,0.0625 0.0469,0.17188 z m 16.48828,10.03125 q 0,0.20312 -0.0312,0.35937 -0.0156,0.15625 -0.0781,0.26563 -0.0469,0.10937 -0.125,0.15625 -0.0781,0.0469 -0.17187,0.0469 h -7.28125 q -0.26563,0 -0.51563,-0.17188 -0.23437,-0.1875 -0.23437,-0.65625 v -13.51562 q 0,-0.45312 0.23437,-0.64062 0.25,-0.1875 0.51563,-0.1875 h 7.20312 q 0.0937,0 0.15625,0.0469 0.0781,0.0469 0.125,0.15625 0.0469,0.10937 0.0781,0.26562 0.0312,0.15625 0.0312,0.39063 0,0.21875 -0.0312,0.375 -0.0312,0.15625 -0.0781,0.26562 -0.0469,0.0937 -0.125,0.14063 -0.0625,0.0469 -0.15625,0.0469 h -5.9375 v 4.75 h 5.09375 q 0.0937,0 0.15625,0.0625 0.0781,0.0469 0.125,0.14062 0.0625,0.0937 0.0781,0.26563 0.0312,0.15625 0.0312,0.375 0,0.21875 -0.0312,0.375 -0.0156,0.14062 -0.0781,0.23437 -0.0469,0.0937 -0.125,0.14063 -0.0625,0.0312 -0.15625,0.0312 h -5.09375 v 5.4375 h 6.01563 q 0.0937,0 0.17187,0.0469 0.0781,0.0469 0.125,0.14062 0.0625,0.0937 0.0781,0.26563 0.0312,0.15625 0.0312,0.39062 z m 12.14062,0.53125 q 0,0.0937 -0.0469,0.15625 -0.0469,0.0625 -0.15625,0.125 -0.0937,0.0469 -0.28125,0.0625 -0.1875,0.0312 -0.46875,0.0312 -0.29688,0 -0.48438,-0.0312 -0.1875,-0.0156 -0.29687,-0.0625 -0.10938,-0.0625 -0.15625,-0.125 -0.0469,-0.0625 -0.0469,-0.15625 v -6.17188 q 0,-0.90625 -0.14062,-1.45312 -0.14063,-0.54688 -0.40625,-0.9375 -0.26563,-0.40625 -0.70313,-0.60938 -0.42187,-0.21875 -0.98437,-0.21875 -0.71875,0 -1.45313,0.51563 -0.71875,0.51562 -1.51562,1.5 v 7.375 q 0,0.0937 -0.0469,0.15625 -0.0469,0.0625 -0.15625,0.125 -0.10937,0.0469 -0.29687,0.0625 -0.1875,0.0312 -0.48438,0.0312 -0.28125,0 -0.46875,-0.0312 -0.1875,-0.0156 -0.29687,-0.0625 -0.10938,-0.0625 -0.15625,-0.125 -0.0312,-0.0625 -0.0312,-0.15625 v -10.54688 q 0,-0.0937 0.0312,-0.15625 0.0312,-0.0625 0.14062,-0.10937 0.10938,-0.0625 0.26563,-0.0781 0.17187,-0.0156 0.4375,-0.0156 0.26562,0 0.42187,0.0156 0.17188,0.0156 0.26563,0.0781 0.0937,0.0469 0.14062,0.10937 0.0469,0.0625 0.0469,0.15625 v 1.39063 q 0.89062,-0.98438 1.76562,-1.45313 0.89063,-0.46875 1.79688,-0.46875 1.04687,0 1.76562,0.35938 0.71875,0.35937 1.15625,0.96875 0.45313,0.59375 0.64063,1.39062 0.20312,0.79688 0.20312,1.92188 z m 12.53125,-5.73438 q 0,0.46875 -0.23437,0.65625 -0.21875,0.1875 -0.51563,0.1875 h -6.92187 q 0,0.89063 0.17187,1.59375 0.1875,0.70313 0.59375,1.20313 0.40625,0.5 1.0625,0.78125 0.65625,0.26562 1.60938,0.26562 0.75,0 1.32812,-0.125 0.59375,-0.125 1.01563,-0.28125 0.4375,-0.15625 0.70312,-0.26562 0.28125,-0.125 0.42188,-0.125 0.0781,0 0.14062,0.0469 0.0781,0.0312 0.10938,0.10937 0.0312,0.0781 0.0469,0.23438 0.0156,0.14062 0.0156,0.35937 0,0.14063 -0.0156,0.26563 0,0.10937 -0.0156,0.20312 -0.0156,0.0781 -0.0625,0.15625 -0.0469,0.0625 -0.10938,0.125 -0.0625,0.0625 -0.375,0.21875 -0.3125,0.14063 -0.82812,0.28125 -0.5,0.14063 -1.17188,0.25 -0.65625,0.10938 -1.40625,0.10938 -1.29687,0 -2.28125,-0.35938 -0.96875,-0.35937 -1.64062,-1.07812 -0.67188,-0.71875 -1.01563,-1.79688 -0.32812,-1.07812 -0.32812,-2.5 0,-1.35937 0.34375,-2.4375 0.35937,-1.09375 1.01562,-1.84375 0.67188,-0.76562 1.60938,-1.17187 0.9375,-0.40625 2.09375,-0.40625 1.23437,0 2.10937,0.40625 0.875,0.39062 1.4375,1.07812 0.5625,0.67188 0.82813,1.57813 0.26562,0.90625 0.26562,1.9375 z m -1.95312,-0.5625 q 0.0469,-1.53125 -0.67188,-2.39062 -0.70312,-0.875 -2.09375,-0.875 -0.71875,0 -1.26562,0.28125 -0.53125,0.26562 -0.90625,0.71875 -0.35938,0.4375 -0.5625,1.03125 -0.1875,0.57812 -0.21875,1.23437 z m 11.05078,-3.5625 q 0,0.26563 -0.0156,0.4375 0,0.17188 -0.0469,0.28125 -0.0312,0.0937 -0.0781,0.15625 -0.0469,0.0469 -0.14063,0.0469 -0.0937,0 -0.23437,-0.0469 -0.14063,-0.0625 -0.3125,-0.10937 -0.15625,-0.0625 -0.375,-0.10938 -0.20313,-0.0469 -0.45313,-0.0469 -0.29687,0 -0.57812,0.125 -0.28125,0.10938 -0.59375,0.39063 -0.3125,0.26562 -0.65625,0.71875 -0.32813,0.4375 -0.73438,1.07812 v 6.9375 q 0,0.0937 -0.0469,0.15625 -0.0469,0.0625 -0.15625,0.125 -0.10938,0.0469 -0.29688,0.0625 -0.1875,0.0312 -0.48437,0.0312 -0.28125,0 -0.46875,-0.0312 -0.1875,-0.0156 -0.29688,-0.0625 -0.10937,-0.0625 -0.15625,-0.125 -0.0312,-0.0625 -0.0312,-0.15625 v -10.54688 q 0,-0.0937 0.0312,-0.15625 0.0312,-0.0625 0.14063,-0.10937 0.10937,-0.0625 0.26562,-0.0781 0.17188,-0.0156 0.4375,-0.0156 0.26563,0 0.42188,0.0156 0.17187,0.0156 0.26562,0.0781 0.0937,0.0469 0.14063,0.10937 0.0469,0.0625 0.0469,0.15625 v 1.53125 q 0.42188,-0.625 0.79688,-1.01562 0.39062,-0.40625 0.73437,-0.625 0.34375,-0.23438 0.67188,-0.32813 0.32812,-0.0937 0.67187,-0.0937 0.15625,0 0.34375,0.0312 0.20313,0.0156 0.40625,0.0625 0.21875,0.0469 0.375,0.10938 0.17188,0.0469 0.23438,0.10937 0.0781,0.0625 0.0937,0.10938 0.0312,0.0469 0.0469,0.14062 0.0312,0.0781 0.0312,0.23438 0,0.15625 0,0.42187 z m 10.69531,-0.20312 q 0,0.40625 -0.10937,0.59375 -0.10938,0.17187 -0.29688,0.17187 h -1.5 q 0.40625,0.42188 0.5625,0.9375 0.17188,0.51563 0.17188,1.0625 0,0.90625 -0.29688,1.60938 -0.29687,0.70312 -0.84375,1.20312 -0.53125,0.48438 -1.28125,0.75 -0.75,0.25 -1.67187,0.25 -0.64063,0 -1.21875,-0.17187 -0.57813,-0.17188 -0.90625,-0.4375 -0.20313,0.21875 -0.34375,0.48437 -0.125,0.26563 -0.125,0.625 0,0.40625 0.375,0.6875 0.375,0.26563 1.01562,0.28125 l 2.75,0.125 q 0.78125,0.0156 1.4375,0.21875 0.65625,0.1875 1.14063,0.54688 0.48437,0.35937 0.75,0.875 0.26562,0.51562 0.26562,1.21875 0,0.71875 -0.3125,1.375 -0.29687,0.65625 -0.92187,1.15625 -0.625,0.5 -1.59375,0.78125 -0.96875,0.29687 -2.29688,0.29687 -1.28125,0 -2.1875,-0.21875 -0.89062,-0.21875 -1.46875,-0.59375 -0.5625,-0.375 -0.82812,-0.90625 -0.25,-0.51562 -0.25,-1.125 0,-0.375 0.0937,-0.75 0.0937,-0.35937 0.28125,-0.6875 0.20312,-0.32812 0.48437,-0.625 0.28125,-0.29687 0.65625,-0.59375 -0.5625,-0.29687 -0.84375,-0.73437 -0.28125,-0.45313 -0.28125,-0.96875 0,-0.71875 0.29688,-1.28125 0.29687,-0.5625 0.73437,-1 -0.375,-0.4375 -0.59375,-0.98438 -0.20312,-0.54687 -0.20312,-1.3125 0,-0.90625 0.29687,-1.60937 0.3125,-0.71875 0.84375,-1.20313 0.54688,-0.5 1.29688,-0.76562 0.76562,-0.26563 1.65625,-0.26563 0.48437,0 0.89062,0.0625 0.42188,0.0469 0.78125,0.14063 h 3.1875 q 0.20313,0 0.29688,0.1875 0.10937,0.1875 0.10937,0.59375 z m -3.03125,2.78125 q 0,-1.07813 -0.59375,-1.6875 -0.57812,-0.60938 -1.67187,-0.60938 -0.5625,0 -0.98438,0.1875 -0.40625,0.1875 -0.6875,0.51563 -0.28125,0.32812 -0.42187,0.76562 -0.125,0.42188 -0.125,0.89063 0,1.04687 0.59375,1.64062 0.59375,0.59375 1.65625,0.59375 0.57812,0 1,-0.17187 0.42187,-0.1875 0.6875,-0.5 0.28125,-0.32813 0.40625,-0.75 0.14062,-0.42188 0.14062,-0.875 z m 0.98438,8.35937 q 0,-0.6875 -0.5625,-1.04687 -0.5625,-0.375 -1.5,-0.40625 l -2.73438,-0.0937 q -0.375,0.29687 -0.625,0.5625 -0.23437,0.26562 -0.375,0.5 -0.14062,0.25 -0.20312,0.48437 -0.0469,0.23438 -0.0469,0.46875 0,0.76563 0.76563,1.15625 0.78125,0.39063 2.17187,0.39063 0.875,0 1.46875,-0.17188 0.59375,-0.15625 0.95313,-0.4375 0.35937,-0.28125 0.51562,-0.65625 0.17188,-0.35937 0.17188,-0.75 z m 9.32812,-0.78125 -1.40625,3.875 q -0.0625,0.1875 -0.35937,0.28125 -0.28125,0.10938 -0.85938,0.10938 -0.3125,0 -0.5,-0.0312 -0.1875,-0.0312 -0.29687,-0.10938 -0.0937,-0.0625 -0.10938,-0.1875 0,-0.10937 0.0625,-0.26562 l 1.45313,-3.67188 q -0.0937,-0.0469 -0.1875,-0.15625 -0.0937,-0.10937 -0.14063,-0.21875 l -3.75,-10.07812 q -0.0937,-0.25 -0.0937,-0.39063 0,-0.14062 0.0937,-0.21875 0.0937,-0.0781 0.29688,-0.10937 0.21875,-0.0312 0.5625,-0.0312 0.35937,0 0.54687,0.0156 0.20313,0.0156 0.3125,0.0625 0.125,0.0469 0.17188,0.14062 0.0625,0.0781 0.125,0.23438 l 3,8.46875 h 0.0469 l 2.90625,-8.51563 q 0.0625,-0.21875 0.15625,-0.28125 0.10938,-0.0625 0.29688,-0.0937 0.20312,-0.0312 0.57812,-0.0312 0.32813,0 0.53125,0.0312 0.21875,0.0312 0.3125,0.10938 0.10938,0.0781 0.10938,0.21875 0,0.14062 -0.0625,0.35937 z m 23.36719,-7.8125 q 0,1.96875 -0.5,3.45313 -0.5,1.46875 -1.46875,2.4375 -0.96875,0.95312 -2.375,1.4375 -1.40625,0.48437 -3.34375,0.48437 h -3.21875 q -0.26562,0 -0.51562,-0.17187 -0.23438,-0.1875 -0.23438,-0.65625 v -13.51563 q 0,-0.45312 0.23438,-0.64062 0.25,-0.1875 0.51562,-0.1875 h 3.4375 q 1.96875,0 3.32813,0.51562 1.35937,0.51563 2.28125,1.46875 0.92187,0.95313 1.39062,2.3125 0.46875,1.35938 0.46875,3.0625 z m -2.10937,0.0937 q 0,-1.23437 -0.3125,-2.29687 -0.29688,-1.0625 -0.95313,-1.82813 -0.65625,-0.78125 -1.65625,-1.20312 -0.98437,-0.4375 -2.5625,-0.4375 h -2.04687 v 11.79687 h 2.07812 q 1.45313,0 2.4375,-0.35937 1,-0.375 1.67188,-1.125 0.67187,-0.75 1,-1.875 0.34375,-1.125 0.34375,-2.67188 z m 14,1.6875 q 0,0.46875 -0.23438,0.65625 -0.21875,0.1875 -0.51562,0.1875 h -6.92188 q 0,0.89063 0.17188,1.59375 0.1875,0.70313 0.59375,1.20313 0.40625,0.5 1.0625,0.78125 0.65625,0.26562 1.60937,0.26562 0.75,0 1.32813,-0.125 0.59375,-0.125 1.01562,-0.28125 0.4375,-0.15625 0.70313,-0.26562 0.28125,-0.125 0.42187,-0.125 0.0781,0 0.14063,0.0469 0.0781,0.0312 0.10937,0.10937 0.0312,0.0781 0.0469,0.23438 0.0156,0.14062 0.0156,0.35937 0,0.14063 -0.0156,0.26563 0,0.10937 -0.0156,0.20312 -0.0156,0.0781 -0.0625,0.15625 -0.0469,0.0625 -0.10937,0.125 -0.0625,0.0625 -0.375,0.21875 -0.3125,0.14063 -0.82813,0.28125 -0.5,0.14063 -1.17187,0.25 -0.65625,0.10938 -1.40625,0.10938 -1.29688,0 -2.28125,-0.35938 -0.96875,-0.35937 -1.64063,-1.07812 -0.67187,-0.71875 -1.01562,-1.79688 -0.32813,-1.07812 -0.32813,-2.5 0,-1.35937 0.34375,-2.4375 0.35938,-1.09375 1.01563,-1.84375 0.67187,-0.76562 1.60937,-1.17187 0.9375,-0.40625 2.09375,-0.40625 1.23438,0 2.10938,0.40625 0.875,0.39062 1.4375,1.07812 0.5625,0.67188 0.82812,1.57813 0.26563,0.90625 0.26563,1.9375 z m -1.95313,-0.5625 q 0.0469,-1.53125 -0.67187,-2.39062 -0.70313,-0.875 -2.09375,-0.875 -0.71875,0 -1.26563,0.28125 -0.53125,0.26562 -0.90625,0.71875 -0.35937,0.4375 -0.5625,1.03125 -0.1875,0.57812 -0.21875,1.23437 z m 6.83203,6.29688 q 0,0.0937 -0.0469,0.15625 -0.0469,0.0625 -0.15625,0.125 -0.10938,0.0469 -0.29688,0.0625 -0.1875,0.0312 -0.48437,0.0312 -0.28125,0 -0.46875,-0.0312 -0.1875,-0.0156 -0.29688,-0.0625 -0.10937,-0.0625 -0.15625,-0.125 -0.0312,-0.0625 -0.0312,-0.15625 v -15.65625 q 0,-0.0937 0.0312,-0.15625 0.0469,-0.0781 0.15625,-0.125 0.10938,-0.0469 0.29688,-0.0625 0.1875,-0.0312 0.46875,-0.0312 0.29687,0 0.48437,0.0312 0.1875,0.0156 0.29688,0.0625 0.10937,0.0469 0.15625,0.125 0.0469,0.0625 0.0469,0.15625 z m 9.05469,-0.76563 q 0,0.32813 -0.0469,0.53125 -0.0469,0.20313 -0.14063,0.29688 -0.0937,0.0937 -0.28125,0.1875 -0.1875,0.0781 -0.4375,0.125 -0.23437,0.0469 -0.5,0.0781 -0.26562,0.0469 -0.54687,0.0469 -0.8125,0 -1.40625,-0.21875 -0.57813,-0.21875 -0.95313,-0.65625 -0.375,-0.4375 -0.54687,-1.10938 -0.17188,-0.6875 -0.17188,-1.59375 v -6.17187 h -1.46875 q -0.1875,0 -0.29687,-0.1875 -0.0937,-0.1875 -0.0937,-0.60938 0,-0.21875 0.0312,-0.35937 0.0312,-0.15625 0.0781,-0.25 0.0469,-0.10938 0.10938,-0.14063 0.0781,-0.0469 0.17187,-0.0469 h 1.46875 v -2.51562 q 0,-0.0781 0.0312,-0.14063 0.0469,-0.0781 0.15625,-0.125 0.125,-0.0625 0.3125,-0.0781 0.1875,-0.0312 0.46875,-0.0312 0.28125,0 0.46875,0.0312 0.1875,0.0156 0.29688,0.0781 0.10937,0.0469 0.15625,0.125 0.0469,0.0625 0.0469,0.14063 v 2.51562 h 2.70313 q 0.0937,0 0.15625,0.0469 0.0781,0.0312 0.125,0.14063 0.0625,0.0937 0.0781,0.25 0.0312,0.14062 0.0312,0.35937 0,0.42188 -0.10937,0.60938 -0.10938,0.1875 -0.28125,0.1875 h -2.70313 v 5.89062 q 0,1.09375 0.3125,1.65625 0.32813,0.54688 1.15625,0.54688 0.28125,0 0.48438,-0.0469 0.21875,-0.0625 0.375,-0.10938 0.17187,-0.0625 0.28125,-0.10937 0.125,-0.0625 0.21875,-0.0625 0.0469,0 0.0937,0.0312 0.0625,0.0312 0.0937,0.10937 0.0312,0.0781 0.0469,0.21875 0.0312,0.14063 0.0312,0.35938 z m 10.19922,0.78125 q 0,0.14063 -0.0937,0.21875 -0.0937,0.0625 -0.26563,0.0937 -0.15625,0.0469 -0.46875,0.0469 -0.29687,0 -0.48437,-0.0469 -0.1875,-0.0312 -0.26563,-0.0937 -0.0781,-0.0781 -0.0781,-0.21875 v -1.0625 q -0.6875,0.75 -1.54688,1.15625 -0.84375,0.40625 -1.79687,0.40625 -0.82813,0 -1.5,-0.21875 -0.67188,-0.21875 -1.15625,-0.625 -0.46875,-0.40625 -0.73438,-1 -0.26562,-0.60937 -0.26562,-1.35937 0,-0.89063 0.35937,-1.54688 0.375,-0.65625 1.04688,-1.09375 0.6875,-0.4375 1.67187,-0.65625 0.98438,-0.21875 2.20313,-0.21875 h 1.45312 v -0.8125 q 0,-0.60937 -0.125,-1.07812 -0.125,-0.46875 -0.42187,-0.78125 -0.28125,-0.3125 -0.73438,-0.46875 -0.45312,-0.15625 -1.125,-0.15625 -0.71875,0 -1.29687,0.17187 -0.5625,0.17188 -0.98438,0.375 -0.42187,0.20313 -0.71875,0.375 -0.28125,0.17188 -0.42187,0.17188 -0.0937,0 -0.17188,-0.0469 -0.0625,-0.0469 -0.125,-0.14063 -0.0469,-0.0937 -0.0781,-0.23437 -0.0156,-0.15625 -0.0156,-0.32813 0,-0.29687 0.0312,-0.46875 0.0469,-0.17187 0.20313,-0.3125 0.17187,-0.15625 0.54687,-0.35937 0.39063,-0.21875 0.89063,-0.375 0.51562,-0.17188 1.10937,-0.28125 0.59375,-0.125 1.20313,-0.125 1.14062,0 1.9375,0.26562 0.79687,0.25 1.28125,0.75 0.5,0.5 0.71875,1.25 0.21875,0.73438 0.21875,1.71875 z m -1.92188,-4.8125 h -1.64062 q -0.79688,0 -1.39063,0.14063 -0.57812,0.125 -0.96875,0.39062 -0.39062,0.26563 -0.57812,0.64063 -0.17188,0.35937 -0.17188,0.84375 0,0.8125 0.51563,1.29687 0.53125,0.48438 1.46875,0.48438 0.75,0 1.40625,-0.375 0.65625,-0.39063 1.35937,-1.1875 z"
     fill="#000000" />
  <path
     id="path327"
     fill-rule="evenodd"
     d="M 847.01575,134.0233 H 992.1496 v 38.77167 H 847.01575 Z"
     fill-opacity="0"
     fill="#000000" />
</svg>
