<?xml version="1.0" encoding="UTF-8" standalone="no"?>
<svg
   xmlns:dc="http://purl.org/dc/elements/1.1/"
   xmlns:cc="http://creativecommons.org/ns#"
   xmlns:rdf="http://www.w3.org/1999/02/22-rdf-syntax-ns#"
   xmlns:svg="http://www.w3.org/2000/svg"
   xmlns="http://www.w3.org/2000/svg"
   xmlns:sodipodi="http://sodipodi.sourceforge.net/DTD/sodipodi-0.dtd"
   xmlns:inkscape="http://www.inkscape.org/namespaces/inkscape"
   inkscape:version="1.0 (4035a4fb49, 2020-05-01)"
   sodipodi:docname="CoastalSetting.pptx.svg"
   id="svg345"
   stroke-miterlimit="10"
   stroke-linecap="square"
   stroke="none"
   fill="none"
   viewBox="0.0 0.0 1280.0 720.0"
   version="1.1">
  <metadata
     id="metadata351">
    <rdf:RDF>
      <cc:Work
         rdf:about="">
        <dc:format>image/svg+xml</dc:format>
        <dc:type
           rdf:resource="http://purl.org/dc/dcmitype/StillImage" />
      </cc:Work>
    </rdf:RDF>
  </metadata>
  <defs
     id="defs349" />
  <sodipodi:namedview
     inkscape:current-layer="svg345"
     inkscape:window-maximized="1"
     inkscape:window-y="1359"
     inkscape:window-x="554"
     inkscape:cy="317.6159"
     inkscape:cx="629.93377"
     inkscape:zoom="0.94375"
     showgrid="false"
     id="namedview347"
     inkscape:window-height="1001"
     inkscape:window-width="1920"
     inkscape:pageshadow="2"
     inkscape:pageopacity="0"
     guidetolerance="10"
     gridtolerance="10"
     objecttolerance="10"
     borderopacity="1"
     bordercolor="#666666"
     pagecolor="#ffffff"
     inkscape:document-rotation="0" />
  <clipPath
     id="p3.0">
    <path
       id="path2"
       clip-rule="nonzero"
       d="m0 0l1280.0 0l0 720.0l-1280.0 0l0 -720.0z" />
  </clipPath>
  <path
     style="stroke-width:0.206939"
     fill="#ffffff"
     d="M 536.15894,300.92715 H 778.80798 V 463.57616 H 536.15894 Z"
     fill-rule="evenodd"
     id="path5" />
  <path
     inkscape:export-ydpi="300"
     inkscape:export-xdpi="300"
     inkscape:export-filename="C:\Users\sfjones\Documents\Manuscripts\Global typology\open_coast.png"
     fill="#548135"
     d="m 567.11616,349.15161 c 10.12769,-2.04852 38.53451,9.6192 56.31961,8.01605 17.78509,-1.60315 30.63,-16.56647 50.3913,-17.63522 19.76123,-1.06876 57.26648,5.74487 68.17639,11.22244 10.90991,5.47754 5.13244,18.03589 -2.71717,21.64313 -7.84967,3.60724 -44.38061,0 -44.38061,0 -13.43494,0 -22.64301,-2.28595 -36.22895,0 -13.58587,2.28601 -33.20996,12.57318 -45.28631,13.71625 -12.07636,1.14306 -18.71832,-4.08216 -27.17175,-6.85804 -8.4534,-2.77594 -19.77494,-4.57208 -23.54883,-9.79736 -3.77387,-5.22534 -5.68137,-18.25873 4.44632,-20.30725 z"
     fill-rule="evenodd"
     id="path231" />
  <path
     inkscape:export-ydpi="300"
     inkscape:export-xdpi="300"
     inkscape:export-filename="C:\Users\sfjones\Documents\Manuscripts\Global typology\open_coast.png"
     stroke="#000000"
     stroke-width="1"
     stroke-miterlimit="800"
     stroke-linecap="butt"
     d="m 567.11616,349.15161 c 10.12769,-2.04852 38.53451,9.6192 56.31961,8.01605 17.78509,-1.60315 30.63,-16.56647 50.3913,-17.63522 19.76123,-1.06876 57.26648,5.74487 68.17639,11.22244 10.90991,5.47754 5.13244,18.03589 -2.71717,21.64313 -7.84967,3.60724 -44.38061,0 -44.38061,0 -13.43494,0 -22.64301,-2.28595 -36.22895,0 -13.58587,2.28601 -33.20996,12.57318 -45.28631,13.71625 -12.07636,1.14306 -18.71832,-4.08216 -27.17175,-6.85804 -8.4534,-2.77594 -19.77494,-4.57208 -23.54883,-9.79736 -3.77387,-5.22534 -5.68137,-18.25873 4.44632,-20.30725 z"
     fill-rule="evenodd"
     id="path233" />
  <path
     inkscape:export-ydpi="300"
     inkscape:export-xdpi="300"
     inkscape:export-filename="C:\Users\sfjones\Documents\Manuscripts\Global typology\open_coast.png"
     fill="#d7a979"
     d="m 567.39482,368.78314 c 10.10242,-2.04852 38.43835,9.6192 56.17914,8.01605 17.74072,-1.60315 30.55365,-16.56647 50.26562,-17.63519 19.71198,-1.06879 57.12372,5.74487 68.00641,11.22241 10.88269,5.47754 5.11963,18.03595 -2.71038,21.64319 -7.83008,3.60718 -44.26996,0 -44.26996,0 -13.40143,0 -22.58655,-2.28601 -36.13855,0 -13.55201,2.28595 -33.1272,12.57318 -45.1734,13.71619 -12.04627,1.14306 -18.6717,-4.0821 -27.10401,-6.85804 -8.43234,-2.77594 -19.72564,-4.57208 -23.49011,-9.79736 -3.76446,-5.22534 -5.66721,-18.25873 4.43524,-20.30725 z"
     fill-rule="evenodd"
     id="path235" />
  <path
     inkscape:export-ydpi="300"
     inkscape:export-xdpi="300"
     inkscape:export-filename="C:\Users\sfjones\Documents\Manuscripts\Global typology\open_coast.png"
     fill="#000000"
     fill-opacity="0"
     d="m 559.91039,374.76179 c 0.70575,-2.29626 1.41165,-4.59259 4.06558,-5.51099 2.65396,-0.91845 7.11481,-0.48986 11.858,0 4.7432,0.48981 10.89808,1.6532 16.6012,2.93921 5.70319,1.28583 12.19684,3.98017 17.61762,4.77619 5.42077,0.79602 9.42993,0.97973 14.90716,0 5.4773,-0.9798 12.36627,-3.6128 17.95642,-5.87842 5.59027,-2.26563 10.164,-5.51099 15.58478,-7.71539 5.42084,-2.20441 10.38995,-5.02118 16.94,-5.51099 6.55011,-0.48987 13.66492,1.28583 22.36084,2.57178 8.69586,1.28582 22.19147,3.42901 29.81439,5.14361 7.62293,1.71454 12.76148,3.67401 15.92359,5.14362 3.16211,1.4696 3.10565,2.57178 3.04919,3.67395"
     fill-rule="evenodd"
     id="path237" />
  <path
     inkscape:export-ydpi="300"
     inkscape:export-xdpi="300"
     inkscape:export-filename="C:\Users\sfjones\Documents\Manuscripts\Global typology\open_coast.png"
     stroke="#000000"
     stroke-width="1.33333"
     stroke-miterlimit="800"
     stroke-linecap="butt"
     d="m 559.91039,374.76179 c 0.70575,-2.29626 1.41165,-4.59259 4.06558,-5.51099 2.65396,-0.91845 7.11481,-0.48986 11.858,0 4.7432,0.48981 10.89808,1.6532 16.6012,2.93921 5.70319,1.28583 12.19684,3.98017 17.61762,4.77619 5.42077,0.79602 9.42993,0.97973 14.90716,0 5.4773,-0.9798 12.36627,-3.6128 17.95642,-5.87842 5.59027,-2.26563 10.164,-5.51099 15.58478,-7.71539 5.42084,-2.20441 10.38995,-5.02118 16.94,-5.51099 6.55011,-0.48987 13.66492,1.28583 22.36084,2.57178 8.69586,1.28582 22.19147,3.42901 29.81439,5.14361 7.62293,1.71454 12.76148,3.67401 15.92359,5.14362 3.16211,1.4696 3.10565,2.57178 3.04919,3.67395"
     fill-rule="evenodd"
     id="path239" />
  <path
     inkscape:export-ydpi="300"
     inkscape:export-xdpi="300"
     inkscape:export-filename="C:\Users\sfjones\Documents\Manuscripts\Global typology\open_coast.png"
     fill="#000000"
     fill-opacity="0"
     d="m 554.41487,341.36575 c 6.33957,-2.59055 12.67923,-5.18097 18.74316,-4.78244 6.06394,0.39853 8.82022,6.87469 17.64054,7.17361 8.82031,0.29889 24.164,-2.49093 35.28119,-5.38024 11.11725,-2.88935 20.58062,-9.56492 31.42218,-11.95606 10.84161,-2.39117 22.69397,-2.98898 33.62744,-2.39117 10.93347,0.59777 22.05072,3.38748 31.97351,5.97802 9.92285,2.59043 21.31573,6.37668 27.56341,9.56491 6.24768,3.18821 8.08521,6.37644 9.92273,9.56476"
     fill-rule="evenodd"
     id="path241" />
  <path
     inkscape:export-ydpi="300"
     inkscape:export-xdpi="300"
     inkscape:export-filename="C:\Users\sfjones\Documents\Manuscripts\Global typology\open_coast.png"
     stroke="#000000"
     stroke-width="1.33333"
     stroke-miterlimit="800"
     stroke-linecap="butt"
     stroke-dasharray="5.33333, 4"
     d="m 554.41487,341.36575 c 6.33957,-2.59055 12.67923,-5.18097 18.74316,-4.78244 6.06394,0.39853 8.82022,6.87469 17.64054,7.17361 8.82031,0.29889 24.164,-2.49093 35.28119,-5.38024 11.11725,-2.88935 20.58062,-9.56492 31.42218,-11.95606 10.84161,-2.39117 22.69397,-2.98898 33.62744,-2.39117 10.93347,0.59777 22.05072,3.38748 31.97351,5.97802 9.92285,2.59043 21.31573,6.37668 27.56341,9.56491 6.24768,3.18821 8.08521,6.37644 9.92273,9.56476"
     fill-rule="evenodd"
     id="path243" />
  <path
     fill="#000000"
     fill-opacity="0"
     d="M 683.6341,31.487663 H 873.61835 V 70.259315 H 683.6341 Z"
     fill-rule="evenodd"
     id="path315" />
  <path
     fill="#000000"
     d="m 609.3814,440.53002 q 0,1.84375 -0.4375,3.32812 -0.42188,1.46875 -1.29688,2.51563 -0.85937,1.03125 -2.15625,1.59375 -1.29687,0.54687 -3.03125,0.54687 -1.71875,0 -2.96875,-0.5 -1.23437,-0.51562 -2.0625,-1.48437 -0.8125,-0.98438 -1.21875,-2.42188 -0.39062,-1.4375 -0.39062,-3.3125 0,-1.79687 0.4375,-3.25 0.4375,-1.46875 1.29687,-2.5 0.875,-1.03125 2.17188,-1.57812 1.29687,-0.5625 3.03125,-0.5625 1.6875,0 2.92187,0.51562 1.25,0.5 2.0625,1.46875 0.82813,0.95313 1.23438,2.39063 0.40625,1.42187 0.40625,3.25 z m -2.125,0.14062 q 0,-1.28125 -0.23438,-2.39062 -0.21875,-1.10938 -0.75,-1.92188 -0.53125,-0.8125 -1.42187,-1.26562 -0.89063,-0.46875 -2.20313,-0.46875 -1.3125,0 -2.20312,0.5 -0.89063,0.48437 -1.45313,1.3125 -0.54687,0.8125 -0.79687,1.92187 -0.23438,1.09375 -0.23438,2.29688 0,1.32812 0.21875,2.45312 0.21875,1.125 0.75,1.95313 0.53125,0.8125 1.40625,1.26562 0.89063,0.4375 2.23438,0.4375 1.3125,0 2.21875,-0.48437 0.90625,-0.5 1.45312,-1.32813 0.54688,-0.84375 0.78125,-1.9375 0.23438,-1.10937 0.23438,-2.34375 z m 14.79687,1.89063 q 0,1.39062 -0.29687,2.5 -0.29688,1.09375 -0.89063,1.85937 -0.57812,0.76563 -1.4375,1.1875 -0.84375,0.40625 -1.95312,0.40625 -0.46875,0 -0.875,-0.0937 -0.39063,-0.0937 -0.76563,-0.28125 -0.375,-0.20312 -0.75,-0.5 -0.375,-0.3125 -0.79687,-0.73437 v 5.28125 q 0,0.0937 -0.0469,0.15625 -0.0469,0.0781 -0.15625,0.125 -0.10937,0.0469 -0.29687,0.0625 -0.1875,0.0312 -0.48438,0.0312 -0.28125,0 -0.46875,-0.0312 -0.1875,-0.0156 -0.29687,-0.0625 -0.10938,-0.0469 -0.15625,-0.125 -0.0312,-0.0625 -0.0312,-0.15625 v -14.73438 q 0,-0.10937 0.0312,-0.17187 0.0312,-0.0625 0.14062,-0.10938 0.10938,-0.0469 0.26563,-0.0625 0.17187,-0.0156 0.40625,-0.0156 0.25,0 0.40625,0.0156 0.15625,0.0156 0.25,0.0625 0.10937,0.0469 0.15625,0.10938 0.0469,0.0625 0.0469,0.17187 v 1.42188 q 0.46875,-0.5 0.90625,-0.85938 0.45313,-0.35937 0.90625,-0.59375 0.45313,-0.25 0.92188,-0.375 0.48437,-0.125 1.01562,-0.125 1.14063,0 1.95313,0.45313 0.8125,0.4375 1.3125,1.21875 0.51562,0.76562 0.75,1.79687 0.23437,1.03125 0.23437,2.17188 z m -2.04687,0.21875 q 0,-0.79688 -0.125,-1.54688 -0.10938,-0.76562 -0.42188,-1.34375 -0.29687,-0.59375 -0.79687,-0.9375 -0.5,-0.35937 -1.25,-0.35937 -0.375,0 -0.75,0.10937 -0.35938,0.10938 -0.73438,0.35938 -0.375,0.23437 -0.78125,0.625 -0.40625,0.39062 -0.85937,0.96875 v 4.1875 q 0.79687,0.98437 1.5,1.5 0.71875,0.51562 1.5,0.51562 0.73437,0 1.25,-0.34375 0.53125,-0.35937 0.84375,-0.9375 0.32812,-0.59375 0.46875,-1.3125 0.15625,-0.73437 0.15625,-1.48437 z m 13.95312,-0.51563 q 0,0.46875 -0.23437,0.65625 -0.21875,0.1875 -0.51563,0.1875 h -6.92187 q 0,0.89063 0.17187,1.59375 0.1875,0.70313 0.59375,1.20313 0.40625,0.5 1.0625,0.78125 0.65625,0.26562 1.60938,0.26562 0.75,0 1.32812,-0.125 0.59375,-0.125 1.01563,-0.28125 0.4375,-0.15625 0.70312,-0.26562 0.28125,-0.125 0.42188,-0.125 0.0781,0 0.14062,0.0469 0.0781,0.0312 0.10938,0.10938 0.0312,0.0781 0.0469,0.23437 0.0156,0.14063 0.0156,0.35938 0,0.14062 -0.0156,0.26562 0,0.10938 -0.0156,0.20313 -0.0156,0.0781 -0.0625,0.15625 -0.0469,0.0625 -0.10938,0.125 -0.0625,0.0625 -0.375,0.21875 -0.3125,0.14062 -0.82812,0.28125 -0.5,0.14062 -1.17188,0.25 -0.65625,0.10937 -1.40625,0.10937 -1.29687,0 -2.28125,-0.35937 -0.96875,-0.35938 -1.64062,-1.07813 -0.67188,-0.71875 -1.01563,-1.79687 -0.32812,-1.07813 -0.32812,-2.5 0,-1.35938 0.34375,-2.4375 0.35937,-1.09375 1.01562,-1.84375 0.67188,-0.76563 1.60938,-1.17188 0.9375,-0.40625 2.09375,-0.40625 1.23437,0 2.10937,0.40625 0.875,0.39063 1.4375,1.07813 0.5625,0.67187 0.82813,1.57812 0.26562,0.90625 0.26562,1.9375 z m -1.95312,-0.5625 q 0.0469,-1.53125 -0.67188,-2.39062 -0.70312,-0.875 -2.09375,-0.875 -0.71875,0 -1.26562,0.28125 -0.53125,0.26562 -0.90625,0.71875 -0.35938,0.4375 -0.5625,1.03125 -0.1875,0.57812 -0.21875,1.23437 z m 13.97266,6.29688 q 0,0.0937 -0.0469,0.15625 -0.0469,0.0625 -0.15625,0.125 -0.0937,0.0469 -0.28125,0.0625 -0.1875,0.0312 -0.46875,0.0312 -0.29687,0 -0.48437,-0.0312 -0.1875,-0.0156 -0.29688,-0.0625 -0.10937,-0.0625 -0.15625,-0.125 -0.0469,-0.0625 -0.0469,-0.15625 v -6.17188 q 0,-0.90625 -0.14063,-1.45312 -0.14062,-0.54688 -0.40625,-0.9375 -0.26562,-0.40625 -0.70312,-0.60938 -0.42188,-0.21875 -0.98438,-0.21875 -0.71875,0 -1.45312,0.51563 -0.71875,0.51562 -1.51563,1.5 v 7.375 q 0,0.0937 -0.0469,0.15625 -0.0469,0.0625 -0.15625,0.125 -0.10938,0.0469 -0.29688,0.0625 -0.1875,0.0312 -0.48437,0.0312 -0.28125,0 -0.46875,-0.0312 -0.1875,-0.0156 -0.29688,-0.0625 -0.10937,-0.0625 -0.15625,-0.125 -0.0312,-0.0625 -0.0312,-0.15625 v -10.54688 q 0,-0.0937 0.0312,-0.15625 0.0312,-0.0625 0.14063,-0.10937 0.10937,-0.0625 0.26562,-0.0781 0.17188,-0.0156 0.4375,-0.0156 0.26563,0 0.42188,0.0156 0.17187,0.0156 0.26562,0.0781 0.0937,0.0469 0.14063,0.10937 0.0469,0.0625 0.0469,0.15625 v 1.39063 q 0.89063,-0.98438 1.76563,-1.45313 0.89062,-0.46875 1.79687,-0.46875 1.04688,0 1.76563,0.35938 0.71875,0.35937 1.15625,0.96875 0.45312,0.59375 0.64062,1.39062 0.20313,0.79688 0.20313,1.92188 z m 19.30078,-1.84375 q 0,0.1875 -0.0156,0.32812 0,0.14063 -0.0312,0.25 -0.0312,0.0937 -0.0781,0.1875 -0.0469,0.0781 -0.17188,0.20313 -0.10937,0.10937 -0.48437,0.34375 -0.375,0.23437 -0.9375,0.46875 -0.54688,0.23437 -1.28125,0.39062 -0.71875,0.15625 -1.5625,0.15625 -1.48438,0 -2.67188,-0.48437 -1.1875,-0.5 -2.03125,-1.45313 -0.82812,-0.96875 -1.28125,-2.375 -0.45312,-1.42187 -0.45312,-3.26562 0,-1.875 0.48437,-3.34375 0.48438,-1.48438 1.35938,-2.51563 0.89062,-1.03125 2.10937,-1.5625 1.21875,-0.54687 2.71875,-0.54687 0.65625,0 1.26563,0.125 0.625,0.125 1.15625,0.3125 0.53125,0.1875 0.9375,0.4375 0.40625,0.25 0.5625,0.40625 0.15625,0.15625 0.20312,0.23437 0.0469,0.0781 0.0781,0.20313 0.0312,0.10937 0.0469,0.26562 0.0156,0.14063 0.0156,0.35938 0,0.23437 -0.0312,0.40625 -0.0156,0.15625 -0.0625,0.26562 -0.0469,0.10938 -0.10938,0.17188 -0.0625,0.0469 -0.15625,0.0469 -0.15625,0 -0.45312,-0.23437 -0.29688,-0.23438 -0.76563,-0.5 -0.45312,-0.28125 -1.125,-0.5 -0.65625,-0.23438 -1.57812,-0.23438 -1.01563,0 -1.84375,0.40625 -0.8125,0.40625 -1.40625,1.1875 -0.57813,0.78125 -0.90625,1.92188 -0.32813,1.125 -0.32813,2.57812 0,1.4375 0.3125,2.54688 0.3125,1.10937 0.89063,1.85937 0.57812,0.73438 1.42187,1.125 0.84375,0.375 1.92188,0.375 0.89062,0 1.5625,-0.21875 0.6875,-0.23437 1.15625,-0.5 0.46875,-0.28125 0.76562,-0.5 0.3125,-0.21875 0.5,-0.21875 0.0781,0 0.125,0.0312 0.0625,0.0312 0.0937,0.14063 0.0469,0.0937 0.0625,0.26562 0.0156,0.17188 0.0156,0.45313 z m 12.26562,-3.54688 q 0,1.29688 -0.34375,2.375 -0.34375,1.07813 -1.01562,1.875 -0.67188,0.78125 -1.6875,1.21875 -1.01563,0.4375 -2.34375,0.4375 -1.3125,0 -2.28125,-0.375 -0.95313,-0.39062 -1.60938,-1.125 -0.64062,-0.75 -0.95312,-1.79687 -0.3125,-1.0625 -0.3125,-2.39063 0,-1.29687 0.32812,-2.375 0.32813,-1.09375 1,-1.875 0.6875,-0.78125 1.6875,-1.21875 1.01563,-0.4375 2.35938,-0.4375 1.29687,0 2.26562,0.39063 0.96875,0.39062 1.60938,1.125 0.64062,0.73437 0.96875,1.79687 0.32812,1.04688 0.32812,2.375 z m -2.04687,0.125 q 0,-0.84375 -0.15625,-1.60937 -0.15625,-0.76563 -0.53125,-1.32813 -0.35938,-0.57812 -0.98438,-0.90625 -0.60937,-0.34375 -1.53125,-0.34375 -0.85937,0 -1.48437,0.3125 -0.60938,0.29688 -1.01563,0.85938 -0.39062,0.54687 -0.59375,1.3125 -0.1875,0.76562 -0.1875,1.65625 0,0.875 0.15625,1.64062 0.17188,0.75 0.53125,1.32813 0.375,0.5625 0.98438,0.90625 0.625,0.32812 1.5625,0.32812 0.84375,0 1.45312,-0.29687 0.625,-0.3125 1.01563,-0.85938 0.40625,-0.5625 0.59375,-1.3125 0.1875,-0.76562 0.1875,-1.6875 z m 12.82812,5.28125 q 0,0.14063 -0.0937,0.21875 -0.0937,0.0625 -0.26562,0.0937 -0.15625,0.0469 -0.46875,0.0469 -0.29688,0 -0.48438,-0.0469 -0.1875,-0.0312 -0.26562,-0.0937 -0.0781,-0.0781 -0.0781,-0.21875 v -1.0625 q -0.6875,0.75 -1.54687,1.15625 -0.84375,0.40625 -1.79688,0.40625 -0.82812,0 -1.5,-0.21875 -0.67187,-0.21875 -1.15625,-0.625 -0.46875,-0.40625 -0.73437,-1 -0.26563,-0.60937 -0.26563,-1.35937 0,-0.89063 0.35938,-1.54688 0.375,-0.65625 1.04687,-1.09375 0.6875,-0.4375 1.67188,-0.65625 0.98437,-0.21875 2.20312,-0.21875 h 1.45313 v -0.8125 q 0,-0.60937 -0.125,-1.07812 -0.125,-0.46875 -0.42188,-0.78125 -0.28125,-0.3125 -0.73437,-0.46875 -0.45313,-0.15625 -1.125,-0.15625 -0.71875,0 -1.29688,0.17187 -0.5625,0.17188 -0.98437,0.375 -0.42188,0.20313 -0.71875,0.375 -0.28125,0.17188 -0.42188,0.17188 -0.0937,0 -0.17187,-0.0469 -0.0625,-0.0469 -0.125,-0.14062 -0.0469,-0.0937 -0.0781,-0.23438 -0.0156,-0.15625 -0.0156,-0.32812 0,-0.29688 0.0312,-0.46875 0.0469,-0.17188 0.20312,-0.3125 0.17188,-0.15625 0.54688,-0.35938 0.39062,-0.21875 0.89062,-0.375 0.51563,-0.17187 1.10938,-0.28125 0.59375,-0.125 1.20312,-0.125 1.14063,0 1.9375,0.26563 0.79688,0.25 1.28125,0.75 0.5,0.5 0.71875,1.25 0.21875,0.73437 0.21875,1.71875 z m -1.92187,-4.8125 h -1.64063 q -0.79687,0 -1.39062,0.14063 -0.57813,0.125 -0.96875,0.39062 -0.39063,0.26563 -0.57813,0.64063 -0.17187,0.35937 -0.17187,0.84375 0,0.8125 0.51562,1.29687 0.53125,0.48438 1.46875,0.48438 0.75,0 1.40625,-0.375 0.65625,-0.39063 1.35938,-1.1875 z m 12.10547,1.92188 q 0,0.8125 -0.3125,1.45312 -0.29688,0.625 -0.84375,1.0625 -0.54688,0.4375 -1.3125,0.65625 -0.76563,0.21875 -1.67188,0.21875 -0.5625,0 -1.07812,-0.0937 -0.5,-0.0781 -0.90625,-0.20312 -0.40625,-0.14063 -0.6875,-0.28125 -0.28125,-0.15625 -0.42188,-0.26563 -0.125,-0.125 -0.1875,-0.32812 -0.0469,-0.21875 -0.0469,-0.57813 0,-0.23437 0.0156,-0.375 0.0312,-0.15625 0.0625,-0.25 0.0312,-0.0937 0.0937,-0.125 0.0781,-0.0469 0.15625,-0.0469 0.125,0 0.375,0.15625 0.25,0.15625 0.625,0.34375 0.375,0.1875 0.875,0.34375 0.5,0.15625 1.15625,0.15625 0.5,0 0.89063,-0.0937 0.40625,-0.10938 0.6875,-0.3125 0.29687,-0.21875 0.45312,-0.53125 0.15625,-0.3125 0.15625,-0.75 0,-0.4375 -0.23437,-0.73438 -0.21875,-0.3125 -0.59375,-0.54687 -0.375,-0.23438 -0.84375,-0.42188 -0.46875,-0.1875 -0.96875,-0.375 -0.5,-0.20312 -0.96875,-0.45312 -0.46875,-0.25 -0.84375,-0.60938 -0.375,-0.375 -0.60938,-0.875 -0.23437,-0.5 -0.23437,-1.20312 0,-0.625 0.23437,-1.1875 0.25,-0.57813 0.73438,-1 0.48437,-0.4375 1.20312,-0.6875 0.71875,-0.26563 1.67188,-0.26563 0.42187,0 0.84375,0.0781 0.42187,0.0625 0.76562,0.17187 0.34375,0.10938 0.57813,0.23438 0.25,0.125 0.35937,0.21875 0.125,0.0937 0.17188,0.17187 0.0469,0.0625 0.0625,0.15625 0.0156,0.0781 0.0312,0.20313 0.0156,0.125 0.0156,0.3125 0,0.20312 -0.0156,0.35937 -0.0156,0.14063 -0.0625,0.23438 -0.0312,0.0937 -0.0937,0.14062 -0.0625,0.0312 -0.125,0.0312 -0.10938,0 -0.3125,-0.125 -0.20313,-0.125 -0.51563,-0.26562 -0.3125,-0.15625 -0.75,-0.28125 -0.42187,-0.14063 -0.96875,-0.14063 -0.5,0 -0.875,0.125 -0.375,0.10938 -0.60937,0.3125 -0.23438,0.20313 -0.35938,0.48438 -0.125,0.28125 -0.125,0.60937 0,0.45313 0.23438,0.76563 0.23437,0.3125 0.60937,0.54687 0.375,0.23438 0.84375,0.42188 0.48438,0.1875 0.98438,0.39062 0.5,0.1875 0.98437,0.4375 0.48438,0.25 0.85938,0.60938 0.375,0.34375 0.60937,0.84375 0.23438,0.48437 0.23438,1.15625 z m 7.97656,2.10937 q 0,0.32813 -0.0469,0.53125 -0.0469,0.20313 -0.14062,0.29688 -0.0937,0.0937 -0.28125,0.1875 -0.1875,0.0781 -0.4375,0.125 -0.23438,0.0469 -0.5,0.0781 -0.26563,0.0469 -0.54688,0.0469 -0.8125,0 -1.40625,-0.21875 -0.57812,-0.21875 -0.95312,-0.65625 -0.375,-0.4375 -0.54688,-1.10938 -0.17187,-0.6875 -0.17187,-1.59375 v -6.17187 h -1.46875 q -0.1875,0 -0.29688,-0.1875 -0.0937,-0.1875 -0.0937,-0.60938 0,-0.21875 0.0312,-0.35937 0.0312,-0.15625 0.0781,-0.25 0.0469,-0.10938 0.10937,-0.14063 0.0781,-0.0469 0.17188,-0.0469 h 1.46875 v -2.51563 q 0,-0.0781 0.0312,-0.14062 0.0469,-0.0781 0.15625,-0.125 0.125,-0.0625 0.3125,-0.0781 0.1875,-0.0312 0.46875,-0.0312 0.28125,0 0.46875,0.0312 0.1875,0.0156 0.29687,0.0781 0.10938,0.0469 0.15625,0.125 0.0469,0.0625 0.0469,0.14062 v 2.51563 h 2.70312 q 0.0937,0 0.15625,0.0469 0.0781,0.0312 0.125,0.14063 0.0625,0.0937 0.0781,0.25 0.0312,0.14062 0.0312,0.35937 0,0.42188 -0.10938,0.60938 -0.10937,0.1875 -0.28125,0.1875 h -2.70312 v 5.89062 q 0,1.09375 0.3125,1.65625 0.32812,0.54688 1.15625,0.54688 0.28125,0 0.48437,-0.0469 0.21875,-0.0625 0.375,-0.10937 0.17188,-0.0625 0.28125,-0.10938 0.125,-0.0625 0.21875,-0.0625 0.0469,0 0.0937,0.0312 0.0625,0.0312 0.0937,0.10938 0.0312,0.0781 0.0469,0.21875 0.0312,0.14062 0.0312,0.35937 z"
     fill-rule="nonzero"
     id="path341" />
</svg>
