<?xml version="1.0" encoding="UTF-8" standalone="no"?>
<svg
   xmlns:dc="http://purl.org/dc/elements/1.1/"
   xmlns:cc="http://creativecommons.org/ns#"
   xmlns:rdf="http://www.w3.org/1999/02/22-rdf-syntax-ns#"
   xmlns:svg="http://www.w3.org/2000/svg"
   xmlns="http://www.w3.org/2000/svg"
   xmlns:sodipodi="http://sodipodi.sourceforge.net/DTD/sodipodi-0.dtd"
   xmlns:inkscape="http://www.inkscape.org/namespaces/inkscape"
   inkscape:version="1.0 (4035a4fb49, 2020-05-01)"
   sodipodi:docname="tidal_estuary.svg"
   id="svg345"
   stroke-miterlimit="10"
   stroke-linecap="square"
   stroke="none"
   fill="none"
   viewBox="0.0 0.0 1280.0 720.0"
   version="1.1">
  <metadata
     id="metadata351">
    <rdf:RDF>
      <cc:Work
         rdf:about="">
        <dc:format>image/svg+xml</dc:format>
        <dc:type
           rdf:resource="http://purl.org/dc/dcmitype/StillImage" />
        <dc:title></dc:title>
      </cc:Work>
    </rdf:RDF>
  </metadata>
  <defs
     id="defs349" />
  <sodipodi:namedview
     inkscape:current-layer="svg345"
     inkscape:window-maximized="1"
     inkscape:window-y="1359"
     inkscape:window-x="554"
     inkscape:cy="360"
     inkscape:cx="693.06843"
     inkscape:zoom="0.94375"
     showgrid="false"
     id="namedview347"
     inkscape:window-height="1001"
     inkscape:window-width="1920"
     inkscape:pageshadow="2"
     inkscape:pageopacity="0"
     guidetolerance="10"
     gridtolerance="10"
     objecttolerance="10"
     borderopacity="1"
     bordercolor="#666666"
     pagecolor="#ffffff"
     inkscape:document-rotation="0" />
  <clipPath
     id="p3.0">
    <path
       id="path2"
       clip-rule="nonzero"
       d="m0 0l1280.0 0l0 720.0l-1280.0 0l0 -720.0z" />
  </clipPath>
  <path
     style="stroke-width:0.237739"
     fill="#ffffff"
     d="M 489.53643,89.006618 H 698.27819 V 338.54305 H 489.53643 Z"
     fill-rule="evenodd"
     id="path5" />
  <path
     inkscape:export-ydpi="300"
     inkscape:export-xdpi="300"
     inkscape:export-filename="C:\Users\sfjones\Documents\Manuscripts\Global typology\tidal_estuary.png"
     fill="#548135"
     d="m 516.63484,203.36946 c -1.82947,2.90381 3.21979,11.23341 8.78131,16.96464 5.56159,5.73124 16.75769,13.98432 24.58777,17.42316 7.83002,3.43886 16.46503,3.05675 22.39239,3.20954 5.92731,0.15278 10.61072,0.22932 13.172,-2.29253 2.56122,-2.5217 1.75623,-9.09369 2.19531,-12.8381 0.43909,-3.74443 -0.21948,-6.72478 0.43909,-9.62861 0.65851,-2.9038 2.7807,-3.97374 3.51251,-7.79455 0.73182,-3.82083 0.0732,-10.39282 0.87812,-15.13065 0.80499,-4.73782 1.75628,-9.24647 3.9516,-13.29661 2.19537,-4.05016 7.31787,-8.1003 9.22039,-11.00411 1.90259,-2.90381 2.4148,-4.27933 2.19538,-6.41905 -0.21949,-2.13974 -1.1709,-2.4511 -3.51258,-6.41907 -2.34161,-3.96797 -7.17132,-15.40226 -10.53759,-17.38907 -3.36622,-1.98681 -9.58631,3.4104 -9.65943,5.46796 -0.0732,2.05757 6.65912,3.13315 9.2204,6.87756 2.56122,3.74443 6.586,10.85132 6.14691,15.58915 -0.43909,4.73783 -6.4397,7.03035 -8.78131,12.83811 -2.34167,5.80777 -3.29309,15.74193 -5.2688,22.00821 -1.97577,6.26627 -1.5368,13.06743 -6.586,15.58915 -5.04919,2.52169 -16.61139,1.9104 -23.70959,-0.45851 -7.09827,-2.36892 -12.36707,-10.92771 -18.87989,-13.75513 -6.51287,-2.82742 -17.92858,-2.44531 -19.75799,0.45851 z"
     fill-rule="evenodd"
     id="path97" />
  <path
     inkscape:export-ydpi="300"
     inkscape:export-xdpi="300"
     inkscape:export-filename="C:\Users\sfjones\Documents\Manuscripts\Global typology\tidal_estuary.png"
     stroke="#000000"
     stroke-width="1"
     stroke-miterlimit="800"
     stroke-linecap="butt"
     d="m 516.63484,203.36946 c -1.82947,2.90381 3.21979,11.23341 8.78131,16.96464 5.56159,5.73124 16.75769,13.98432 24.58777,17.42316 7.83002,3.43886 16.46503,3.05675 22.39239,3.20954 5.92731,0.15278 10.61072,0.22932 13.172,-2.29253 2.56122,-2.5217 1.75623,-9.09369 2.19531,-12.8381 0.43909,-3.74443 -0.21948,-6.72478 0.43909,-9.62861 0.65851,-2.9038 2.7807,-3.97374 3.51251,-7.79455 0.73182,-3.82083 0.0732,-10.39282 0.87812,-15.13065 0.80499,-4.73782 1.75628,-9.24647 3.9516,-13.29661 2.19537,-4.05016 7.31787,-8.1003 9.22039,-11.00411 1.90259,-2.90381 2.4148,-4.27933 2.19538,-6.41905 -0.21949,-2.13974 -1.1709,-2.4511 -3.51258,-6.41907 -2.34161,-3.96797 -7.17132,-15.40226 -10.53759,-17.38907 -3.36622,-1.98681 -9.58631,3.4104 -9.65943,5.46796 -0.0732,2.05757 6.65912,3.13315 9.2204,6.87756 2.56122,3.74443 6.586,10.85132 6.14691,15.58915 -0.43909,4.73783 -6.4397,7.03035 -8.78131,12.83811 -2.34167,5.80777 -3.29309,15.74193 -5.2688,22.00821 -1.97577,6.26627 -1.5368,13.06743 -6.586,15.58915 -5.04919,2.52169 -16.61139,1.9104 -23.70959,-0.45851 -7.09827,-2.36892 -12.36707,-10.92771 -18.87989,-13.75513 -6.51287,-2.82742 -17.92858,-2.44531 -19.75799,0.45851 z"
     fill-rule="evenodd"
     id="path99" />
  <path
     inkscape:export-ydpi="300"
     inkscape:export-xdpi="300"
     inkscape:export-filename="C:\Users\sfjones\Documents\Manuscripts\Global typology\tidal_estuary.png"
     fill="#d7a979"
     d="m 585.12924,111.94188 c -0.1463,5.82563 -4.46381,15.53521 -3.51251,20.7136 0.95129,5.17841 6.07373,9.06221 9.2204,10.3568 3.1466,1.2946 7.53729,-1.86992 9.65942,-2.58919 2.12219,-0.71927 2.41479,-3.81191 3.07349,-1.72614 0.65869,2.08577 1.02447,9.85337 0.87811,14.2406 -0.1463,4.38723 -1.4635,8.9184 -1.75623,12.08294 -0.29278,3.16453 -0.21948,5.25029 0,6.90452 0.21942,1.65424 -0.1463,2.6611 1.3172,3.02074 1.4635,0.35963 7.46411,-0.86307 7.46411,-0.86307 1.3172,0.1438 2.41492,0 0.43909,1.72614 -1.97577,1.72613 -8.78137,4.89067 -12.29388,8.63066 -3.51251,3.74 -6.51282,9.13411 -8.78131,13.80906 -2.2685,4.67498 -3.29309,9.06221 -4.82978,14.2406 -1.53662,5.17841 -3.51251,13.52134 -4.39062,16.82981 -0.87818,3.30847 -0.1463,2.80504 -0.87818,3.02073 -0.73181,0.2157 -2.34161,-0.21583 -3.51251,-1.72613 -1.1709,-1.5103 -3.51251,-7.6238 -3.51251,-7.33606 0,0.28773 3.51251,9.06219 3.51251,9.06219 0.1463,1.79804 1.82941,2.22957 -2.6344,1.72614 -4.4638,-0.50343 -20.1239,-2.94884 -24.14868,-4.74687 -4.02472,-1.79804 -0.0731,-4.53116 0,-6.04146 0.0732,-1.5103 1.24408,-3.38037 0.43909,-3.02074 -0.80499,0.35964 -3.8053,4.60306 -5.2688,5.17839 -1.4635,0.57534 -1.24408,0.71927 -3.51257,-1.72612 -2.26844,-2.4454 -8.19593,-10.21301 -10.09852,-12.946 -1.90258,-2.733 -1.53668,-1.86993 -1.3172,-3.45227 0.21949,-1.58233 3.29297,-5.1784 2.6344,-6.04147 -0.6585,-0.86307 -3.51251,0.1438 -6.58599,0.86307 -3.07349,0.71927 -9.29352,4.17154 -11.8548,3.45227 -2.56122,-0.71927 -7.7569,-5.32221 -3.51251,-7.76761 4.24432,-2.44539 22.7583,-7.62379 28.97839,-6.90453 6.22009,0.71927 4.39069,8.77446 8.34229,11.21987 3.95159,2.4454 11.12292,5.2503 15.36731,3.45227 4.24432,-1.79804 6.7323,-6.83264 10.09851,-14.2406 3.36621,-7.40798 10.17169,-22.43973 10.09857,-30.20734 -0.0732,-7.76759 -7.31787,-10.21299 -10.5376,-16.39827 -3.21979,-6.18526 -10.24487,-12.8741 -8.78137,-20.71359 1.4635,-7.83951 13.68426,-24.453608 17.56268,-26.323528 3.87842,-1.86994 2.7807,8.414958 2.6344,14.240588 z"
     fill-rule="evenodd"
     id="path101" />
  <path
     inkscape:export-ydpi="300"
     inkscape:export-xdpi="300"
     inkscape:export-filename="C:\Users\sfjones\Documents\Manuscripts\Global typology\tidal_estuary.png"
     fill="#548135"
     d="m 630.79214,235.36042 c 0,7.83951 -6.0737,2.22957 -9.2204,1.2946 -3.1466,-0.93497 -7.0982,-3.52417 -9.65942,-6.90454 -2.56128,-3.38037 -4.17121,-9.42183 -5.70789,-13.37753 -1.5368,-3.95571 -3.29309,-6.54489 -3.51251,-10.3568 -0.21948,-3.8119 0.65863,-9.34993 2.19531,-12.51446 1.53668,-3.16454 5.1225,-3.95571 7.02509,-6.47301 1.90259,-2.5173 4.09792,-5.39409 4.39062,-8.63066 0.2928,-3.23657 -1.0977,-7.26418 -2.6344,-10.78833 -1.5368,-3.52417 -6.07373,-5.96958 -6.58599,-10.35681 -0.51221,-4.38723 4.24438,-12.29877 3.51257,-15.96672 -0.73181,-3.66811 -5.92749,-4.60308 -7.9032,-6.04148 -1.97589,-1.4384 -4.90289,-2.15767 -3.9516,-2.5892 0.95129,-0.43153 5.70783,-1.86994 9.65942,0 3.9516,1.86993 10.5376,4.89067 14.0502,11.21986 3.5125,6.32921 7.1714,19.13127 7.025,26.75507 -0.1463,7.62381 -7.6104,8.77447 -7.9032,18.98747 -0.2927,10.213 9.2204,37.90303 9.2204,45.74254 z"
     fill-rule="evenodd"
     id="path103" />
  <path
     inkscape:export-ydpi="300"
     inkscape:export-xdpi="300"
     inkscape:export-filename="C:\Users\sfjones\Documents\Manuscripts\Global typology\tidal_estuary.png"
     stroke="#000000"
     stroke-width="1"
     stroke-miterlimit="800"
     stroke-linecap="butt"
     d="m 630.79214,235.36042 c 0,7.83951 -6.0737,2.22957 -9.2204,1.2946 -3.1466,-0.93497 -7.0982,-3.52417 -9.65942,-6.90454 -2.56128,-3.38037 -4.17121,-9.42183 -5.70789,-13.37753 -1.5368,-3.95571 -3.29309,-6.54489 -3.51251,-10.3568 -0.21948,-3.8119 0.65863,-9.34993 2.19531,-12.51446 1.53668,-3.16454 5.1225,-3.95571 7.02509,-6.47301 1.90259,-2.5173 4.09792,-5.39409 4.39062,-8.63066 0.2928,-3.23657 -1.0977,-7.26418 -2.6344,-10.78833 -1.5368,-3.52417 -6.07373,-5.96958 -6.58599,-10.35681 -0.51221,-4.38723 4.24438,-12.29877 3.51257,-15.96672 -0.73181,-3.66811 -5.92749,-4.60308 -7.9032,-6.04148 -1.97589,-1.4384 -4.90289,-2.15767 -3.9516,-2.5892 0.95129,-0.43153 5.70783,-1.86994 9.65942,0 3.9516,1.86993 10.5376,4.89067 14.0502,11.21986 3.5125,6.32921 7.1714,19.13127 7.025,26.75507 -0.1463,7.62381 -7.6104,8.77447 -7.9032,18.98747 -0.2927,10.213 9.2204,37.90303 9.2204,45.74254 z"
     fill-rule="evenodd"
     id="path105" />
  <path
     inkscape:export-ydpi="300"
     inkscape:export-xdpi="300"
     inkscape:export-filename="C:\Users\sfjones\Documents\Manuscripts\Global typology\tidal_estuary.png"
     fill="#d7a979"
     d="m 670.30814,228.45588 c -2.5612,2.5173 -6.7323,2.5173 -8.7813,1.72614 -2.049,-0.79117 -2.4881,-6.5449 -3.5125,-6.473 -1.0245,0.0719 1.0976,5.25029 -2.6344,6.90453 -3.7322,1.65423 -15.5137,2.80504 -19.758,3.02074 -4.2444,0.21583 -4.4638,0.14379 -5.7079,-1.72614 -1.244,-1.86993 -1.1709,-9.49373 -1.7563,-9.49373 -0.5853,0 -0.8781,7.91139 -1.7562,9.49373 -0.8782,1.58234 -1.9759,0.86307 -3.5126,0 -1.5366,-0.86307 -3.8052,-1.94197 -5.7078,-5.17841 -1.9026,-3.23642 -3.95162,-8.91839 -5.70791,-14.2406 -1.75629,-5.32219 -4.24432,-13.80906 -4.82971,-17.69285 -0.58539,-3.88381 -0.43909,-4.09964 1.3172,-5.60994 1.75622,-1.5103 7.02502,-2.37351 9.22042,-3.45227 2.1953,-1.07877 3.1466,-1.51042 3.9516,-3.02072 0.805,-1.5103 1.4635,-3.30848 0.8781,-6.04148 -0.5854,-2.733 -2.6344,-8.91839 -4.3907,-10.35679 -1.7562,-1.4384 -4.90283,3.45227 -6.14691,1.72613 -1.24402,-1.72613 -1.53681,-8.84637 -1.3172,-12.08293 0.2196,-3.23657 0.65869,-5.75374 2.6344,-7.33607 1.97571,-1.58234 9.29361,0 9.22041,-2.15767 -0.073,-2.15767 -6.3665,-8.27103 -9.6595,-10.78833 -3.29291,-2.51731 -6.43963,-4.17154 -10.09851,-4.31534 -3.65881,-0.1438 -11.8548,3.45227 -11.8548,3.45227 -2.41479,0.57533 -1.90258,3.8838 -2.6344,0 -0.73181,-3.88381 -2.7807,-20.21016 -1.75628,-23.3028 1.02447,-3.09263 2.12219,3.73999 7.9032,4.74686 5.78106,1.00687 19.46527,-1.94182 26.78309,1.2946 7.3178,3.23644 13.3915,7.98331 17.1236,18.12441 3.732,10.14096 1.9759,30.78267 5.2688,42.7218 3.2929,11.93913 8.8545,22.79936 14.4892,28.91273 5.6347,6.11336 16.9773,4.96256 19.3189,7.7676 2.3417,2.8049 -4.0247,10.86022 -6.586,13.37753 z"
     fill-rule="evenodd"
     id="path107" />
  <path
     inkscape:export-ydpi="300"
     inkscape:export-xdpi="300"
     inkscape:export-filename="C:\Users\sfjones\Documents\Manuscripts\Global typology\tidal_estuary.png"
     fill="#548135"
     d="m 605.32634,230.61355 c -0.95129,-4.81877 -5.34198,-19.70673 -6.586,-21.57666 -1.24408,-1.86993 -1.82947,5.53803 -0.87817,10.3568 0.95129,4.81877 5.34198,16.9017 6.586,18.55593 1.24408,1.65423 1.82946,-2.5173 0.87817,-7.33607 z"
     fill-rule="evenodd"
     id="path109" />
  <path
     inkscape:export-ydpi="300"
     inkscape:export-xdpi="300"
     inkscape:export-filename="C:\Users\sfjones\Documents\Manuscripts\Global typology\tidal_estuary.png"
     stroke="#000000"
     stroke-width="1"
     stroke-miterlimit="800"
     stroke-linecap="butt"
     d="m 605.32634,230.61355 c -0.95129,-4.81877 -5.34198,-19.70673 -6.586,-21.57666 -1.24408,-1.86993 -1.82947,5.53803 -0.87817,10.3568 0.95129,4.81877 5.34198,16.9017 6.586,18.55593 1.24408,1.65423 1.82946,-2.5173 0.87817,-7.33607 z"
     fill-rule="evenodd"
     id="path111" />
  <path
     inkscape:export-ydpi="300"
     inkscape:export-xdpi="300"
     inkscape:export-filename="C:\Users\sfjones\Documents\Manuscripts\Global typology\tidal_estuary.png"
     fill="#548135"
     d="m 596.98404,200.83775 c 0.65851,0.28773 6.14691,-6.54489 6.586,-8.19913 0.43909,-1.65423 -2.85388,-2.87693 -3.9516,-1.72613 -1.0976,1.1508 -3.29291,9.63752 -2.6344,9.92526 z"
     fill-rule="evenodd"
     id="path113" />
  <path
     inkscape:export-ydpi="300"
     inkscape:export-xdpi="300"
     inkscape:export-filename="C:\Users\sfjones\Documents\Manuscripts\Global typology\tidal_estuary.png"
     stroke="#000000"
     stroke-width="1"
     stroke-miterlimit="800"
     stroke-linecap="butt"
     d="m 596.98404,200.83775 c 0.65851,0.28773 6.14691,-6.54489 6.586,-8.19913 0.43909,-1.65423 -2.85388,-2.87693 -3.9516,-1.72613 -1.0976,1.1508 -3.29291,9.63752 -2.6344,9.92526 z"
     fill-rule="evenodd"
     id="path115" />
  <path
     inkscape:export-ydpi="300"
     inkscape:export-xdpi="300"
     inkscape:export-filename="C:\Users\sfjones\Documents\Manuscripts\Global typology\tidal_estuary.png"
     fill="#548135"
     d="m 597.42314,239.24421 c 0,3.88382 -2.92718,13.95288 -3.51257,12.08295 -0.58533,-1.86994 -0.73181,-21.21704 0,-23.30281 0.73187,-2.08577 3.51257,7.33607 3.51257,11.21986 z"
     fill-rule="evenodd"
     id="path117" />
  <path
     inkscape:export-ydpi="300"
     inkscape:export-xdpi="300"
     inkscape:export-filename="C:\Users\sfjones\Documents\Manuscripts\Global typology\tidal_estuary.png"
     stroke="#000000"
     stroke-width="1"
     stroke-miterlimit="800"
     stroke-linecap="butt"
     d="m 597.42314,239.24421 c 0,3.88382 -2.92718,13.95288 -3.51257,12.08295 -0.58533,-1.86994 -0.73181,-21.21704 0,-23.30281 0.73187,-2.08577 3.51257,7.33607 3.51257,11.21986 z"
     fill-rule="evenodd"
     id="path119" />
  <path
     inkscape:export-ydpi="300"
     inkscape:export-xdpi="300"
     inkscape:export-filename="C:\Users\sfjones\Documents\Manuscripts\Global typology\tidal_estuary.png"
     fill="#000000"
     fill-opacity="0"
     d="m 669.85204,228.03863 c -2.8526,1.37329 -5.7054,2.74658 -7.6848,2.05994 -1.9795,-0.68665 -3.0274,-6.17969 -4.1919,-6.17969 -1.1643,0 1.3973,4.46307 -2.7943,6.17969 -4.1917,1.71661 -17.9314,5.37873 -22.356,4.11988 -4.4247,-1.25885 -3.1439,-11.444 -4.1919,-11.67288 -1.048,-0.22888 -0.2328,9.15517 -2.0959,10.29959 -1.863,1.14441 -6.404,0.45777 -9.0821,-3.43324 -2.6781,-3.89101 -5.23964,-13.3895 -6.98622,-19.91251 -1.74658,-6.52302 -5.3562,-14.76266 -3.49316,-19.22587 1.86304,-4.46321 12.80818,-3.54755 14.67118,-7.55298 1.8631,-4.00545 -1.7466,-13.9617 -3.4931,-16.47942 -1.7466,-2.5177 -5.93833,4.23433 -6.98625,1.3733 -1.04797,-2.86103 -1.04797,-14.99154 0.69861,-18.53922 1.74658,-3.54767 10.94514,0.22888 9.78074,-2.74658 -1.1643,-2.97548 -11.29459,-13.27492 -16.76707,-15.10597 -5.47247,-1.83107 -12.80804,7.32409 -16.06829,4.11973 -3.26032,-3.20434 -2.44526,-23.11686 -3.49323,-23.34574 -1.04791,-0.22888 -3.84247,16.70815 -2.79449,21.97245 1.04791,5.26416 5.58905,8.6974 9.08221,9.61293 3.49322,0.91553 9.89722,-6.63745 11.87665,-4.11975 1.97949,2.51772 0,19.22586 0,19.22586 0,5.72194 -1.51367,12.47383 0,15.10599 1.51373,2.63214 9.43145,-1.02997 9.08215,0.68664 -0.34936,1.71662 -7.33557,5.14972 -11.17804,9.61293 -3.84247,4.46321 -8.49994,9.26975 -11.87665,17.16606 -3.37671,7.89631 -5.82184,26.32108 -8.38348,30.21209 -2.56165,3.891 -6.05481,-7.20966 -6.98633,-6.86634 -0.93152,0.34333 5.35608,8.23964 1.39728,8.92629 -3.9588,0.68664 -20.9588,-2.63216 -25.15045,-4.80654 -4.19165,-2.17439 1.04797,-7.66743 0,-8.23963 -1.04798,-0.57221 -3.14386,6.63758 -6.28772,4.80653 -3.14386,-1.83105 -10.71222,-11.90176 -12.57526,-15.79276 -1.86304,-3.891 4.07538,-6.86634 1.39728,-7.55299 -2.6781,-0.68664 -17.46564,3.43311 -17.46564,3.43311 v 0"
     fill-rule="evenodd"
     id="path121" />
  <path
     inkscape:export-ydpi="300"
     inkscape:export-xdpi="300"
     inkscape:export-filename="C:\Users\sfjones\Documents\Manuscripts\Global typology\tidal_estuary.png"
     stroke="#000000"
     stroke-width="1.33333"
     stroke-miterlimit="800"
     stroke-linecap="butt"
     d="m 669.85204,228.03863 c -2.8526,1.37329 -5.7054,2.74658 -7.6848,2.05994 -1.9795,-0.68665 -3.0274,-6.17969 -4.1919,-6.17969 -1.1643,0 1.3973,4.46307 -2.7943,6.17969 -4.1917,1.71661 -17.9314,5.37873 -22.356,4.11988 -4.4247,-1.25885 -3.1439,-11.444 -4.1919,-11.67288 -1.048,-0.22888 -0.2328,9.15517 -2.0959,10.29959 -1.863,1.14441 -6.404,0.45777 -9.0821,-3.43324 -2.6781,-3.89101 -5.23964,-13.3895 -6.98622,-19.91251 -1.74658,-6.52302 -5.3562,-14.76266 -3.49316,-19.22587 1.86304,-4.46321 12.80818,-3.54755 14.67118,-7.55298 1.8631,-4.00545 -1.7466,-13.9617 -3.4931,-16.47942 -1.7466,-2.5177 -5.93833,4.23433 -6.98625,1.3733 -1.04797,-2.86103 -1.04797,-14.99154 0.69861,-18.53922 1.74658,-3.54767 10.94514,0.22888 9.78074,-2.74658 -1.1643,-2.97548 -11.29459,-13.27492 -16.76707,-15.10597 -5.47247,-1.83107 -12.80804,7.32409 -16.06829,4.11973 -3.26032,-3.20434 -2.44526,-23.11686 -3.49323,-23.34574 -1.04791,-0.22888 -3.84247,16.70815 -2.79449,21.97245 1.04791,5.26416 5.58905,8.6974 9.08221,9.61293 3.49322,0.91553 9.89722,-6.63745 11.87665,-4.11975 1.97949,2.51772 0,19.22586 0,19.22586 0,5.72194 -1.51367,12.47383 0,15.10599 1.51373,2.63214 9.43145,-1.02997 9.08215,0.68664 -0.34936,1.71662 -7.33557,5.14972 -11.17804,9.61293 -3.84247,4.46321 -8.49994,9.26975 -11.87665,17.16606 -3.37671,7.89631 -5.82184,26.32108 -8.38348,30.21209 -2.56165,3.891 -6.05481,-7.20966 -6.98633,-6.86634 -0.93152,0.34333 5.35608,8.23964 1.39728,8.92629 -3.9588,0.68664 -20.9588,-2.63216 -25.15045,-4.80654 -4.19165,-2.17439 1.04797,-7.66743 0,-8.23963 -1.04798,-0.57221 -3.14386,6.63758 -6.28772,4.80653 -3.14386,-1.83105 -10.71222,-11.90176 -12.57526,-15.79276 -1.86304,-3.891 4.07538,-6.86634 1.39728,-7.55299 -2.6781,-0.68664 -17.46564,3.43311 -17.46564,3.43311 v 0"
     fill-rule="evenodd"
     id="path123" />
  <path
     inkscape:export-ydpi="300"
     inkscape:export-xdpi="300"
     inkscape:export-filename="C:\Users\sfjones\Documents\Manuscripts\Global typology\tidal_estuary.png"
     fill="#000000"
     fill-opacity="0"
     d="m 669.86914,232.77122 c -4.3907,0.61134 -8.7814,1.2227 -14.0502,2.5892 -5.2688,1.3665 -13.0257,2.66111 -17.5626,5.60993 -4.537,2.94885 -3.5857,8.19912 -9.6595,12.08294 -6.0738,3.88379 -17.12361,11.36365 -26.7831,11.21985 -9.65942,-0.1438 -20.34332,-8.70254 -31.17371,-12.08291 -10.83038,-3.38037 -23.1242,-1.15082 -33.80816,-8.19913 -10.6839,-7.04834 -20.48969,-20.56967 -30.2956,-34.09114"
     fill-rule="evenodd"
     id="path125" />
  <path
     inkscape:export-ydpi="300"
     inkscape:export-xdpi="300"
     inkscape:export-filename="C:\Users\sfjones\Documents\Manuscripts\Global typology\tidal_estuary.png"
     stroke="#000000"
     stroke-width="1.33333"
     stroke-miterlimit="800"
     stroke-linecap="butt"
     stroke-dasharray="5.33333, 4"
     d="m 669.86914,232.77122 c -4.3907,0.61134 -8.7814,1.2227 -14.0502,2.5892 -5.2688,1.3665 -13.0257,2.66111 -17.5626,5.60993 -4.537,2.94885 -3.5857,8.19912 -9.6595,12.08294 -6.0738,3.88379 -17.12361,11.36365 -26.7831,11.21985 -9.65942,-0.1438 -20.34332,-8.70254 -31.17371,-12.08291 -10.83038,-3.38037 -23.1242,-1.15082 -33.80816,-8.19913 -10.6839,-7.04834 -20.48969,-20.56967 -30.2956,-34.09114"
     fill-rule="evenodd"
     id="path127" />
  <path
     fill="#000000"
     fill-opacity="0"
     d="M 683.6341,31.487663 H 873.61835 V 70.259315 H 683.6341 Z"
     fill-rule="evenodd"
     id="path315" />
  <path
     fill="#000000"
     d="m 547.53141,295.11079 q 0,0.21875 -0.0312,0.39063 -0.0156,0.15625 -0.0625,0.26562 -0.0469,0.0937 -0.125,0.14063 -0.0781,0.0469 -0.17188,0.0469 h -4.26562 v 13.14063 q 0,0.0937 -0.0469,0.17187 -0.0469,0.0625 -0.17187,0.10938 -0.10938,0.0469 -0.3125,0.0781 -0.1875,0.0312 -0.48438,0.0312 -0.28125,0 -0.48437,-0.0312 -0.1875,-0.0312 -0.3125,-0.0781 -0.10938,-0.0469 -0.15625,-0.10938 -0.0469,-0.0781 -0.0469,-0.17187 v -13.14063 h -4.26562 q -0.0937,0 -0.17188,-0.0469 -0.0781,-0.0469 -0.125,-0.14063 -0.0469,-0.10937 -0.0781,-0.26562 -0.0312,-0.17188 -0.0312,-0.39063 0,-0.21875 0.0312,-0.39062 0.0312,-0.17188 0.0781,-0.28125 0.0469,-0.10938 0.125,-0.15625 0.0781,-0.0469 0.17188,-0.0469 h 10.54687 q 0.0937,0 0.17188,0.0469 0.0781,0.0469 0.125,0.15625 0.0469,0.10937 0.0625,0.28125 0.0312,0.17187 0.0312,0.39062 z m 3.91406,14 q 0,0.0937 -0.0469,0.15625 -0.0469,0.0625 -0.15625,0.125 -0.10938,0.0469 -0.29688,0.0625 -0.1875,0.0312 -0.48437,0.0312 -0.28125,0 -0.46875,-0.0312 -0.1875,-0.0156 -0.29688,-0.0625 -0.10937,-0.0625 -0.15625,-0.125 -0.0312,-0.0625 -0.0312,-0.15625 v -10.54687 q 0,-0.0781 0.0312,-0.14063 0.0469,-0.0781 0.15625,-0.125 0.10938,-0.0469 0.29688,-0.0625 0.1875,-0.0312 0.46875,-0.0312 0.29687,0 0.48437,0.0312 0.1875,0.0156 0.29688,0.0625 0.10937,0.0469 0.15625,0.125 0.0469,0.0625 0.0469,0.14063 z m 0.21875,-14.10937 q 0,0.6875 -0.26562,0.9375 -0.25,0.23437 -0.9375,0.23437 -0.6875,0 -0.9375,-0.23437 -0.25,-0.25 -0.25,-0.90625 0,-0.6875 0.25,-0.92188 0.26562,-0.25 0.95312,-0.25 0.6875,0 0.9375,0.23438 0.25,0.23437 0.25,0.90625 z m 12.38281,14.10937 q 0,0.0937 -0.0469,0.17188 -0.0312,0.0625 -0.14063,0.10937 -0.0937,0.0469 -0.26562,0.0625 -0.15625,0.0312 -0.39063,0.0312 -0.25,0 -0.42187,-0.0312 -0.15625,-0.0156 -0.26563,-0.0625 -0.0937,-0.0469 -0.14062,-0.10937 -0.0469,-0.0781 -0.0469,-0.17188 v -1.39062 q -0.82812,0.90625 -1.73437,1.40625 -0.89063,0.5 -1.95313,0.5 -1.17187,0 -2,-0.45313 -0.8125,-0.45312 -1.32812,-1.21875 -0.5,-0.76562 -0.73438,-1.79687 -0.23437,-1.04688 -0.23437,-2.1875 0,-1.35938 0.29687,-2.45313 0.29688,-1.09375 0.85938,-1.85937 0.57812,-0.78125 1.42187,-1.20313 0.85938,-0.42187 1.96875,-0.42187 0.92188,0 1.6875,0.40625 0.78125,0.40625 1.53125,1.1875 v -6.125 q 0,-0.0781 0.0312,-0.15625 0.0469,-0.0781 0.15625,-0.10938 0.125,-0.0469 0.29688,-0.0781 0.1875,-0.0312 0.46875,-0.0312 0.29687,0 0.48437,0.0312 0.1875,0.0312 0.28125,0.0781 0.10938,0.0312 0.15625,0.10938 0.0625,0.0781 0.0625,0.15625 z m -1.9375,-7.42187 q -0.79687,-0.96875 -1.53125,-1.46875 -0.71875,-0.51563 -1.51562,-0.51563 -0.75,0 -1.26563,0.35938 -0.51562,0.34375 -0.84375,0.92187 -0.3125,0.5625 -0.46875,1.29688 -0.14062,0.71875 -0.14062,1.46875 0,0.79687 0.125,1.5625 0.125,0.76562 0.42187,1.35937 0.3125,0.59375 0.8125,0.95313 0.51563,0.34375 1.26563,0.34375 0.39062,0 0.75,-0.0937 0.35937,-0.10938 0.73437,-0.35938 0.375,-0.25 0.78125,-0.64062 0.40625,-0.39063 0.875,-0.96875 z m 13.45313,7.4375 q 0,0.14062 -0.0937,0.21875 -0.0937,0.0625 -0.26563,0.0937 -0.15625,0.0469 -0.46875,0.0469 -0.29687,0 -0.48437,-0.0469 -0.1875,-0.0312 -0.26563,-0.0937 -0.0781,-0.0781 -0.0781,-0.21875 v -1.0625 q -0.6875,0.75 -1.54688,1.15625 -0.84375,0.40625 -1.79687,0.40625 -0.82813,0 -1.5,-0.21875 -0.67188,-0.21875 -1.15625,-0.625 -0.46875,-0.40625 -0.73438,-1 -0.26562,-0.60938 -0.26562,-1.35938 0,-0.89062 0.35937,-1.54687 0.375,-0.65625 1.04688,-1.09375 0.6875,-0.4375 1.67187,-0.65625 0.98438,-0.21875 2.20313,-0.21875 h 1.45312 v -0.8125 q 0,-0.60938 -0.125,-1.07813 -0.125,-0.46875 -0.42187,-0.78125 -0.28125,-0.3125 -0.73438,-0.46875 -0.45312,-0.15625 -1.125,-0.15625 -0.71875,0 -1.29687,0.17188 -0.5625,0.17187 -0.98438,0.375 -0.42187,0.20312 -0.71875,0.375 -0.28125,0.17187 -0.42187,0.17187 -0.0937,0 -0.17188,-0.0469 -0.0625,-0.0469 -0.125,-0.14063 -0.0469,-0.0937 -0.0781,-0.23437 -0.0156,-0.15625 -0.0156,-0.32813 0,-0.29687 0.0312,-0.46875 0.0469,-0.17187 0.20313,-0.3125 0.17187,-0.15625 0.54687,-0.35937 0.39063,-0.21875 0.89063,-0.375 0.51562,-0.17188 1.10937,-0.28125 0.59375,-0.125 1.20313,-0.125 1.14062,0 1.9375,0.26562 0.79687,0.25 1.28125,0.75 0.5,0.5 0.71875,1.25 0.21875,0.73438 0.21875,1.71875 z m -1.92188,-4.8125 h -1.64062 q -0.79688,0 -1.39063,0.14062 -0.57812,0.125 -0.96875,0.39063 -0.39062,0.26562 -0.57812,0.64062 -0.17188,0.35938 -0.17188,0.84375 0,0.8125 0.51563,1.29688 0.53125,0.48437 1.46875,0.48437 0.75,0 1.40625,-0.375 0.65625,-0.39062 1.35937,-1.1875 z m 7.41797,4.79687 q 0,0.0937 -0.0469,0.15625 -0.0469,0.0625 -0.15625,0.125 -0.10938,0.0469 -0.29688,0.0625 -0.1875,0.0312 -0.48437,0.0312 -0.28125,0 -0.46875,-0.0312 -0.1875,-0.0156 -0.29688,-0.0625 -0.10937,-0.0625 -0.15625,-0.125 -0.0312,-0.0625 -0.0312,-0.15625 v -15.65625 q 0,-0.0937 0.0312,-0.15625 0.0469,-0.0781 0.15625,-0.125 0.10938,-0.0469 0.29688,-0.0625 0.1875,-0.0312 0.46875,-0.0312 0.29687,0 0.48437,0.0312 0.1875,0.0156 0.29688,0.0625 0.10937,0.0469 0.15625,0.125 0.0469,0.0625 0.0469,0.15625 z m 17.65235,-0.53125 q 0,0.20313 -0.0312,0.35938 -0.0156,0.15625 -0.0781,0.26562 -0.0469,0.10938 -0.125,0.15625 -0.0781,0.0469 -0.17187,0.0469 h -7.28125 q -0.26563,0 -0.51563,-0.17188 -0.23437,-0.1875 -0.23437,-0.65625 v -13.51562 q 0,-0.45313 0.23437,-0.64063 0.25,-0.1875 0.51563,-0.1875 h 7.20312 q 0.0937,0 0.15625,0.0469 0.0781,0.0469 0.125,0.15625 0.0469,0.10937 0.0781,0.26562 0.0312,0.15625 0.0312,0.39063 0,0.21875 -0.0312,0.375 -0.0312,0.15625 -0.0781,0.26562 -0.0469,0.0937 -0.125,0.14063 -0.0625,0.0469 -0.15625,0.0469 h -5.9375 v 4.75 h 5.09375 q 0.0937,0 0.15625,0.0625 0.0781,0.0469 0.125,0.14063 0.0625,0.0937 0.0781,0.26562 0.0312,0.15625 0.0312,0.375 0,0.21875 -0.0312,0.375 -0.0156,0.14063 -0.0781,0.23438 -0.0469,0.0937 -0.125,0.14062 -0.0625,0.0312 -0.15625,0.0312 h -5.09375 v 5.4375 h 6.01563 q 0.0937,0 0.17187,0.0469 0.0781,0.0469 0.125,0.14062 0.0625,0.0937 0.0781,0.26563 0.0312,0.15625 0.0312,0.39062 z m 9.6875,-2.34375 q 0,0.8125 -0.3125,1.45313 -0.29688,0.625 -0.84375,1.0625 -0.54688,0.4375 -1.3125,0.65625 -0.76563,0.21875 -1.67188,0.21875 -0.5625,0 -1.07812,-0.0937 -0.5,-0.0781 -0.90625,-0.20313 -0.40625,-0.14062 -0.6875,-0.28125 -0.28125,-0.15625 -0.42188,-0.26562 -0.125,-0.125 -0.1875,-0.32813 -0.0469,-0.21875 -0.0469,-0.57812 0,-0.23438 0.0156,-0.375 0.0312,-0.15625 0.0625,-0.25 0.0312,-0.0937 0.0937,-0.125 0.0781,-0.0469 0.15625,-0.0469 0.125,0 0.375,0.15625 0.25,0.15625 0.625,0.34375 0.375,0.1875 0.875,0.34375 0.5,0.15625 1.15625,0.15625 0.5,0 0.89063,-0.0937 0.40625,-0.10937 0.6875,-0.3125 0.29687,-0.21875 0.45312,-0.53125 0.15625,-0.3125 0.15625,-0.75 0,-0.4375 -0.23437,-0.73437 -0.21875,-0.3125 -0.59375,-0.54688 -0.375,-0.23437 -0.84375,-0.42187 -0.46875,-0.1875 -0.96875,-0.375 -0.5,-0.20313 -0.96875,-0.45313 -0.46875,-0.25 -0.84375,-0.60937 -0.375,-0.375 -0.60938,-0.875 -0.23437,-0.5 -0.23437,-1.20313 0,-0.625 0.23437,-1.1875 0.25,-0.57812 0.73438,-1 0.48437,-0.4375 1.20312,-0.6875 0.71875,-0.26562 1.67188,-0.26562 0.42187,0 0.84375,0.0781 0.42187,0.0625 0.76562,0.17188 0.34375,0.10937 0.57813,0.23437 0.25,0.125 0.35937,0.21875 0.125,0.0937 0.17188,0.17188 0.0469,0.0625 0.0625,0.15625 0.0156,0.0781 0.0312,0.20312 0.0156,0.125 0.0156,0.3125 0,0.20313 -0.0156,0.35938 -0.0156,0.14062 -0.0625,0.23437 -0.0312,0.0937 -0.0937,0.14063 -0.0625,0.0312 -0.125,0.0312 -0.10938,0 -0.3125,-0.125 -0.20313,-0.125 -0.51563,-0.26563 -0.3125,-0.15625 -0.75,-0.28125 -0.42187,-0.14062 -0.96875,-0.14062 -0.5,0 -0.875,0.125 -0.375,0.10937 -0.60937,0.3125 -0.23438,0.20312 -0.35938,0.48437 -0.125,0.28125 -0.125,0.60938 0,0.45312 0.23438,0.76562 0.23437,0.3125 0.60937,0.54688 0.375,0.23437 0.84375,0.42187 0.48438,0.1875 0.98438,0.39063 0.5,0.1875 0.98437,0.4375 0.48438,0.25 0.85938,0.60937 0.375,0.34375 0.60937,0.84375 0.23438,0.48438 0.23438,1.15625 z m 7.97656,2.10938 q 0,0.32812 -0.0469,0.53125 -0.0469,0.20312 -0.14063,0.29687 -0.0937,0.0937 -0.28125,0.1875 -0.1875,0.0781 -0.4375,0.125 -0.23437,0.0469 -0.5,0.0781 -0.26562,0.0469 -0.54687,0.0469 -0.8125,0 -1.40625,-0.21875 -0.57813,-0.21875 -0.95313,-0.65625 -0.375,-0.4375 -0.54687,-1.10937 -0.17188,-0.6875 -0.17188,-1.59375 v -6.17188 h -1.46875 q -0.1875,0 -0.29687,-0.1875 -0.0937,-0.1875 -0.0937,-0.60937 0,-0.21875 0.0312,-0.35938 0.0312,-0.15625 0.0781,-0.25 0.0469,-0.10937 0.10938,-0.14062 0.0781,-0.0469 0.17187,-0.0469 h 1.46875 v -2.51562 q 0,-0.0781 0.0312,-0.14063 0.0469,-0.0781 0.15625,-0.125 0.125,-0.0625 0.3125,-0.0781 0.1875,-0.0312 0.46875,-0.0312 0.28125,0 0.46875,0.0312 0.1875,0.0156 0.29688,0.0781 0.10937,0.0469 0.15625,0.125 0.0469,0.0625 0.0469,0.14063 v 2.51562 h 2.70313 q 0.0937,0 0.15625,0.0469 0.0781,0.0312 0.125,0.14062 0.0625,0.0937 0.0781,0.25 0.0312,0.14063 0.0312,0.35938 0,0.42187 -0.10937,0.60937 -0.10938,0.1875 -0.28125,0.1875 h -2.70313 v 5.89063 q 0,1.09375 0.3125,1.65625 0.32813,0.54687 1.15625,0.54687 0.28125,0 0.48438,-0.0469 0.21875,-0.0625 0.375,-0.10938 0.17187,-0.0625 0.28125,-0.10937 0.125,-0.0625 0.21875,-0.0625 0.0469,0 0.0937,0.0312 0.0625,0.0312 0.0937,0.10937 0.0312,0.0781 0.0469,0.21875 0.0312,0.14063 0.0312,0.35938 z m 11.58594,0.76562 q 0,0.0937 -0.0469,0.15625 -0.0312,0.0625 -0.14062,0.125 -0.10938,0.0469 -0.28125,0.0625 -0.15625,0.0312 -0.40625,0.0312 -0.26563,0 -0.4375,-0.0312 -0.17188,-0.0156 -0.28125,-0.0625 -0.0937,-0.0625 -0.125,-0.125 -0.0312,-0.0625 -0.0312,-0.15625 v -1.39062 q -0.90625,1 -1.79688,1.45312 -0.875,0.45313 -1.76562,0.45313 -1.0625,0 -1.78125,-0.34375 -0.71875,-0.35938 -1.17188,-0.95313 -0.4375,-0.60937 -0.64062,-1.40625 -0.1875,-0.8125 -0.1875,-1.95312 v -6.40625 q 0,-0.0937 0.0312,-0.15625 0.0469,-0.0625 0.15625,-0.10938 0.125,-0.0625 0.3125,-0.0781 0.1875,-0.0156 0.46875,-0.0156 0.28125,0 0.46875,0.0156 0.1875,0.0156 0.29687,0.0781 0.125,0.0469 0.17188,0.10938 0.0469,0.0625 0.0469,0.15625 v 6.14062 q 0,0.92188 0.125,1.48438 0.14063,0.5625 0.40625,0.95312 0.28125,0.39063 0.70313,0.60938 0.42187,0.21875 0.98437,0.21875 0.73438,0 1.45313,-0.51563 0.71875,-0.51562 1.53125,-1.51562 v -7.375 q 0,-0.0937 0.0312,-0.15625 0.0469,-0.0625 0.15625,-0.10938 0.125,-0.0625 0.29687,-0.0781 0.1875,-0.0156 0.48438,-0.0156 0.28125,0 0.46875,0.0156 0.1875,0.0156 0.28125,0.0781 0.10937,0.0469 0.15625,0.10938 0.0625,0.0625 0.0625,0.15625 z m 11.51562,0.0156 q 0,0.14062 -0.0937,0.21875 -0.0937,0.0625 -0.26562,0.0937 -0.15625,0.0469 -0.46875,0.0469 -0.29688,0 -0.48438,-0.0469 -0.1875,-0.0312 -0.26562,-0.0937 -0.0781,-0.0781 -0.0781,-0.21875 v -1.0625 q -0.6875,0.75 -1.54687,1.15625 -0.84375,0.40625 -1.79688,0.40625 -0.82812,0 -1.5,-0.21875 -0.67187,-0.21875 -1.15625,-0.625 -0.46875,-0.40625 -0.73437,-1 -0.26563,-0.60938 -0.26563,-1.35938 0,-0.89062 0.35938,-1.54687 0.375,-0.65625 1.04687,-1.09375 0.6875,-0.4375 1.67188,-0.65625 0.98437,-0.21875 2.20312,-0.21875 h 1.45313 v -0.8125 q 0,-0.60938 -0.125,-1.07813 -0.125,-0.46875 -0.42188,-0.78125 -0.28125,-0.3125 -0.73437,-0.46875 -0.45313,-0.15625 -1.125,-0.15625 -0.71875,0 -1.29688,0.17188 -0.5625,0.17187 -0.98437,0.375 -0.42188,0.20312 -0.71875,0.375 -0.28125,0.17187 -0.42188,0.17187 -0.0937,0 -0.17187,-0.0469 -0.0625,-0.0469 -0.125,-0.14063 -0.0469,-0.0937 -0.0781,-0.23437 -0.0156,-0.15625 -0.0156,-0.32813 0,-0.29687 0.0312,-0.46875 0.0469,-0.17187 0.20312,-0.3125 0.17188,-0.15625 0.54688,-0.35937 0.39062,-0.21875 0.89062,-0.375 0.51563,-0.17188 1.10938,-0.28125 0.59375,-0.125 1.20312,-0.125 1.14063,0 1.9375,0.26562 0.79688,0.25 1.28125,0.75 0.5,0.5 0.71875,1.25 0.21875,0.73438 0.21875,1.71875 z m -1.92187,-4.8125 h -1.64063 q -0.79687,0 -1.39062,0.14062 -0.57813,0.125 -0.96875,0.39063 -0.39063,0.26562 -0.57813,0.64062 -0.17187,0.35938 -0.17187,0.84375 0,0.8125 0.51562,1.29688 0.53125,0.48437 1.46875,0.48437 0.75,0 1.40625,-0.375 0.65625,-0.39062 1.35938,-1.1875 z m 11.63668,-5.0625 q 0,0.26562 -0.016,0.4375 0,0.17187 -0.047,0.28125 -0.031,0.0937 -0.078,0.15625 -0.047,0.0469 -0.1406,0.0469 -0.094,0 -0.2344,-0.0469 -0.1406,-0.0625 -0.3125,-0.10938 -0.15621,-0.0625 -0.37496,-0.10937 -0.20312,-0.0469 -0.45312,-0.0469 -0.29688,0 -0.57813,0.125 -0.28125,0.10938 -0.59375,0.39063 -0.3125,0.26562 -0.65625,0.71875 -0.32812,0.4375 -0.73437,1.07812 v 6.9375 q 0,0.0937 -0.0469,0.15625 -0.0469,0.0625 -0.15625,0.125 -0.10937,0.0469 -0.29687,0.0625 -0.1875,0.0312 -0.48438,0.0312 -0.28125,0 -0.46875,-0.0312 -0.1875,-0.0156 -0.29687,-0.0625 -0.10938,-0.0625 -0.15625,-0.125 -0.0312,-0.0625 -0.0312,-0.15625 v -10.54687 q 0,-0.0937 0.0312,-0.15625 0.0312,-0.0625 0.14062,-0.10938 0.10938,-0.0625 0.26563,-0.0781 0.17187,-0.0156 0.4375,-0.0156 0.26562,0 0.42187,0.0156 0.17188,0.0156 0.26563,0.0781 0.0937,0.0469 0.14062,0.10938 0.0469,0.0625 0.0469,0.15625 v 1.53125 q 0.42187,-0.625 0.79687,-1.01563 0.39063,-0.40625 0.73438,-0.625 0.34375,-0.23437 0.67187,-0.32812 0.32813,-0.0937 0.67188,-0.0937 0.15625,0 0.34375,0.0312 0.20312,0.0156 0.40623,0.0625 0.2188,0.0469 0.375,0.10937 0.1719,0.0469 0.2344,0.10938 0.078,0.0625 0.094,0.10937 0.031,0.0469 0.047,0.14063 0.031,0.0781 0.031,0.23437 0,0.15625 0,0.42188 z m 7.125,10.15625 -1.4062,3.875 q -0.062,0.1875 -0.3594,0.28125 -0.2812,0.10937 -0.8594,0.10937 -0.3125,0 -0.5,-0.0312 -0.1875,-0.0312 -0.2968,-0.10937 -0.094,-0.0625 -0.1094,-0.1875 0,-0.10938 0.062,-0.26563 l 1.4531,-3.67187 q -0.094,-0.0469 -0.1875,-0.15625 -0.094,-0.10938 -0.1406,-0.21875 l -3.75,-10.07813 q -0.094,-0.25 -0.094,-0.39062 0,-0.14063 0.094,-0.21875 0.094,-0.0781 0.2969,-0.10938 0.2187,-0.0312 0.5625,-0.0312 0.3593,0 0.5468,0.0156 0.2032,0.0156 0.3125,0.0625 0.125,0.0469 0.1719,0.14062 0.062,0.0781 0.125,0.23438 l 3,8.46875 h 0.047 l 2.9063,-8.51563 q 0.062,-0.21875 0.1562,-0.28125 0.1094,-0.0625 0.2969,-0.0937 0.2031,-0.0312 0.5781,-0.0312 0.3281,0 0.5313,0.0312 0.2187,0.0312 0.3125,0.10938 0.1093,0.0781 0.1093,0.21875 0,0.14062 -0.062,0.35937 z"
     fill-rule="nonzero"
     id="path329" />
</svg>
